<?xml version="1.0" encoding="UTF-8" standalone="no"?>
<svg width="100px" height="100px" viewBox="0 0 100 100" version="1.1" xmlns="http://www.w3.org/2000/svg" xmlns:xlink="http://www.w3.org/1999/xlink" xmlns:sketch="http://www.bohemiancoding.com/sketch/ns">
    <!-- Generator: Sketch 3.3.3 (12081) - http://www.bohemiancoding.com/sketch -->
    <title>boy</title>
    <desc>Created with Sketch.</desc>
    <defs></defs>
    <g id="Home-Page" stroke="none" stroke-width="1" fill="none" fill-rule="evenodd" sketch:type="MSPage">
        <g id="boy" sketch:type="MSLayerGroup">
            <path d="M50,0 C77.614,0 100,22.386 100,50 C100,77.614 77.614,100 50,100 C22.386,100 0,77.614 0,50 C0,22.385 22.386,0 50,0 L50,0 Z" id="Shape" fill="#EFC75E" sketch:type="MSShapeGroup"></path>
            <path d="M83,79 C83,71.268 76.732,65 69,65 L31,65 C23.268,65 17,71.268 17,79 L17,87.547 C25.806,95.293 37.35,100 50,100 C62.649,100 74.193,95.293 83,87.547 L83,79 L83,79 Z" id="Shape" fill="#324D5B" sketch:type="MSShapeGroup"></path>
            <path d="M17,78.556 L17,87.547 C18.583,88.941 20.248,90.243 22,91.43 L22,78.556 C22,70.936 28.268,64.758 36,64.758 L31,64.758 C23.268,64.758 17,70.936 17,78.556 L17,78.556 Z" id="Shape" fill="#2B424D" sketch:type="MSShapeGroup"></path>
            <path d="M41.5,51 L58.5,51 C65.403,51 71,56.597 71,63.5 C71,70.403 65.403,76 58.5,76 L41.5,76 C34.597,76 29,70.403 29,63.5 C29,56.597 34.597,51 41.5,51 L41.5,51 Z" id="Shape" fill="#5B717C" sketch:type="MSShapeGroup"></path>
            <path d="M43,24 L57,24 C63.627,24 69,29.373 69,36 L69,60 C69,66.627 63.627,72 57,72 L43,72 C36.373,72 31,66.627 31,60 L31,36 C31,29.373 36.373,24 43,24 L43,24 Z" id="Shape" fill="#E9AD9A" sketch:type="MSShapeGroup"></path>
            <path d="M50,52.022 L50.0000002,35.9999999 C50.0000002,35.9999999 30.9999999,35.9999998 31,35.9999999 L31,60 C31,66.627 36.373,72 43,72 L50,72 L50,59.99 C44.2857145,52.0220005 50,53.379 50,52.022 Z" id="Shape" fill="#D49F8F" sketch:type="MSShapeGroup"></path>
            <path d="M62.5,42 L56.5,42 C55.672,42 55,42.672 55,43.5 C55,44.328 55.672,45 56.5,45 L62.5,45 C63.328,45 64,44.328 64,43.5 C64,42.672 63.328,42 62.5,42 L62.5,42 Z M43.5,42 L37.5,42 C36.672,42 36,42.672 36,43.5 C36,44.328 36.672,45 37.5,45 L43.5,45 C44.328,45 45,44.328 45,43.5 C45,42.672 44.328,42 43.5,42 L43.5,42 Z" id="Shape" fill="#828282" sketch:type="MSShapeGroup"></path>
            <path d="M40.5,48 C39.119,48 38,49.12 38,50.5 C38,51.881 39.119,53 40.5,53 C41.881,53 43,51.881 43,50.5 C43,49.12 41.881,48 40.5,48 L40.5,48 Z M59.5,48 C58.119,48 57,49.12 57,50.5 C57,51.881 58.119,53 59.5,53 C60.881,53 62,51.881 62,50.5 C62,49.12 60.881,48 59.5,48 L59.5,48 Z" id="Shape" fill="#324D5B" sketch:type="MSShapeGroup"></path>
            <path d="M32,24 C45.885,18.896 74,20.001 74,20.001 C76.129,20.001 77,21.293 77,23 C77,31.692 71.324,36 69,36 L31,36 C28.39,36 27,33.762 27,31 C27,28.918 28.166,25.455 32,24 L32,24 Z" id="Shape" fill="#E37948" sketch:type="MSShapeGroup"></path>
            <path d="M71,34 L33,34 C30.39,34 29,31.762 29,29 C29,27.856 29.356,26.295 30.309,24.88 C27.817,26.571 27,29.264 27,31 C27,31.199 27.023,31.388 27.037,31.581 L27,32 L27,38 C27,40.418 28.718,42.436 31,42.899 L31,36 L69,36 C70.167,36 72.18,34.911 73.895,32.728 C72.786,33.576 71.729,34 71,34 L71,34 Z" id="Shape" fill="#D27043" sketch:type="MSShapeGroup"></path>
        </g>
    </g>
</svg>