<?xml version="1.0" encoding="UTF-8" standalone="no"?>
<svg width="109px" height="50px" viewBox="0 0 109 50" version="1.1" xmlns="http://www.w3.org/2000/svg" xmlns:xlink="http://www.w3.org/1999/xlink" xmlns:sketch="http://www.bohemiancoding.com/sketch/ns">
    <!-- Generator: Sketch 3.3.3 (12081) - http://www.bohemiancoding.com/sketch -->
    <title>castifi</title>
    <desc>Created with Sketch.</desc>
    <defs></defs>
    <g id="Onboard-Profile-Dashboard" stroke="none" stroke-width="1" fill="none" fill-rule="evenodd" sketch:type="MSPage">
        <g id="Profile-Overview" sketch:type="MSArtboardGroup" transform="translate(-280.000000, -28.000000)" fill="#FFFFFF">
            <path d="M376.02802,54.946506 L375.84265,54.8847007 C375.84265,54.8847007 370.744157,63.0886918 365.423992,63.0886918 C366.310686,59.5964523 367.031125,56.1596452 367.19738,55.383592 C371.02125,52.6119734 377.061854,40.361419 377.061854,31.7694013 C377.061854,30.2172949 376.230579,28 373.293403,28 C371.797107,28 370.134555,28.3880266 368.859932,30.9933481 C368.234554,32.2172221 365.394637,43.5558186 362.663801,54.7891855 L362.614972,54.773836 C362.614972,54.773836 358.070663,61.8137472 356.020183,61.8137472 C355.521417,61.8137472 355.355162,61.2594235 355.355162,60.2616408 C355.355162,56.4368071 360.065726,40.5277162 360.065726,40.5277162 C360.065726,40.5277162 359.954889,39.9179601 358.070663,39.9179601 C355.743091,39.9179601 355.41058,40.5277162 355.41058,40.5277162 C355.41058,40.5277162 353.264623,48.2551136 351.869552,54.8296884 L351.869552,54.8296884 L351.770285,54.773836 C351.770285,54.773836 347.281395,61.8137472 343.900873,61.8137472 C343.568362,61.8137472 343.235852,61.6474501 343.235852,60.7605322 C343.235852,58.0997782 345.452588,49.3414634 347.392231,42.0798226 L351.437774,42.0798226 C351.437774,42.0798226 352.435305,41.9689579 352.435305,39.5853658 L348.057252,39.5853658 C349.221039,35.2062084 350.163151,31.8802661 350.163151,31.8802661 C350.163151,31.8802661 349.996896,31.27051 348.112671,31.27051 C345.840516,31.27051 345.452588,31.8802661 345.452588,31.8802661 C345.452588,31.8802661 344.565893,35.1507761 343.457525,39.5853658 L340.021585,39.5853658 C340.021585,39.5853658 339.024054,39.6962306 339.024054,42.0798226 L342.792505,42.0798226 C341.766949,46.1830792 340.648437,50.8597128 339.821971,54.7905514 L339.761811,54.773836 C339.761811,54.773836 336.547544,59.54102 335.439176,59.54102 C335.439176,59.54102 335.771687,57.9889135 335.771687,56.4922395 C335.771687,50.3946785 331.005705,45.0731708 331.005705,40.6940133 C331.726144,39.5299335 333.998298,37.7560975 333.998298,35.4279379 C333.998298,34.54102 333.277859,33.5986696 332.003236,33.5986696 C328.678132,33.5986696 328.179367,35.8713969 328.179367,39.3636364 C326.379222,44.8183915 323.921501,52.1957785 322.255972,54.7768397 L322.255972,54.7768397 L322.246144,54.773836 C322.246144,54.773836 317.701836,61.8137472 315.762192,61.8137472 C315.263427,61.8137472 314.986335,61.3702883 314.986335,60.2616408 C314.986335,56.3813747 319.752317,40.5277162 319.752317,40.5277162 C319.752317,40.5277162 319.530643,39.9179601 317.701836,39.9179601 C315.429682,39.9179601 315.041753,40.5277162 315.041753,40.5277162 L314.265896,43.022173 C313.490038,40.9711752 311.882905,39.5853658 309.167403,39.5853658 C303.857526,39.5853658 299.93256,47.4736532 298.770731,54.8184867 L298.620581,54.773836 C298.620581,54.773836 293.79918,63.0332594 288.811525,63.0332594 C286.373115,63.0332594 284.599727,61.3148559 284.599727,57.1019956 C284.599727,50.8381374 287.758575,42.6341463 291.416189,42.6341463 C292.469139,42.6341463 293.189578,43.5210643 293.189578,44.962306 C293.189578,47.789357 291.416189,50.172949 290.141566,51.6141907 L292.192047,52.7782705 C294.131691,51.1152993 297.179702,48.6208426 297.179702,44.962306 C297.179702,42.0798226 295.627987,39.5853658 291.970373,39.5853658 C284.655145,39.5853658 280,49.1751663 280,57.2682927 C280,63.3104213 283.10343,66.3037694 288.201922,66.3037694 C292.371014,66.3037694 296.139735,62.1515045 298.416603,58.9678319 L298.416603,58.9678319 C298.416358,59.0111636 298.416235,59.0544078 298.416235,59.097561 C298.416235,63.8093126 300.688389,66.3037694 303.625564,66.3037694 C306.895249,66.3037694 309.001148,63.2549889 310.33119,60.5942351 C310.33119,64.3636364 312.270833,66.3037694 314.265896,66.3037694 C317.804435,66.3037694 322.912007,57.7155141 324.022787,55.7715519 L324.022987,55.7716186 C325.907213,52.6674057 328.234785,46.5144124 328.844388,42.9113082 C328.844388,49.3968958 334.774156,61.8137472 328.123948,61.8137472 C325.353029,61.8137472 324.743426,58.3215078 324.743426,58.3215078 L322.692946,58.1552107 C322.692946,58.1552107 322.637527,66.3037694 328.40104,66.3037694 C332.868979,66.3037694 336.52046,62.8633601 338.869194,59.8349363 L338.869194,59.8349363 C338.685464,61.0112312 338.580707,61.9589696 338.580707,62.5898004 C338.580707,64.9179601 340.077003,66.3037694 342.238321,66.3037694 C345.204839,66.3037694 348.692592,62.4937855 351.001449,59.456884 C350.812006,60.6954727 350.700017,61.7565895 350.700017,62.5343681 C350.700017,64.9179601 352.251732,66.3037694 354.357631,66.3037694 C356.635915,66.3037694 359.228259,63.4907844 361.228995,60.7202103 L361.228995,60.7202103 C358.976752,70.072011 357.111232,78 357.111232,78 L361.766377,78 C361.766377,78 363.041001,72.2350333 364.592715,66.3037694 C368.943242,66.3037694 372.772465,62.5571663 375.180081,59.4868279 C374.993408,60.7125762 374.883219,61.7628647 374.883219,62.5343681 C374.883219,64.9179601 376.434934,66.3037694 378.540833,66.3037694 C383.029723,66.3037694 388.737817,55.383592 388.737817,55.383592 L386.798174,54.773836 C386.798174,54.773836 382.253865,61.8137472 380.203385,61.8137472 C379.704619,61.8137472 379.538364,61.2594235 379.538364,60.2616408 C379.538364,56.4368071 384.248927,40.5277162 384.248927,40.5277162 C384.248927,40.5277162 384.138091,39.9179601 382.253865,39.9179601 C379.926293,39.9179601 379.593782,40.5277162 379.593782,40.5277162 C379.593782,40.5277162 377.422303,48.3470162 376.02802,54.946506 L376.02802,54.946506 L376.02802,54.946506 Z M312.347024,47.1241686 C312.347024,52.7228382 308.3569,61.5365854 304.865541,61.5365854 C303.646336,61.5365854 302.648805,60.4279379 302.648805,58.0997782 C302.648805,52.9445677 305.973909,43.5210643 309.576104,43.5210643 C311.46033,43.5210643 312.347024,45.0177383 312.347024,47.1241686 L312.347024,47.1241686 L312.347024,47.1241686 Z M358.846521,36.8137472 C360.619909,36.8137472 361.672859,35.0953437 361.672859,33.654102 C361.672859,32.5454545 361.118675,31.6031042 359.788634,31.6031042 C358.015245,31.6031042 356.962295,33.3215078 356.962295,34.7627494 C356.962295,35.8159645 357.571898,36.8137472 358.846521,36.8137472 L358.846521,36.8137472 L358.846521,36.8137472 Z M374.069261,31.1042129 C374.512608,31.1042129 374.734282,31.4922395 374.734282,33.0443459 C374.734282,37.977827 370.577902,48.0110865 368.139493,51.7250554 C370.134555,42.3569845 372.185036,31.1042129 374.069261,31.1042129 L374.069261,31.1042129 L374.069261,31.1042129 Z M383.029723,36.8137472 C384.803111,36.8137472 385.856061,35.0953437 385.856061,33.654102 C385.856061,32.5454545 385.301877,31.6031042 383.971836,31.6031042 C382.198447,31.6031042 381.145498,33.3215078 381.145498,34.7627494 C381.145498,35.8159645 381.7551,36.8137472 383.029723,36.8137472 L383.029723,36.8137472 L383.029723,36.8137472 Z" id="castifi" sketch:type="MSShapeGroup"></path>
        </g>
    </g>
</svg>