<?xml version="1.0" encoding="UTF-8" standalone="no"?>
<svg width="1591px" height="509px" viewBox="0 0 1591 509" version="1.1" xmlns="http://www.w3.org/2000/svg" xmlns:xlink="http://www.w3.org/1999/xlink" xmlns:sketch="http://www.bohemiancoding.com/sketch/ns">
    <!-- Generator: Sketch 3.3.3 (12081) - http://www.bohemiancoding.com/sketch -->
    <title>Group</title>
    <desc>Created with Sketch.</desc>
    <defs>
        <rect id="path-1" x="0" y="0" width="1591" height="508.932599"></rect>
        <path id="path-3" d="M1081.06212,65.9540348 C1018.42353,65.9540348 967.643932,116.751963 967.643932,179.415979 C967.643932,242.079994 1018.42353,292.882461 1081.06212,292.882461 C1143.70072,292.882461 1194.48032,242.079994 1194.48032,179.415979 C1194.48032,116.751963 1143.70072,65.9540348 1081.06212,65.9540348 L1081.06212,65.9540348 Z"></path>
    </defs>
    <g id="Iconography" stroke="none" stroke-width="1" fill="none" fill-rule="evenodd" sketch:type="MSPage">
        <g id="Group" sketch:type="MSLayerGroup">
            <mask id="mask-2" sketch:name="Mask" fill="white">
                <use xlink:href="#path-1"></use>
            </mask>
            <use id="Mask" fill="#EFC75E" sketch:type="MSShapeGroup" xlink:href="#path-1"></use>
            <g mask="url(#mask-2)">
                <g transform="translate(191.000000, 243.000000)">
                    <path d="M697.004225,0.319351462 L510.995775,0.319351462 C495.367021,0.319351462 482.690141,12.9491665 482.690141,28.5198955 L482.690141,266.214224 C516.483024,291.502054 558.484541,306.500715 604,306.500715 C649.523546,306.500715 691.525063,291.502054 725.309859,266.214224 L725.309859,28.5198955 C725.309859,12.9491665 712.641066,0.319351462 697.004225,0.319351462 L697.004225,0.319351462 Z" id="Shape" stroke="none" fill="#E4E7E7" fill-rule="evenodd" sketch:type="MSShapeGroup"></path>
                    <path d="M707.67395,47.9475636 L498.058576,47.9475636 C495.833428,47.9475636 494.027511,49.7574073 494.027511,51.9873934 L494.027511,274.472944 C525.425475,294.712491 562.765229,306.500715 602.866263,306.500715 C642.971328,306.500715 680.307051,294.712491 711.705015,274.472944 L711.705015,51.9873934 C711.705015,49.7574073 709.903129,47.9475636 707.67395,47.9475636 L707.67395,47.9475636 Z" id="Shape" stroke="none" fill="#344C59" fill-rule="evenodd" sketch:type="MSShapeGroup"></path>
                    <path d="M704.902593,57.019604 L503.097407,57.019604 L503.097407,279.52054 C532.786986,296.646211 567.235131,306.500715 604,306.500715 C640.772941,306.500715 675.21705,296.646211 704.902593,279.52054 L704.902593,57.019604 L704.902593,57.019604 Z" id="Shape" stroke="none" fill="#3F5E6D" fill-rule="evenodd" sketch:type="MSShapeGroup"></path>
                    <path d="M622.820034,16.1954222 L582.005502,16.1954222 C579.748459,16.1954222 577.924049,18.2310774 577.924049,20.7291755 C577.924049,23.2363411 579.748459,25.2674626 582.005502,25.2674626 L622.820034,25.2674626 C625.077078,25.2674626 626.901487,23.2363411 626.901487,20.7291755 C626.901487,18.2310774 625.077078,16.1954222 622.820034,16.1954222 L622.820034,16.1954222 Z M639.145847,16.1954222 C636.888803,16.1954222 635.064394,18.2310774 635.064394,20.7291755 C635.064394,23.2363411 636.888803,25.2674626 639.145847,25.2674626 C641.402891,25.2674626 643.2273,23.2363411 643.2273,20.7291755 C643.2273,18.2310774 641.402891,16.1954222 639.145847,16.1954222 L639.145847,16.1954222 Z M655.47166,16.1954222 C653.214616,16.1954222 651.390207,18.2310774 651.390207,20.7291755 C651.390207,23.2363411 653.214616,25.2674626 655.47166,25.2674626 C657.728703,25.2674626 659.553113,23.2363411 659.553113,20.7291755 C659.553113,18.2310774 657.728703,16.1954222 655.47166,16.1954222 L655.47166,16.1954222 Z" id="Shape" stroke="none" fill="#BFC3C5" fill-rule="evenodd" sketch:type="MSShapeGroup"></path>
                    <path d="M518.51623,152.276028 C512.50561,152.276028 507.632355,156.337978 507.632355,161.347943 L507.632355,283.127054 C532.175493,303.187324 565.779458,306.500715 602.866263,306.500715 C639.955789,306.500715 673.557033,303.187324 698.100171,283.127054 L698.100171,161.347943 C698.100171,156.337978 693.226916,152.276028 687.216296,152.276028 L518.51623,152.276028 Z" id="Shape" stroke="none" fill="#E2574C" fill-rule="evenodd" sketch:type="MSShapeGroup"></path>
                    <path d="M529.056075,172.688119 C525.991701,172.688119 523.504673,174.720224 523.504673,177.224067 L523.504673,294.52142 C546.212682,307.759585 573.980794,311.036735 604,311.036735 C634.019206,311.036735 661.787318,307.759585 684.495327,294.52142 L684.495327,177.224067 C684.495327,174.720224 682.008299,172.688119 678.943925,172.688119 L529.056075,172.688119 Z" id="Shape" stroke="none" fill="#F0DDAB" fill-rule="evenodd" sketch:type="MSShapeGroup"></path>
                    <path d="M687.216296,152.276028 L518.51623,152.276028 C512.50561,152.276028 507.632355,156.338034 507.632355,161.348069 L507.632355,165.884089 C507.632355,160.874054 512.50561,156.812048 518.51623,156.812048 L687.216296,156.812048 C693.226916,156.812048 698.100171,160.874054 698.100171,165.884089 L698.100171,161.348069 C698.100171,156.338034 693.226916,152.276028 687.216296,152.276028 L687.216296,152.276028 Z" id="Shape" stroke="none" fill="#BF392B" fill-rule="evenodd" sketch:type="MSShapeGroup"></path>
                    <path d="M654.56467,272.480563 L551.167856,272.480563 C549.66316,272.480563 548.446887,273.494364 548.446887,274.748574 C548.446887,276.002783 549.66316,277.016584 551.167856,277.016584 L654.56467,277.016584 C656.069366,277.016584 657.285639,276.002783 657.285639,274.748574 C657.285639,273.494364 656.069366,272.480563 654.56467,272.480563 L654.56467,272.480563 Z M654.56467,249.800462 L551.167856,249.800462 C549.66316,249.800462 548.446887,250.814263 548.446887,252.068473 C548.446887,253.322682 549.66316,254.336483 551.167856,254.336483 L654.56467,254.336483 C656.069366,254.336483 657.285639,253.322682 657.285639,252.068473 C657.285639,250.814263 656.069366,249.800462 654.56467,249.800462 L654.56467,249.800462 Z M654.56467,227.120361 L551.167856,227.120361 C549.66316,227.120361 548.446887,228.13643 548.446887,229.388372 C548.446887,230.642581 549.66316,231.656382 551.167856,231.656382 L654.56467,231.656382 C656.069366,231.656382 657.285639,230.642581 657.285639,229.388372 C657.285639,228.13643 656.069366,227.120361 654.56467,227.120361 L654.56467,227.120361 Z M654.56467,295.160664 L551.167856,295.160664 C549.66316,295.160664 548.446887,296.174465 548.446887,297.428675 C548.446887,298.682884 549.66316,299.696685 551.167856,299.696685 L654.56467,299.696685 C656.069366,299.696685 657.285639,298.682884 657.285639,297.428675 C657.285639,296.174465 656.069366,295.160664 654.56467,295.160664 L654.56467,295.160664 Z M551.167856,208.976281 L654.56467,208.976281 C656.069366,208.976281 657.285639,207.96248 657.285639,206.708271 C657.285639,205.456329 656.069366,204.44026 654.56467,204.44026 L551.167856,204.44026 C549.66316,204.44026 548.446887,205.456329 548.446887,206.708271 C548.446887,207.96248 549.66316,208.976281 551.167856,208.976281 L551.167856,208.976281 Z" id="Shape" stroke="none" fill="#D8C69A" fill-rule="evenodd" sketch:type="MSShapeGroup"></path>
                    <path d="M551.156795,161.348069 L656.843205,161.348069 C658.341784,161.348069 659.553113,162.364137 659.553113,163.616079 L659.553113,179.492149 C659.553113,183.250242 655.910997,186.29618 651.423389,186.29618 L556.576611,186.29618 C552.089003,186.29618 548.446887,183.250242 548.446887,179.492149 L548.446887,163.616079 C548.446887,162.364137 549.658216,161.348069 551.156795,161.348069 L551.156795,161.348069 Z M587.344906,138.667968 L621.614402,138.667968 C626.102009,138.667968 628.44608,141.41226 629.744126,145.471998 L635.163941,161.348069 L575.545966,161.348069 L580.965782,145.471998 C581.757076,142.591625 583.336952,138.667968 587.344906,138.667968 L587.344906,138.667968 Z" id="Shape" stroke="none" fill="#CCD0D2" fill-rule="evenodd" sketch:type="MSShapeGroup"></path>
                    <path d="M577.443963,156.812048 L575.656575,161.348069 L634.610899,161.348069 L632.826191,156.812048 L577.443963,156.812048 Z" id="Shape" stroke="none" fill="#A4A7A9" fill-rule="evenodd" sketch:type="MSShapeGroup"></path>
                    <path d="M656.843205,161.348069 L551.156795,161.348069 C549.658216,161.348069 548.446887,162.364137 548.446887,163.616079 L548.446887,170.420109 C548.446887,169.168167 549.658216,168.152099 551.156795,168.152099 L656.843205,168.152099 C658.341784,168.152099 659.553113,169.168167 659.553113,170.420109 L659.553113,163.616079 C659.553113,162.364137 658.341784,161.348069 656.843205,161.348069 L656.843205,161.348069 Z" id="Shape" stroke="none" fill="#B7BBBD" fill-rule="evenodd" sketch:type="MSShapeGroup"></path>
                    <path d="M713.972489,182.751116 C708.32966,173.097711 700.449837,164.959054 691.051471,159.080058 C672.094176,178.370253 639.623754,211.410873 639.003274,212.040864 C637.156802,213.919762 631.245915,241.525841 632.522253,242.824593 C633.829887,244.156574 660.300976,237.36513 662.09438,235.537463 L713.972489,182.751116 L713.972489,182.751116 Z" id="Shape" stroke="none" fill="#BF392B" fill-rule="evenodd" sketch:type="MSShapeGroup"></path>
                    <path d="M650.367774,223.283626 C649.024825,221.868905 648.852238,215.660324 647.498503,214.235659 C646.146116,212.808154 638.944624,211.245711 638.93923,211.244291 C637.182341,213.095076 631.717513,239.260319 632.40247,242.524405 L632.800231,242.944845 C635.877147,243.638001 660.113587,237.14818 661.820587,235.348529 C661.820587,235.348529 660.275388,227.693978 658.952665,226.301983 C657.629941,224.907147 651.713419,224.699768 650.367774,223.283626 L650.367774,223.283626 Z" id="Shape" stroke="none" fill="#FFCABA" fill-rule="evenodd" sketch:type="MSShapeGroup"></path>
                    <path d="M632.343425,242.348054 L632.37851,242.545605 L632.777945,242.947473 C635.862764,243.606429 660.112196,237.425507 661.820587,235.71114 C661.820587,235.71114 660.333504,228.480218 658.980016,227.120361 C636.418733,239.989615 632.895346,242.026018 632.343425,242.348054 L632.343425,242.348054 Z" id="Shape" stroke="none" fill="#E5B5A7" fill-rule="evenodd" sketch:type="MSShapeGroup"></path>
                    <path d="M632.360671,240.728422 C632.791324,240.021171 635.157795,236.079225 648.215743,214.092228 C646.79812,212.73317 639.251111,211.244291 639.251111,211.244291 C637.462139,212.956299 631.997794,236.574166 632.360671,240.728422 L632.360671,240.728422 Z" id="Shape" stroke="none" fill="#FFDCD2" fill-rule="evenodd" sketch:type="MSShapeGroup"></path>
                    <path d="M637.303587,237.855585 C636.324395,236.965103 634.643948,236.299829 633.083227,236.192402 C632.419029,239.780218 632.121138,242.464609 632.530204,242.836075 C632.927867,243.19848 635.564702,242.916322 639.139394,242.29376 C639.226338,240.723767 638.425311,238.874204 637.303587,237.855585 L637.303587,237.855585 Z" id="Shape" stroke="none" fill="#BF392B" fill-rule="evenodd" sketch:type="MSShapeGroup"></path>
                    <path d="M647.803809,213.512285 C647.783354,213.544655 698.100171,163.808722 698.100171,163.808722 C695.936022,162.103921 693.673688,160.519158 691.309078,159.080058 L639.145847,210.67185 C649.993868,213.512287 646.434681,212.158156 647.803809,213.512285 Z" id="Shape" stroke="none" fill="#C9574B" fill-rule="evenodd" sketch:type="MSShapeGroup"></path>
                    <path d="M215.50327,4.68335966 L29.3005032,4.68335966 C13.6554228,4.68335966 0.965299458,17.3202701 0.965299458,32.8997467 L0.965299458,270.727611 C34.7934848,296.029648 76.8388792,311.036735 122.401887,311.036735 C167.97299,311.036735 210.018385,296.029648 243.838474,270.727611 L243.838474,32.8997467 C243.838474,17.3202701 231.156447,4.68335966 215.50327,4.68335966 L215.50327,4.68335966 Z" id="Shape" stroke="none" fill="#E4E7E7" fill-rule="evenodd" sketch:type="MSShapeGroup"></path>
                    <path d="M226.184142,52.3383292 L16.3497892,52.3383292 C14.1223169,52.3383292 12.3145132,54.1491897 12.3145132,56.3804286 L12.3145132,278.990971 C43.7452781,299.241889 81.1240397,311.036735 121.266965,311.036735 C161.413926,311.036735 198.788653,299.241889 230.219418,278.990971 L230.219418,56.3804286 C230.219418,54.1491897 228.415649,52.3383292 226.184142,52.3383292 L226.184142,52.3383292 Z" id="Shape" stroke="none" fill="#344C59" fill-rule="evenodd" sketch:type="MSShapeGroup"></path>
                    <path d="M223.409889,61.4154662 L21.3938842,61.4154662 L21.3938842,284.041403 C51.1144789,301.176695 85.598611,311.036735 122.401887,311.036735 C159.213243,311.036735 193.693335,301.176695 223.409889,284.041403 L223.409889,61.4154662 L223.409889,61.4154662 Z" id="Shape" stroke="none" fill="#3F5E6D" fill-rule="evenodd" sketch:type="MSShapeGroup"></path>
                    <path d="M141.241582,20.5683495 L100.384412,20.5683495 C98.1250106,20.5683495 96.2986951,22.6051484 96.2986951,25.1046499 C96.2986951,27.613224 98.1250106,29.6454866 100.384412,29.6454866 L141.241582,29.6454866 C143.500983,29.6454866 145.327299,27.613224 145.327299,25.1046499 C145.327299,22.6051484 143.500983,20.5683495 141.241582,20.5683495 L141.241582,20.5683495 Z M157.584449,20.5683495 C155.325048,20.5683495 153.498733,22.6051484 153.498733,25.1046499 C153.498733,27.613224 155.325048,29.6454866 157.584449,29.6454866 C159.843851,29.6454866 161.670166,27.613224 161.670166,25.1046499 C161.670166,22.6051484 159.843851,20.5683495 157.584449,20.5683495 L157.584449,20.5683495 Z M173.927317,20.5683495 C171.667916,20.5683495 169.8416,22.6051484 169.8416,25.1046499 C169.8416,27.613224 171.667916,29.6454866 173.927317,29.6454866 C176.186719,29.6454866 178.013034,27.613224 178.013034,25.1046499 C178.013034,22.6051484 176.186719,20.5683495 173.927317,20.5683495 L173.927317,20.5683495 Z" id="Shape" stroke="none" fill="#BFC3C5" fill-rule="evenodd" sketch:type="MSShapeGroup"></path>
                    <path d="M48.6319973,171.542497 L48.6319973,208.918943 L97.8119236,155.52402 L97.8119236,141.31741 L74.7676153,141.276474 L48.6319973,171.542497 L48.6319973,171.542497 Z M169.667309,140.847535 L146.99185,140.840415 L146.99185,155.52402 L196.171776,208.918943 L196.171776,171.542497 L169.667309,140.847535 L169.667309,140.847535 Z" id="Shape" stroke="none" fill="#227F9E" fill-rule="evenodd" sketch:type="MSShapeGroup"></path>
                    <path d="M144.990483,110.799414 L111.656305,110.799414 L109.899007,109.070436 L95.78615,109.070436 C94.7370433,109.070436 94.0288524,109.879598 94.0288524,110.63689 L94.0288524,141.921027 C94.0288524,143.829819 95.603391,145.378984 97.5434476,145.378984 L144.990483,145.378984 C146.93054,145.378984 148.505078,143.829819 148.505078,141.921027 L148.505078,114.257371 C148.505078,112.348579 146.93054,110.799414 144.990483,110.799414 L144.990483,110.799414 Z" id="Shape" stroke="none" fill="#816B32" fill-rule="evenodd" sketch:type="MSShapeGroup"></path>
                    <path d="M95.2610527,113.609004 L149.542721,113.609004 C151.475849,113.609004 153.044764,115.133963 153.044764,117.012931 L153.044764,144.244342 C153.044764,146.123309 151.475849,147.648268 149.542721,147.648268 L95.2610527,147.648268 C93.3279249,147.648268 91.7590096,146.123309 91.7590096,144.244342 L91.7590096,117.012931 C91.7590096,115.133963 93.3279249,113.609004 95.2610527,113.609004 L95.2610527,113.609004 Z" id="Shape" stroke="none" fill="#8F7738" fill-rule="evenodd" sketch:type="MSShapeGroup"></path>
                    <path d="M158.647997,120.416857 L140.993664,120.416857 C140.506405,120.416857 137.408069,123.44171 137.408069,123.923933 L86.2105051,123.923933 C84.2614668,123.923933 82.6796386,125.495103 82.6796386,127.431008 L82.6796386,155.487614 C82.6796386,157.42352 84.2614668,158.99469 86.2105051,158.99469 L158.593268,158.99469 C160.542307,158.99469 162.124135,157.42352 162.124135,155.487614 L162.124135,123.869573 C162.124135,122.002055 160.379887,120.416857 158.647997,120.416857 L158.647997,120.416857 Z" id="Shape" stroke="none" fill="#B09246" fill-rule="evenodd" sketch:type="MSShapeGroup"></path>
                    <path d="M81.6605255,127.22471 L160.873405,127.22471 C162.816761,127.22471 164.393978,128.749669 164.393978,130.628636 L164.393978,157.860047 C164.393978,159.739015 162.816761,161.263974 160.873405,161.263974 L81.6605255,161.263974 C79.7171696,161.263974 78.1399531,159.739015 78.1399531,157.860047 L78.1399531,130.628636 C78.1399531,128.749669 79.7171696,127.22471 81.6605255,127.22471 L81.6605255,127.22471 Z" id="Shape" stroke="none" fill="#BF9F4B" fill-rule="evenodd" sketch:type="MSShapeGroup"></path>
                    <path d="M74.8525946,136.301847 L169.951179,136.301847 C171.895417,136.301847 173.473349,137.826806 173.473349,139.705773 L173.473349,166.937184 C173.473349,168.816152 171.895417,170.341111 169.951179,170.341111 L74.8525946,170.341111 C72.9083569,170.341111 71.3304248,168.816152 71.3304248,166.937184 L71.3304248,139.705773 C71.3304248,137.826806 72.9083569,136.301847 74.8525946,136.301847 L74.8525946,136.301847 Z" id="Shape" stroke="none" fill="#DCB757" fill-rule="evenodd" sketch:type="MSShapeGroup"></path>
                    <path d="M88.444468,127.344822 L159.524625,146.463637 C161.394142,146.964866 162.504988,148.894159 162.003881,150.77069 L153.840736,181.349186 C153.341381,183.225718 151.417549,184.338974 149.549785,183.835987 L78.4678752,164.718931 C76.6001113,164.215943 75.4892648,162.28665 75.9903722,160.410118 L84.1535169,129.831622 C84.6546243,127.956849 86.5767041,126.843593 88.444468,127.344822 L88.444468,127.344822 Z" id="Shape" stroke="none" fill="#E4E7E7" fill-rule="evenodd" sketch:type="MSShapeGroup"></path>
                    <path d="M70.3373686,143.1097 L176.736248,143.1097 C178.693987,143.1097 180.282877,144.634659 180.282877,146.513626 L180.282877,173.745037 C180.282877,175.624005 178.693987,177.148964 176.736248,177.148964 L70.3373686,177.148964 C68.3796293,177.148964 66.7907393,175.624005 66.7907393,173.745037 L66.7907393,146.513626 C66.7907393,144.634659 68.3796293,143.1097 70.3373686,143.1097 L70.3373686,143.1097 Z" id="Shape" stroke="none" fill="#EFC75E" fill-rule="evenodd" sketch:type="MSShapeGroup"></path>
                    <path d="M53.9012751,165.802542 L190.902498,165.802542 C193.812896,165.802542 196.171776,168.174701 196.171776,171.097539 L196.171776,224.047505 C196.171776,226.972108 193.812896,229.342502 190.902498,229.342502 L53.9012751,229.342502 C50.9908773,229.342502 48.6319973,226.972108 48.6319973,224.047505 L48.6319973,171.097539 C48.6319973,168.174701 50.9908773,165.802542 53.9012751,165.802542 L53.9012751,165.802542 Z" id="Shape" stroke="none" fill="#2EA9D3" fill-rule="evenodd" sketch:type="MSShapeGroup"></path>
                    <path d="M89.7852333,188.495385 C85.8611686,188.495385 82.6796386,191.543601 82.6796386,195.303238 C82.6796386,199.062874 85.8611686,202.111091 89.7852333,202.111091 C93.709298,202.111091 96.890828,199.062874 96.890828,195.303238 C96.890828,191.543601 93.709298,188.495385 89.7852333,188.495385 L89.7852333,188.495385 Z M157.288383,188.495385 C153.364318,188.495385 150.182788,191.543601 150.182788,195.303238 C150.182788,199.062874 153.364318,202.111091 157.288383,202.111091 C161.212448,202.111091 164.393978,199.062874 164.393978,195.303238 C164.393978,191.543601 161.212448,188.495385 157.288383,188.495385 L157.288383,188.495385 Z" id="Shape" stroke="none" fill="#4DC6EF" fill-rule="evenodd" sketch:type="MSShapeGroup"></path>
                    <path d="M156.287396,195.303238 C154.31847,195.303238 152.720501,196.929861 152.720501,198.934093 L152.720501,200.74952 C152.720501,203.757683 150.32533,206.195802 147.370157,206.195802 L97.4336165,206.195802 C94.4784434,206.195802 92.0832729,203.757683 92.0832729,200.74952 L92.0832729,198.934093 C92.0832729,196.929861 90.4853036,195.303238 88.5163771,195.303238 C86.5474507,195.303238 84.9494814,196.929861 84.9494814,198.934093 L84.9494814,204.380375 C84.9494814,209.394585 88.9408377,213.457512 93.8667208,213.457512 L150.937053,213.457512 C155.862936,213.457512 159.854292,209.394585 159.854292,204.380375 L159.854292,198.934093 C159.854292,196.929861 158.256323,195.303238 156.287396,195.303238 L156.287396,195.303238 Z" id="Shape" stroke="none" fill="#E4E7E7" fill-rule="evenodd" sketch:type="MSShapeGroup"></path>
                    <path d="M125.806651,182.822174 C125.806651,180.943207 124.281317,179.418248 122.401887,179.418248 C120.522457,179.418248 118.997123,180.943207 118.997123,182.822174 C118.997123,184.03227 119.633814,185.087487 120.585445,185.693386 L118.997123,193.033953 L125.806651,193.033953 L124.218328,185.693386 C125.16996,185.087487 125.806651,184.03227 125.806651,182.822174 L125.806651,182.822174 Z" id="Shape" stroke="none" fill="#207693" fill-rule="evenodd" sketch:type="MSShapeGroup"></path>
                    <path d="M80.4097959,145.378984 L155.314607,145.378984 L142.102255,140.840415 L81.35872,140.840415 L80.4097959,145.378984 Z" id="Shape" stroke="none" fill="#D8DBDB" fill-rule="evenodd" sketch:type="MSShapeGroup"></path>
                    <path d="M190.902498,165.802542 L53.9012751,165.802542 C50.9908773,165.802542 48.6319973,168.242477 48.6319973,171.248825 L48.6319973,174.879679 C48.6319973,171.873332 50.9908773,169.433397 53.9012751,169.433397 L190.902498,169.433397 C193.812896,169.433397 196.171776,171.873332 196.171776,174.879679 L196.171776,171.248825 C196.171776,168.242477 193.812896,165.802542 190.902498,165.802542 L190.902498,165.802542 Z" id="Shape" stroke="none" fill="#58BADC" fill-rule="evenodd" sketch:type="MSShapeGroup"></path>
                    <path d="M150.937053,213.835726 L93.8667208,213.835726 C88.9408377,213.835726 84.9494814,209.603511 84.9494814,204.380375 L84.9494814,206.271445 C84.9494814,211.494581 88.9408377,215.726796 93.8667208,215.726796 L150.937053,215.726796 C155.862936,215.726796 159.854292,211.494581 159.854292,206.271445 L159.854292,204.380375 C159.854292,209.603511 155.862936,213.835726 150.937053,213.835726 L150.937053,213.835726 Z" id="Shape" stroke="none" fill="#2998BE" fill-rule="evenodd" sketch:type="MSShapeGroup"></path>
                    <path d="M190.902498,227.980931 L53.9012751,227.980931 C50.9908773,227.980931 48.6319973,225.542812 48.6319973,222.534649 L48.6319973,226.165504 C48.6319973,229.173667 50.9908773,231.611786 53.9012751,231.611786 L190.902498,231.611786 C193.812896,231.611786 196.171776,229.173667 196.171776,226.165504 L196.171776,222.534649 C196.171776,225.542812 193.812896,227.980931 190.902498,227.980931 L190.902498,227.980931 Z" id="Shape" stroke="none" fill="#249CC5" fill-rule="evenodd" sketch:type="MSShapeGroup"></path>
                    <path d="M1179.77376,4.68335966 L993.69231,4.68335966 C978.057423,4.68335966 965.375568,17.3202701 965.375568,32.8997467 L965.375568,270.727611 C999.181713,296.029648 1041.19971,311.036735 1086.73303,311.036735 C1132.27445,311.036735 1174.29245,296.029648 1208.0905,270.727611 L1208.0905,32.8997467 C1208.0905,17.3202701 1195.41674,4.68335966 1179.77376,4.68335966 L1179.77376,4.68335966 Z" id="Shape" stroke="none" fill="#E4E7E7" fill-rule="evenodd" sketch:type="MSShapeGroup"></path>
                    <path d="M1190.44767,52.3383292 L980.750034,52.3383292 C978.524013,52.3383292 976.717387,54.1491897 976.717387,56.3804286 L976.717387,278.990971 C1008.12767,299.241889 1045.48208,311.036735 1085.59885,311.036735 C1125.71966,311.036735 1163.07003,299.241889 1194.48032,278.990971 L1194.48032,56.3804286 C1194.48032,54.1491897 1192.67773,52.3383292 1190.44767,52.3383292 L1190.44767,52.3383292 Z" id="Shape" stroke="none" fill="#344C59" fill-rule="evenodd" sketch:type="MSShapeGroup"></path>
                    <path d="M1187.67523,61.4154662 L985.790843,61.4154662 L985.790843,284.041403 C1015.49207,301.176695 1049.95374,311.036735 1086.73303,311.036735 C1123.52041,311.036735 1157.97803,301.176695 1187.67523,284.041403 L1187.67523,61.4154662 L1187.67523,61.4154662 Z" id="Shape" stroke="none" fill="#3F5E6D" fill-rule="evenodd" sketch:type="MSShapeGroup"></path>
                    <path d="M1105.56045,20.5683495 L1064.72991,20.5683495 C1062.47198,20.5683495 1060.64685,22.6051484 1060.64685,25.1046499 C1060.64685,27.613224 1062.47198,29.6454866 1064.72991,29.6454866 L1105.56045,29.6454866 C1107.81838,29.6454866 1109.64351,27.613224 1109.64351,25.1046499 C1109.64351,22.6051484 1107.81838,20.5683495 1105.56045,20.5683495 L1105.56045,20.5683495 Z M1121.89267,20.5683495 C1119.63475,20.5683495 1117.80962,22.6051484 1117.80962,25.1046499 C1117.80962,27.613224 1119.63475,29.6454866 1121.89267,29.6454866 C1124.1506,29.6454866 1125.97573,27.613224 1125.97573,25.1046499 C1125.97573,22.6051484 1124.1506,20.5683495 1121.89267,20.5683495 L1121.89267,20.5683495 Z M1138.22489,20.5683495 C1135.96696,20.5683495 1134.14184,22.6051484 1134.14184,25.1046499 C1134.14184,27.613224 1135.96696,29.6454866 1138.22489,29.6454866 C1140.48282,29.6454866 1142.30795,27.613224 1142.30795,25.1046499 C1142.30795,22.6051484 1140.48282,20.5683495 1138.22489,20.5683495 L1138.22489,20.5683495 Z" id="Shape" stroke="none" fill="#BFC3C5" fill-rule="evenodd" sketch:type="MSShapeGroup"></path>
                    <mask id="mask-4" sketch:name="a" fill="white">
                        <use xlink:href="#path-3"></use>
                    </mask>
                    <g id="a"></g>
                    <path d="M1132.37408,118.145304 C1135.3551,118.145304 1137.77122,121.195222 1137.77122,124.953156 L1137.77122,233.878801 C1137.77122,237.639005 1135.3551,240.686654 1132.37408,240.686654 L986.651256,240.686654 L986.651256,118.145304 L1132.37408,118.145304 Z" id="Shape" stroke="none" fill="#EFEFEF" fill-rule="evenodd" sketch:type="MSShapeGroup" mask="url(#mask-4)"></path>
                    <path d="M1117.35595,146.511357 L1074.25703,146.511357 C1071.75276,146.511357 1069.72031,148.544636 1069.72031,151.049925 L1069.72031,160.127062 C1069.72031,162.632352 1071.75276,164.665631 1074.25703,164.665631 L1117.35595,164.665631 C1119.86022,164.665631 1121.89267,162.632352 1121.89267,160.127062 L1121.89267,151.049925 C1121.89267,148.544636 1119.86022,146.511357 1117.35595,146.511357 L1117.35595,146.511357 Z M987.128596,146.511357 L987.128596,164.665631 L1050.23564,164.665631 C1052.22622,164.665631 1053.84176,162.632352 1053.84176,160.127062 L1053.84176,151.049925 C1053.84176,148.544636 1052.22622,146.511357 1050.23564,146.511357 L987.128596,146.511357 Z M1049.30503,194.166326 L1033.42648,194.166326 C1030.92221,194.166326 1028.88976,196.199605 1028.88976,198.704895 L1028.88976,207.782032 C1028.88976,210.287322 1030.92221,212.3206 1033.42648,212.3206 L1049.30503,212.3206 C1051.8093,212.3206 1053.84176,210.287322 1053.84176,207.782032 L1053.84176,198.704895 C1053.84176,196.199605 1051.8093,194.166326 1049.30503,194.166326 L1049.30503,194.166326 Z M999.401026,194.166326 C996.896752,194.166326 994.864298,196.199605 994.864298,198.704895 L994.864298,207.782032 C994.864298,210.287322 996.896752,212.3206 999.401026,212.3206 L1015.27957,212.3206 C1017.78385,212.3206 1019.8163,210.287322 1019.8163,207.782032 L1019.8163,198.704895 C1019.8163,196.199605 1017.78385,194.166326 1015.27957,194.166326 L999.401026,194.166326 Z" id="Shape" stroke="none" fill="#CCD0D2" fill-rule="evenodd" sketch:type="MSShapeGroup" mask="url(#mask-4)"></path>
                    <path d="M1098.07485,200.97191 C1098.07485,207.863726 1092.48787,213.452973 1085.59885,213.452973 C1078.70983,213.452973 1073.12285,207.863726 1073.12285,200.97191 C1073.12285,194.080094 1078.70983,188.490846 1085.59885,188.490846 C1092.48787,188.490846 1098.07485,194.080094 1098.07485,200.97191 Z" id="Shape" stroke="none" fill="#FF6A6A" fill-rule="evenodd" sketch:type="MSShapeGroup" mask="url(#mask-4)"></path>
                    <path d="M1060.23607,196.404468 L1103.29324,187.770373 C1104.54507,187.518917 1105.76349,188.332383 1106.01339,189.583869 L1121.67212,267.858532 C1121.92318,269.111177 1121.11243,270.331376 1119.8606,270.581674 L1076.80343,279.216928 C1075.55161,279.467225 1074.33318,278.654918 1074.08328,277.402273 L1058.42455,199.127609 C1058.1735,197.874965 1058.98424,196.655924 1060.23607,196.404468 L1060.23607,196.404468 Z" id="Shape" stroke="none" fill="#2B8272" fill-rule="evenodd" sketch:type="MSShapeGroup" mask="url(#mask-4)"></path>
                    <path d="M1101.69478,193.294294 C1101.56925,192.665074 1100.95658,192.257182 1100.32894,192.38349 L1063.91783,199.684984 C1063.28904,199.810133 1062.88251,200.423129 1063.00689,201.052349 L1066.88098,220.416779 C1067.0065,221.04484 1067.61917,221.45389 1068.24796,221.326424 C1068.87675,221.201275 1069.28328,220.588279 1069.15775,219.95906 L1065.51169,201.732555 L1099.64718,194.88878 L1103.29324,213.114126 C1103.41877,213.743345 1104.03144,214.151237 1104.66023,214.024929 C1105.28787,213.899781 1105.69554,213.285626 1105.57002,212.657565 L1101.69478,193.294294 L1101.69478,193.294294 Z" id="Shape" stroke="none" fill="#4B9587" fill-rule="evenodd" sketch:type="MSShapeGroup" mask="url(#mask-4)"></path>
                    <path d="M1072.11168,183.176955 L1115.80686,178.892933 C1117.07826,178.768943 1118.20917,179.699446 1118.33354,180.97179 L1126.1796,260.424937 C1126.30513,261.697281 1125.37807,262.828253 1124.10667,262.953402 L1080.41149,267.237424 C1079.14009,267.361414 1078.00919,266.43207 1077.88481,265.158567 L1070.03875,185.705421 C1069.91322,184.433076 1070.84028,183.300945 1072.11168,183.176955 L1072.11168,183.176955 Z" id="Shape" stroke="none" fill="#359685" fill-rule="evenodd" sketch:type="MSShapeGroup" mask="url(#mask-4)"></path>
                    <path d="M1113.67174,184.229131 C1113.6084,183.590641 1113.04065,183.123651 1112.40264,183.186225 L1075.45026,186.807424 C1074.81226,186.869998 1074.34585,187.438961 1074.40919,188.07745 L1076.35199,207.732735 C1076.41533,208.372384 1076.98308,208.838215 1077.62109,208.77564 C1078.25909,208.713066 1078.72435,208.145262 1078.66101,207.505614 L1076.83452,189.006795 L1111.47788,185.611559 L1113.30552,204.111537 C1113.36886,204.750027 1113.93662,205.218175 1114.57462,205.154442 C1115.21262,205.090709 1115.67788,204.522905 1115.61454,203.884415 L1113.67174,184.229131 L1113.67174,184.229131 Z" id="Shape" stroke="none" fill="#52A597" fill-rule="evenodd" sketch:type="MSShapeGroup" mask="url(#mask-4)"></path>
                    <path d="M1087.16926,171.498736 L1130.93123,171.498736 C1132.20263,171.498736 1133.23449,172.537006 1133.23449,173.816302 L1133.23449,256.089928 C1133.23449,257.369225 1132.20263,258.407495 1130.93123,258.407495 L1087.16926,258.407495 C1085.89786,258.407495 1084.866,257.369225 1084.866,256.089928 L1084.866,173.816302 C1084.866,172.537006 1085.89786,171.498736 1087.16926,171.498736 L1087.16926,171.498736 Z" id="Shape" stroke="none" fill="#3DB39E" fill-rule="evenodd" sketch:type="MSShapeGroup" mask="url(#mask-4)"></path>
                    <path d="M1109.05025,190.039271 C1110.32165,190.039271 1111.35351,189.001001 1111.35351,187.721704 C1111.35351,186.442407 1110.32165,185.404137 1109.05025,185.404137 C1107.77884,185.404137 1106.74698,186.442407 1106.74698,187.721704 C1106.74698,189.001001 1107.77884,190.039271 1109.05025,190.039271 L1109.05025,190.039271 Z M1109.05025,246.81966 C1110.32165,246.81966 1111.35351,245.78139 1111.35351,244.502093 C1111.35351,243.222796 1110.32165,242.184526 1109.05025,242.184526 C1107.77884,242.184526 1106.74698,243.222796 1106.74698,244.502093 C1106.74698,245.78139 1107.77884,246.81966 1109.05025,246.81966 L1109.05025,246.81966 Z M1127.47634,176.133869 L1090.62415,176.133869 C1089.9873,176.133869 1089.47252,176.653004 1089.47252,177.292653 L1089.47252,198.150755 C1089.47252,198.791562 1089.9873,199.309538 1090.62415,199.309538 C1091.261,199.309538 1091.77578,198.791562 1091.77578,198.150755 L1091.77578,178.451436 L1126.32471,178.451436 L1126.32471,198.150755 C1126.32471,198.791562 1126.83949,199.309538 1127.47634,199.309538 C1128.11319,199.309538 1128.62797,198.791562 1128.62797,198.150755 L1128.62797,177.292653 C1128.62797,176.653004 1128.11319,176.133869 1127.47634,176.133869 L1127.47634,176.133869 Z M1127.47634,234.073042 C1126.83949,234.073042 1126.32471,234.592177 1126.32471,235.231825 L1126.32471,256.089928 L1091.77578,256.089928 L1091.77578,235.231825 C1091.77578,234.592177 1091.261,234.073042 1090.62415,234.073042 C1089.9873,234.073042 1089.47252,234.592177 1089.47252,235.231825 L1089.47252,257.248711 C1089.47252,257.88836 1089.9873,258.407495 1090.62415,258.407495 L1127.47634,258.407495 C1128.11319,258.407495 1128.62797,257.88836 1128.62797,257.248711 L1128.62797,235.231825 C1128.62797,234.592177 1128.11319,234.073042 1127.47634,234.073042 L1127.47634,234.073042 Z M1109.05025,199.309538 C1099.51013,199.309538 1091.77578,207.091928 1091.77578,216.69129 C1091.77578,226.290652 1099.51013,234.073042 1109.05025,234.073042 C1118.59036,234.073042 1126.32471,226.290652 1126.32471,216.69129 C1126.32471,207.091928 1118.59036,199.309538 1109.05025,199.309538 L1109.05025,199.309538 Z M1118.33815,217.873249 L1117.00456,217.873249 C1116.77539,219.680952 1116.03949,221.172306 1114.93508,221.941738 C1114.72779,222.077316 1114.47558,222.166542 1114.19919,222.166542 C1113.53239,222.166542 1112.98076,221.624231 1112.98076,220.946343 C1112.98076,220.631154 1113.16387,220.313647 1113.48518,219.974124 C1114.17615,219.274219 1114.70475,218.098053 1114.70475,216.810645 C1114.70475,214.934575 1113.80878,214.232352 1112.88863,214.232352 C1109.87712,214.232352 1111.2798,222.48289 1105.53086,222.48289 C1103.00188,222.48289 1101.34699,220.901151 1101.04756,217.872091 L1099.76004,217.872091 C1099.16234,217.872091 1098.67981,217.396989 1098.67981,216.809486 C1098.67981,216.244 1099.16349,215.770057 1099.76004,215.770057 L1101.04756,215.770057 C1101.3228,213.577639 1102.51819,211.860322 1103.78269,211.09089 C1103.96695,210.977329 1104.19612,210.91012 1104.4276,210.91012 C1105.11743,210.91012 1105.66906,211.453589 1105.66906,212.108302 C1105.66906,212.60542 1105.39382,212.876575 1105.16349,213.102538 C1104.19727,214.051582 1103.41647,215.250922 1103.41647,216.809486 C1103.41647,218.865168 1104.10629,219.860563 1105.53086,219.860563 C1108.88787,219.860563 1107.34698,211.611184 1112.88863,211.611184 C1114.93393,211.611184 1116.70398,212.876575 1117.02759,215.770057 L1118.33815,215.770057 C1118.93584,215.770057 1119.41838,216.244 1119.41838,216.809486 C1119.41953,217.396989 1118.93584,217.873249 1118.33815,217.873249 L1118.33815,217.873249 Z" id="Shape" stroke="none" fill="#81CEC0" fill-rule="evenodd" sketch:type="MSShapeGroup" mask="url(#mask-4)"></path>
                </g>
            </g>
            <path d="M159.092465,107.622404 L159.092465,84.8587213 L154.572248,84.8587213 L147.092752,99.9803107 L139.580737,84.8587213 L135.028,84.8587213 L135.028,107.622404 L138.63767,107.622404 L138.63767,90.6146811 L145.82449,105.248477 L148.328495,105.248477 L155.515315,90.6146811 L155.547834,107.622404 L159.092465,107.622404 Z M172.295401,90.191927 C166.929676,90.191927 163.254967,93.7365576 163.254967,98.9722047 C163.254967,104.175332 166.929676,107.752482 172.295401,107.752482 C177.628607,107.752482 181.303315,104.175332 181.303315,98.9722047 C181.303315,93.7365576 177.628607,90.191927 172.295401,90.191927 L172.295401,90.191927 Z M172.295401,93.4113622 C175.384758,93.4113622 177.563568,95.6877304 177.563568,99.0047242 C177.563568,102.354238 175.384758,104.630606 172.295401,104.630606 C169.173524,104.630606 166.994715,102.354238 166.994715,99.0047242 C166.994715,95.6877304 169.173524,93.4113622 172.295401,93.4113622 L172.295401,93.4113622 Z M201.693071,83.4929003 L197.953323,83.4929003 L197.953323,93.3138035 C196.685061,91.2975916 194.60381,90.1594075 191.807129,90.1594075 C186.929197,90.1594075 183.579684,93.7040381 183.579684,98.9071656 C183.579684,104.175332 186.896677,107.785002 191.872168,107.785002 C194.63633,107.785002 196.717581,106.679337 197.953323,104.663125 L197.953323,107.622404 L201.693071,107.622404 L201.693071,83.4929003 Z M192.652637,104.663125 C189.498241,104.663125 187.351951,102.321718 187.319432,99.0372438 C187.351951,95.72025 189.530761,93.3463231 192.652637,93.3463231 C195.774514,93.3463231 197.953323,95.6877304 197.953323,99.0372438 C197.953323,102.321718 195.774514,104.663125 192.652637,104.663125 L192.652637,104.663125 Z M214.505773,90.191927 C209.367684,90.2244465 205.758015,93.7690772 205.758015,99.0047242 C205.758015,104.207852 209.270126,107.752482 214.603332,107.752482 C217.59513,107.752482 220.066615,106.679337 221.757632,104.825723 L219.77394,102.711953 C218.505677,104.012734 216.782141,104.728165 214.896007,104.728165 C212.164366,104.728165 210.115634,103.069668 209.530282,100.403065 L222.60314,100.403065 C223.058414,94.1593117 220.586928,90.191927 214.505773,90.191927 L214.505773,90.191927 Z M209.465243,97.6714228 C209.887997,94.9072613 211.806651,93.1837253 214.538292,93.1837253 C217.367493,93.1837253 219.221107,94.8747418 219.351185,97.6714228 L209.465243,97.6714228 Z M230.245234,90.3220052 L226.505486,90.3220052 L226.505486,107.622404 L230.245234,107.622404 L230.245234,98.5819701 C230.53791,95.6226914 232.749239,93.5739599 236.22883,93.7690772 L236.22883,90.191927 C233.497188,90.191927 231.415937,91.4276698 230.245234,93.7690772 L230.245234,90.3220052 Z M249.431766,90.191927 C246.505007,90.191927 244.293678,91.2325525 243.057935,93.638999 L243.057935,90.3220052 L239.318187,90.3220052 L239.318187,107.622404 L243.057935,107.622404 L243.057935,98.4193724 C243.318092,95.72025 245.106667,93.7365576 247.968387,93.7040381 C250.569951,93.7040381 252.130889,95.2974959 252.130889,97.8990596 L252.130889,107.622404 L255.870637,107.622404 L255.870637,96.8584341 C255.870637,92.7284517 253.46419,90.191927 249.431766,90.191927 L249.431766,90.191927 Z M276.357951,90.191927 C271.219863,90.191927 267.642713,93.7690772 267.642713,99.0047242 C267.642713,104.207852 271.219863,107.752482 276.357951,107.752482 C279.642426,107.752482 282.146431,106.581779 283.707369,104.533047 L281.626118,102.451796 C280.455414,103.817617 278.699359,104.533047 276.520549,104.533047 C273.528751,104.533047 271.382461,102.289198 271.382461,99.0047242 C271.382461,95.72025 273.528751,93.4764012 276.520549,93.4764012 C278.6018,93.4438817 280.260297,94.1918313 281.46352,95.4275741 L283.512252,93.0211276 C281.918794,91.200033 279.479828,90.191927 276.357951,90.191927 L276.357951,90.191927 Z M297.918411,90.191927 C294.959132,90.191927 292.747803,91.265072 291.51206,93.7040381 L291.51206,83.4929003 L287.772312,83.4929003 L287.772312,107.622404 L291.51206,107.622404 L291.51206,99.1022829 C291.51206,96.0454455 293.365674,93.7365576 296.455031,93.7040381 C299.056595,93.7040381 300.617533,95.2974959 300.617533,97.8990596 L300.617533,107.622404 L304.357281,107.622404 L304.357281,96.8584341 C304.357281,92.7284517 301.950835,90.191927 297.918411,90.191927 L297.918411,90.191927 Z M316.487072,90.191927 C311.348984,90.2244465 307.739314,93.7690772 307.739314,99.0047242 C307.739314,104.207852 311.251425,107.752482 316.584631,107.752482 C319.576429,107.752482 322.047915,106.679337 323.738931,104.825723 L321.755239,102.711953 C320.486977,104.012734 318.763441,104.728165 316.877307,104.728165 C314.145665,104.728165 312.096934,103.069668 311.511582,100.403065 L324.58444,100.403065 C325.039713,94.1593117 322.568228,90.191927 316.487072,90.191927 L316.487072,90.191927 Z M311.446543,97.6714228 C311.869297,94.9072613 313.78795,93.1837253 316.519592,93.1837253 C319.348793,93.1837253 321.202407,94.8747418 321.332485,97.6714228 L311.446543,97.6714228 Z M335.576046,90.191927 C330.437958,90.191927 326.860808,93.7690772 326.860808,99.0047242 C326.860808,104.207852 330.437958,107.752482 335.576046,107.752482 C338.860521,107.752482 341.364526,106.581779 342.925464,104.533047 L340.844213,102.451796 C339.673509,103.817617 337.917454,104.533047 335.738644,104.533047 C332.746846,104.533047 330.600556,102.289198 330.600556,99.0047242 C330.600556,95.72025 332.746846,93.4764012 335.738644,93.4764012 C337.819895,93.4438817 339.478392,94.1918313 340.681615,95.4275741 L342.730347,93.0211276 C341.136889,91.200033 338.697923,90.191927 335.576046,90.191927 L335.576046,90.191927 Z M353.656915,99.6876347 L358.729964,107.622404 L363.152622,107.622404 L356.258478,97.0210319 L362.664829,90.3220052 L358.372249,90.3220052 L350.730155,98.0616574 L350.730155,83.4929003 L346.990407,83.4929003 L346.990407,107.622404 L350.730155,107.622404 L350.730155,102.776992 L353.656915,99.6876347 Z M376.420598,83.1026657 C375.184855,83.1026657 374.241788,84.0457326 374.241788,85.379034 C374.241788,86.6798159 375.184855,87.6228828 376.420598,87.6228828 C377.65634,87.6228828 378.599407,86.6798159 378.599407,85.379034 C378.599407,84.0457326 377.65634,83.1026657 376.420598,83.1026657 L376.420598,83.1026657 Z M378.274212,107.622404 L378.274212,90.3220052 L374.566983,90.3220052 L374.566983,107.622404 L378.274212,107.622404 Z M393.916114,90.191927 C390.989355,90.191927 388.778025,91.2325525 387.542283,93.638999 L387.542283,90.3220052 L383.802535,90.3220052 L383.802535,107.622404 L387.542283,107.622404 L387.542283,98.4193724 C387.802439,95.72025 389.591014,93.7365576 392.452734,93.7040381 C395.054298,93.7040381 396.615236,95.2974959 396.615236,97.8990596 L396.615236,107.622404 L400.354984,107.622404 L400.354984,96.8584341 C400.354984,92.7284517 397.948538,90.191927 393.916114,90.191927 L393.916114,90.191927 Z M424.126773,107.622404 L427.801482,107.622404 L427.768962,96.2730823 C427.736443,92.4682953 425.232438,90.191927 420.77726,90.191927 C417.492785,90.191927 415.73673,90.9398766 413.330283,92.3707366 L414.858702,94.9723004 C416.582238,93.8015967 418.305774,93.2162449 419.964271,93.2162449 C422.695913,93.2162449 424.094253,94.5170268 424.094253,96.6958364 L424.094253,97.2161492 L418.858606,97.2161492 C414.696104,97.2486687 412.322177,99.2648806 412.322177,102.419277 C412.322177,105.476114 414.663585,107.785002 418.403333,107.785002 C420.907338,107.785002 422.89103,107.037052 424.126773,105.508634 L424.126773,107.622404 Z M419.183802,104.825723 C417.102551,104.825723 415.834289,103.817617 415.834289,102.256679 C415.834289,100.598182 416.972473,99.9477911 419.411439,99.9477911 L424.094253,99.9477911 L424.094253,101.541249 C423.899136,103.427383 421.850405,104.825723 419.183802,104.825723 L419.183802,104.825723 Z M442.923071,90.191927 C439.996312,90.191927 437.784983,91.2325525 436.54924,93.638999 L436.54924,90.3220052 L432.809492,90.3220052 L432.809492,107.622404 L436.54924,107.622404 L436.54924,98.4193724 C436.809396,95.72025 438.597971,93.7365576 441.459692,93.7040381 C444.061255,93.7040381 445.622194,95.2974959 445.622194,97.8990596 L445.622194,107.622404 L449.361942,107.622404 L449.361942,96.8584341 C449.361942,92.7284517 446.955495,90.191927 442.923071,90.191927 L442.923071,90.191927 Z M470.857362,83.4929003 L467.117614,83.4929003 L467.117614,93.3138035 C465.849352,91.2975916 463.768101,90.1594075 460.97142,90.1594075 C456.093488,90.1594075 452.743974,93.7040381 452.743974,98.9071656 C452.743974,104.175332 456.060968,107.785002 461.036459,107.785002 C463.80062,107.785002 465.881871,106.679337 467.117614,104.663125 L467.117614,107.622404 L470.857362,107.622404 L470.857362,83.4929003 Z M461.816928,104.663125 C458.662532,104.663125 456.516242,102.321718 456.483722,99.0372438 C456.516242,95.72025 458.695052,93.3463231 461.816928,93.3463231 C464.938805,93.3463231 467.117614,95.6877304 467.117614,99.0372438 C467.117614,102.321718 464.938805,104.663125 461.816928,104.663125 L461.816928,104.663125 Z M501.425736,83.4929003 L497.685988,83.4929003 L497.685988,93.3138035 C496.417726,91.2975916 494.336475,90.1594075 491.539794,90.1594075 C486.661862,90.1594075 483.312349,93.7040381 483.312349,98.9071656 C483.312349,104.175332 486.629342,107.785002 491.604833,107.785002 C494.368995,107.785002 496.450246,106.679337 497.685988,104.663125 L497.685988,107.622404 L501.425736,107.622404 L501.425736,83.4929003 Z M492.385302,104.663125 C489.230906,104.663125 487.084616,102.321718 487.052097,99.0372438 C487.084616,95.72025 489.263426,93.3463231 492.385302,93.3463231 C495.507179,93.3463231 497.685988,95.6877304 497.685988,99.0372438 C497.685988,102.321718 495.507179,104.663125 492.385302,104.663125 L492.385302,104.663125 Z M508.970271,83.1026657 C507.734528,83.1026657 506.791462,84.0457326 506.791462,85.379034 C506.791462,86.6798159 507.734528,87.6228828 508.970271,87.6228828 C510.206014,87.6228828 511.149081,86.6798159 511.149081,85.379034 C511.149081,84.0457326 510.206014,83.1026657 508.970271,83.1026657 L508.970271,83.1026657 Z M510.823885,107.622404 L510.823885,90.3220052 L507.116657,90.3220052 L507.116657,107.622404 L510.823885,107.622404 Z M531.961591,90.3220052 L528.254363,90.3220052 L528.254363,93.1186862 C527.051139,91.2325525 525.067447,90.1594075 522.400844,90.191927 C517.815588,90.2244465 514.726231,93.5414403 514.726231,98.4193724 C514.726231,103.394863 517.848108,106.776896 522.530922,106.776896 C525.132486,106.776896 527.083659,105.73627 528.254363,103.850137 L528.254363,106.028946 C528.254363,109.020745 526.108072,110.939398 522.823598,110.939398 C520.709828,110.939398 519.018811,110.256488 517.392834,109.053264 L515.799376,111.752387 C517.913147,113.183247 520.287074,114.028755 522.986196,114.028755 C528.41696,114.028755 531.961591,110.906878 531.961591,105.931388 L531.961591,90.3220052 Z M523.278872,103.850137 C520.287074,103.850137 518.270862,101.638808 518.238342,98.516931 C518.270862,95.4275741 520.319593,93.2162449 523.278872,93.2162449 C526.205631,93.2162449 528.254363,95.3950545 528.254363,98.516931 C528.254363,101.638808 526.205631,103.850137 523.278872,103.850137 L523.278872,103.850137 Z M539.018333,83.1026657 C537.78259,83.1026657 536.839523,84.0457326 536.839523,85.379034 C536.839523,86.6798159 537.78259,87.6228828 539.018333,87.6228828 C540.254075,87.6228828 541.197142,86.6798159 541.197142,85.379034 C541.197142,84.0457326 540.254075,83.1026657 539.018333,83.1026657 L539.018333,83.1026657 Z M540.871947,107.622404 L540.871947,90.3220052 L537.164718,90.3220052 L537.164718,107.622404 L540.871947,107.622404 Z M555.245587,103.655019 C554.237481,104.142813 553.424492,104.402969 552.644023,104.402969 C551.473319,104.402969 550.790409,103.850137 550.790409,102.061562 L550.790409,93.7690772 L555.895978,93.7690772 L555.895978,90.9723961 L550.790409,90.9723961 L550.790409,86.2245423 L547.08318,86.2245423 L547.08318,90.9723961 L544.644214,90.9723961 L544.644214,93.7690772 L547.08318,93.7690772 L547.08318,102.744472 C547.08318,106.289103 549.327029,107.785002 551.928593,107.785002 C553.391972,107.785002 554.822832,107.329728 556.188653,106.51674 L555.245587,103.655019 Z M570.009461,107.622404 L573.68417,107.622404 L573.65165,96.2730823 C573.619131,92.4682953 571.115126,90.191927 566.659948,90.191927 C563.375473,90.191927 561.619418,90.9398766 559.212971,92.3707366 L560.74139,94.9723004 C562.464926,93.8015967 564.188462,93.2162449 565.846959,93.2162449 C568.578601,93.2162449 569.976941,94.5170268 569.976941,96.6958364 L569.976941,97.2161492 L564.741294,97.2161492 C560.578792,97.2486687 558.204865,99.2648806 558.204865,102.419277 C558.204865,105.476114 560.546273,107.785002 564.286021,107.785002 C566.790026,107.785002 568.773718,107.037052 570.009461,105.508634 L570.009461,107.622404 Z M565.06649,104.825723 C562.985239,104.825723 561.716976,103.817617 561.716976,102.256679 C561.716976,100.598182 562.855161,99.9477911 565.294127,99.9477911 L569.976941,99.9477911 L569.976941,101.541249 C569.781824,103.427383 567.733093,104.825723 565.06649,104.825723 L565.06649,104.825723 Z M582.594526,107.622404 L582.594526,83.4929003 L578.854778,83.4929003 L578.854778,107.622404 L582.594526,107.622404 Z M590.139061,83.1026657 C588.903318,83.1026657 587.960251,84.0457326 587.960251,85.379034 C587.960251,86.6798159 588.903318,87.6228828 590.139061,87.6228828 C591.374803,87.6228828 592.31787,86.6798159 592.31787,85.379034 C592.31787,84.0457326 591.374803,83.1026657 590.139061,83.1026657 L590.139061,83.1026657 Z M591.992675,107.622404 L591.992675,90.3220052 L588.285446,90.3220052 L588.285446,107.622404 L591.992675,107.622404 Z M610.723934,92.8585299 L610.723934,90.3545247 L596.512892,90.3220052 L596.512892,93.3788426 L606.106158,93.3788426 L596.220216,105.08588 L596.220216,107.622404 L611.01661,107.654924 L611.01661,104.598086 L600.837992,104.565567 L610.723934,92.8585299 Z M621.910658,90.191927 C616.77257,90.2244465 613.1629,93.7690772 613.1629,99.0047242 C613.1629,104.207852 616.675011,107.752482 622.008217,107.752482 C625.000015,107.752482 627.471501,106.679337 629.162517,104.825723 L627.178825,102.711953 C625.910562,104.012734 624.187026,104.728165 622.300893,104.728165 C619.569251,104.728165 617.520519,103.069668 616.935167,100.403065 L630.008025,100.403065 C630.463299,94.1593117 627.991813,90.191927 621.910658,90.191927 L621.910658,90.191927 Z M616.870128,97.6714228 C617.292882,94.9072613 619.211536,93.1837253 621.943178,93.1837253 C624.772378,93.1837253 626.625992,94.8747418 626.756071,97.6714228 L616.870128,97.6714228 Z M650.397781,83.4929003 L646.658033,83.4929003 L646.658033,93.3138035 C645.389771,91.2975916 643.30852,90.1594075 640.511839,90.1594075 C635.633907,90.1594075 632.284394,93.7040381 632.284394,98.9071656 C632.284394,104.175332 635.601387,107.785002 640.576878,107.785002 C643.341039,107.785002 645.42229,106.679337 646.658033,104.663125 L646.658033,107.622404 L650.397781,107.622404 L650.397781,83.4929003 Z M641.357347,104.663125 C638.202951,104.663125 636.056661,102.321718 636.024141,99.0372438 C636.056661,95.72025 638.235471,93.3463231 641.357347,93.3463231 C644.479224,93.3463231 646.658033,95.6877304 646.658033,99.0372438 C646.658033,102.321718 644.479224,104.663125 641.357347,104.663125 L641.357347,104.663125 Z M674.429726,90.191927 C671.730604,90.191927 669.649353,91.2975916 668.381091,93.3138035 L668.381091,90.3220052 L664.641343,90.3220052 L664.641343,113.931196 L668.381091,113.931196 L668.381091,104.630606 C669.649353,106.646818 671.730604,107.752482 674.494766,107.752482 C679.437737,107.752482 682.689691,104.207852 682.689691,99.0372438 C682.689691,93.7690772 679.340178,90.191927 674.429726,90.191927 L674.429726,90.191927 Z M673.649257,104.565567 C670.5599,104.565567 668.381091,102.256679 668.381091,98.9071656 C668.381091,95.6552109 670.5599,93.3138035 673.649257,93.3138035 C676.738614,93.3138035 678.917424,95.6877304 678.917424,98.9071656 C678.917424,102.224159 676.738614,104.565567 673.649257,104.565567 L673.649257,104.565567 Z M696.965773,107.622404 L700.640481,107.622404 L700.607962,96.2730823 C700.575442,92.4682953 698.071437,90.191927 693.616259,90.191927 C690.331785,90.191927 688.575729,90.9398766 686.169283,92.3707366 L687.697702,94.9723004 C689.421238,93.8015967 691.144774,93.2162449 692.803271,93.2162449 C695.534912,93.2162449 696.933253,94.5170268 696.933253,96.6958364 L696.933253,97.2161492 L691.697606,97.2161492 C687.535104,97.2486687 685.161177,99.2648806 685.161177,102.419277 C685.161177,105.476114 687.502584,107.785002 691.242332,107.785002 C693.746337,107.785002 695.73003,107.037052 696.965773,105.508634 L696.965773,107.622404 Z M692.022801,104.825723 C689.94155,104.825723 688.673288,103.817617 688.673288,102.256679 C688.673288,100.598182 689.811472,99.9477911 692.250438,99.9477911 L696.933253,99.9477911 L696.933253,101.541249 C696.738136,103.427383 694.689404,104.825723 692.022801,104.825723 L692.022801,104.825723 Z M719.794495,90.3220052 L716.054747,90.3220052 L711.241854,103.427383 L706.071246,90.3220052 L702.20142,90.3220052 L709.35572,107.362248 L708.770368,108.66303 C708.185016,109.963812 707.274469,110.581683 706.136285,110.581683 C705.355816,110.581683 704.705425,110.321527 703.892436,109.736175 L702.298978,112.630414 C703.502201,113.63852 704.737944,114.093794 706.298883,114.093794 C708.900446,114.093794 710.851619,112.727973 711.924764,109.996331 L719.794495,90.3220052 Z M745.159741,90.191927 C742.005345,90.191927 739.696457,91.4601893 738.590793,94.354429 C737.777804,91.7203457 735.664033,90.191927 732.574677,90.191927 C729.712956,90.191927 727.501627,91.2325525 726.298404,93.6715185 L726.298404,90.3220052 L722.591176,90.3220052 L722.591176,107.622404 L726.298404,107.622404 L726.298404,99.0697633 C726.298404,96.0454455 728.119499,93.7690772 731.111297,93.6715185 C733.647822,93.6715185 735.17624,95.2649763 735.17624,97.8990596 L735.17624,107.622404 L738.915988,107.622404 L738.915988,99.0697633 C738.915988,96.0454455 740.704563,93.7690772 743.663842,93.6715185 C746.200367,93.6715185 747.761305,95.2649763 747.761305,97.8990596 L747.761305,107.622404 L751.501053,107.622404 L751.501053,96.8584341 C751.501053,92.7284517 749.127126,90.191927 745.159741,90.191927 L745.159741,90.191927 Z M763.630844,90.191927 C758.492755,90.2244465 754.883086,93.7690772 754.883086,99.0047242 C754.883086,104.207852 758.395197,107.752482 763.728403,107.752482 C766.720201,107.752482 769.191686,106.679337 770.882703,104.825723 L768.899011,102.711953 C767.630748,104.012734 765.907212,104.728165 764.021078,104.728165 C761.289437,104.728165 759.240705,103.069668 758.655353,100.403065 L771.728211,100.403065 C772.183485,94.1593117 769.711999,90.191927 763.630844,90.191927 L763.630844,90.191927 Z M758.590314,97.6714228 C759.013068,94.9072613 760.931722,93.1837253 763.663363,93.1837253 C766.492564,93.1837253 768.346178,94.8747418 768.476256,97.6714228 L758.590314,97.6714228 Z M785.744136,90.191927 C782.817377,90.191927 780.606047,91.2325525 779.370305,93.638999 L779.370305,90.3220052 L775.630557,90.3220052 L775.630557,107.622404 L779.370305,107.622404 L779.370305,98.4193724 C779.630461,95.72025 781.419036,93.7365576 784.280756,93.7040381 C786.88232,93.7040381 788.443258,95.2974959 788.443258,97.8990596 L788.443258,107.622404 L792.183006,107.622404 L792.183006,96.8584341 C792.183006,92.7284517 789.77656,90.191927 785.744136,90.191927 L785.744136,90.191927 Z M806.036333,103.655019 C805.028227,104.142813 804.215239,104.402969 803.434769,104.402969 C802.264066,104.402969 801.581155,103.850137 801.581155,102.061562 L801.581155,93.7690772 L806.686724,93.7690772 L806.686724,90.9723961 L801.581155,90.9723961 L801.581155,86.2245423 L797.873927,86.2245423 L797.873927,90.9723961 L795.434961,90.9723961 L795.434961,93.7690772 L797.873927,93.7690772 L797.873927,102.744472 C797.873927,106.289103 800.117776,107.785002 802.719339,107.785002 C804.182719,107.785002 805.613579,107.329728 806.9794,106.51674 L806.036333,103.655019 Z M841.385081,90.191927 C838.230685,90.191927 835.921797,91.4601893 834.816132,94.354429 C834.003144,91.7203457 831.889373,90.191927 828.800016,90.191927 C825.938296,90.191927 823.726967,91.2325525 822.523744,93.6715185 L822.523744,90.3220052 L818.816515,90.3220052 L818.816515,107.622404 L822.523744,107.622404 L822.523744,99.0697633 C822.523744,96.0454455 824.344838,93.7690772 827.336637,93.6715185 C829.873161,93.6715185 831.40158,95.2649763 831.40158,97.8990596 L831.40158,107.622404 L835.141328,107.622404 L835.141328,99.0697633 C835.141328,96.0454455 836.929903,93.7690772 839.889182,93.6715185 C842.425706,93.6715185 843.986645,95.2649763 843.986645,97.8990596 L843.986645,107.622404 L847.726393,107.622404 L847.726393,96.8584341 C847.726393,92.7284517 845.352466,90.191927 841.385081,90.191927 L841.385081,90.191927 Z M859.856184,90.191927 C854.718095,90.2244465 851.108425,93.7690772 851.108425,99.0047242 C851.108425,104.207852 854.620536,107.752482 859.953742,107.752482 C862.945541,107.752482 865.417026,106.679337 867.108043,104.825723 L865.12435,102.711953 C863.856088,104.012734 862.132552,104.728165 860.246418,104.728165 C857.514776,104.728165 855.466045,103.069668 854.880693,100.403065 L867.953551,100.403065 C868.408824,94.1593117 865.937339,90.191927 859.856184,90.191927 L859.856184,90.191927 Z M854.815654,97.6714228 C855.238408,94.9072613 857.157061,93.1837253 859.888703,93.1837253 C862.717904,93.1837253 864.571518,94.8747418 864.701596,97.6714228 L854.815654,97.6714228 Z M882.229632,107.622404 L885.904341,107.622404 L885.871821,96.2730823 C885.839302,92.4682953 883.335297,90.191927 878.880119,90.191927 C875.595644,90.191927 873.839589,90.9398766 871.433142,92.3707366 L872.961561,94.9723004 C874.685097,93.8015967 876.408633,93.2162449 878.06713,93.2162449 C880.798772,93.2162449 882.197112,94.5170268 882.197112,96.6958364 L882.197112,97.2161492 L876.961465,97.2161492 C872.798963,97.2486687 870.425036,99.2648806 870.425036,102.419277 C870.425036,105.476114 872.766444,107.785002 876.506192,107.785002 C879.010197,107.785002 880.993889,107.037052 882.229632,105.508634 L882.229632,107.622404 Z M877.286661,104.825723 C875.20541,104.825723 873.937147,103.817617 873.937147,102.256679 C873.937147,100.598182 875.075332,99.9477911 877.514298,99.9477911 L882.197112,99.9477911 L882.197112,101.541249 C882.001995,103.427383 879.953264,104.825723 877.286661,104.825723 L877.286661,104.825723 Z M901.02593,90.191927 C898.099171,90.191927 895.887842,91.2325525 894.652099,93.638999 L894.652099,90.3220052 L890.912351,90.3220052 L890.912351,107.622404 L894.652099,107.622404 L894.652099,98.4193724 C894.912255,95.72025 896.70083,93.7365576 899.56255,93.7040381 C902.164114,93.7040381 903.725052,95.2974959 903.725052,97.8990596 L903.725052,107.622404 L907.4648,107.622404 L907.4648,96.8584341 C907.4648,92.7284517 905.058354,90.191927 901.02593,90.191927 L901.02593,90.191927 Z M917.643419,90.1594075 C914.326425,90.1594075 911.269587,91.6553066 911.269587,95.1674177 C911.237068,101.411171 920.342541,99.4274784 920.342541,102.972109 C920.342541,104.272891 919.106798,104.825723 917.51334,104.825723 C915.627207,104.825723 913.22076,104.012734 911.724861,102.679433 L910.39156,105.346036 C912.115096,106.906974 914.814218,107.752482 917.350743,107.752482 C920.830334,107.752482 923.98473,106.159025 923.98473,102.614394 C924.01725,96.3381214 914.814218,98.0616574 914.814218,94.8747418 C914.814218,93.638999 915.887363,93.1512058 917.350743,93.1512058 C918.879161,93.1512058 920.797815,93.7365576 922.326233,94.6796245 L923.692054,91.915463 C922.131116,90.8097984 919.822228,90.1594075 917.643419,90.1594075 L917.643419,90.1594075 Z M946.26062,90.191927 C943.333861,90.191927 941.122532,91.2325525 939.886789,93.638999 L939.886789,90.3220052 L936.147041,90.3220052 L936.147041,107.622404 L939.886789,107.622404 L939.886789,98.4193724 C940.146945,95.72025 941.93552,93.7365576 944.79724,93.7040381 C947.398804,93.7040381 948.959742,95.2974959 948.959742,97.8990596 L948.959742,107.622404 L952.69949,107.622404 L952.69949,96.8584341 C952.69949,92.7284517 950.293044,90.191927 946.26062,90.191927 L946.26062,90.191927 Z M965.121957,90.191927 C959.756232,90.191927 956.081523,93.7365576 956.081523,98.9722047 C956.081523,104.175332 959.756232,107.752482 965.121957,107.752482 C970.455163,107.752482 974.129872,104.175332 974.129872,98.9722047 C974.129872,93.7365576 970.455163,90.191927 965.121957,90.191927 L965.121957,90.191927 Z M965.121957,93.4113622 C968.211314,93.4113622 970.390124,95.6877304 970.390124,99.0047242 C970.390124,102.354238 968.211314,104.630606 965.121957,104.630606 C962.000081,104.630606 959.821271,102.354238 959.821271,99.0047242 C959.821271,95.6877304 962.000081,93.4113622 965.121957,93.4113622 L965.121957,93.4113622 Z M1008.99083,90.191927 C1005.83643,90.191927 1003.52754,91.4601893 1002.42188,94.354429 C1001.60889,91.7203457 999.495118,90.191927 996.405761,90.191927 C993.544041,90.191927 991.332712,91.2325525 990.129489,93.6715185 L990.129489,90.3220052 L986.422261,90.3220052 L986.422261,107.622404 L990.129489,107.622404 L990.129489,99.0697633 C990.129489,96.0454455 991.950584,93.7690772 994.942382,93.6715185 C997.478907,93.6715185 999.007325,95.2649763 999.007325,97.8990596 L999.007325,107.622404 L1002.74707,107.622404 L1002.74707,99.0697633 C1002.74707,96.0454455 1004.53565,93.7690772 1007.49493,93.6715185 C1010.03145,93.6715185 1011.59239,95.2649763 1011.59239,97.8990596 L1011.59239,107.622404 L1015.33214,107.622404 L1015.33214,96.8584341 C1015.33214,92.7284517 1012.95821,90.191927 1008.99083,90.191927 L1008.99083,90.191927 Z M1027.7546,90.191927 C1022.38888,90.191927 1018.71417,93.7365576 1018.71417,98.9722047 C1018.71417,104.175332 1022.38888,107.752482 1027.7546,107.752482 C1033.08781,107.752482 1036.76252,104.175332 1036.76252,98.9722047 C1036.76252,93.7365576 1033.08781,90.191927 1027.7546,90.191927 L1027.7546,90.191927 Z M1027.7546,93.4113622 C1030.84396,93.4113622 1033.02277,95.6877304 1033.02277,99.0047242 C1033.02277,102.354238 1030.84396,104.630606 1027.7546,104.630606 C1024.63273,104.630606 1022.45392,102.354238 1022.45392,99.0047242 C1022.45392,95.6877304 1024.63273,93.4113622 1027.7546,93.4113622 L1027.7546,93.4113622 Z M1044.40461,90.3220052 L1040.66486,90.3220052 L1040.66486,107.622404 L1044.40461,107.622404 L1044.40461,98.5819701 C1044.69729,95.6226914 1046.90862,93.5739599 1050.38821,93.7690772 L1050.38821,90.191927 C1047.65657,90.191927 1045.57532,91.4276698 1044.40461,93.7690772 L1044.40461,90.3220052 Z M1060.59935,90.191927 C1055.46126,90.2244465 1051.85159,93.7690772 1051.85159,99.0047242 C1051.85159,104.207852 1055.3637,107.752482 1060.69691,107.752482 C1063.6887,107.752482 1066.16019,106.679337 1067.85121,104.825723 L1065.86751,102.711953 C1064.59925,104.012734 1062.87572,104.728165 1060.98958,104.728165 C1058.25794,104.728165 1056.20921,103.069668 1055.62386,100.403065 L1068.69671,100.403065 C1069.15199,94.1593117 1066.6805,90.191927 1060.59935,90.191927 L1060.59935,90.191927 Z M1055.55882,97.6714228 C1055.98157,94.9072613 1057.90022,93.1837253 1060.63187,93.1837253 C1063.46107,93.1837253 1065.31468,94.8747418 1065.44476,97.6714228 L1055.55882,97.6714228 Z M1090.94008,90.191927 C1088.24096,90.191927 1086.15971,91.2975916 1084.89145,93.3138035 L1084.89145,90.3220052 L1081.1517,90.3220052 L1081.1517,113.931196 L1084.89145,113.931196 L1084.89145,104.630606 C1086.15971,106.646818 1088.24096,107.752482 1091.00512,107.752482 C1095.94809,107.752482 1099.20005,104.207852 1099.20005,99.0372438 C1099.20005,93.7690772 1095.85054,90.191927 1090.94008,90.191927 L1090.94008,90.191927 Z M1090.15962,104.565567 C1087.07026,104.565567 1084.89145,102.256679 1084.89145,98.9071656 C1084.89145,95.6552109 1087.07026,93.3138035 1090.15962,93.3138035 C1093.24897,93.3138035 1095.42778,95.6877304 1095.42778,98.9071656 C1095.42778,102.224159 1093.24897,104.565567 1090.15962,104.565567 L1090.15962,104.565567 Z M1113.47613,107.622404 L1117.15084,107.622404 L1117.11832,96.2730823 C1117.0858,92.4682953 1114.5818,90.191927 1110.12662,90.191927 C1106.84214,90.191927 1105.08609,90.9398766 1102.67964,92.3707366 L1104.20806,94.9723004 C1105.9316,93.8015967 1107.65513,93.2162449 1109.31363,93.2162449 C1112.04527,93.2162449 1113.44361,94.5170268 1113.44361,96.6958364 L1113.44361,97.2161492 L1108.20796,97.2161492 C1104.04546,97.2486687 1101.67154,99.2648806 1101.67154,102.419277 C1101.67154,105.476114 1104.01294,107.785002 1107.75269,107.785002 C1110.2567,107.785002 1112.24039,107.037052 1113.47613,105.508634 L1113.47613,107.622404 Z M1108.53316,104.825723 C1106.45191,104.825723 1105.18365,103.817617 1105.18365,102.256679 C1105.18365,100.598182 1106.32183,99.9477911 1108.7608,99.9477911 L1113.44361,99.9477911 L1113.44361,101.541249 C1113.24849,103.427383 1111.19976,104.825723 1108.53316,104.825723 L1108.53316,104.825723 Z M1132.10983,90.191927 C1129.41071,90.191927 1127.32946,91.2975916 1126.0612,93.3138035 L1126.0612,90.3220052 L1122.32145,90.3220052 L1122.32145,113.931196 L1126.0612,113.931196 L1126.0612,104.630606 C1127.32946,106.646818 1129.41071,107.752482 1132.17487,107.752482 C1137.11784,107.752482 1140.3698,104.207852 1140.3698,99.0372438 C1140.3698,93.7690772 1137.02028,90.191927 1132.10983,90.191927 L1132.10983,90.191927 Z M1131.32936,104.565567 C1128.24001,104.565567 1126.0612,102.256679 1126.0612,98.9071656 C1126.0612,95.6552109 1128.24001,93.3138035 1131.32936,93.3138035 C1134.41872,93.3138035 1136.59753,95.6877304 1136.59753,98.9071656 C1136.59753,102.224159 1134.41872,104.565567 1131.32936,104.565567 L1131.32936,104.565567 Z M1151.39392,90.191927 C1146.25583,90.2244465 1142.64616,93.7690772 1142.64616,99.0047242 C1142.64616,104.207852 1146.15828,107.752482 1151.49148,107.752482 C1154.48328,107.752482 1156.95477,106.679337 1158.64578,104.825723 L1156.66209,102.711953 C1155.39383,104.012734 1153.67029,104.728165 1151.78416,104.728165 C1149.05252,104.728165 1147.00378,103.069668 1146.41843,100.403065 L1159.49129,100.403065 C1159.94656,94.1593117 1157.47508,90.191927 1151.39392,90.191927 L1151.39392,90.191927 Z M1146.35339,97.6714228 C1146.77615,94.9072613 1148.6948,93.1837253 1151.42644,93.1837253 C1154.25564,93.1837253 1156.10926,94.8747418 1156.23934,97.6714228 L1146.35339,97.6714228 Z M1167.13338,90.3220052 L1163.39364,90.3220052 L1163.39364,107.622404 L1167.13338,107.622404 L1167.13338,98.5819701 C1167.42606,95.6226914 1169.63739,93.5739599 1173.11698,93.7690772 L1173.11698,90.191927 C1170.38534,90.191927 1168.30409,91.4276698 1167.13338,93.7690772 L1167.13338,90.3220052 Z M1197.18144,107.622404 L1203.49024,90.3220052 L1199.68545,90.3220052 L1195.26279,103.915176 L1190.87265,90.3220052 L1187.00283,90.3220052 L1182.64521,103.915176 L1178.15751,90.3220052 L1174.3202,90.3220052 L1180.69403,107.622404 L1184.53134,107.622404 L1188.92148,94.8097027 L1193.31162,107.622404 L1197.18144,107.622404 Z M1212.85587,90.191927 C1207.49014,90.191927 1203.81543,93.7365576 1203.81543,98.9722047 C1203.81543,104.175332 1207.49014,107.752482 1212.85587,107.752482 C1218.18907,107.752482 1221.86378,104.175332 1221.86378,98.9722047 C1221.86378,93.7365576 1218.18907,90.191927 1212.85587,90.191927 L1212.85587,90.191927 Z M1212.85587,93.4113622 C1215.94522,93.4113622 1218.12403,95.6877304 1218.12403,99.0047242 C1218.12403,102.354238 1215.94522,104.630606 1212.85587,104.630606 C1209.73399,104.630606 1207.55518,102.354238 1207.55518,99.0047242 C1207.55518,95.6877304 1209.73399,93.4113622 1212.85587,93.4113622 L1212.85587,93.4113622 Z M1229.50587,90.3220052 L1225.76613,90.3220052 L1225.76613,107.622404 L1229.50587,107.622404 L1229.50587,98.5819701 C1229.79855,95.6226914 1232.00988,93.5739599 1235.48947,93.7690772 L1235.48947,90.191927 C1232.75783,90.191927 1230.67658,91.4276698 1229.50587,93.7690772 L1229.50587,90.3220052 Z M1245.40793,99.6876347 L1250.48098,107.622404 L1254.90364,107.622404 L1248.0095,97.0210319 L1254.41585,90.3220052 L1250.12327,90.3220052 L1242.48117,98.0616574 L1242.48117,83.4929003 L1238.74143,83.4929003 L1238.74143,107.622404 L1242.48117,107.622404 L1242.48117,102.776992 L1245.40793,99.6876347 Z M1273.73246,90.191927 C1268.36673,90.191927 1264.69202,93.7365576 1264.69202,98.9722047 C1264.69202,104.175332 1268.36673,107.752482 1273.73246,107.752482 C1279.06566,107.752482 1282.74037,104.175332 1282.74037,98.9722047 C1282.74037,93.7365576 1279.06566,90.191927 1273.73246,90.191927 L1273.73246,90.191927 Z M1273.73246,93.4113622 C1276.82182,93.4113622 1279.00063,95.6877304 1279.00063,99.0047242 C1279.00063,102.354238 1276.82182,104.630606 1273.73246,104.630606 C1270.61058,104.630606 1268.43177,102.354238 1268.43177,99.0047242 C1268.43177,95.6877304 1270.61058,93.4113622 1273.73246,93.4113622 L1273.73246,93.4113622 Z M1290.38247,90.3220052 L1286.64272,90.3220052 L1286.64272,107.622404 L1290.38247,107.622404 L1290.38247,98.5819701 C1290.67514,95.6226914 1292.88647,93.5739599 1296.36606,93.7690772 L1296.36606,90.191927 C1293.63442,90.191927 1291.55317,91.4276698 1290.38247,93.7690772 L1290.38247,90.3220052 Z M1315.68267,107.622404 L1322.31666,90.3220052 L1318.57691,90.3220052 L1313.82906,103.947695 L1309.01617,90.3220052 L1305.11382,90.3220052 L1311.81285,107.622404 L1315.68267,107.622404 Z M1331.68229,90.191927 C1326.31657,90.191927 1322.64186,93.7365576 1322.64186,98.9722047 C1322.64186,104.175332 1326.31657,107.752482 1331.68229,107.752482 C1337.0155,107.752482 1340.69021,104.175332 1340.69021,98.9722047 C1340.69021,93.7365576 1337.0155,90.191927 1331.68229,90.191927 L1331.68229,90.191927 Z M1331.68229,93.4113622 C1334.77165,93.4113622 1336.95046,95.6877304 1336.95046,99.0047242 C1336.95046,102.354238 1334.77165,104.630606 1331.68229,104.630606 C1328.56041,104.630606 1326.38161,102.354238 1326.38161,99.0047242 C1326.38161,95.6877304 1328.56041,93.4113622 1331.68229,93.4113622 L1331.68229,93.4113622 Z M1360.29949,90.3220052 L1356.55974,90.3220052 L1356.55974,98.8421265 C1356.55974,101.866444 1354.80369,104.175332 1351.81189,104.240371 C1349.30789,104.240371 1347.77947,102.646914 1347.77947,100.04535 L1347.77947,90.3220052 L1344.03972,90.3220052 L1344.03972,101.085975 C1344.03972,105.215958 1346.41365,107.752482 1350.38103,107.752482 C1353.21023,107.719963 1355.38904,106.646818 1356.55974,104.240371 L1356.55974,107.622404 L1360.29949,107.622404 L1360.29949,90.3220052 Z M1372.91708,90.191927 C1367.77899,90.191927 1364.20184,93.7690772 1364.20184,99.0047242 C1364.20184,104.207852 1367.77899,107.752482 1372.91708,107.752482 C1376.20155,107.752482 1378.70556,106.581779 1380.26649,104.533047 L1378.18524,102.451796 C1377.01454,103.817617 1375.25848,104.533047 1373.07967,104.533047 C1370.08788,104.533047 1367.94159,102.289198 1367.94159,99.0047242 C1367.94159,95.72025 1370.08788,93.4764012 1373.07967,93.4764012 C1375.16093,93.4438817 1376.81942,94.1918313 1378.02265,95.4275741 L1380.07138,93.0211276 C1378.47792,91.200033 1376.03895,90.191927 1372.91708,90.191927 L1372.91708,90.191927 Z M1394.47754,90.191927 C1391.51826,90.191927 1389.30693,91.265072 1388.07119,93.7040381 L1388.07119,83.4929003 L1384.33144,83.4929003 L1384.33144,107.622404 L1388.07119,107.622404 L1388.07119,99.1022829 C1388.07119,96.0454455 1389.9248,93.7365576 1393.01416,93.7040381 C1395.61572,93.7040381 1397.17666,95.2974959 1397.17666,97.8990596 L1397.17666,107.622404 L1400.91641,107.622404 L1400.91641,96.8584341 C1400.91641,92.7284517 1398.50996,90.191927 1394.47754,90.191927 L1394.47754,90.191927 Z M1413.0462,90.191927 C1407.90811,90.2244465 1404.29844,93.7690772 1404.29844,99.0047242 C1404.29844,104.207852 1407.81055,107.752482 1413.14376,107.752482 C1416.13555,107.752482 1418.60704,106.679337 1420.29806,104.825723 L1418.31436,102.711953 C1417.0461,104.012734 1415.32257,104.728165 1413.43643,104.728165 C1410.70479,104.728165 1408.65606,103.069668 1408.07071,100.403065 L1421.14357,100.403065 C1421.59884,94.1593117 1419.12735,90.191927 1413.0462,90.191927 L1413.0462,90.191927 Z M1408.00567,97.6714228 C1408.42842,94.9072613 1410.34708,93.1837253 1413.07872,93.1837253 C1415.90792,93.1837253 1417.76153,94.8747418 1417.89161,97.6714228 L1408.00567,97.6714228 Z M1428.78566,90.3220052 L1425.04591,90.3220052 L1425.04591,107.622404 L1428.78566,107.622404 L1428.78566,98.5819701 C1429.07833,95.6226914 1431.28966,93.5739599 1434.76926,93.7690772 L1434.76926,90.191927 C1432.03761,90.191927 1429.95636,91.4276698 1428.78566,93.7690772 L1428.78566,90.3220052 Z M1443.02922,90.1594075 C1439.71223,90.1594075 1436.65539,91.6553066 1436.65539,95.1674177 C1436.62287,101.411171 1445.72834,99.4274784 1445.72834,102.972109 C1445.72834,104.272891 1444.4926,104.825723 1442.89914,104.825723 C1441.01301,104.825723 1438.60656,104.012734 1437.11066,102.679433 L1435.77736,105.346036 C1437.5009,106.906974 1440.20002,107.752482 1442.73654,107.752482 C1446.21614,107.752482 1449.37053,106.159025 1449.37053,102.614394 C1449.40305,96.3381214 1440.20002,98.0616574 1440.20002,94.8747418 C1440.20002,93.638999 1441.27316,93.1512058 1442.73654,93.1512058 C1444.26496,93.1512058 1446.18362,93.7365576 1447.71204,94.6796245 L1449.07786,91.915463 C1447.51692,90.8097984 1445.20803,90.1594075 1443.02922,90.1594075 L1443.02922,90.1594075 Z M1453.92327,103.6225 C1452.75256,103.6225 1451.87454,104.500528 1451.87454,105.73627 C1451.87454,107.004533 1452.75256,107.91508 1453.92327,107.91508 C1455.09397,107.91508 1455.972,107.004533 1455.972,105.73627 C1455.972,104.500528 1455.09397,103.6225 1453.92327,103.6225 L1453.92327,103.6225 Z M698.087697,161.821649 L698.087697,139.057966 L689.795212,139.057966 L689.795212,142.472519 L694.25039,142.472519 L694.25039,161.821649 L698.087697,161.821649 Z M713.209286,138.960408 C706.965533,138.960408 703.518461,143.057871 703.518461,150.439808 C703.518461,157.821745 706.965533,161.919208 713.209286,161.919208 C719.42052,161.919208 722.867592,157.821745 722.867592,150.439808 C722.867592,143.057871 719.42052,138.960408 713.209286,138.960408 L713.209286,138.960408 Z M713.209286,141.984726 C717.014073,141.984726 718.932727,144.651328 718.932727,150.439808 C718.932727,156.195768 717.014073,158.89489 713.209286,158.89489 C709.37198,158.89489 707.453326,156.195768 707.453326,150.439808 C707.453326,144.651328 709.37198,141.984726 713.209286,141.984726 L713.209286,141.984726 Z M735.680293,138.960408 C729.43654,138.960408 725.989468,143.057871 725.989468,150.439808 C725.989468,157.821745 729.43654,161.919208 735.680293,161.919208 C741.891527,161.919208 745.338599,157.821745 745.338599,150.439808 C745.338599,143.057871 741.891527,138.960408 735.680293,138.960408 L735.680293,138.960408 Z M735.680293,141.984726 C739.48508,141.984726 741.403734,144.651328 741.403734,150.439808 C741.403734,156.195768 739.48508,158.89489 735.680293,158.89489 C731.842987,158.89489 729.924333,156.195768 729.924333,150.439808 C729.924333,144.651328 731.842987,141.984726 735.680293,141.984726 L735.680293,141.984726 Z M754.151396,138.992927 C750.411648,138.992927 748.13528,141.529452 748.13528,145.756993 C748.13528,150.017054 750.411648,152.586098 754.151396,152.586098 C757.891144,152.586098 760.167512,150.017054 760.167512,145.756993 C760.167512,141.529452 757.891144,138.992927 754.151396,138.992927 L754.151396,138.992927 Z M752.42786,161.821649 L756.03753,161.821649 L772.752577,139.057966 L769.175427,139.057966 L752.42786,161.821649 Z M754.151396,141.204256 C756.395245,141.204256 757.696027,142.862753 757.696027,145.756993 C757.696027,148.683752 756.395245,150.374769 754.151396,150.374769 C751.907547,150.374769 750.639285,148.683752 750.639285,145.756993 C750.639285,142.862753 751.907547,141.204256 754.151396,141.204256 L754.151396,141.204256 Z M771.289197,148.326037 C767.549449,148.326037 765.273081,150.862562 765.273081,155.090103 C765.273081,159.350164 767.549449,161.886688 771.289197,161.886688 C775.028945,161.886688 777.305313,159.350164 777.305313,155.090103 C777.305313,150.862562 775.028945,148.326037 771.289197,148.326037 L771.289197,148.326037 Z M771.289197,150.504847 C773.533046,150.504847 774.833828,152.195863 774.833828,155.090103 C774.833828,158.016862 773.533046,159.675359 771.289197,159.675359 C769.045348,159.675359 767.777086,158.016862 767.777086,155.090103 C767.777086,152.195863 769.045348,150.504847 771.289197,150.504847 L771.289197,150.504847 Z M789.922898,139.057966 L789.922898,161.821649 L799.158449,161.821649 C806.052593,161.821649 811.028084,157.008756 811.028084,150.439808 C811.028084,143.83834 806.085113,139.057966 799.256008,139.057966 L789.922898,139.057966 Z M793.760204,142.505038 L799.190969,142.505038 C803.678666,142.505038 807.158258,145.822032 807.158258,150.472327 C807.158258,155.090103 803.776225,158.374577 799.353566,158.374577 L793.760204,158.374577 L793.760204,142.505038 Z M816.751524,137.301911 C815.515781,137.301911 814.572714,138.244978 814.572714,139.578279 C814.572714,140.879061 815.515781,141.822128 816.751524,141.822128 C817.987267,141.822128 818.930334,140.879061 818.930334,139.578279 C818.930334,138.244978 817.987267,137.301911 816.751524,137.301911 L816.751524,137.301911 Z M818.605138,161.821649 L818.605138,144.52125 L814.89791,144.52125 L814.89791,161.821649 L818.605138,161.821649 Z M839.742844,144.52125 L836.035615,144.52125 L836.035615,147.317931 C834.832392,145.431798 832.8487,144.358652 830.182097,144.391172 C825.596841,144.423692 822.507484,147.740685 822.507484,152.618617 C822.507484,157.594108 825.62936,160.976141 830.312175,160.976141 C832.913739,160.976141 834.864912,159.935516 836.035615,158.049382 L836.035615,160.228191 C836.035615,163.21999 833.889325,165.138643 830.604851,165.138643 C828.49108,165.138643 826.800064,164.455733 825.174087,163.252509 L823.580629,165.951632 C825.694399,167.382492 828.068326,168.228 830.767449,168.228 C836.198213,168.228 839.742844,165.106123 839.742844,160.130633 L839.742844,144.52125 Z M831.060125,158.049382 C828.068326,158.049382 826.052114,155.838053 826.019595,152.716176 C826.052114,149.626819 828.100846,147.41549 831.060125,147.41549 C833.986884,147.41549 836.035615,149.5943 836.035615,152.716176 C836.035615,155.838053 833.986884,158.049382 831.060125,158.049382 L831.060125,158.049382 Z M846.799585,137.301911 C845.563843,137.301911 844.620776,138.244978 844.620776,139.578279 C844.620776,140.879061 845.563843,141.822128 846.799585,141.822128 C848.035328,141.822128 848.978395,140.879061 848.978395,139.578279 C848.978395,138.244978 848.035328,137.301911 846.799585,137.301911 L846.799585,137.301911 Z M848.6532,161.821649 L848.6532,144.52125 L844.945971,144.52125 L844.945971,161.821649 L848.6532,161.821649 Z M863.026839,157.854265 C862.018733,158.342058 861.205745,158.602214 860.425276,158.602214 C859.254572,158.602214 858.571661,158.049382 858.571661,156.260807 L858.571661,147.968322 L863.67723,147.968322 L863.67723,145.171641 L858.571661,145.171641 L858.571661,140.423787 L854.864433,140.423787 L854.864433,145.171641 L852.425467,145.171641 L852.425467,147.968322 L854.864433,147.968322 L854.864433,156.943717 C854.864433,160.488348 857.108282,161.984247 859.709846,161.984247 C861.173225,161.984247 862.604085,161.528973 863.969906,160.715985 L863.026839,157.854265 Z M877.790714,161.821649 L881.465423,161.821649 L881.432903,150.472327 C881.400383,146.66754 878.896378,144.391172 874.4412,144.391172 C871.156726,144.391172 869.400671,145.139122 866.994224,146.569982 L868.522643,149.171545 C870.246179,148.000842 871.969715,147.41549 873.628212,147.41549 C876.359854,147.41549 877.758194,148.716272 877.758194,150.895081 L877.758194,151.415394 L872.522547,151.415394 C868.360045,151.447914 865.986118,153.464126 865.986118,156.618522 C865.986118,159.675359 868.327526,161.984247 872.067273,161.984247 C874.571279,161.984247 876.554971,161.236297 877.790714,159.707879 L877.790714,161.821649 Z M872.847743,159.024968 C870.766492,159.024968 869.498229,158.016862 869.498229,156.455924 C869.498229,154.797427 870.636413,154.147036 873.075379,154.147036 L877.758194,154.147036 L877.758194,155.740494 C877.563077,157.626628 875.514345,159.024968 872.847743,159.024968 L872.847743,159.024968 Z M890.375778,161.821649 L890.375778,137.692145 L886.636031,137.692145 L886.636031,161.821649 L890.375778,161.821649 Z M898.960939,144.944004 L898.960939,139.350642 L895.416308,139.350642 L895.416308,144.944004 L896.00166,154.56979 L898.375587,154.56979 L898.960939,144.944004 Z M897.204883,157.821745 C896.03418,157.821745 895.156152,158.699773 895.156152,159.935516 C895.156152,161.203778 896.03418,162.114325 897.204883,162.114325 C898.375587,162.114325 899.253615,161.203778 899.253615,159.935516 C899.253615,158.699773 898.375587,157.821745 897.204883,157.821745 L897.204883,157.821745 Z" id="Modern-check-in-and-" fill="#FFFFFF" sketch:type="MSShapeGroup" mask="url(#mask-2)"></path>
        </g>
    </g>
</svg>