<?xml version="1.0" encoding="UTF-8" standalone="no"?>
<svg width="360px" height="190px" viewBox="0 0 360 190" version="1.1" xmlns="http://www.w3.org/2000/svg" xmlns:xlink="http://www.w3.org/1999/xlink" xmlns:sketch="http://www.bohemiancoding.com/sketch/ns">
    <!-- Generator: Sketch 3.3.3 (12081) - http://www.bohemiancoding.com/sketch -->
    <title>Mask + Group + Modern check in and </title>
    <desc>Created with Sketch.</desc>
    <defs>
        <rect id="path-1" x="0" y="0" width="360" height="190"></rect>
        <path id="path-3" d="M209.415491,17.7648578 C191.856145,17.7648578 177.62121,31.8625239 177.62121,49.2533191 C177.62121,66.6441143 191.856145,80.74304 209.415491,80.74304 C226.974836,80.74304 241.209771,66.6441143 241.209771,49.2533191 C241.209771,31.8625239 226.974836,17.7648578 209.415491,17.7648578 L209.415491,17.7648578 Z"></path>
    </defs>
    <g id="Iconography" stroke="none" stroke-width="1" fill="none" fill-rule="evenodd" sketch:type="MSPage">
        <g id="iPhone-6" sketch:type="MSArtboardGroup" transform="translate(-190.000000, -40.000000)">
            <g id="Mask-+-Group-+-Modern-check-in-and-" sketch:type="MSLayerGroup" transform="translate(190.000000, 40.000000)">
                <mask id="mask-2" sketch:name="Mask" fill="white">
                    <use xlink:href="#path-1"></use>
                </mask>
                <use id="Mask" fill="#F2C400" sketch:type="MSShapeGroup" xlink:href="#path-1"></use>
                <g id="Graphics" mask="url(#mask-2)">
                    <g transform="translate(56.000000, 118.000000)">
                        <path d="M149.62,0.6 L97.18,0.6 C92.7739,0.6 89.2,4.11192459 89.2,8.44161791 L89.2,74.5363748 C98.72698,81.5680656 110.56816,85.7386861 123.4,85.7386861 C136.23412,85.7386861 148.0753,81.5680656 157.6,74.5363748 L157.6,8.44161791 C157.6,4.11192459 154.02838,0.6 149.62,0.6 L149.62,0.6 Z" id="Shape" stroke="none" fill="#E4E7E7" fill-rule="evenodd" sketch:type="MSShapeGroup"></path>
                        <path d="M152.628037,13.8437956 L93.5327103,13.8437956 C92.9053907,13.8437956 92.3962617,14.347052 92.3962617,14.9671357 L92.3962617,76.8328457 C101.24806,82.4607797 111.774983,85.7386861 123.080374,85.7386861 C134.386901,85.7386861 144.912688,82.4607797 153.764486,76.8328457 L153.764486,14.9671357 C153.764486,14.347052 153.256493,13.8437956 152.628037,13.8437956 L152.628037,13.8437956 Z" id="Shape" stroke="none" fill="#344C59" fill-rule="evenodd" sketch:type="MSShapeGroup"></path>
                        <path d="M151.846729,16.3664234 L94.953271,16.3664234 L94.953271,78.2364116 C103.323437,82.9984818 113.03515,85.7386861 123.4,85.7386861 C133.767126,85.7386861 143.477701,82.9984818 151.846729,78.2364116 L151.846729,16.3664234 L151.846729,16.3664234 Z" id="Shape" stroke="none" fill="#3F5E6D" fill-rule="evenodd" sketch:type="MSShapeGroup"></path>
                        <path d="M128.705794,5.01459854 L117.199252,5.01459854 C116.562941,5.01459854 116.048598,5.58064544 116.048598,6.27528207 C116.048598,6.97244006 116.562941,7.53722628 117.199252,7.53722628 L128.705794,7.53722628 C129.342106,7.53722628 129.856449,6.97244006 129.856449,6.27528207 C129.856449,5.58064544 129.342106,5.01459854 128.705794,5.01459854 L128.705794,5.01459854 Z M133.308411,5.01459854 C132.672099,5.01459854 132.157757,5.58064544 132.157757,6.27528207 C132.157757,6.97244006 132.672099,7.53722628 133.308411,7.53722628 C133.944723,7.53722628 134.459065,6.97244006 134.459065,6.27528207 C134.459065,5.58064544 133.944723,5.01459854 133.308411,5.01459854 L133.308411,5.01459854 Z M137.911028,5.01459854 C137.274716,5.01459854 136.760374,5.58064544 136.760374,6.27528207 C136.760374,6.97244006 137.274716,7.53722628 137.911028,7.53722628 C138.54734,7.53722628 139.061682,6.97244006 139.061682,6.27528207 C139.061682,5.58064544 138.54734,5.01459854 137.911028,5.01459854 L137.911028,5.01459854 Z" id="Shape" stroke="none" fill="#BFC3C5" fill-rule="evenodd" sketch:type="MSShapeGroup"></path>
                        <path d="M99.3001869,42.8540146 C97.6056568,42.8540146 96.2317757,43.9835055 96.2317757,45.3766073 L96.2317757,79.2392611 C103.151043,84.8173442 112.624763,85.7386861 123.080374,85.7386861 C133.536752,85.7386861 143.009705,84.8173442 149.928972,79.2392611 L149.928972,45.3766073 C149.928972,43.9835055 148.555091,42.8540146 146.860561,42.8540146 L99.3001869,42.8540146 Z" id="Shape" stroke="none" fill="#E2574C" fill-rule="evenodd" sketch:type="MSShapeGroup"></path>
                        <path d="M102.271608,48.529927 C101.407692,48.529927 100.706542,49.0949867 100.706542,49.7912209 L100.706542,82.4076491 C107.108445,86.0887352 114.936905,87 123.4,87 C131.863095,87 139.691555,86.0887352 146.093458,82.4076491 L146.093458,49.7912209 C146.093458,49.0949867 145.392308,48.529927 144.528392,48.529927 L102.271608,48.529927 Z" id="Shape" stroke="none" fill="#F0DDAB" fill-rule="evenodd" sketch:type="MSShapeGroup"></path>
                        <path d="M146.860561,42.8540146 L99.3001869,42.8540146 C97.6056568,42.8540146 96.2317757,43.9835212 96.2317757,45.3766423 L96.2317757,46.6379562 C96.2317757,45.244835 97.6056568,44.1153285 99.3001869,44.1153285 L146.860561,44.1153285 C148.555091,44.1153285 149.928972,45.244835 149.928972,46.6379562 L149.928972,45.3766423 C149.928972,43.9835212 148.555091,42.8540146 146.860561,42.8540146 L146.860561,42.8540146 Z" id="Shape" stroke="none" fill="#BF392B" fill-rule="evenodd" sketch:type="MSShapeGroup"></path>
                        <path d="M137.655327,76.2788321 L108.505421,76.2788321 C108.081213,76.2788321 107.738318,76.5607358 107.738318,76.9094891 C107.738318,77.2582423 108.081213,77.540146 108.505421,77.540146 L137.655327,77.540146 C138.079535,77.540146 138.42243,77.2582423 138.42243,76.9094891 C138.42243,76.5607358 138.079535,76.2788321 137.655327,76.2788321 L137.655327,76.2788321 Z M137.655327,69.9722628 L108.505421,69.9722628 C108.081213,69.9722628 107.738318,70.2541664 107.738318,70.6029197 C107.738318,70.951673 108.081213,71.2335766 108.505421,71.2335766 L137.655327,71.2335766 C138.079535,71.2335766 138.42243,70.951673 138.42243,70.6029197 C138.42243,70.2541664 138.079535,69.9722628 137.655327,69.9722628 L137.655327,69.9722628 Z M137.655327,63.6656934 L108.505421,63.6656934 C108.081213,63.6656934 107.738318,63.9482277 107.738318,64.2963504 C107.738318,64.6451036 108.081213,64.9270073 108.505421,64.9270073 L137.655327,64.9270073 C138.079535,64.9270073 138.42243,64.6451036 138.42243,64.2963504 C138.42243,63.9482277 138.079535,63.6656934 137.655327,63.6656934 L137.655327,63.6656934 Z M137.655327,82.5854015 L108.505421,82.5854015 C108.081213,82.5854015 107.738318,82.8673051 107.738318,83.2160584 C107.738318,83.5648117 108.081213,83.8467153 108.505421,83.8467153 L137.655327,83.8467153 C138.079535,83.8467153 138.42243,83.5648117 138.42243,83.2160584 C138.42243,82.8673051 138.079535,82.5854015 137.655327,82.5854015 L137.655327,82.5854015 Z M108.505421,58.620438 L137.655327,58.620438 C138.079535,58.620438 138.42243,58.3385343 138.42243,57.989781 C138.42243,57.6416584 138.079535,57.3591241 137.655327,57.3591241 L108.505421,57.3591241 C108.081213,57.3591241 107.738318,57.6416584 107.738318,57.989781 C107.738318,58.3385343 108.081213,58.620438 108.505421,58.620438 L108.505421,58.620438 Z" id="Shape" stroke="none" fill="#D8C69A" fill-rule="evenodd" sketch:type="MSShapeGroup"></path>
                        <path d="M108.502302,45.3766423 L138.297698,45.3766423 C138.720181,45.3766423 139.061682,45.6591766 139.061682,46.0072993 L139.061682,50.4218978 C139.061682,51.4668964 138.034887,52.3138686 136.769729,52.3138686 L110.030271,52.3138686 C108.765113,52.3138686 107.738318,51.4668964 107.738318,50.4218978 L107.738318,46.0072993 C107.738318,45.6591766 108.079819,45.3766423 108.502302,45.3766423 L108.502302,45.3766423 Z M118.704551,39.070073 L128.365899,39.070073 C129.631058,39.070073 130.291904,39.8331679 130.657853,40.9620438 L132.185822,45.3766423 L115.378163,45.3766423 L116.906132,40.9620438 C117.129215,40.1611095 117.574618,39.070073 118.704551,39.070073 L118.704551,39.070073 Z" id="Shape" stroke="none" fill="#CCD0D2" fill-rule="evenodd" sketch:type="MSShapeGroup"></path>
                        <path d="M115.913251,44.1153285 L115.409346,45.3766423 L132.029907,45.3766423 L131.526757,44.1153285 L115.913251,44.1153285 Z" id="Shape" stroke="none" fill="#A4A7A9" fill-rule="evenodd" sketch:type="MSShapeGroup"></path>
                        <path d="M138.297698,45.3766423 L108.502302,45.3766423 C108.079819,45.3766423 107.738318,45.6591766 107.738318,46.0072993 L107.738318,47.8992701 C107.738318,47.5511474 108.079819,47.2686131 108.502302,47.2686131 L138.297698,47.2686131 C138.720181,47.2686131 139.061682,47.5511474 139.061682,47.8992701 L139.061682,46.0072993 C139.061682,45.6591766 138.720181,45.3766423 138.297698,45.3766423 L138.297698,45.3766423 Z" id="Shape" stroke="none" fill="#B7BBBD" fill-rule="evenodd" sketch:type="MSShapeGroup"></path>
                        <path d="M154.403738,51.3281062 C152.812897,48.6438206 150.591396,46.3807353 147.941784,44.7459854 C142.597292,50.1099364 133.443144,59.2974158 133.268217,59.4725951 C132.747654,59.9950529 131.081241,67.6713703 131.44107,68.0325092 C131.809722,68.4028882 139.272522,66.5144171 139.778123,66.0062047 L154.403738,51.3281062 L154.403738,51.3281062 Z" id="Shape" stroke="none" fill="#BF392B" fill-rule="evenodd" sketch:type="MSShapeGroup"></path>
                        <path d="M136.472127,62.5988271 C136.093519,62.2054409 136.044863,60.4790443 135.663214,60.0828934 C135.281946,59.6859525 133.251682,59.2514899 133.250161,59.2510949 C132.754854,59.7657357 131.214195,67.0414053 131.4073,67.9490372 L131.519438,68.0659472 C132.38689,68.2586906 139.219692,66.4540907 139.700935,65.9536688 C139.700935,65.9536688 139.265308,63.8251967 138.892402,63.43813 C138.519497,63.0502733 136.851495,62.9926083 136.472127,62.5988271 L136.472127,62.5988271 Z" id="Shape" stroke="none" fill="#FFCABA" fill-rule="evenodd" sketch:type="MSShapeGroup"></path>
                        <path d="M131.390654,67.8999999 L131.400546,67.9549322 L131.513155,68.0666782 C132.382836,68.2499115 139.2193,66.5312059 139.700935,66.0544984 C139.700935,66.0544984 139.281692,64.0438237 138.900113,63.6656934 C132.539576,67.2441978 131.546253,67.8104526 131.390654,67.8999999 L131.390654,67.8999999 Z" id="Shape" stroke="none" fill="#E5B5A7" fill-rule="evenodd" sketch:type="MSShapeGroup"></path>
                        <path d="M131.395516,67.449635 C131.516927,67.2529724 132.184089,66.1568505 135.865421,60.04301 C135.46576,59.6651018 133.338088,59.2510949 133.338088,59.2510949 C132.833736,59.7271464 131.293213,66.2944768 131.395516,67.449635 L131.395516,67.449635 Z" id="Shape" stroke="none" fill="#FFDCD2" fill-rule="evenodd" sketch:type="MSShapeGroup"></path>
                        <path d="M132.789036,66.6507962 C132.51298,66.4031831 132.039224,66.2181931 131.599221,66.1883212 C131.411969,67.1859716 131.327987,67.9324098 131.443311,68.0357019 C131.555422,68.1364747 132.298805,68.0580159 133.306592,67.8849027 C133.331104,67.4483407 133.105276,66.9340396 132.789036,66.6507962 L132.789036,66.6507962 Z" id="Shape" stroke="none" fill="#BF392B" fill-rule="evenodd" sketch:type="MSShapeGroup"></path>
                        <path d="M135.749287,59.8817474 C135.74352,59.8907483 149.928972,46.0608668 149.928972,46.0608668 C149.318849,45.5868194 148.681046,45.1461504 148.014409,44.7459854 L133.308411,59.0919185 C136.366714,59.8817481 135.363299,59.5052098 135.749287,59.8817474 Z" id="Shape" stroke="none" fill="#C9574B" fill-rule="evenodd" sketch:type="MSShapeGroup"></path>
                        <path d="M60.7412214,1.96074862 L8.54339644,1.96074862 C4.15764441,1.96074862 0.600249172,5.46779999 0.600249172,9.79148534 L0.600249172,75.7945278 C10.0832323,82.8164613 21.8697281,86.9812945 34.6423089,86.9812945 C47.4171592,86.9812945 59.203655,82.8164613 68.6843686,75.7945278 L68.6843686,9.79148534 C68.6843686,5.46779999 65.1292429,1.96074862 60.7412214,1.96074862 L60.7412214,1.96074862 Z" id="Shape" stroke="none" fill="#E4E7E7" fill-rule="evenodd" sketch:type="MSShapeGroup"></path>
                        <path d="M63.7353672,15.1861669 L4.9129504,15.1861669 C4.28852783,15.1861669 3.78175008,15.6887249 3.78175008,16.3079482 L3.78175008,78.0878121 C12.5926694,83.7079366 23.070978,86.9812945 34.3241588,86.9812945 C45.5784708,86.9812945 56.0556482,83.7079366 64.8665675,78.0878121 L64.8665675,16.3079482 C64.8665675,15.6887249 64.360921,15.1861669 63.7353672,15.1861669 L63.7353672,15.1861669 Z" id="Shape" stroke="none" fill="#344C59" fill-rule="evenodd" sketch:type="MSShapeGroup"></path>
                        <path d="M62.957667,17.7052942 L6.32695081,17.7052942 L6.32695081,79.4894303 C14.6584618,84.2448925 24.325325,86.9812945 34.6423089,86.9812945 C44.961558,86.9812945 54.6272886,84.2448925 62.957667,79.4894303 L62.957667,17.7052942 L62.957667,17.7052942 Z" id="Shape" stroke="none" fill="#3F5E6D" fill-rule="evenodd" sketch:type="MSShapeGroup"></path>
                        <path d="M39.9236004,6.36922137 L28.4701971,6.36922137 C27.8368239,6.36922137 27.3248568,6.93448282 27.3248568,7.62815555 C27.3248568,8.32434615 27.8368239,8.88834866 28.4701971,8.88834866 L39.9236004,8.88834866 C40.5569736,8.88834866 41.0689407,8.32434615 41.0689407,7.62815555 C41.0689407,6.93448282 40.5569736,6.36922137 39.9236004,6.36922137 L39.9236004,6.36922137 Z M44.5049617,6.36922137 C43.8715885,6.36922137 43.3596214,6.93448282 43.3596214,7.62815555 C43.3596214,8.32434615 43.8715885,8.88834866 44.5049617,8.88834866 C45.1383349,8.88834866 45.6503021,8.32434615 45.6503021,7.62815555 C45.6503021,6.93448282 45.1383349,6.36922137 44.5049617,6.36922137 L44.5049617,6.36922137 Z M49.086323,6.36922137 C48.4529498,6.36922137 47.9409827,6.93448282 47.9409827,7.62815555 C47.9409827,8.32434615 48.4529498,8.88834866 49.086323,8.88834866 C49.7196962,8.88834866 50.2316634,8.32434615 50.2316634,7.62815555 C50.2316634,6.93448282 49.7196962,6.36922137 49.086323,6.36922137 L49.086323,6.36922137 Z" id="Shape" stroke="none" fill="#BFC3C5" fill-rule="evenodd" sketch:type="MSShapeGroup"></path>
                        <path d="M13.962553,48.2682355 L13.962553,58.6411126 L27.7490569,43.8227168 L27.7490569,39.8800356 L21.2890951,39.8686748 L13.962553,48.2682355 L13.962553,48.2682355 Z M47.8921239,39.7496337 L41.5355609,39.7476579 L41.5355609,43.8227168 L55.3220648,58.6411126 L55.3220648,48.2682355 L47.8921239,39.7496337 L47.8921239,39.7496337 Z" id="Shape" stroke="none" fill="#227F9E" fill-rule="evenodd" sketch:type="MSShapeGroup"></path>
                        <path d="M40.974522,31.4105462 L31.6300228,31.4105462 L31.1374033,30.9307124 L27.1811761,30.9307124 C26.8870823,30.9307124 26.6885566,31.1552746 26.6885566,31.3654418 L26.6885566,40.047554 C26.6885566,40.5772905 27.1299437,41.0072216 27.6737956,41.0072216 L40.974522,41.0072216 C41.5183739,41.0072216 41.959761,40.5772905 41.959761,40.047554 L41.959761,32.3702137 C41.959761,31.8404772 41.5183739,31.4105462 40.974522,31.4105462 L40.974522,31.4105462 Z" id="Shape" stroke="none" fill="#816B32" fill-rule="evenodd" sketch:type="MSShapeGroup"></path>
                        <path d="M27.0339767,32.1902761 L42.2506411,32.1902761 C42.7925507,32.1902761 43.2323614,32.6134894 43.2323614,33.1349488 L43.2323614,40.6923306 C43.2323614,41.21379 42.7925507,41.6370034 42.2506411,41.6370034 L27.0339767,41.6370034 C26.4920671,41.6370034 26.0522564,41.21379 26.0522564,40.6923306 L26.0522564,33.1349488 C26.0522564,32.6134894 26.4920671,32.1902761 27.0339767,32.1902761 L27.0339767,32.1902761 Z" id="Shape" stroke="none" fill="#8F7738" fill-rule="evenodd" sketch:type="MSShapeGroup"></path>
                        <path d="M44.8031037,34.0796215 L39.8541023,34.0796215 C39.7175099,34.0796215 38.8489601,34.9190921 38.8489601,35.0529207 L24.496856,35.0529207 C23.9504862,35.0529207 23.5070557,35.4889587 23.5070557,36.0262199 L23.5070557,43.8126133 C23.5070557,44.3498745 23.9504862,44.7859125 24.496856,44.7859125 L44.7877618,44.7859125 C45.3341316,44.7859125 45.7775621,44.3498745 45.7775621,43.8126133 L45.7775621,35.0378346 C45.7775621,34.5195527 45.2886007,34.0796215 44.8031037,34.0796215 L44.8031037,34.0796215 Z" id="Shape" stroke="none" fill="#B09246" fill-rule="evenodd" sketch:type="MSShapeGroup"></path>
                        <path d="M23.2213699,35.968967 L45.4269477,35.968967 C45.9717245,35.968967 46.4138623,36.3921804 46.4138623,36.9136397 L46.4138623,44.4710216 C46.4138623,44.9924809 45.9717245,45.4156943 45.4269477,45.4156943 L23.2213699,45.4156943 C22.6765931,45.4156943 22.2344554,44.9924809 22.2344554,44.4710216 L22.2344554,36.9136397 C22.2344554,36.3921804 22.6765931,35.968967 23.2213699,35.968967 L23.2213699,35.968967 Z" id="Shape" stroke="none" fill="#BF9F4B" fill-rule="evenodd" sketch:type="MSShapeGroup"></path>
                        <path d="M21.3129172,38.4880943 L47.9717006,38.4880943 C48.5167247,38.4880943 48.959063,38.9113077 48.959063,39.432767 L48.959063,46.9901489 C48.959063,47.5116082 48.5167247,47.9348216 47.9717006,47.9348216 L21.3129172,47.9348216 C20.7678931,47.9348216 20.3255548,47.5116082 20.3255548,46.9901489 L20.3255548,39.432767 C20.3255548,38.9113077 20.7678931,38.4880943 21.3129172,38.4880943 L21.3129172,38.4880943 Z" id="Shape" stroke="none" fill="#DCB757" fill-rule="evenodd" sketch:type="MSShapeGroup"></path>
                        <path d="M25.1230981,36.0023011 L45.0488471,41.3082392 C45.5729246,41.4473426 45.8843258,41.9827684 45.7438514,42.5035518 L43.4554945,50.9898315 C43.3155113,51.5106149 42.7762076,51.8195707 42.2526213,51.6799793 L22.3263811,46.3745292 C21.8027948,46.2349378 21.4913936,45.699512 21.6318679,45.1787286 L23.9202249,36.6924489 C24.0606993,36.1721536 24.5995118,35.8631977 25.1230981,36.0023011 L25.1230981,36.0023011 Z" id="Shape" stroke="none" fill="#E4E7E7" fill-rule="evenodd" sketch:type="MSShapeGroup"></path>
                        <path d="M20.0471735,40.3774397 L49.8737445,40.3774397 C50.4225534,40.3774397 50.8679635,40.8006531 50.8679635,41.3221125 L50.8679635,48.8794943 C50.8679635,49.4009537 50.4225534,49.8241671 49.8737445,49.8241671 L20.0471735,49.8241671 C19.4983646,49.8241671 19.0529544,49.4009537 19.0529544,48.8794943 L19.0529544,41.3221125 C19.0529544,40.8006531 19.4983646,40.3774397 20.0471735,40.3774397 L20.0471735,40.3774397 Z" id="Shape" stroke="none" fill="#EFC75E" fill-rule="evenodd" sketch:type="MSShapeGroup"></path>
                        <path d="M15.4396784,46.675258 L53.8449394,46.675258 C54.660805,46.675258 55.3220648,47.3335899 55.3220648,48.1447489 L55.3220648,62.839658 C55.3220648,63.6513069 54.660805,64.309149 53.8449394,64.309149 L15.4396784,64.309149 C14.6238128,64.309149 13.962553,63.6513069 13.962553,62.839658 L13.962553,48.1447489 C13.962553,47.3335899 14.6238128,46.675258 15.4396784,46.675258 L15.4396784,46.675258 Z" id="Shape" stroke="none" fill="#2EA9D3" fill-rule="evenodd" sketch:type="MSShapeGroup"></path>
                        <path d="M25.4989519,52.9730762 C24.3989273,52.9730762 23.5070557,53.8190306 23.5070557,54.8624216 C23.5070557,55.9058127 24.3989273,56.7517671 25.4989519,56.7517671 C26.5989766,56.7517671 27.4908482,55.9058127 27.4908482,54.8624216 C27.4908482,53.8190306 26.5989766,52.9730762 25.4989519,52.9730762 L25.4989519,52.9730762 Z M44.421966,52.9730762 C43.3219414,52.9730762 42.4300698,53.8190306 42.4300698,54.8624216 C42.4300698,55.9058127 43.3219414,56.7517671 44.421966,56.7517671 C45.5219907,56.7517671 46.4138623,55.9058127 46.4138623,54.8624216 C46.4138623,53.8190306 45.5219907,52.9730762 44.421966,52.9730762 L44.421966,52.9730762 Z" id="Shape" stroke="none" fill="#4DC6EF" fill-rule="evenodd" sketch:type="MSShapeGroup"></path>
                        <path d="M44.1413616,54.8624216 C43.5894167,54.8624216 43.1414613,55.3138492 43.1414613,55.8700725 L43.1414613,56.373898 C43.1414613,57.2087368 42.4700283,57.8853744 41.6416109,57.8853744 L27.6430069,57.8853744 C26.8145895,57.8853744 26.1431565,57.2087368 26.1431565,56.373898 L26.1431565,55.8700725 C26.1431565,55.3138492 25.6952011,54.8624216 25.1432562,54.8624216 C24.5913112,54.8624216 24.1433559,55.3138492 24.1433559,55.8700725 L24.1433559,57.3815489 C24.1433559,58.7731148 25.2622443,59.9006762 26.6431066,59.9006762 L42.6415112,59.9006762 C44.0223735,59.9006762 45.1412619,58.7731148 45.1412619,57.3815489 L45.1412619,55.8700725 C45.1412619,55.3138492 44.6933066,54.8624216 44.1413616,54.8624216 L44.1413616,54.8624216 Z" id="Shape" stroke="none" fill="#E4E7E7" fill-rule="evenodd" sketch:type="MSShapeGroup"></path>
                        <path d="M35.5967592,51.3986216 C35.5967592,50.8771623 35.1691655,50.4539489 34.6423089,50.4539489 C34.1154524,50.4539489 33.6878586,50.8771623 33.6878586,51.3986216 C33.6878586,51.7344528 33.8663408,52.0273013 34.1331097,52.1954531 L33.6878586,54.2326398 L35.5967592,54.2326398 L35.1515081,52.1954531 C35.418277,52.0273013 35.5967592,51.7344528 35.5967592,51.3986216 L35.5967592,51.3986216 Z" id="Shape" stroke="none" fill="#207693" fill-rule="evenodd" sketch:type="MSShapeGroup"></path>
                        <path d="M22.8707555,41.0072216 L43.8686615,41.0072216 L40.1648711,39.7476579 L23.1367654,39.7476579 L22.8707555,41.0072216 Z" id="Shape" stroke="none" fill="#D8DBDB" fill-rule="evenodd" sketch:type="MSShapeGroup"></path>
                        <path d="M53.8449394,46.675258 L15.4396784,46.675258 C14.6238128,46.675258 13.962553,47.3523994 13.962553,48.1867343 L13.962553,49.1943852 C13.962553,48.3600503 14.6238128,47.6829089 15.4396784,47.6829089 L53.8449394,47.6829089 C54.660805,47.6829089 55.3220648,48.3600503 55.3220648,49.1943852 L55.3220648,48.1867343 C55.3220648,47.3523994 54.660805,46.675258 53.8449394,46.675258 L53.8449394,46.675258 Z" id="Shape" stroke="none" fill="#58BADC" fill-rule="evenodd" sketch:type="MSShapeGroup"></path>
                        <path d="M42.6415112,60.0056398 L26.6431066,60.0056398 C25.2622443,60.0056398 24.1433559,58.8310967 24.1433559,57.3815489 L24.1433559,57.9063671 C24.1433559,59.3559149 25.2622443,60.530458 26.6431066,60.530458 L42.6415112,60.530458 C44.0223735,60.530458 45.1412619,59.3559149 45.1412619,57.9063671 L45.1412619,57.3815489 C45.1412619,58.8310967 44.0223735,60.0056398 42.6415112,60.0056398 L42.6415112,60.0056398 Z" id="Shape" stroke="none" fill="#2998BE" fill-rule="evenodd" sketch:type="MSShapeGroup"></path>
                        <path d="M53.8449394,63.9312799 L15.4396784,63.9312799 C14.6238128,63.9312799 13.962553,63.2546423 13.962553,62.4198035 L13.962553,63.4274544 C13.962553,64.2622932 14.6238128,64.9389308 15.4396784,64.9389308 L53.8449394,64.9389308 C54.660805,64.9389308 55.3220648,64.2622932 55.3220648,63.4274544 L55.3220648,62.4198035 C55.3220648,63.2546423 54.660805,63.9312799 53.8449394,63.9312799 L53.8449394,63.9312799 Z" id="Shape" stroke="none" fill="#249CC5" fill-rule="evenodd" sketch:type="MSShapeGroup"></path>
                        <path d="M237.087113,0.76074862 L184.923297,0.76074862 C180.540402,0.76074862 176.985325,4.26779999 176.985325,8.59148534 L176.985325,74.5945278 C186.462129,81.6164613 198.240946,85.7812945 211.005205,85.7812945 C223.771732,85.7812945 235.550548,81.6164613 245.025085,74.5945278 L245.025085,8.59148534 C245.025085,4.26779999 241.472275,0.76074862 237.087113,0.76074862 L237.087113,0.76074862 Z" id="Shape" stroke="none" fill="#E4E7E7" fill-rule="evenodd" sketch:type="MSShapeGroup"></path>
                        <path d="M240.079308,13.9861669 L181.295216,13.9861669 C180.6712,13.9861669 180.164753,14.4887249 180.164753,15.1079482 L180.164753,76.8878121 C188.969931,82.5079366 199.441413,85.7812945 210.687262,85.7812945 C221.934241,85.7812945 232.404592,82.5079366 241.209771,76.8878121 L241.209771,15.1079482 C241.209771,14.4887249 240.704454,13.9861669 240.079308,13.9861669 L240.079308,13.9861669 Z" id="Shape" stroke="none" fill="#344C59" fill-rule="evenodd" sketch:type="MSShapeGroup"></path>
                        <path d="M239.302114,16.5052942 L182.708295,16.5052942 L182.708295,78.2894303 C191.034378,83.0448925 200.694943,85.7812945 211.005205,85.7812945 C221.31773,85.7812945 230.977163,83.0448925 239.302114,78.2894303 L239.302114,16.5052942 L239.302114,16.5052942 Z" id="Shape" stroke="none" fill="#3F5E6D" fill-rule="evenodd" sketch:type="MSShapeGroup"></path>
                        <path d="M216.283055,5.16922137 L204.837114,5.16922137 C204.204154,5.16922137 203.69252,5.73448282 203.69252,6.42815555 C203.69252,7.12434615 204.204154,7.68834866 204.837114,7.68834866 L216.283055,7.68834866 C216.916016,7.68834866 217.427649,7.12434615 217.427649,6.42815555 C217.427649,5.73448282 216.916016,5.16922137 216.283055,5.16922137 L216.283055,5.16922137 Z M220.861431,5.16922137 C220.228471,5.16922137 219.716837,5.73448282 219.716837,6.42815555 C219.716837,7.12434615 220.228471,7.68834866 220.861431,7.68834866 C221.494392,7.68834866 222.006026,7.12434615 222.006026,6.42815555 C222.006026,5.73448282 221.494392,5.16922137 220.861431,5.16922137 L220.861431,5.16922137 Z M225.439808,5.16922137 C224.806847,5.16922137 224.295214,5.73448282 224.295214,6.42815555 C224.295214,7.12434615 224.806847,7.68834866 225.439808,7.68834866 C226.072768,7.68834866 226.584402,7.12434615 226.584402,6.42815555 C226.584402,5.73448282 226.072768,5.16922137 225.439808,5.16922137 L225.439808,5.16922137 Z" id="Shape" stroke="none" fill="#BFC3C5" fill-rule="evenodd" sketch:type="MSShapeGroup"></path>
                        <mask id="mask-4" sketch:name="a" fill="white">
                            <use xlink:href="#path-3"></use>
                        </mask>
                        <g id="a"></g>
                        <path d="M223.799662,32.2492099 C224.635325,32.2492099 225.312631,33.0956367 225.312631,34.1385554 L225.312631,64.3680828 C225.312631,65.4116313 224.635325,66.2574283 223.799662,66.2574283 L182.949493,66.2574283 L182.949493,32.2492099 L223.799662,32.2492099 Z" id="Shape" stroke="none" fill="#EFEFEF" fill-rule="evenodd" sketch:type="MSShapeGroup" mask="url(#mask-4)"></path>
                        <path d="M219.58966,40.1214827 L207.507834,40.1214827 C206.805816,40.1214827 206.236062,40.6857672 206.236062,41.3810463 L206.236062,43.9001736 C206.236062,44.5954527 206.805816,45.1597373 207.507834,45.1597373 L219.58966,45.1597373 C220.291678,45.1597373 220.861431,44.5954527 220.861431,43.9001736 L220.861431,41.3810463 C220.861431,40.6857672 220.291678,40.1214827 219.58966,40.1214827 L219.58966,40.1214827 Z M183.083304,40.1214827 L183.083304,45.1597373 L200.773968,45.1597373 C201.331982,45.1597373 201.784863,44.5954527 201.784863,43.9001736 L201.784863,41.3810463 C201.784863,40.6857672 201.331982,40.1214827 200.773968,40.1214827 L183.083304,40.1214827 Z M200.513092,53.3469009 L196.061893,53.3469009 C195.359875,53.3469009 194.790122,53.9111854 194.790122,54.6064646 L194.790122,57.1255919 C194.790122,57.820871 195.359875,58.3851555 196.061893,58.3851555 L200.513092,58.3851555 C201.21511,58.3851555 201.784863,57.820871 201.784863,57.1255919 L201.784863,54.6064646 C201.784863,53.9111854 201.21511,53.3469009 200.513092,53.3469009 L200.513092,53.3469009 Z M186.523609,53.3469009 C185.821591,53.3469009 185.251837,53.9111854 185.251837,54.6064646 L185.251837,57.1255919 C185.251837,57.820871 185.821591,58.3851555 186.523609,58.3851555 L190.974808,58.3851555 C191.676826,58.3851555 192.246579,57.820871 192.246579,57.1255919 L192.246579,54.6064646 C192.246579,53.9111854 191.676826,53.3469009 190.974808,53.3469009 L186.523609,53.3469009 Z" id="Shape" stroke="none" fill="#CCD0D2" fill-rule="evenodd" sketch:type="MSShapeGroup" mask="url(#mask-4)"></path>
                        <path d="M214.184633,55.2356166 C214.184633,57.148264 212.618446,58.6994166 210.687262,58.6994166 C208.756077,58.6994166 207.189891,57.148264 207.189891,55.2356166 C207.189891,53.3229692 208.756077,51.7718166 210.687262,51.7718166 C212.618446,51.7718166 214.184633,53.3229692 214.184633,55.2356166 Z" id="Shape" stroke="none" fill="#FF6A6A" fill-rule="evenodd" sketch:type="MSShapeGroup" mask="url(#mask-4)"></path>
                        <path d="M203.577366,53.96804 L215.647492,51.5718676 C215.998413,51.5020824 216.339972,51.7278391 216.410027,52.075157 L220.799604,73.7982884 C220.869982,74.145928 220.642706,74.484563 220.291786,74.5540266 L208.221659,76.9505206 C207.870739,77.0199842 207.52918,76.7945491 207.459125,76.4469096 L203.069548,54.7237782 C202.99917,54.3761386 203.226445,54.0378252 203.577366,53.96804 L203.577366,53.96804 Z" id="Shape" stroke="none" fill="#2B8272" fill-rule="evenodd" sketch:type="MSShapeGroup" mask="url(#mask-4)"></path>
                        <path d="M215.199398,53.1048905 C215.164209,52.9302668 214.992462,52.8170668 214.816517,52.8521202 L204.609467,54.8784633 C204.4332,54.9131951 204.319239,55.0833166 204.354105,55.2579404 L205.44012,60.6320429 C205.475309,60.806345 205.647056,60.9198665 205.823324,60.8844916 C205.999591,60.8497598 206.113552,60.6796383 206.078363,60.5050145 L205.05627,55.4467141 L214.625399,53.5473994 L215.647492,58.6053782 C215.682681,58.7800019 215.854429,58.8932018 216.030697,58.8581485 C216.206641,58.8234167 216.320925,58.6529736 216.285736,58.4786714 L215.199398,53.1048905 L215.199398,53.1048905 Z" id="Shape" stroke="none" fill="#4B9587" fill-rule="evenodd" sketch:type="MSShapeGroup" mask="url(#mask-4)"></path>
                        <path d="M206.906433,50.297082 L219.155409,49.1081611 C219.511818,49.0737509 219.828841,49.3319882 219.863707,49.6850948 L222.063177,71.735284 C222.098366,72.0883906 221.838484,72.4022631 221.482075,72.4369949 L209.233099,73.6259158 C208.87669,73.660326 208.559667,73.4024102 208.524801,73.048982 L206.325331,50.9987929 C206.290142,50.6456863 206.550024,50.3314922 206.906433,50.297082 L206.906433,50.297082 Z" id="Shape" stroke="none" fill="#359685" fill-rule="evenodd" sketch:type="MSShapeGroup" mask="url(#mask-4)"></path>
                        <path d="M218.556874,50.5890863 C218.539119,50.4118899 218.379961,50.2822888 218.201111,50.2996547 L207.842329,51.3046257 C207.663479,51.3219916 207.532731,51.4798926 207.550487,51.6570891 L208.095108,57.1119109 C208.112864,57.2894289 208.272021,57.4187084 208.450872,57.4013425 C208.629722,57.3839766 208.760147,57.2263972 208.742391,57.0488791 L208.230376,51.9150049 L217.941875,50.9727441 L218.454213,56.1069399 C218.471969,56.2841364 218.631126,56.414059 218.809976,56.3963715 C218.988827,56.378684 219.119252,56.2211046 219.101496,56.0439081 L218.556874,50.5890863 L218.556874,50.5890863 Z" id="Shape" stroke="none" fill="#52A597" fill-rule="evenodd" sketch:type="MSShapeGroup" mask="url(#mask-4)"></path>
                        <path d="M211.12749,47.0560907 L223.395191,47.0560907 C223.7516,47.0560907 224.04086,47.344236 224.04086,47.6992722 L224.04086,70.5322131 C224.04086,70.8872492 223.7516,71.1753945 223.395191,71.1753945 L211.12749,71.1753945 C210.771081,71.1753945 210.481822,70.8872492 210.481822,70.5322131 L210.481822,47.6992722 C210.481822,47.344236 210.771081,47.0560907 211.12749,47.0560907 L211.12749,47.0560907 Z" id="Shape" stroke="none" fill="#3DB39E" fill-rule="evenodd" sketch:type="MSShapeGroup" mask="url(#mask-4)"></path>
                        <path d="M217.261341,52.2015422 C217.61775,52.2015422 217.907009,51.9133969 217.907009,51.5583608 C217.907009,51.2033246 217.61775,50.9151793 217.261341,50.9151793 C216.904932,50.9151793 216.615672,51.2033246 216.615672,51.5583608 C216.615672,51.9133969 216.904932,52.2015422 217.261341,52.2015422 L217.261341,52.2015422 Z M217.261341,67.9594874 C217.61775,67.9594874 217.907009,67.6713421 217.907009,67.3163059 C217.907009,66.9612698 217.61775,66.6731245 217.261341,66.6731245 C216.904932,66.6731245 216.615672,66.9612698 216.615672,67.3163059 C216.615672,67.6713421 216.904932,67.9594874 217.261341,67.9594874 L217.261341,67.9594874 Z M222.426688,48.3424536 L212.095993,48.3424536 C211.917466,48.3424536 211.773159,48.4865262 211.773159,48.6640443 L211.773159,54.4526772 C211.773159,54.6305169 211.917466,54.7742679 212.095993,54.7742679 C212.27452,54.7742679 212.418827,54.6305169 212.418827,54.4526772 L212.418827,48.985635 L222.103854,48.985635 L222.103854,54.4526772 C222.103854,54.6305169 222.248161,54.7742679 222.426688,54.7742679 C222.605216,54.7742679 222.749523,54.6305169 222.749523,54.4526772 L222.749523,48.6640443 C222.749523,48.4865262 222.605216,48.3424536 222.426688,48.3424536 L222.426688,48.3424536 Z M222.426688,64.4219895 C222.248161,64.4219895 222.103854,64.5660621 222.103854,64.7435802 L222.103854,70.5322131 L212.418827,70.5322131 L212.418827,64.7435802 C212.418827,64.5660621 212.27452,64.4219895 212.095993,64.4219895 C211.917466,64.4219895 211.773159,64.5660621 211.773159,64.7435802 L211.773159,70.8538038 C211.773159,71.0313219 211.917466,71.1753945 212.095993,71.1753945 L222.426688,71.1753945 C222.605216,71.1753945 222.749523,71.0313219 222.749523,70.8538038 L222.749523,64.7435802 C222.749523,64.5660621 222.605216,64.4219895 222.426688,64.4219895 L222.426688,64.4219895 Z M217.261341,54.7742679 C214.586982,54.7742679 212.418827,56.9340712 212.418827,59.5981287 C212.418827,62.2621862 214.586982,64.4219895 217.261341,64.4219895 C219.935699,64.4219895 222.103854,62.2621862 222.103854,59.5981287 C222.103854,56.9340712 219.935699,54.7742679 217.261341,54.7742679 L217.261341,54.7742679 Z M219.864999,59.9261512 L219.491157,59.9261512 C219.426913,60.4278327 219.220622,60.84172 218.911024,61.0552562 C218.852913,61.0928824 218.782213,61.1176448 218.704732,61.1176448 C218.517811,61.1176448 218.363174,60.9671404 218.363174,60.7790098 C218.363174,60.6915371 218.414505,60.6034213 218.504575,60.5091952 C218.698276,60.3149544 218.846457,59.9885398 218.846457,59.6312525 C218.846457,59.1105972 218.595292,58.9157132 218.337347,58.9157132 C217.493136,58.9157132 217.886348,61.2054391 216.274759,61.2054391 C215.565815,61.2054391 215.101902,60.7664678 215.017966,59.9258296 L214.657037,59.9258296 C214.489486,59.9258296 214.354218,59.7939774 214.354218,59.630931 C214.354218,59.4739947 214.489809,59.3424641 214.657037,59.3424641 L215.017966,59.3424641 C215.095123,58.7340144 215.430225,58.257417 215.784697,58.0438808 C215.83635,58.0123649 215.900594,57.9937126 215.965484,57.9937126 C216.158862,57.9937126 216.313499,58.1445387 216.313499,58.3262374 C216.313499,58.4641998 216.236342,58.5394521 216.171775,58.6021622 C215.900917,58.865545 215.682036,59.1983914 215.682036,59.630931 C215.682036,60.2014329 215.875413,60.4776793 216.274759,60.4776793 C217.215821,60.4776793 216.783869,58.188275 218.337347,58.188275 C218.910701,58.188275 219.406897,58.5394521 219.497613,59.3424641 L219.864999,59.3424641 C220.03255,59.3424641 220.167817,59.4739947 220.167817,59.630931 C220.16814,59.7939774 220.03255,59.9261512 219.864999,59.9261512 L219.864999,59.9261512 Z" id="Shape" stroke="none" fill="#81CEC0" fill-rule="evenodd" sketch:type="MSShapeGroup" mask="url(#mask-4)"></path>
                    </g>
                </g>
                <path d="M27.968,43.864 L27.968,32.664 L26.4,32.664 L22.32,40.728 L18.224,32.664 L16.64,32.664 L16.64,43.864 L17.856,43.864 L17.856,34.632 L21.92,42.68 L22.688,42.68 L26.768,34.632 L26.784,43.864 L27.968,43.864 Z M34.624,35.4 C32.128,35.4 30.352,37.128 30.352,39.64 C30.352,42.168 32.128,43.912 34.624,43.912 C37.12,43.912 38.896,42.168 38.896,39.64 C38.896,37.128 37.12,35.4 34.624,35.4 L34.624,35.4 Z M34.624,36.536 C36.384,36.536 37.648,37.816 37.648,39.656 C37.648,41.512 36.384,42.792 34.624,42.792 C32.864,42.792 31.6,41.512 31.6,39.656 C31.6,37.816 32.864,36.536 34.624,36.536 L34.624,36.536 Z M48.832,31.992 L47.584,31.992 L47.584,37.256 C46.96,36.056 45.792,35.368 44.288,35.368 C41.904,35.368 40.24,37.112 40.24,39.64 C40.24,42.152 41.904,43.928 44.304,43.928 C45.808,43.928 46.96,43.24 47.584,42.056 L47.584,43.864 L48.832,43.864 L48.832,31.992 Z M44.544,42.808 C42.752,42.808 41.488,41.496 41.488,39.672 C41.488,37.832 42.752,36.504 44.544,36.504 C46.32,36.504 47.584,37.832 47.584,39.672 C47.584,41.496 46.32,42.808 44.544,42.808 L44.544,42.808 Z M55.28,35.4 C52.832,35.4 51.104,37.144 51.104,39.656 C51.104,42.168 52.816,43.912 55.296,43.912 C56.704,43.912 57.888,43.4 58.688,42.504 L58,41.768 C57.344,42.456 56.432,42.824 55.392,42.824 C53.76,42.824 52.56,41.784 52.336,40.136 L59.216,40.136 C59.344,37.272 58,35.384 55.28,35.4 L55.28,35.4 Z M52.336,39.112 C52.528,37.512 53.68,36.472 55.28,36.472 C56.928,36.472 58.016,37.496 58.096,39.112 L52.336,39.112 Z M62.608,35.432 L61.36,35.432 L61.36,43.864 L62.608,43.864 L62.608,39.384 C62.752,37.72 63.856,36.616 65.632,36.648 L65.632,35.384 C64.208,35.4 63.168,36.072 62.608,37.304 L62.608,35.432 Z M71.824,35.384 C70.288,35.4 69.152,36.008 68.56,37.288 L68.56,35.432 L67.312,35.432 L67.312,43.864 L68.56,43.864 L68.56,39.336 C68.704,37.736 69.728,36.648 71.392,36.632 C72.88,36.632 73.776,37.512 73.776,39 L73.776,43.864 L75.024,43.864 L75.024,38.664 C75.024,36.632 73.84,35.384 71.824,35.384 L71.824,35.384 Z M85.52,35.4 C83.088,35.4 81.344,37.144 81.344,39.656 C81.344,42.168 83.072,43.912 85.52,43.912 C86.976,43.912 88.144,43.368 88.896,42.456 L88.176,41.688 C87.584,42.392 86.672,42.776 85.568,42.776 C83.824,42.776 82.576,41.496 82.576,39.656 C82.576,37.816 83.824,36.552 85.568,36.552 C86.592,36.552 87.44,36.92 88.08,37.528 L88.768,36.648 C88,35.848 86.88,35.384 85.52,35.4 L85.52,35.4 Z M95.776,35.384 C94.224,35.4 93.072,36.008 92.496,37.32 L92.496,31.992 L91.248,31.992 L91.248,43.864 L92.496,43.864 L92.496,39.72 C92.496,37.912 93.552,36.648 95.344,36.632 C96.832,36.632 97.728,37.512 97.728,39 L97.728,43.864 L98.976,43.864 L98.976,38.664 C98.976,36.632 97.792,35.384 95.776,35.384 L95.776,35.384 Z M105.088,35.4 C102.64,35.4 100.912,37.144 100.912,39.656 C100.912,42.168 102.624,43.912 105.104,43.912 C106.512,43.912 107.696,43.4 108.496,42.504 L107.808,41.768 C107.152,42.456 106.24,42.824 105.2,42.824 C103.568,42.824 102.368,41.784 102.144,40.136 L109.024,40.136 C109.152,37.272 107.808,35.384 105.088,35.4 L105.088,35.4 Z M102.144,39.112 C102.336,37.512 103.488,36.472 105.088,36.472 C106.736,36.472 107.824,37.496 107.904,39.112 L102.144,39.112 Z M114.496,35.4 C112.064,35.4 110.32,37.144 110.32,39.656 C110.32,42.168 112.048,43.912 114.496,43.912 C115.952,43.912 117.12,43.368 117.872,42.456 L117.152,41.688 C116.56,42.392 115.648,42.776 114.544,42.776 C112.8,42.776 111.552,41.496 111.552,39.656 C111.552,37.816 112.8,36.552 114.544,36.552 C115.568,36.552 116.416,36.92 117.056,37.528 L117.744,36.648 C116.976,35.848 115.856,35.384 114.496,35.4 L114.496,35.4 Z M123.248,39.608 L126.128,43.864 L127.616,43.864 L124.128,38.696 L127.28,35.432 L125.808,35.432 L121.472,39.752 L121.472,31.992 L120.224,31.992 L120.224,43.864 L121.472,43.864 L121.472,41.448 L123.248,39.608 Z M134.304,32.152 C133.84,32.152 133.488,32.52 133.488,33.016 C133.488,33.512 133.84,33.88 134.304,33.88 C134.768,33.88 135.12,33.512 135.12,33.016 C135.12,32.52 134.768,32.152 134.304,32.152 L134.304,32.152 Z M134.928,43.864 L134.928,35.432 L133.696,35.432 L133.696,43.864 L134.928,43.864 Z M142.48,35.384 C140.944,35.4 139.808,36.008 139.216,37.288 L139.216,35.432 L137.968,35.432 L137.968,43.864 L139.216,43.864 L139.216,39.336 C139.36,37.736 140.384,36.648 142.048,36.632 C143.536,36.632 144.432,37.512 144.432,39 L144.432,43.864 L145.68,43.864 L145.68,38.664 C145.68,36.632 144.496,35.384 142.48,35.384 L142.48,35.384 Z M158.08,43.864 L159.296,43.864 L159.28,38.296 C159.264,36.488 158.112,35.384 156.032,35.384 C154.592,35.384 153.68,35.8 152.592,36.52 L153.12,37.432 C154,36.824 154.864,36.472 155.792,36.472 C157.28,36.472 158.048,37.208 158.048,38.44 L158.048,38.936 L155.28,38.936 C153.296,38.952 152.128,39.88 152.128,41.352 C152.128,42.808 153.248,43.928 154.992,43.928 C156.336,43.928 157.408,43.48 158.08,42.568 L158.08,43.864 Z M155.232,42.84 C154.048,42.84 153.296,42.232 153.296,41.304 C153.296,40.376 154.032,39.944 155.44,39.944 L158.064,39.944 L158.064,40.952 C157.744,42.12 156.656,42.84 155.232,42.84 L155.232,42.84 Z M166.592,35.384 C165.056,35.4 163.92,36.008 163.328,37.288 L163.328,35.432 L162.08,35.432 L162.08,43.864 L163.328,43.864 L163.328,39.336 C163.472,37.736 164.496,36.648 166.16,36.632 C167.648,36.632 168.544,37.512 168.544,39 L168.544,43.864 L169.792,43.864 L169.792,38.664 C169.792,36.632 168.608,35.384 166.592,35.384 L166.592,35.384 Z M180.32,31.992 L179.072,31.992 L179.072,37.256 C178.448,36.056 177.28,35.368 175.776,35.368 C173.392,35.368 171.728,37.112 171.728,39.64 C171.728,42.152 173.392,43.928 175.792,43.928 C177.296,43.928 178.448,43.24 179.072,42.056 L179.072,43.864 L180.32,43.864 L180.32,31.992 Z M176.032,42.808 C174.24,42.808 172.976,41.496 172.976,39.672 C172.976,37.832 174.24,36.504 176.032,36.504 C177.808,36.504 179.072,37.832 179.072,39.672 C179.072,41.496 177.808,42.808 176.032,42.808 L176.032,42.808 Z M195.568,31.992 L194.32,31.992 L194.32,37.256 C193.696,36.056 192.528,35.368 191.024,35.368 C188.64,35.368 186.976,37.112 186.976,39.64 C186.976,42.152 188.64,43.928 191.04,43.928 C192.544,43.928 193.696,43.24 194.32,42.056 L194.32,43.864 L195.568,43.864 L195.568,31.992 Z M191.28,42.808 C189.488,42.808 188.224,41.496 188.224,39.672 C188.224,37.832 189.488,36.504 191.28,36.504 C193.056,36.504 194.32,37.832 194.32,39.672 C194.32,41.496 193.056,42.808 191.28,42.808 L191.28,42.808 Z M199.296,32.152 C198.832,32.152 198.48,32.52 198.48,33.016 C198.48,33.512 198.832,33.88 199.296,33.88 C199.76,33.88 200.112,33.512 200.112,33.016 C200.112,32.52 199.76,32.152 199.296,32.152 L199.296,32.152 Z M199.92,43.864 L199.92,35.432 L198.688,35.432 L198.688,43.864 L199.92,43.864 Z M210.304,35.432 L209.056,35.432 L209.056,37.144 C208.448,36.024 207.36,35.384 205.92,35.384 C203.664,35.4 202.112,37.064 202.112,39.416 C202.112,41.816 203.68,43.496 205.952,43.496 C207.376,43.496 208.464,42.856 209.056,41.736 L209.056,43.016 C209.056,44.776 207.856,45.896 206.016,45.896 C204.896,45.88 204.016,45.512 203.184,44.824 L202.608,45.784 C203.632,46.552 204.736,46.984 206.064,47 C208.624,47 210.304,45.448 210.304,42.984 L210.304,35.432 Z M206.176,42.44 C204.48,42.44 203.296,41.192 203.28,39.464 C203.296,37.72 204.48,36.472 206.176,36.472 C207.856,36.472 209.056,37.704 209.056,39.464 C209.056,41.192 207.856,42.44 206.176,42.44 L206.176,42.44 Z M213.744,32.152 C213.28,32.152 212.928,32.52 212.928,33.016 C212.928,33.512 213.28,33.88 213.744,33.88 C214.208,33.88 214.56,33.512 214.56,33.016 C214.56,32.52 214.208,32.152 213.744,32.152 L213.744,32.152 Z M214.368,43.864 L214.368,35.432 L213.136,35.432 L213.136,43.864 L214.368,43.864 Z M221.408,42.28 C220.944,42.568 220.496,42.712 220.064,42.712 C219.344,42.712 218.944,42.328 218.944,41.304 L218.944,36.712 L221.616,36.712 L221.616,35.688 L218.944,35.704 L218.944,33.48 L217.712,33.48 L217.712,35.704 L216.496,35.704 L216.496,36.712 L217.712,36.712 L217.712,41.528 C217.712,43.192 218.624,43.928 219.856,43.928 C220.528,43.912 221.168,43.688 221.76,43.288 L221.408,42.28 Z M228.88,43.864 L230.096,43.864 L230.08,38.296 C230.064,36.488 228.912,35.384 226.832,35.384 C225.392,35.384 224.48,35.8 223.392,36.52 L223.92,37.432 C224.8,36.824 225.664,36.472 226.592,36.472 C228.08,36.472 228.848,37.208 228.848,38.44 L228.848,38.936 L226.08,38.936 C224.096,38.952 222.928,39.88 222.928,41.352 C222.928,42.808 224.048,43.928 225.792,43.928 C227.136,43.928 228.208,43.48 228.88,42.568 L228.88,43.864 Z M226.032,42.84 C224.848,42.84 224.096,42.232 224.096,41.304 C224.096,40.376 224.832,39.944 226.24,39.944 L228.864,39.944 L228.864,40.952 C228.544,42.12 227.456,42.84 226.032,42.84 L226.032,42.84 Z M234.208,43.864 L234.208,31.992 L232.96,31.992 L232.96,43.864 L234.208,43.864 Z M237.936,32.152 C237.472,32.152 237.12,32.52 237.12,33.016 C237.12,33.512 237.472,33.88 237.936,33.88 C238.4,33.88 238.752,33.512 238.752,33.016 C238.752,32.52 238.4,32.152 237.936,32.152 L237.936,32.152 Z M238.56,43.864 L238.56,35.432 L237.328,35.432 L237.328,43.864 L238.56,43.864 Z M247.696,36.392 L247.696,35.448 L241.056,35.432 L241.056,36.52 L246.192,36.536 L240.912,42.92 L240.912,43.864 L247.824,43.88 L247.824,42.792 L242.416,42.776 L247.696,36.392 Z M253.216,35.4 C250.768,35.4 249.04,37.144 249.04,39.656 C249.04,42.168 250.752,43.912 253.232,43.912 C254.64,43.912 255.824,43.4 256.624,42.504 L255.936,41.768 C255.28,42.456 254.368,42.824 253.328,42.824 C251.696,42.824 250.496,41.784 250.272,40.136 L257.152,40.136 C257.28,37.272 255.936,35.384 253.216,35.4 L253.216,35.4 Z M250.272,39.112 C250.464,37.512 251.616,36.472 253.216,36.472 C254.864,36.472 255.952,37.496 256.032,39.112 L250.272,39.112 Z M267.04,31.992 L265.792,31.992 L265.792,37.256 C265.168,36.056 264,35.368 262.496,35.368 C260.112,35.368 258.448,37.112 258.448,39.64 C258.448,42.152 260.112,43.928 262.512,43.928 C264.016,43.928 265.168,43.24 265.792,42.056 L265.792,43.864 L267.04,43.864 L267.04,31.992 Z M262.752,42.808 C260.96,42.808 259.696,41.496 259.696,39.672 C259.696,37.832 260.96,36.504 262.752,36.504 C264.528,36.504 265.792,37.832 265.792,39.672 C265.792,41.496 264.528,42.808 262.752,42.808 L262.752,42.808 Z M279.12,35.384 C277.648,35.384 276.496,36.072 275.872,37.256 L275.872,35.432 L274.624,35.432 L274.624,46.968 L275.872,46.968 L275.872,42.056 C276.496,43.224 277.648,43.912 279.152,43.912 C281.536,43.912 283.168,42.168 283.168,39.672 C283.168,37.144 281.504,35.384 279.12,35.384 L279.12,35.384 Z M278.896,42.776 C277.12,42.776 275.872,41.48 275.872,39.64 C275.872,37.816 277.12,36.504 278.896,36.504 C280.656,36.504 281.904,37.832 281.904,39.64 C281.904,41.464 280.656,42.776 278.896,42.776 L278.896,42.776 Z M290.592,43.864 L291.808,43.864 L291.792,38.296 C291.776,36.488 290.624,35.384 288.544,35.384 C287.104,35.384 286.192,35.8 285.104,36.52 L285.632,37.432 C286.512,36.824 287.376,36.472 288.304,36.472 C289.792,36.472 290.56,37.208 290.56,38.44 L290.56,38.936 L287.792,38.936 C285.808,38.952 284.64,39.88 284.64,41.352 C284.64,42.808 285.76,43.928 287.504,43.928 C288.848,43.928 289.92,43.48 290.592,42.568 L290.592,43.864 Z M287.744,42.84 C286.56,42.84 285.808,42.232 285.808,41.304 C285.808,40.376 286.544,39.944 287.952,39.944 L290.576,39.944 L290.576,40.952 C290.256,42.12 289.168,42.84 287.744,42.84 L287.744,42.84 Z M300.8,35.432 L299.52,35.432 L296.848,42.392 L294.048,35.432 L292.736,35.432 L296.224,43.8 L295.872,44.584 C295.536,45.368 294.992,45.768 294.336,45.768 C293.92,45.768 293.536,45.64 293.152,45.368 L292.624,46.408 C293.136,46.824 293.696,47.032 294.4,47.032 C295.52,47.032 296.4,46.36 296.928,45.064 L300.8,35.432 Z M313.2,35.384 C311.584,35.4 310.4,36.104 309.872,37.592 C309.52,36.2 308.432,35.384 306.848,35.384 C305.328,35.4 304.192,36.024 303.632,37.336 L303.632,35.432 L302.4,35.432 L302.4,43.864 L303.632,43.864 L303.632,39.72 C303.632,37.912 304.672,36.664 306.4,36.616 C307.872,36.616 308.736,37.496 308.736,39 L308.736,43.864 L310,43.864 L310,39.72 C310,37.912 311.008,36.664 312.752,36.616 C314.208,36.616 315.088,37.496 315.088,39 L315.088,43.864 L316.336,43.864 L316.336,38.664 C316.336,36.632 315.168,35.384 313.2,35.384 L313.2,35.384 Z M322.432,35.4 C319.984,35.4 318.256,37.144 318.256,39.656 C318.256,42.168 319.968,43.912 322.448,43.912 C323.856,43.912 325.04,43.4 325.84,42.504 L325.152,41.768 C324.496,42.456 323.584,42.824 322.544,42.824 C320.912,42.824 319.712,41.784 319.488,40.136 L326.368,40.136 C326.496,37.272 325.152,35.384 322.432,35.4 L322.432,35.4 Z M319.488,39.112 C319.68,37.512 320.832,36.472 322.432,36.472 C324.08,36.472 325.168,37.496 325.248,39.112 L319.488,39.112 Z M333.024,35.384 C331.488,35.4 330.352,36.008 329.76,37.288 L329.76,35.432 L328.512,35.432 L328.512,43.864 L329.76,43.864 L329.76,39.336 C329.904,37.736 330.928,36.648 332.592,36.632 C334.08,36.632 334.976,37.512 334.976,39 L334.976,43.864 L336.224,43.864 L336.224,38.664 C336.224,36.632 335.04,35.384 333.024,35.384 L333.024,35.384 Z M343.008,42.28 C342.544,42.568 342.096,42.712 341.664,42.712 C340.944,42.712 340.544,42.328 340.544,41.304 L340.544,36.712 L343.216,36.712 L343.216,35.688 L340.544,35.704 L340.544,33.48 L339.312,33.48 L339.312,35.704 L338.096,35.704 L338.096,36.712 L339.312,36.712 L339.312,41.528 C339.312,43.192 340.224,43.928 341.456,43.928 C342.128,43.912 342.768,43.688 343.36,43.288 L343.008,42.28 Z M35.8,54.384 C34.184,54.4 33,55.104 32.472,56.592 C32.12,55.2 31.032,54.384 29.448,54.384 C27.928,54.4 26.792,55.024 26.232,56.336 L26.232,54.432 L25,54.432 L25,62.864 L26.232,62.864 L26.232,58.72 C26.232,56.912 27.272,55.664 29,55.616 C30.472,55.616 31.336,56.496 31.336,58 L31.336,62.864 L32.6,62.864 L32.6,58.72 C32.6,56.912 33.608,55.664 35.352,55.616 C36.808,55.616 37.688,56.496 37.688,58 L37.688,62.864 L38.936,62.864 L38.936,57.664 C38.936,55.632 37.768,54.384 35.8,54.384 L35.8,54.384 Z M45.032,54.4 C42.584,54.4 40.856,56.144 40.856,58.656 C40.856,61.168 42.568,62.912 45.048,62.912 C46.456,62.912 47.64,62.4 48.44,61.504 L47.752,60.768 C47.096,61.456 46.184,61.824 45.144,61.824 C43.512,61.824 42.312,60.784 42.088,59.136 L48.968,59.136 C49.096,56.272 47.752,54.384 45.032,54.4 L45.032,54.4 Z M42.088,58.112 C42.28,56.512 43.432,55.472 45.032,55.472 C46.68,55.472 47.768,56.496 47.848,58.112 L42.088,58.112 Z M56.344,62.864 L57.56,62.864 L57.544,57.296 C57.528,55.488 56.376,54.384 54.296,54.384 C52.856,54.384 51.944,54.8 50.856,55.52 L51.384,56.432 C52.264,55.824 53.128,55.472 54.056,55.472 C55.544,55.472 56.312,56.208 56.312,57.44 L56.312,57.936 L53.544,57.936 C51.56,57.952 50.392,58.88 50.392,60.352 C50.392,61.808 51.512,62.928 53.256,62.928 C54.6,62.928 55.672,62.48 56.344,61.568 L56.344,62.864 Z M53.496,61.84 C52.312,61.84 51.56,61.232 51.56,60.304 C51.56,59.376 52.296,58.944 53.704,58.944 L56.328,58.944 L56.328,59.952 C56.008,61.12 54.92,61.84 53.496,61.84 L53.496,61.84 Z M64.856,54.384 C63.32,54.4 62.184,55.008 61.592,56.288 L61.592,54.432 L60.344,54.432 L60.344,62.864 L61.592,62.864 L61.592,58.336 C61.736,56.736 62.76,55.648 64.424,55.632 C65.912,55.632 66.808,56.512 66.808,58 L66.808,62.864 L68.056,62.864 L68.056,57.664 C68.056,55.632 66.872,54.384 64.856,54.384 L64.856,54.384 Z M73.08,54.384 C71.544,54.384 70.152,55.056 70.152,56.672 C70.136,59.664 74.856,58.624 74.808,60.656 C74.792,61.488 73.992,61.856 73,61.856 C72.008,61.856 70.92,61.456 70.2,60.784 L69.72,61.728 C70.52,62.496 71.752,62.912 72.952,62.912 C74.568,62.912 76.04,62.176 76.04,60.512 C76.04,57.488 71.336,58.448 71.336,56.576 C71.336,55.792 72.056,55.456 73,55.456 C73.784,55.456 74.632,55.728 75.288,56.144 L75.768,55.152 C75.064,54.672 74.088,54.384 73.08,54.384 L73.08,54.384 Z M86.984,54.384 C85.448,54.4 84.312,55.008 83.72,56.288 L83.72,54.432 L82.472,54.432 L82.472,62.864 L83.72,62.864 L83.72,58.336 C83.864,56.736 84.888,55.648 86.552,55.632 C88.04,55.632 88.936,56.512 88.936,58 L88.936,62.864 L90.184,62.864 L90.184,57.664 C90.184,55.632 89,54.384 86.984,54.384 L86.984,54.384 Z M96.392,54.4 C93.896,54.4 92.12,56.128 92.12,58.64 C92.12,61.168 93.896,62.912 96.392,62.912 C98.888,62.912 100.664,61.168 100.664,58.64 C100.664,56.128 98.888,54.4 96.392,54.4 L96.392,54.4 Z M96.392,55.536 C98.152,55.536 99.416,56.816 99.416,58.656 C99.416,60.512 98.152,61.792 96.392,61.792 C94.632,61.792 93.368,60.512 93.368,58.656 C93.368,56.816 94.632,55.536 96.392,55.536 L96.392,55.536 Z M118.04,54.384 C116.424,54.4 115.24,55.104 114.712,56.592 C114.36,55.2 113.272,54.384 111.688,54.384 C110.168,54.4 109.032,55.024 108.472,56.336 L108.472,54.432 L107.24,54.432 L107.24,62.864 L108.472,62.864 L108.472,58.72 C108.472,56.912 109.512,55.664 111.24,55.616 C112.712,55.616 113.576,56.496 113.576,58 L113.576,62.864 L114.84,62.864 L114.84,58.72 C114.84,56.912 115.848,55.664 117.592,55.616 C119.048,55.616 119.928,56.496 119.928,58 L119.928,62.864 L121.176,62.864 L121.176,57.664 C121.176,55.632 120.008,54.384 118.04,54.384 L118.04,54.384 Z M127.368,54.4 C124.872,54.4 123.096,56.128 123.096,58.64 C123.096,61.168 124.872,62.912 127.368,62.912 C129.864,62.912 131.64,61.168 131.64,58.64 C131.64,56.128 129.864,54.4 127.368,54.4 L127.368,54.4 Z M127.368,55.536 C129.128,55.536 130.392,56.816 130.392,58.656 C130.392,60.512 129.128,61.792 127.368,61.792 C125.608,61.792 124.344,60.512 124.344,58.656 C124.344,56.816 125.608,55.536 127.368,55.536 L127.368,55.536 Z M135.08,54.432 L133.832,54.432 L133.832,62.864 L135.08,62.864 L135.08,58.384 C135.224,56.72 136.328,55.616 138.104,55.648 L138.104,54.384 C136.68,54.4 135.64,55.072 135.08,56.304 L135.08,54.432 Z M143.112,54.4 C140.664,54.4 138.936,56.144 138.936,58.656 C138.936,61.168 140.648,62.912 143.128,62.912 C144.536,62.912 145.72,62.4 146.52,61.504 L145.832,60.768 C145.176,61.456 144.264,61.824 143.224,61.824 C141.592,61.824 140.392,60.784 140.168,59.136 L147.048,59.136 C147.176,56.272 145.832,54.384 143.112,54.4 L143.112,54.4 Z M140.168,58.112 C140.36,56.512 141.512,55.472 143.112,55.472 C144.76,55.472 145.848,56.496 145.928,58.112 L140.168,58.112 Z M158.152,54.384 C156.68,54.384 155.528,55.072 154.904,56.256 L154.904,54.432 L153.656,54.432 L153.656,65.968 L154.904,65.968 L154.904,61.056 C155.528,62.224 156.68,62.912 158.184,62.912 C160.568,62.912 162.2,61.168 162.2,58.672 C162.2,56.144 160.536,54.384 158.152,54.384 L158.152,54.384 Z M157.928,61.776 C156.152,61.776 154.904,60.48 154.904,58.64 C154.904,56.816 156.152,55.504 157.928,55.504 C159.688,55.504 160.936,56.832 160.936,58.64 C160.936,60.464 159.688,61.776 157.928,61.776 L157.928,61.776 Z M169.624,62.864 L170.84,62.864 L170.824,57.296 C170.808,55.488 169.656,54.384 167.576,54.384 C166.136,54.384 165.224,54.8 164.136,55.52 L164.664,56.432 C165.544,55.824 166.408,55.472 167.336,55.472 C168.824,55.472 169.592,56.208 169.592,57.44 L169.592,57.936 L166.824,57.936 C164.84,57.952 163.672,58.88 163.672,60.352 C163.672,61.808 164.792,62.928 166.536,62.928 C167.88,62.928 168.952,62.48 169.624,61.568 L169.624,62.864 Z M166.776,61.84 C165.592,61.84 164.84,61.232 164.84,60.304 C164.84,59.376 165.576,58.944 166.984,58.944 L169.608,58.944 L169.608,59.952 C169.288,61.12 168.2,61.84 166.776,61.84 L166.776,61.84 Z M178.2,54.384 C176.728,54.384 175.576,55.072 174.952,56.256 L174.952,54.432 L173.704,54.432 L173.704,65.968 L174.952,65.968 L174.952,61.056 C175.576,62.224 176.728,62.912 178.232,62.912 C180.616,62.912 182.248,61.168 182.248,58.672 C182.248,56.144 180.584,54.384 178.2,54.384 L178.2,54.384 Z M177.976,61.776 C176.2,61.776 174.952,60.48 174.952,58.64 C174.952,56.816 176.2,55.504 177.976,55.504 C179.736,55.504 180.984,56.832 180.984,58.64 C180.984,60.464 179.736,61.776 177.976,61.776 L177.976,61.776 Z M187.768,54.4 C185.32,54.4 183.592,56.144 183.592,58.656 C183.592,61.168 185.304,62.912 187.784,62.912 C189.192,62.912 190.376,62.4 191.176,61.504 L190.488,60.768 C189.832,61.456 188.92,61.824 187.88,61.824 C186.248,61.824 185.048,60.784 184.824,59.136 L191.704,59.136 C191.832,56.272 190.488,54.384 187.768,54.4 L187.768,54.4 Z M184.824,58.112 C185.016,56.512 186.168,55.472 187.768,55.472 C189.416,55.472 190.504,56.496 190.584,58.112 L184.824,58.112 Z M195.096,54.432 L193.848,54.432 L193.848,62.864 L195.096,62.864 L195.096,58.384 C195.24,56.72 196.344,55.616 198.12,55.648 L198.12,54.384 C196.696,54.4 195.656,55.072 195.096,56.304 L195.096,54.432 Z M209.48,62.864 L212.6,54.432 L211.304,54.432 L208.84,61.568 L206.36,54.432 L205.048,54.432 L202.6,61.568 L200.104,54.432 L198.792,54.432 L201.944,62.864 L203.24,62.864 L205.704,56.016 L208.184,62.864 L209.48,62.864 Z M217.224,54.4 C214.728,54.4 212.952,56.128 212.952,58.64 C212.952,61.168 214.728,62.912 217.224,62.912 C219.72,62.912 221.496,61.168 221.496,58.64 C221.496,56.128 219.72,54.4 217.224,54.4 L217.224,54.4 Z M217.224,55.536 C218.984,55.536 220.248,56.816 220.248,58.656 C220.248,60.512 218.984,61.792 217.224,61.792 C215.464,61.792 214.2,60.512 214.2,58.656 C214.2,56.816 215.464,55.536 217.224,55.536 L217.224,55.536 Z M224.936,54.432 L223.688,54.432 L223.688,62.864 L224.936,62.864 L224.936,58.384 C225.08,56.72 226.184,55.616 227.96,55.648 L227.96,54.384 C226.536,54.4 225.496,55.072 224.936,56.304 L224.936,54.432 Z M232.744,58.608 L235.624,62.864 L237.112,62.864 L233.624,57.696 L236.776,54.432 L235.304,54.432 L230.968,58.752 L230.968,50.992 L229.72,50.992 L229.72,62.864 L230.968,62.864 L230.968,60.448 L232.744,58.608 Z M246.616,54.4 C244.12,54.4 242.344,56.128 242.344,58.64 C242.344,61.168 244.12,62.912 246.616,62.912 C249.112,62.912 250.888,61.168 250.888,58.64 C250.888,56.128 249.112,54.4 246.616,54.4 L246.616,54.4 Z M246.616,55.536 C248.376,55.536 249.64,56.816 249.64,58.656 C249.64,60.512 248.376,61.792 246.616,61.792 C244.856,61.792 243.592,60.512 243.592,58.656 C243.592,56.816 244.856,55.536 246.616,55.536 L246.616,55.536 Z M254.328,54.432 L253.08,54.432 L253.08,62.864 L254.328,62.864 L254.328,58.384 C254.472,56.72 255.576,55.616 257.352,55.648 L257.352,54.384 C255.928,54.4 254.888,55.072 254.328,56.304 L254.328,54.432 Z M266.6,62.864 L269.912,54.432 L268.648,54.432 L265.976,61.568 L263.288,54.432 L261.96,54.432 L265.304,62.864 L266.6,62.864 Z M274.536,54.4 C272.04,54.4 270.264,56.128 270.264,58.64 C270.264,61.168 272.04,62.912 274.536,62.912 C277.032,62.912 278.808,61.168 278.808,58.64 C278.808,56.128 277.032,54.4 274.536,54.4 L274.536,54.4 Z M274.536,55.536 C276.296,55.536 277.56,56.816 277.56,58.656 C277.56,60.512 276.296,61.792 274.536,61.792 C272.776,61.792 271.512,60.512 271.512,58.656 C271.512,56.816 272.776,55.536 274.536,55.536 L274.536,55.536 Z M288.312,54.432 L287.064,54.432 L287.064,58.576 C287.064,60.368 286.04,61.632 284.296,61.664 C282.84,61.664 281.96,60.784 281.96,59.296 L281.96,54.432 L280.712,54.432 L280.712,59.632 C280.712,61.664 281.896,62.912 283.864,62.912 C285.384,62.896 286.504,62.272 287.064,60.96 L287.064,62.864 L288.312,62.864 L288.312,54.432 Z M294.68,54.4 C292.248,54.4 290.504,56.144 290.504,58.656 C290.504,61.168 292.232,62.912 294.68,62.912 C296.136,62.912 297.304,62.368 298.056,61.456 L297.336,60.688 C296.744,61.392 295.832,61.776 294.728,61.776 C292.984,61.776 291.736,60.496 291.736,58.656 C291.736,56.816 292.984,55.552 294.728,55.552 C295.752,55.552 296.6,55.92 297.24,56.528 L297.928,55.648 C297.16,54.848 296.04,54.384 294.68,54.4 L294.68,54.4 Z M304.936,54.384 C303.384,54.4 302.232,55.008 301.656,56.32 L301.656,50.992 L300.408,50.992 L300.408,62.864 L301.656,62.864 L301.656,58.72 C301.656,56.912 302.712,55.648 304.504,55.632 C305.992,55.632 306.888,56.512 306.888,58 L306.888,62.864 L308.136,62.864 L308.136,57.664 C308.136,55.632 306.952,54.384 304.936,54.384 L304.936,54.384 Z M314.248,54.4 C311.8,54.4 310.072,56.144 310.072,58.656 C310.072,61.168 311.784,62.912 314.264,62.912 C315.672,62.912 316.856,62.4 317.656,61.504 L316.968,60.768 C316.312,61.456 315.4,61.824 314.36,61.824 C312.728,61.824 311.528,60.784 311.304,59.136 L318.184,59.136 C318.312,56.272 316.968,54.384 314.248,54.4 L314.248,54.4 Z M311.304,58.112 C311.496,56.512 312.648,55.472 314.248,55.472 C315.896,55.472 316.984,56.496 317.064,58.112 L311.304,58.112 Z M321.576,54.432 L320.328,54.432 L320.328,62.864 L321.576,62.864 L321.576,58.384 C321.72,56.72 322.824,55.616 324.6,55.648 L324.6,54.384 C323.176,54.4 322.136,55.072 321.576,56.304 L321.576,54.432 Z M328.52,54.384 C326.984,54.384 325.592,55.056 325.592,56.672 C325.576,59.664 330.296,58.624 330.248,60.656 C330.232,61.488 329.432,61.856 328.44,61.856 C327.448,61.856 326.36,61.456 325.64,60.784 L325.16,61.728 C325.96,62.496 327.192,62.912 328.392,62.912 C330.008,62.912 331.48,62.176 331.48,60.512 C331.48,57.488 326.776,58.448 326.776,56.576 C326.776,55.792 327.496,55.456 328.44,55.456 C329.224,55.456 330.072,55.728 330.728,56.144 L331.208,55.152 C330.504,54.672 329.528,54.384 328.52,54.384 L328.52,54.384 Z M333.608,61.328 C333.16,61.328 332.824,61.68 332.824,62.16 C332.824,62.64 333.16,62.992 333.608,62.992 C334.04,62.992 334.376,62.64 334.376,62.16 C334.376,61.68 334.04,61.328 333.608,61.328 L333.608,61.328 Z M132.248,91.864 L132.248,80.664 L128.712,80.664 L128.712,81.88 L130.984,81.88 L130.984,91.864 L132.248,91.864 Z M139.848,80.632 C136.872,80.632 135.224,82.648 135.224,86.264 C135.224,89.88 136.872,91.896 139.848,91.896 C142.824,91.896 144.472,89.88 144.472,86.264 C144.472,82.648 142.824,80.632 139.848,80.632 L139.848,80.632 Z M139.848,81.72 C142.024,81.72 143.176,83.224 143.176,86.264 C143.176,89.288 142.024,90.808 139.848,90.808 C137.672,90.808 136.52,89.288 136.52,86.264 C136.52,83.224 137.672,81.72 139.848,81.72 L139.848,81.72 Z M150.792,80.632 C147.816,80.632 146.168,82.648 146.168,86.264 C146.168,89.88 147.816,91.896 150.792,91.896 C153.768,91.896 155.416,89.88 155.416,86.264 C155.416,82.648 153.768,80.632 150.792,80.632 L150.792,80.632 Z M150.792,81.72 C152.968,81.72 154.12,83.224 154.12,86.264 C154.12,89.288 152.968,90.808 150.792,90.808 C148.616,90.808 147.464,89.288 147.464,86.264 C147.464,83.224 148.616,81.72 150.792,81.72 L150.792,81.72 Z M159.8,80.648 C158.008,80.648 156.952,81.88 156.952,83.96 C156.952,86.056 158.008,87.272 159.8,87.272 C161.592,87.272 162.664,86.056 162.664,83.96 C162.664,81.88 161.592,80.648 159.8,80.648 L159.8,80.648 Z M158.888,91.864 L160.136,91.864 L168.504,80.664 L167.272,80.664 L158.888,91.864 Z M159.8,81.448 C161.064,81.448 161.768,82.36 161.768,83.96 C161.768,85.56 161.064,86.456 159.8,86.456 C158.536,86.456 157.832,85.56 157.832,83.96 C157.832,82.36 158.536,81.448 159.8,81.448 L159.8,81.448 Z M167.784,85.272 C165.992,85.272 164.936,86.488 164.936,88.568 C164.936,90.664 165.992,91.88 167.784,91.88 C169.576,91.88 170.648,90.664 170.648,88.568 C170.648,86.488 169.576,85.272 167.784,85.272 L167.784,85.272 Z M167.784,86.072 C169.048,86.072 169.752,86.968 169.752,88.568 C169.752,90.184 169.048,91.08 167.784,91.08 C166.52,91.08 165.816,90.184 165.816,88.568 C165.816,86.968 166.52,86.072 167.784,86.072 L167.784,86.072 Z M177.416,80.664 L177.416,91.864 L181.896,91.864 C185.192,91.864 187.704,89.448 187.704,86.264 C187.704,83.08 185.208,80.664 181.944,80.664 L177.416,80.664 Z M178.696,81.896 L181.912,81.896 C184.424,81.896 186.408,83.768 186.408,86.28 C186.408,88.776 184.456,90.648 181.96,90.648 L178.696,90.648 L178.696,81.896 Z M190.472,80.152 C190.008,80.152 189.656,80.52 189.656,81.016 C189.656,81.512 190.008,81.88 190.472,81.88 C190.936,81.88 191.288,81.512 191.288,81.016 C191.288,80.52 190.936,80.152 190.472,80.152 L190.472,80.152 Z M191.096,91.864 L191.096,83.432 L189.864,83.432 L189.864,91.864 L191.096,91.864 Z M201.48,83.432 L200.232,83.432 L200.232,85.144 C199.624,84.024 198.536,83.384 197.096,83.384 C194.84,83.4 193.288,85.064 193.288,87.416 C193.288,89.816 194.856,91.496 197.128,91.496 C198.552,91.496 199.64,90.856 200.232,89.736 L200.232,91.016 C200.232,92.776 199.032,93.896 197.192,93.896 C196.072,93.88 195.192,93.512 194.36,92.824 L193.784,93.784 C194.808,94.552 195.912,94.984 197.24,95 C199.8,95 201.48,93.448 201.48,90.984 L201.48,83.432 Z M197.352,90.44 C195.656,90.44 194.472,89.192 194.456,87.464 C194.472,85.72 195.656,84.472 197.352,84.472 C199.032,84.472 200.232,85.704 200.232,87.464 C200.232,89.192 199.032,90.44 197.352,90.44 L197.352,90.44 Z M204.92,80.152 C204.456,80.152 204.104,80.52 204.104,81.016 C204.104,81.512 204.456,81.88 204.92,81.88 C205.384,81.88 205.736,81.512 205.736,81.016 C205.736,80.52 205.384,80.152 204.92,80.152 L204.92,80.152 Z M205.544,91.864 L205.544,83.432 L204.312,83.432 L204.312,91.864 L205.544,91.864 Z M212.584,90.28 C212.12,90.568 211.672,90.712 211.24,90.712 C210.52,90.712 210.12,90.328 210.12,89.304 L210.12,84.712 L212.792,84.712 L212.792,83.688 L210.12,83.704 L210.12,81.48 L208.888,81.48 L208.888,83.704 L207.672,83.704 L207.672,84.712 L208.888,84.712 L208.888,89.528 C208.888,91.192 209.8,91.928 211.032,91.928 C211.704,91.912 212.344,91.688 212.936,91.288 L212.584,90.28 Z M220.056,91.864 L221.272,91.864 L221.256,86.296 C221.24,84.488 220.088,83.384 218.008,83.384 C216.568,83.384 215.656,83.8 214.568,84.52 L215.096,85.432 C215.976,84.824 216.84,84.472 217.768,84.472 C219.256,84.472 220.024,85.208 220.024,86.44 L220.024,86.936 L217.256,86.936 C215.272,86.952 214.104,87.88 214.104,89.352 C214.104,90.808 215.224,91.928 216.968,91.928 C218.312,91.928 219.384,91.48 220.056,90.568 L220.056,91.864 Z M217.208,90.84 C216.024,90.84 215.272,90.232 215.272,89.304 C215.272,88.376 216.008,87.944 217.416,87.944 L220.04,87.944 L220.04,88.952 C219.72,90.12 218.632,90.84 217.208,90.84 L217.208,90.84 Z M225.384,91.864 L225.384,79.992 L224.136,79.992 L224.136,91.864 L225.384,91.864 Z M229.352,83.56 L229.352,80.856 L228.152,80.856 L228.152,83.56 L228.328,88.488 L229.16,88.488 L229.352,83.56 Z M228.744,90.328 C228.312,90.328 227.976,90.68 227.976,91.16 C227.976,91.64 228.312,91.992 228.744,91.992 C229.192,91.992 229.528,91.64 229.528,91.16 C229.528,90.68 229.192,90.328 228.744,90.328 L228.744,90.328 Z" id="Modern-check-in-and-" fill="#FFFFFF" sketch:type="MSShapeGroup" mask="url(#mask-2)"></path>
            </g>
        </g>
    </g>
</svg>