<?xml version="1.0" encoding="UTF-8" standalone="no"?>
<svg width="1566px" height="509px" viewBox="0 0 1566 509" version="1.1" xmlns="http://www.w3.org/2000/svg" xmlns:xlink="http://www.w3.org/1999/xlink" xmlns:sketch="http://www.bohemiancoding.com/sketch/ns">
    <!-- Generator: Sketch 3.3.3 (12081) - http://www.bohemiancoding.com/sketch -->
    <title>DigitalLandingGold-Desktop</title>
    <desc>Created with Sketch.</desc>
    <defs>
        <rect id="path-1" x="0" y="0" width="1566" height="508.932599"></rect>
        <path id="path-3" d="M113.418193,0 C50.7795935,0 0,50.7979282 0,113.461944 C0,176.12596 50.7795935,226.928426 113.418193,226.928426 C176.056793,226.928426 226.836387,176.12596 226.836387,113.461944 C226.836387,50.7979282 176.056793,0 113.418193,0 L113.418193,0 Z"></path>
    </defs>
    <g id="Iconography" stroke="none" stroke-width="1" fill="none" fill-rule="evenodd" sketch:type="MSPage">
        <g id="Artboard-4" sketch:type="MSArtboardGroup" transform="translate(-82.000000, -1344.000000)">
            <g id="DigitalLandingGold-Desktop" sketch:type="MSLayerGroup" transform="translate(82.000000, 1344.000000)">
                <mask id="mask-2" sketch:name="Mask" fill="white">
                    <use xlink:href="#path-1"></use>
                </mask>
                <use id="Mask" fill="#F2C400" sketch:type="MSShapeGroup" xlink:href="#path-1"></use>
                <g id="digitalcheckin" mask="url(#mask-2)">
                    <g transform="translate(661.690141, 243.319351)">
                        <g id="android">
                            <path d="M214.314085,1.13686838e-13 L28.3056338,1.13686838e-13 C12.6768803,1.13686838e-13 0,12.6298151 0,28.200544 L0,265.894872 C33.7928831,291.182703 75.7944,306.181364 121.309859,306.181364 C166.833406,306.181364 208.834923,291.182703 242.619718,265.894872 L242.619718,28.200544 C242.619718,12.6298151 229.950925,1.27999475e-13 214.314085,1.27999475e-13 L214.314085,1.13686838e-13 Z" id="Shape" fill="#E4E7E7" sketch:type="MSShapeGroup"></path>
                            <path d="M224.983809,47.6282121 L15.3684349,47.6282121 C13.1432871,47.6282121 11.33737,49.4380559 11.33737,51.668042 L11.33737,274.153592 C42.7353345,294.39314 80.0750886,306.181364 120.176122,306.181364 C160.281187,306.181364 197.61691,294.39314 229.014874,274.153592 L229.014874,51.668042 C229.014874,49.4380559 227.212988,47.6282121 224.983809,47.6282121 L224.983809,47.6282121 Z" id="Shape" fill="#344C59" sketch:type="MSShapeGroup"></path>
                            <path d="M222.212452,56.7002525 L20.407266,56.7002525 L20.407266,279.201189 C50.096845,296.32686 84.5449903,306.181364 121.309859,306.181364 C158.0828,306.181364 192.526909,296.32686 222.212452,279.201189 L222.212452,56.7002525 L222.212452,56.7002525 Z" id="Shape" fill="#3F5E6D" sketch:type="MSShapeGroup"></path>
                            <path d="M140.129893,15.8760707 L99.3153613,15.8760707 C97.0583177,15.8760707 95.2339081,17.9117259 95.2339081,20.409824 C95.2339081,22.9169896 97.0583177,24.9481111 99.3153613,24.9481111 L140.129893,24.9481111 C142.386937,24.9481111 144.211347,22.9169896 144.211347,20.409824 C144.211347,17.9117259 142.386937,15.8760707 140.129893,15.8760707 L140.129893,15.8760707 Z M156.455706,15.8760707 C154.198663,15.8760707 152.374253,17.9117259 152.374253,20.409824 C152.374253,22.9169896 154.198663,24.9481111 156.455706,24.9481111 C158.71275,24.9481111 160.537159,22.9169896 160.537159,20.409824 C160.537159,17.9117259 158.71275,15.8760707 156.455706,15.8760707 L156.455706,15.8760707 Z M172.781519,15.8760707 C170.524475,15.8760707 168.700066,17.9117259 168.700066,20.409824 C168.700066,22.9169896 170.524475,24.9481111 172.781519,24.9481111 C175.038563,24.9481111 176.862972,22.9169896 176.862972,20.409824 C176.862972,17.9117259 175.038563,15.8760707 172.781519,15.8760707 L172.781519,15.8760707 Z" id="Shape" fill="#BFC3C5" sketch:type="MSShapeGroup"></path>
                        </g>
                        <g id="clipboard" transform="translate(24.942214, 138.348616)">
                            <path d="M10.8838752,13.6080606 C4.87325513,13.6080606 0,17.6700103 0,22.679975 L0,144.459086 C24.5431386,164.519357 58.1471033,167.832747 95.2339081,167.832747 C132.323434,167.832747 165.924678,164.519357 190.467816,144.459086 L190.467816,22.679975 C190.467816,17.6700103 185.594561,13.6080606 179.583941,13.6080606 L10.8838752,13.6080606 Z" id="Shape" fill="#E2574C" sketch:type="MSShapeGroup"></path>
                            <path d="M21.4237199,34.0201515 C18.3593461,34.0201515 15.872318,36.0522563 15.872318,38.5560997 L15.872318,155.853452 C38.5803274,169.091617 66.3484395,172.368768 96.3676451,172.368768 C126.386851,172.368768 154.154963,169.091617 176.862972,155.853452 L176.862972,38.5560997 C176.862972,36.0522563 174.375944,34.0201515 171.31157,34.0201515 L21.4237199,34.0201515 Z" id="Shape" fill="#F0DDAB" sketch:type="MSShapeGroup"></path>
                            <path d="M179.583941,13.6080606 L10.8838752,13.6080606 C4.87325513,13.6080606 0,17.6700667 0,22.680101 L0,27.2161212 C0,22.2060869 4.87325513,18.1440808 10.8838752,18.1440808 L179.583941,18.1440808 C185.594561,18.1440808 190.467816,22.2060869 190.467816,27.2161212 L190.467816,22.680101 C190.467816,17.6700667 185.594561,13.6080606 179.583941,13.6080606 L179.583941,13.6080606 Z" id="Shape" fill="#BF392B" sketch:type="MSShapeGroup"></path>
                            <path d="M146.932315,133.812596 L43.5355009,133.812596 C42.0308051,133.812596 40.8145321,134.826396 40.8145321,136.080606 C40.8145321,137.334816 42.0308051,138.348616 43.5355009,138.348616 L146.932315,138.348616 C148.437011,138.348616 149.653284,137.334816 149.653284,136.080606 C149.653284,134.826396 148.437011,133.812596 146.932315,133.812596 L146.932315,133.812596 Z M146.932315,111.132495 L43.5355009,111.132495 C42.0308051,111.132495 40.8145321,112.146295 40.8145321,113.400505 C40.8145321,114.654715 42.0308051,115.668515 43.5355009,115.668515 L146.932315,115.668515 C148.437011,115.668515 149.653284,114.654715 149.653284,113.400505 C149.653284,112.146295 148.437011,111.132495 146.932315,111.132495 L146.932315,111.132495 Z M146.932315,88.4523939 L43.5355009,88.4523939 C42.0308051,88.4523939 40.8145321,89.4684624 40.8145321,90.720404 C40.8145321,91.9746136 42.0308051,92.9884141 43.5355009,92.9884141 L146.932315,92.9884141 C148.437011,92.9884141 149.653284,91.9746136 149.653284,90.720404 C149.653284,89.4684624 148.437011,88.4523939 146.932315,88.4523939 L146.932315,88.4523939 Z M146.932315,156.492697 L43.5355009,156.492697 C42.0308051,156.492697 40.8145321,157.506497 40.8145321,158.760707 C40.8145321,160.014917 42.0308051,161.028717 43.5355009,161.028717 L146.932315,161.028717 C148.437011,161.028717 149.653284,160.014917 149.653284,158.760707 C149.653284,157.506497 148.437011,156.492697 146.932315,156.492697 L146.932315,156.492697 Z M43.5355009,70.3083131 L146.932315,70.3083131 C148.437011,70.3083131 149.653284,69.2945126 149.653284,68.040303 C149.653284,66.7883614 148.437011,65.7722929 146.932315,65.7722929 L43.5355009,65.7722929 C42.0308051,65.7722929 40.8145321,66.7883614 40.8145321,68.040303 C40.8145321,69.2945126 42.0308051,70.3083131 43.5355009,70.3083131 L43.5355009,70.3083131 Z" id="Shape" fill="#D8C69A" sketch:type="MSShapeGroup"></path>
                            <path d="M43.52444,22.680101 L149.21085,22.680101 C150.709429,22.680101 151.920758,23.6961695 151.920758,24.9481111 L151.920758,40.8241818 C151.920758,44.5822745 148.278642,47.6282121 143.791034,47.6282121 L48.9442559,47.6282121 C44.4566483,47.6282121 40.8145321,44.5822745 40.8145321,40.8241818 L40.8145321,24.9481111 C40.8145321,23.6961695 42.0258609,22.680101 43.52444,22.680101 L43.52444,22.680101 Z M79.7125508,5.68434189e-14 L113.982047,5.68434189e-14 C118.469654,5.68434189e-14 120.813725,2.74429222 122.111771,6.8040303 L127.531587,22.680101 L67.9136116,22.680101 L73.3334275,6.8040303 C74.1247206,3.92365747 75.704597,5.68434189e-14 79.7125508,5.68434189e-14 L79.7125508,5.68434189e-14 Z" id="Shape" fill="#CCD0D2" sketch:type="MSShapeGroup"></path>
                            <path d="M69.811608,18.1440808 L68.0242201,22.680101 L126.978544,22.680101 L125.193836,18.1440808 L69.811608,18.1440808 Z" id="Shape" fill="#A4A7A9" sketch:type="MSShapeGroup"></path>
                            <path d="M149.21085,22.680101 L43.52444,22.680101 C42.0258609,22.680101 40.8145321,23.6961695 40.8145321,24.9481111 L40.8145321,31.7521414 C40.8145321,30.5001998 42.0258609,29.4841313 43.52444,29.4841313 L149.21085,29.4841313 C150.709429,29.4841313 151.920758,30.5001998 151.920758,31.7521414 L151.920758,24.9481111 C151.920758,23.6961695 150.709429,22.680101 149.21085,22.680101 L149.21085,22.680101 Z" id="Shape" fill="#B7BBBD" sketch:type="MSShapeGroup"></path>
                        </g>
                        <g id="pencil" transform="translate(149.653284, 158.760707)">
                            <path d="M81.6290641,23.6710572 C75.9862346,14.0176523 68.1064117,5.87899561 58.7080458,1.20792265e-13 C39.7507513,19.2901947 7.28032928,52.3308147 6.65984935,52.960806 C4.8133773,54.8397031 -1.09751041,82.4457828 0.178827684,83.744534 C1.48646191,85.0765156 27.9575506,78.2850711 29.7509553,76.4574041 L81.6290641,23.6710572 L81.6290641,23.6710572 Z" id="Shape" fill="#BF392B" sketch:type="MSShapeGroup"></path>
                            <path d="M18.0243486,64.203568 C16.6814004,62.7888466 16.5088127,56.5802652 15.1550777,55.155601 C13.8026911,53.728096 6.60119872,52.1656527 6.59580536,52.1642323 C4.83891627,54.0150174 -0.625912168,80.1802607 0.0590453563,83.4443468 L0.456806124,83.864786 C3.53372162,84.5579427 27.7701616,78.0681215 29.477162,76.2684709 C29.477162,76.2684709 27.9319626,68.6139192 26.6092395,67.2219243 C25.2865164,65.8270886 19.3699935,65.6197097 18.0243486,64.203568 L18.0243486,64.203568 Z" id="Shape" fill="#FFCABA" sketch:type="MSShapeGroup"></path>
                            <path d="M6.75015599e-14,83.2679953 L0.0350854337,83.4655467 L0.434519602,83.8674149 C3.51933888,84.5263705 27.7687713,78.3454483 29.477162,76.6310813 C29.477162,76.6310813 27.9900794,69.40016 26.6365914,68.040303 C4.07530806,80.9095568 0.55192086,82.9459595 7.70899061e-14,83.2679953 L6.75015599e-14,83.2679953 Z" id="Shape" fill="#E5B5A7" sketch:type="MSShapeGroup"></path>
                            <path d="M0.0172464256,81.6483636 C0.447898918,80.9411123 2.81436966,76.9991665 15.872318,55.0121698 C14.4546947,53.6531113 6.9076863,52.1642323 6.9076863,52.1642323 C5.11871349,53.8762403 -0.345631248,77.4941072 0.0172464256,81.6483636 L0.0172464256,81.6483636 Z" id="Shape" fill="#FFDCD2" sketch:type="MSShapeGroup"></path>
                            <path d="M4.96016212,78.7755266 C3.98097006,77.8850441 2.30052254,77.2197708 0.739801565,77.1123434 C0.075604327,80.7001596 -0.222286709,83.3845502 0.186778972,83.7560161 C0.584442125,84.1184217 3.22127665,83.836263 6.79596908,83.2137019 C6.88291336,81.6437087 6.08188579,79.7941454 4.96016212,78.7755266 L4.96016212,78.7755266 Z" id="Shape" fill="#BF392B" sketch:type="MSShapeGroup"></path>
                            <path d="M15.4603838,54.4322266 C15.4399287,54.4645962 65.7567461,4.72866313 65.7567461,4.72866313 C63.5925966,3.02386273 61.3302626,1.4390997 58.9656531,-1.77635684e-14 L6.80242201,51.5917918 C17.6504432,54.4322289 14.0912558,53.0780972 15.4603838,54.4322266 Z" id="Shape" fill="#C9574B" sketch:type="MSShapeGroup"></path>
                        </g>
                    </g>
                </g>
                <g id="paperless" mask="url(#mask-2)">
                    <g transform="translate(179.250960, 247.104136)">
                        <g id="android">
                            <path d="M215.25231,0.579223314 L29.0495429,0.579223314 C13.4044625,0.579223314 0.71433915,13.2161338 0.71433915,28.7956103 L0.71433915,266.623475 C34.5425245,291.925512 76.5879189,306.932599 122.150926,306.932599 C167.72203,306.932599 209.767424,291.925512 243.587514,266.623475 L243.587514,28.7956103 C243.587514,13.2161338 230.905486,0.579223314 215.25231,0.579223314 L215.25231,0.579223314 Z" id="Shape" fill="#E4E7E7" sketch:type="MSShapeGroup"></path>
                            <path d="M225.933181,48.2341928 L16.0988289,48.2341928 C13.8713566,48.2341928 12.0635529,50.0450534 12.0635529,52.2762923 L12.0635529,274.886835 C43.4943177,295.137753 80.8730794,306.932599 121.016005,306.932599 C161.162966,306.932599 198.537693,295.137753 229.968457,274.886835 L229.968457,52.2762923 C229.968457,50.0450534 228.164689,48.2341928 225.933181,48.2341928 L225.933181,48.2341928 Z" id="Shape" fill="#344C59" sketch:type="MSShapeGroup"></path>
                            <path d="M223.158929,57.3113299 L21.1429239,57.3113299 L21.1429239,279.937266 C50.8635186,297.072559 85.3476507,306.932599 122.150926,306.932599 C158.962283,306.932599 193.442375,297.072559 223.158929,279.937266 L223.158929,57.3113299 L223.158929,57.3113299 Z" id="Shape" fill="#3F5E6D" sketch:type="MSShapeGroup"></path>
                            <path d="M140.990621,16.4642132 L100.133452,16.4642132 C97.8740503,16.4642132 96.0477348,18.501012 96.0477348,21.0005135 C96.0477348,23.5090876 97.8740503,25.5413502 100.133452,25.5413502 L140.990621,25.5413502 C143.250023,25.5413502 145.076338,23.5090876 145.076338,21.0005135 C145.076338,18.501012 143.250023,16.4642132 140.990621,16.4642132 L140.990621,16.4642132 Z M157.333489,16.4642132 C155.074088,16.4642132 153.247772,18.501012 153.247772,21.0005135 C153.247772,23.5090876 155.074088,25.5413502 157.333489,25.5413502 C159.592891,25.5413502 161.419206,23.5090876 161.419206,21.0005135 C161.419206,18.501012 159.592891,16.4642132 157.333489,16.4642132 L157.333489,16.4642132 Z M173.676357,16.4642132 C171.416956,16.4642132 169.59064,18.501012 169.59064,21.0005135 C169.59064,23.5090876 171.416956,25.5413502 173.676357,25.5413502 C175.935758,25.5413502 177.762074,23.5090876 177.762074,21.0005135 C177.762074,18.501012 175.935758,16.4642132 173.676357,16.4642132 L173.676357,16.4642132 Z" id="Shape" fill="#BFC3C5" sketch:type="MSShapeGroup"></path>
                        </g>
                        <g id="archive-2" transform="translate(48.381037, 104.966299)">
                            <path d="M0,62.4720609 L0,99.8485076 L49.1799263,46.4535837 L49.1799263,32.2469743 L26.135618,32.2060382 L3.12003923e-15,62.4720609 L0,62.4720609 Z M121.035312,31.777099 L98.3598527,31.7699797 L98.3598527,46.4535837 L147.539779,99.8485076 L147.539779,62.4720609 L121.035312,31.777099 L121.035312,31.777099 Z" id="Shape" fill="#227F9E" sketch:type="MSShapeGroup"></path>
                            <path d="M96.358486,1.72897849 L63.0243075,1.72897849 L61.2670099,0 L47.1541527,0 C46.105046,0 45.3968551,0.809161932 45.3968551,1.56645451 L45.3968551,32.8505912 C45.3968551,34.7593835 46.9713937,36.3085482 48.9114503,36.3085482 L96.358486,36.3085482 C98.2985425,36.3085482 99.8730812,34.7593835 99.8730812,32.8505912 L99.8730812,5.18693546 C99.8730812,3.27814321 98.2985425,1.72897849 96.358486,1.72897849 L96.358486,1.72897849 Z" id="Shape" fill="#816B32" sketch:type="MSShapeGroup"></path>
                            <path d="M46.6290554,4.53856853 L100.910724,4.53856853 C102.843851,4.53856853 104.412767,6.06352755 104.412767,7.94249492 L104.412767,35.1739061 C104.412767,37.0528734 102.843851,38.5778325 100.910724,38.5778325 L46.6290554,38.5778325 C44.6959276,38.5778325 43.1270123,37.0528734 43.1270123,35.1739061 L43.1270123,7.94249492 C43.1270123,6.06352755 44.6959276,4.53856853 46.6290554,4.53856853 L46.6290554,4.53856853 Z" id="Shape" fill="#8F7738" sketch:type="MSShapeGroup"></path>
                            <path d="M110.016,11.3464213 L92.3616671,11.3464213 C91.8744075,11.3464213 88.7760722,14.3712741 88.7760722,14.853497 L37.5785078,14.853497 C35.6294695,14.853497 34.0476413,16.4246669 34.0476413,18.3605727 L34.0476413,46.4171781 C34.0476413,48.3530839 35.6294695,49.9242538 37.5785078,49.9242538 L109.961271,49.9242538 C111.91031,49.9242538 113.492138,48.3530839 113.492138,46.4171781 L113.492138,14.7991373 C113.492138,12.9316195 111.74789,11.3464213 110.016,11.3464213 L110.016,11.3464213 Z" id="Shape" fill="#B09246" sketch:type="MSShapeGroup"></path>
                            <path d="M33.0285282,18.1542741 L112.241408,18.1542741 C114.184764,18.1542741 115.76198,19.6792331 115.76198,21.5582005 L115.76198,48.7896117 C115.76198,50.668579 114.184764,52.1935381 112.241408,52.1935381 L33.0285282,52.1935381 C31.0851723,52.1935381 29.5079558,50.668579 29.5079558,48.7896117 L29.5079558,21.5582005 C29.5079558,19.6792331 31.0851723,18.1542741 33.0285282,18.1542741 L33.0285282,18.1542741 Z" id="Shape" fill="#BF9F4B" sketch:type="MSShapeGroup"></path>
                            <path d="M26.2205973,27.2314112 L121.319182,27.2314112 C123.263419,27.2314112 124.841351,28.7563702 124.841351,30.6353376 L124.841351,57.8667487 C124.841351,59.7457161 123.263419,61.2706751 121.319182,61.2706751 L26.2205973,61.2706751 C24.2763596,61.2706751 22.6984275,59.7457161 22.6984275,57.8667487 L22.6984275,30.6353376 C22.6984275,28.7563702 24.2763596,27.2314112 26.2205973,27.2314112 L26.2205973,27.2314112 Z" id="Shape" fill="#DCB757" sketch:type="MSShapeGroup"></path>
                            <path d="M39.8124707,18.2743864 L110.892628,37.3932011 C112.762144,37.8944303 113.872991,39.8237229 113.371883,41.7002545 L105.208739,72.2787507 C104.709383,74.1552823 102.785551,75.2685387 100.917788,74.7655508 L29.835878,55.6484948 C27.968114,55.1455069 26.8572675,53.2162143 27.3583749,51.3396827 L35.5215196,20.7611865 C36.022627,18.8864135 37.9447068,17.7731572 39.8124707,18.2743864 L39.8124707,18.2743864 Z" id="Shape" fill="#E4E7E7" sketch:type="MSShapeGroup"></path>
                            <path d="M21.7053713,34.0392639 L128.10425,34.0392639 C130.06199,34.0392639 131.65088,35.564223 131.65088,37.4431903 L131.65088,64.6746015 C131.65088,66.5535689 130.06199,68.0785279 128.10425,68.0785279 L21.7053713,68.0785279 C19.747632,68.0785279 18.158742,66.5535689 18.158742,64.6746015 L18.158742,37.4431903 C18.158742,35.564223 19.747632,34.0392639 21.7053713,34.0392639 L21.7053713,34.0392639 Z" id="Shape" fill="#EFC75E" sketch:type="MSShapeGroup"></path>
                            <path d="M5.26927782,56.7321066 L142.270501,56.7321066 C145.180899,56.7321066 147.539779,59.1042651 147.539779,62.0271032 L147.539779,114.977069 C147.539779,117.901672 145.180899,120.272066 142.270501,120.272066 L5.26927782,120.272066 C2.35888004,120.272066 0,117.901672 0,114.977069 L0,62.0271032 C0,59.1042651 2.35888004,56.7321066 5.26927782,56.7321066 L5.26927782,56.7321066 Z" id="Shape" fill="#2EA9D3" sketch:type="MSShapeGroup"></path>
                            <path d="M41.153236,79.4249492 C37.2291713,79.4249492 34.0476413,82.4731653 34.0476413,86.232802 C34.0476413,89.9924387 37.2291713,93.0406548 41.153236,93.0406548 C45.0773007,93.0406548 48.2588307,89.9924387 48.2588307,86.232802 C48.2588307,82.4731653 45.0773007,79.4249492 41.153236,79.4249492 L41.153236,79.4249492 Z M108.656386,79.4249492 C104.732321,79.4249492 101.550791,82.4731653 101.550791,86.232802 C101.550791,89.9924387 104.732321,93.0406548 108.656386,93.0406548 C112.58045,93.0406548 115.76198,89.9924387 115.76198,86.232802 C115.76198,82.4731653 112.58045,79.4249492 108.656386,79.4249492 L108.656386,79.4249492 Z" id="Shape" fill="#4DC6EF" sketch:type="MSShapeGroup"></path>
                            <path d="M107.655399,86.232802 C105.686473,86.232802 104.088503,87.859425 104.088503,89.8636568 L104.088503,91.6790842 C104.088503,94.6872474 101.693333,97.1253665 98.7381598,97.1253665 L48.8016192,97.1253665 C45.8464461,97.1253665 43.4512756,94.6872474 43.4512756,91.6790842 L43.4512756,89.8636568 C43.4512756,87.859425 41.8533063,86.232802 39.8843798,86.232802 C37.9154534,86.232802 36.3174841,87.859425 36.3174841,89.8636568 L36.3174841,95.3099391 C36.3174841,100.32415 40.3088404,104.387076 45.2347235,104.387076 L102.305056,104.387076 C107.230939,104.387076 111.222295,100.32415 111.222295,95.3099391 L111.222295,89.8636568 C111.222295,87.859425 109.624326,86.232802 107.655399,86.232802 L107.655399,86.232802 Z" id="Shape" fill="#E4E7E7" sketch:type="MSShapeGroup"></path>
                            <path d="M77.1746536,73.7517386 C77.1746536,71.8727712 75.6493193,70.3478122 73.7698895,70.3478122 C71.8904597,70.3478122 70.3651254,71.8727712 70.3651254,73.7517386 C70.3651254,74.9618344 71.0018163,76.0170516 71.9534478,76.6229505 L70.3651254,83.9635177 L77.1746536,83.9635177 L75.5863312,76.6229505 C76.5379627,76.0170516 77.1746536,74.9618344 77.1746536,73.7517386 L77.1746536,73.7517386 Z" id="Shape" fill="#207693" sketch:type="MSShapeGroup"></path>
                            <path d="M31.7777986,36.3085482 L106.682609,36.3085482 L93.4702577,31.7699797 L32.7267227,31.7699797 L31.7777986,36.3085482 Z" id="Shape" fill="#D8DBDB" sketch:type="MSShapeGroup"></path>
                            <path d="M142.270501,56.7321066 L5.26927782,56.7321066 C2.35888004,56.7321066 0,59.172041 0,62.1783888 L0,65.8092436 C0,62.8028958 2.35888004,60.3629614 5.26927782,60.3629614 L142.270501,60.3629614 C145.180899,60.3629614 147.539779,62.8028958 147.539779,65.8092436 L147.539779,62.1783888 C147.539779,59.172041 145.180899,56.7321066 142.270501,56.7321066 L142.270501,56.7321066 Z" id="Shape" fill="#58BADC" sketch:type="MSShapeGroup"></path>
                            <path d="M102.305056,104.76529 L45.2347235,104.76529 C40.3088404,104.76529 36.3174841,100.533075 36.3174841,95.3099391 L36.3174841,97.2010093 C36.3174841,102.424145 40.3088404,106.65636 45.2347235,106.65636 L102.305056,106.65636 C107.230939,106.65636 111.222295,102.424145 111.222295,97.2010093 L111.222295,95.3099391 C111.222295,100.533075 107.230939,104.76529 102.305056,104.76529 L102.305056,104.76529 Z" id="Shape" fill="#2998BE" sketch:type="MSShapeGroup"></path>
                            <path d="M142.270501,118.910495 L5.26927782,118.910495 C2.35888004,118.910495 0,116.472376 0,113.464213 L0,117.095068 C0,120.103231 2.35888004,122.54135 5.26927782,122.54135 L142.270501,122.54135 C145.180899,122.54135 147.539779,120.103231 147.539779,117.095068 L147.539779,113.464213 C147.539779,116.472376 145.180899,118.910495 142.270501,118.910495 L142.270501,118.910495 Z" id="Shape" fill="#249CC5" sketch:type="MSShapeGroup"></path>
                        </g>
                    </g>
                </g>
                <g id="directdeposit" mask="url(#mask-2)">
                    <g transform="translate(1143.714469, 247.104136)">
                        <g id="android">
                            <path d="M215.05929,0.579223314 L28.9778414,0.579223314 C13.3429544,0.579223314 0.661099149,13.2161338 0.661099149,28.7956103 L0.661099149,266.623475 C34.4672441,291.925512 76.4852444,306.932599 122.018566,306.932599 C167.559978,306.932599 209.577978,291.925512 243.376033,266.623475 L243.376033,28.7956103 C243.376033,13.2161338 230.702268,0.579223314 215.05929,0.579223314 L215.05929,0.579223314 Z" id="Shape" fill="#E4E7E7" sketch:type="MSShapeGroup"></path>
                            <path d="M225.733203,48.2341928 L16.0355653,48.2341928 C13.8095443,48.2341928 12.0029185,50.0450534 12.0029185,52.2762923 L12.0029185,274.886835 C43.413205,295.137753 80.7676129,306.932599 120.884384,306.932599 C161.005188,306.932599 198.355563,295.137753 229.76585,274.886835 L229.76585,52.2762923 C229.76585,50.0450534 227.963256,48.2341928 225.733203,48.2341928 L225.733203,48.2341928 Z" id="Shape" fill="#344C59" sketch:type="MSShapeGroup"></path>
                            <path d="M222.960758,57.3113299 L21.0763739,57.3113299 L21.0763739,279.937266 C50.7776045,297.072559 85.2392689,306.932599 122.018566,306.932599 C158.805938,306.932599 193.263565,297.072559 222.960758,279.937266 L222.960758,57.3113299 L222.960758,57.3113299 Z" id="Shape" fill="#3F5E6D" sketch:type="MSShapeGroup"></path>
                            <path d="M140.845986,16.4642132 L100.015436,16.4642132 C97.7575071,16.4642132 95.9323815,18.501012 95.9323815,21.0005135 C95.9323815,23.5090876 97.7575071,25.5413502 100.015436,25.5413502 L140.845986,25.5413502 C143.103915,25.5413502 144.929041,23.5090876 144.929041,21.0005135 C144.929041,18.501012 143.103915,16.4642132 140.845986,16.4642132 L140.845986,16.4642132 Z M157.178206,16.4642132 C154.920276,16.4642132 153.095151,18.501012 153.095151,21.0005135 C153.095151,23.5090876 154.920276,25.5413502 157.178206,25.5413502 C159.436135,25.5413502 161.261261,23.5090876 161.261261,21.0005135 C161.261261,18.501012 159.436135,16.4642132 157.178206,16.4642132 L157.178206,16.4642132 Z M173.510426,16.4642132 C171.252496,16.4642132 169.427371,18.501012 169.427371,21.0005135 C169.427371,23.5090876 171.252496,25.5413502 173.510426,25.5413502 C175.768355,25.5413502 177.593481,23.5090876 177.593481,21.0005135 C177.593481,18.501012 175.768355,16.4642132 173.510426,16.4642132 L173.510426,16.4642132 Z" id="Shape" fill="#BFC3C5" sketch:type="MSShapeGroup"></path>
                        </g>
                        <g id="credit-card" transform="translate(2.929463, 61.849898)">
                            <g id="Clipped">
                                <mask id="mask-4" sketch:name="a" fill="white">
                                    <use xlink:href="#path-3"></use>
                                </mask>
                                <g id="a"></g>
                                <g id="Group" mask="url(#mask-4)" sketch:type="MSShapeGroup">
                                    <g transform="translate(16.878547, 51.924254)" id="Shape">
                                        <path d="M147.851601,0.267014979 C150.832622,0.267014979 153.248743,3.31693303 153.248743,7.07486777 L153.248743,116.000512 C153.248743,119.760716 150.832622,122.808365 147.851601,122.808365 L2.12877775,122.808365 L2.12877775,0.267014979 L147.851601,0.267014979 Z" fill="#EFEFEF"></path>
                                        <path d="M132.833468,28.6330683 L89.7345546,28.6330683 C87.2302809,28.6330683 85.1978269,30.666347 85.1978269,33.1716368 L85.1978269,42.2487738 C85.1978269,44.7540637 87.2302809,46.7873424 89.7345546,46.7873424 L132.833468,46.7873424 C135.337742,46.7873424 137.370196,44.7540637 137.370196,42.2487738 L137.370196,33.1716368 C137.370196,30.666347 135.337742,28.6330683 132.833468,28.6330683 L132.833468,28.6330683 Z M2.60611691,28.6330683 L2.60611691,46.7873424 L65.7131629,46.7873424 C67.7037394,46.7873424 69.3192798,44.7540637 69.3192798,42.2487738 L69.3192798,33.1716368 C69.3192798,30.666347 67.7037394,28.6330683 65.7131629,28.6330683 L2.60611691,28.6330683 Z M64.7825521,76.2880378 L48.904005,76.2880378 C46.3997313,76.2880378 44.3672773,78.3213165 44.3672773,80.8266063 L44.3672773,89.9037434 C44.3672773,92.4090332 46.3997313,94.4423119 48.904005,94.4423119 L64.7825521,94.4423119 C67.2868258,94.4423119 69.3192798,92.4090332 69.3192798,89.9037434 L69.3192798,80.8266063 C69.3192798,78.3213165 67.2868258,76.2880378 64.7825521,76.2880378 L64.7825521,76.2880378 Z M14.8785471,76.2880378 C12.3742733,76.2880378 10.3418193,78.3213165 10.3418193,80.8266063 L10.3418193,89.9037434 C10.3418193,92.4090332 12.3742733,94.4423119 14.8785471,94.4423119 L30.7570941,94.4423119 C33.2613678,94.4423119 35.2938218,92.4090332 35.2938218,89.9037434 L35.2938218,80.8266063 C35.2938218,78.3213165 33.2613678,76.2880378 30.7570941,76.2880378 L14.8785471,76.2880378 Z" fill="#CCD0D2"></path>
                                        <path d="M113.552375,83.0936213 C113.552375,89.9854376 107.965395,95.5746847 101.076374,95.5746847 C94.1873529,95.5746847 88.6003727,89.9854376 88.6003727,83.0936213 C88.6003727,76.201805 94.1873529,70.6125579 101.076374,70.6125579 C107.965395,70.6125579 113.552375,76.201805 113.552375,83.0936213 Z" fill="#FF6A6A"></path>
                                    </g>
                                </g>
                            </g>
                        </g>
                        <g id="money" transform="translate(93.664018, 166.236975)">
                            <g id="Group" sketch:type="MSShapeGroup">
                                <path d="M1.85758062,26.0633574 L44.9147562,17.4292619 C46.1665789,17.1778059 47.3850044,17.9912719 47.6349083,19.242758 L63.2936335,97.5174215 C63.544689,98.7700664 62.7339409,99.9902654 61.4821181,100.240563 L18.4249425,108.875817 C17.1731198,109.126114 15.9546943,108.313807 15.7047904,107.061162 L0.0460652354,28.7864986 C-0.204990298,27.5338536 0.605757846,26.3148134 1.85758062,26.0633574 L1.85758062,26.0633574 Z" id="Shape" fill="#2B8272"></path>
                                <path d="M43.3162925,22.9531826 C43.1907647,22.3239632 42.5780971,21.9160715 41.9504583,22.0423789 L5.53934456,29.3438734 C4.9105541,29.469022 4.50402839,30.0820185 4.62840453,30.7112379 L8.50249083,50.0756682 C8.62801859,50.7037288 9.24068622,51.1127794 9.86947669,50.9853132 C10.4982672,50.8601646 10.9047929,50.2471681 10.7792651,49.6179487 L7.1332017,31.3914438 L41.2686928,24.5476687 L44.9147562,42.7730148 C45.0402839,43.4022343 45.6529516,43.810126 46.281742,43.6838186 C46.9093809,43.55867 47.3170582,42.9445148 47.1915304,42.3164542 L43.3162925,22.9531826 L43.3162925,22.9531826 Z" id="Shape" fill="#4B9587"></path>
                                <path d="M13.7331983,12.8358443 L57.4283774,8.55182189 C58.6997779,8.42783206 59.8306794,9.35833517 59.9550555,10.6306794 L67.8011167,90.0838257 C67.9266445,91.3561699 66.9995817,92.4871426 65.7281812,92.6122912 L22.0330021,96.8963136 C20.7616016,97.0203034 19.6307001,96.0909591 19.5063239,94.8174561 L11.6602627,15.3643098 C11.5347349,14.0919656 12.4617978,12.9598341 13.7331983,12.8358443 L13.7331983,12.8358443 Z" id="Shape" fill="#359685"></path>
                                <path d="M55.2932537,13.8880197 C55.229914,13.24953 54.66216,12.7825403 54.0241565,12.8451146 L17.0717762,16.4663129 C16.4337727,16.5288872 15.9673622,17.0978499 16.0307019,17.7363395 L17.9735032,37.3916245 C18.0368429,38.0312729 18.604597,38.4971039 19.2426005,38.4345296 C19.880604,38.3719553 20.3458629,37.8041514 20.2825232,37.1645029 L18.4560366,18.6656839 L53.0993969,15.2704484 L54.9270351,33.7704262 C54.9903748,34.4089159 55.5581288,34.8770644 56.1961323,34.8133313 C56.8341358,34.7495982 57.2993947,34.1817943 57.236055,33.5433046 L55.2932537,13.8880197 L55.2932537,13.8880197 Z" id="Shape" fill="#52A597"></path>
                                <path d="M28.7907721,1.15762467 L72.5527458,1.15762467 C73.8241463,1.15762467 74.8560076,2.19589464 74.8560076,3.47519158 L74.8560076,85.7488168 C74.8560076,87.0281137 73.8241463,88.0663837 72.5527458,88.0663837 L28.7907721,88.0663837 C27.5193716,88.0663837 26.4875104,87.0281137 26.4875104,85.7488168 L26.4875104,3.47519158 C26.4875104,2.19589464 27.5193716,1.15762467 28.7907721,1.15762467 L28.7907721,1.15762467 Z" id="Shape" fill="#3DB39E"></path>
                                <path d="M50.671759,19.6981599 C51.9431595,19.6981599 52.9750207,18.65989 52.9750207,17.380593 C52.9750207,16.1012961 51.9431595,15.0630261 50.671759,15.0630261 C49.4003585,15.0630261 48.3684972,16.1012961 48.3684972,17.380593 C48.3684972,18.65989 49.4003585,19.6981599 50.671759,19.6981599 L50.671759,19.6981599 Z M50.671759,76.4785491 C51.9431595,76.4785491 52.9750207,75.4402792 52.9750207,74.1609822 C52.9750207,72.8816853 51.9431595,71.8434153 50.671759,71.8434153 C49.4003585,71.8434153 48.3684972,72.8816853 48.3684972,74.1609822 C48.3684972,75.4402792 49.4003585,76.4785491 50.671759,76.4785491 L50.671759,76.4785491 Z M69.0978531,5.79275848 L32.2456648,5.79275848 C31.6088129,5.79275848 31.0940339,6.31189347 31.0940339,6.95154194 L31.0940339,27.8096441 C31.0940339,28.4504514 31.6088129,28.9684276 32.2456648,28.9684276 C32.8825167,28.9684276 33.3972957,28.4504514 33.3972957,27.8096441 L33.3972957,8.11032539 L67.9462222,8.11032539 L67.9462222,27.8096441 C67.9462222,28.4504514 68.4610012,28.9684276 69.0978531,28.9684276 C69.734705,28.9684276 70.249484,28.4504514 70.249484,27.8096441 L70.249484,6.95154194 C70.249484,6.31189347 69.734705,5.79275848 69.0978531,5.79275848 L69.0978531,5.79275848 Z M69.0978531,63.7319312 C68.4610012,63.7319312 67.9462222,64.2510661 67.9462222,64.8907146 L67.9462222,85.7488168 L33.3972957,85.7488168 L33.3972957,64.8907146 C33.3972957,64.2510661 32.8825167,63.7319312 32.2456648,63.7319312 C31.6088129,63.7319312 31.0940339,64.2510661 31.0940339,64.8907146 L31.0940339,86.9076002 C31.0940339,87.5472487 31.6088129,88.0663837 32.2456648,88.0663837 L69.0978531,88.0663837 C69.734705,88.0663837 70.249484,87.5472487 70.249484,86.9076002 L70.249484,64.8907146 C70.249484,64.2510661 69.734705,63.7319312 69.0978531,63.7319312 L69.0978531,63.7319312 Z M50.671759,28.9684276 C41.1316487,28.9684276 33.3972957,36.7508172 33.3972957,46.3501794 C33.3972957,55.9495415 41.1316487,63.7319312 50.671759,63.7319312 C60.2118692,63.7319312 67.9462222,55.9495415 67.9462222,46.3501794 C67.9462222,36.7508172 60.2118692,28.9684276 50.671759,28.9684276 L50.671759,28.9684276 Z M59.9596621,47.5321385 L58.6260735,47.5321385 C58.3968989,49.3398407 57.6610068,50.831195 56.5565928,51.6006272 C56.3492992,51.7362048 56.0970921,51.8254312 55.8207006,51.8254312 C55.1539064,51.8254312 54.6022752,51.2831205 54.6022752,50.6052322 C54.6022752,50.2900431 54.7853845,49.9725364 55.1066895,49.6330129 C55.797668,48.9331077 56.3262666,47.7569425 56.3262666,46.4695341 C56.3262666,44.5934636 55.4302978,43.8912409 54.5101447,43.8912409 C51.4986299,43.8912409 52.9013164,52.1417791 47.152375,52.1417791 C44.6233935,52.1417791 42.9685,50.5600396 42.6690759,47.5309797 L41.3815526,47.5309797 C40.7838562,47.5309797 40.3013228,47.0558785 40.3013228,46.4683753 C40.3013228,45.9028889 40.7850078,45.4289465 41.3815526,45.4289465 L42.6690759,45.4289465 C42.9443157,43.2365282 44.1397086,41.5192111 45.4041993,40.7497789 C45.5884602,40.6362181 45.8176348,40.5690087 46.0491126,40.5690087 C46.7389395,40.5690087 47.2905707,41.1124781 47.2905707,41.7671908 C47.2905707,42.2643089 47.0153309,42.5354642 46.7850047,42.761427 C45.8187864,43.7104706 45.0379807,44.9098115 45.0379807,46.4683753 C45.0379807,48.5240571 45.7278076,49.5194521 47.152375,49.5194521 C50.509379,49.5194521 48.9684969,41.2700727 54.5101447,41.2700727 C56.5554412,41.2700727 58.3254978,42.5354642 58.6491061,45.4289465 L59.9596621,45.4289465 C60.5573585,45.4289465 61.0398918,45.9028889 61.0398918,46.4683753 C61.0410435,47.0558785 60.5573585,47.5321385 59.9596621,47.5321385 L59.9596621,47.5321385 Z" id="Shape" fill="#81CEC0"></path>
                            </g>
                        </g>
                    </g>
                </g>
            </g>
        </g>
    </g>
</svg>
