<?xml version="1.0" encoding="UTF-8" standalone="no"?>
<svg width="360px" height="190px" viewBox="0 0 360 190" version="1.1" xmlns="http://www.w3.org/2000/svg" xmlns:xlink="http://www.w3.org/1999/xlink" xmlns:sketch="http://www.bohemiancoding.com/sketch/ns">
    <!-- Generator: Sketch 3.3.3 (12081) - http://www.bohemiancoding.com/sketch -->
    <title>DigitalLandingGold-Mobile + Modern check in and </title>
    <desc>Created with Sketch.</desc>
    <defs>
        <rect id="path-1" x="0" y="0" width="360" height="190"></rect>
        <path id="path-3" d="M31.7942804,0 C14.2349352,0 0,14.0976661 0,31.4884613 C0,48.8792565 14.2349352,62.9781822 31.7942804,62.9781822 C49.3536256,62.9781822 63.5885608,48.8792565 63.5885608,31.4884613 C63.5885608,14.0976661 49.3536256,0 31.7942804,0 L31.7942804,0 Z"></path>
    </defs>
    <g id="Home-Page" stroke="none" stroke-width="1" fill="none" fill-rule="evenodd" sketch:type="MSPage">
        <g id="Landing-Page-1.0-Mobile" sketch:type="MSArtboardGroup" transform="translate(-8.000000, -1655.000000)">
            <g id="DigitalLandingGold-Mobile-+-Modern-check-in-and-" sketch:type="MSLayerGroup" transform="translate(8.000000, 1655.000000)">
                <g id="DigitalLandingGold-Mobile">
                    <mask id="mask-2" sketch:name="Mask" fill="white">
                        <use xlink:href="#path-1"></use>
                    </mask>
                    <use id="Mask" fill="#F2C400" sketch:type="MSShapeGroup" xlink:href="#path-1"></use>
                    <g id="digitalcheckin" mask="url(#mask-2)">
                        <g transform="translate(145.200000, 118.600000)">
                            <g id="android">
                                <path d="M60.42,2.84217094e-14 L7.98,2.84217094e-14 C3.5739,2.84217094e-14 0,3.51192459 0,7.84161791 L0,73.9363748 C9.52698,80.9680656 21.36816,85.1386861 34.2,85.1386861 C47.03412,85.1386861 58.8753,80.9680656 68.4,73.9363748 L68.4,7.84161791 C68.4,3.51192459 64.82838,3.24015699e-14 60.42,3.24015699e-14 L60.42,2.84217094e-14 Z" id="Shape" fill="#E4E7E7" sketch:type="MSShapeGroup"></path>
                                <path d="M63.4280374,13.2437956 L4.33271028,13.2437956 C3.70539065,13.2437956 3.19626168,13.747052 3.19626168,14.3671357 L3.19626168,76.2328457 C12.0480598,81.8607797 22.5749832,85.1386861 33.8803738,85.1386861 C45.1869009,85.1386861 55.7126879,81.8607797 64.564486,76.2328457 L64.564486,14.3671357 C64.564486,13.747052 64.0564935,13.2437956 63.4280374,13.2437956 L63.4280374,13.2437956 Z" id="Shape" fill="#344C59" sketch:type="MSShapeGroup"></path>
                                <path d="M62.646729,15.7664234 L5.75327103,15.7664234 L5.75327103,77.6364116 C14.1234366,82.3984818 23.8351498,85.1386861 34.2,85.1386861 C44.5671259,85.1386861 54.2777013,82.3984818 62.646729,77.6364116 L62.646729,15.7664234 L62.646729,15.7664234 Z" id="Shape" fill="#3F5E6D" sketch:type="MSShapeGroup"></path>
                                <path d="M39.5057944,4.41459854 L27.9992523,4.41459854 C27.3629406,4.41459854 26.8485981,4.98064544 26.8485981,5.67528207 C26.8485981,6.37244006 27.3629406,6.93722628 27.9992523,6.93722628 L39.5057944,6.93722628 C40.1421062,6.93722628 40.6564486,6.37244006 40.6564486,5.67528207 C40.6564486,4.98064544 40.1421062,4.41459854 39.5057944,4.41459854 L39.5057944,4.41459854 Z M44.1084112,4.41459854 C43.4720994,4.41459854 42.957757,4.98064544 42.957757,5.67528207 C42.957757,6.37244006 43.4720994,6.93722628 44.1084112,6.93722628 C44.744723,6.93722628 45.2590654,6.37244006 45.2590654,5.67528207 C45.2590654,4.98064544 44.744723,4.41459854 44.1084112,4.41459854 L44.1084112,4.41459854 Z M48.711028,4.41459854 C48.0747163,4.41459854 47.5603738,4.98064544 47.5603738,5.67528207 C47.5603738,6.37244006 48.0747163,6.93722628 48.711028,6.93722628 C49.3473398,6.93722628 49.8616822,6.37244006 49.8616822,5.67528207 C49.8616822,4.98064544 49.3473398,4.41459854 48.711028,4.41459854 L48.711028,4.41459854 Z" id="Shape" fill="#BFC3C5" sketch:type="MSShapeGroup"></path>
                            </g>
                            <g id="clipboard" transform="translate(7.031776, 38.470073)">
                                <path d="M3.06841121,3.78394161 C1.37388112,3.78394161 0,4.91343249 0,6.30653431 L0,40.1691881 C6.91926729,45.7472712 16.3929869,46.6686131 26.8485981,46.6686131 C37.3049764,46.6686131 46.777929,45.7472712 53.6971963,40.1691881 L53.6971963,6.30653431 C53.6971963,4.91343249 52.3233151,3.78394161 50.628785,3.78394161 L3.06841121,3.78394161 Z" id="Shape" fill="#E2574C" sketch:type="MSShapeGroup"></path>
                                <path d="M6.03983242,9.45985401 C5.17591595,9.45985401 4.47476636,10.0249137 4.47476636,10.7211479 L4.47476636,43.3375761 C10.8766691,47.0186622 18.7051296,47.929927 27.1682243,47.929927 C35.631319,47.929927 43.4597795,47.0186622 49.8616822,43.3375761 L49.8616822,10.7211479 C49.8616822,10.0249137 49.1605326,9.45985401 48.2966162,9.45985401 L6.03983242,9.45985401 Z" id="Shape" fill="#F0DDAB" sketch:type="MSShapeGroup"></path>
                                <path d="M50.628785,3.78394161 L3.06841121,3.78394161 C1.37388112,3.78394161 0,4.91344818 0,6.30656934 L0,7.56788321 C0,6.17476204 1.37388112,5.04525547 3.06841121,5.04525547 L50.628785,5.04525547 C52.3233151,5.04525547 53.6971963,6.17476204 53.6971963,7.56788321 L53.6971963,6.30656934 C53.6971963,4.91344818 52.3233151,3.78394161 50.628785,3.78394161 L50.628785,3.78394161 Z" id="Shape" fill="#BF392B" sketch:type="MSShapeGroup"></path>
                                <path d="M41.4235514,37.2087591 L12.2736449,37.2087591 C11.849437,37.2087591 11.5065421,37.4906628 11.5065421,37.8394161 C11.5065421,38.1881693 11.849437,38.470073 12.2736449,38.470073 L41.4235514,38.470073 C41.8477593,38.470073 42.1906542,38.1881693 42.1906542,37.8394161 C42.1906542,37.4906628 41.8477593,37.2087591 41.4235514,37.2087591 L41.4235514,37.2087591 Z M41.4235514,30.9021898 L12.2736449,30.9021898 C11.849437,30.9021898 11.5065421,31.1840934 11.5065421,31.5328467 C11.5065421,31.8816 11.849437,32.1635036 12.2736449,32.1635036 L41.4235514,32.1635036 C41.8477593,32.1635036 42.1906542,31.8816 42.1906542,31.5328467 C42.1906542,31.1840934 41.8477593,30.9021898 41.4235514,30.9021898 L41.4235514,30.9021898 Z M41.4235514,24.5956204 L12.2736449,24.5956204 C11.849437,24.5956204 11.5065421,24.8781547 11.5065421,25.2262774 C11.5065421,25.5750307 11.849437,25.8569343 12.2736449,25.8569343 L41.4235514,25.8569343 C41.8477593,25.8569343 42.1906542,25.5750307 42.1906542,25.2262774 C42.1906542,24.8781547 41.8477593,24.5956204 41.4235514,24.5956204 L41.4235514,24.5956204 Z M41.4235514,43.5153285 L12.2736449,43.5153285 C11.849437,43.5153285 11.5065421,43.7972321 11.5065421,44.1459854 C11.5065421,44.4947387 11.849437,44.7766423 12.2736449,44.7766423 L41.4235514,44.7766423 C41.8477593,44.7766423 42.1906542,44.4947387 42.1906542,44.1459854 C42.1906542,43.7972321 41.8477593,43.5153285 41.4235514,43.5153285 L41.4235514,43.5153285 Z M12.2736449,19.550365 L41.4235514,19.550365 C41.8477593,19.550365 42.1906542,19.2684613 42.1906542,18.919708 C42.1906542,18.5715854 41.8477593,18.2890511 41.4235514,18.2890511 L12.2736449,18.2890511 C11.849437,18.2890511 11.5065421,18.5715854 11.5065421,18.919708 C11.5065421,19.2684613 11.849437,19.550365 12.2736449,19.550365 L12.2736449,19.550365 Z" id="Shape" fill="#D8C69A" sketch:type="MSShapeGroup"></path>
                                <path d="M12.2705266,6.30656934 L42.065922,6.30656934 C42.4884055,6.30656934 42.8299065,6.58910365 42.8299065,6.93722628 L42.8299065,11.3518248 C42.8299065,12.3968234 41.8031114,13.2437956 40.537953,13.2437956 L13.7984956,13.2437956 C12.5333372,13.2437956 11.5065421,12.3968234 11.5065421,11.3518248 L11.5065421,6.93722628 C11.5065421,6.58910365 11.8480431,6.30656934 12.2705266,6.30656934 L12.2705266,6.30656934 Z M22.4727756,1.55431223e-14 L32.1341235,1.55431223e-14 C33.3992819,1.55431223e-14 34.0601285,0.763094891 34.426077,1.8919708 L35.954046,6.30656934 L19.1463871,6.30656934 L20.6743561,1.8919708 C20.8974395,1.0910365 21.3428425,1.55431223e-14 22.4727756,1.55431223e-14 L22.4727756,1.55431223e-14 Z" id="Shape" fill="#CCD0D2" sketch:type="MSShapeGroup"></path>
                                <path d="M19.6814753,5.04525547 L19.1775701,6.30656934 L35.7981308,6.30656934 L35.2949811,5.04525547 L19.6814753,5.04525547 Z" id="Shape" fill="#A4A7A9" sketch:type="MSShapeGroup"></path>
                                <path d="M42.065922,6.30656934 L12.2705266,6.30656934 C11.8480431,6.30656934 11.5065421,6.58910365 11.5065421,6.93722628 L11.5065421,8.82919708 C11.5065421,8.48107445 11.8480431,8.19854015 12.2705266,8.19854015 L42.065922,8.19854015 C42.4884055,8.19854015 42.8299065,8.48107445 42.8299065,8.82919708 L42.8299065,6.93722628 C42.8299065,6.58910365 42.4884055,6.30656934 42.065922,6.30656934 L42.065922,6.30656934 Z" id="Shape" fill="#B7BBBD" sketch:type="MSShapeGroup"></path>
                            </g>
                            <g id="pencil" transform="translate(42.190654, 44.145985)">
                                <path d="M23.0130841,6.58212077 C21.4222425,3.8978352 19.2007418,1.63474993 16.5511293,3.19744231e-14 C11.2066381,5.36395101 2.05248991,14.5514304 1.87756254,14.7266097 C1.3570002,15.2490675 -0.30941307,22.9253849 0.0504155792,23.2865238 C0.419067318,23.6569028 7.88186746,21.7684317 8.38746891,21.2602193 L23.0130841,6.58212077 L23.0130841,6.58212077 Z" id="Shape" fill="#BF392B" sketch:type="MSShapeGroup"></path>
                                <path d="M5.08147258,17.8528417 C4.70286503,17.4594555 4.65420863,15.7330589 4.27256005,15.336908 C3.8912916,14.9399671 1.8610276,14.5055045 1.85950709,14.5051095 C1.36420022,15.0197503 -0.176458833,22.2954199 0.0166462248,23.2030518 L0.128784004,23.3199618 C0.996236251,23.5127052 7.82903824,21.7081053 8.31028037,21.2076834 C8.31028037,21.2076834 7.87465361,19.0792113 7.50174798,18.6921446 C7.12884234,18.3042879 5.46084039,18.2466229 5.08147258,17.8528417 L5.08147258,17.8528417 Z" id="Shape" fill="#FFCABA" sketch:type="MSShapeGroup"></path>
                                <path d="M1.86517468e-14,23.1540145 L0.00989137931,23.2089468 L0.122500928,23.3206928 C0.992181433,23.5039261 7.82864629,21.7852205 8.31028037,21.308513 C8.31028037,21.308513 7.89103807,19.2978383 7.50945909,18.919708 C1.14892175,22.4982124 0.155599005,23.0644672 2.1354919e-14,23.1540145 L1.86517468e-14,23.1540145 Z" id="Shape" fill="#E5B5A7" sketch:type="MSShapeGroup"></path>
                                <path d="M0.00486215844,22.7036496 C0.126272861,22.506987 0.793434624,21.4108651 4.47476636,15.2970246 C4.07510621,14.9191164 1.9474334,14.5051095 1.9474334,14.5051095 C1.4430814,14.981161 -0.0974412861,21.5484914 0.00486215844,22.7036496 L0.00486215844,22.7036496 Z" id="Shape" fill="#FFDCD2" sketch:type="MSShapeGroup"></path>
                                <path d="M1.39838217,21.9048108 C1.12232573,21.6571977 0.648569469,21.4722077 0.208566836,21.4423358 C0.0213145741,22.4399862 -0.0626676636,23.1864244 0.0526572274,23.2897165 C0.164767487,23.3904893 0.908150931,23.3120305 1.91593778,23.1389173 C1.94044935,22.7023553 1.71462151,22.1880542 1.39838217,21.9048108 L1.39838217,21.9048108 Z" id="Shape" fill="#BF392B" sketch:type="MSShapeGroup"></path>
                                <path d="M4.35863275,15.135762 C4.352866,15.1447629 18.5383178,1.31488135 18.5383178,1.31488135 C17.9281949,0.840833998 17.2903917,0.400164976 16.6237546,-5.32907052e-15 L1.91775701,14.3459331 C4.97606015,15.1357627 3.97264453,14.7592244 4.35863275,15.135762 Z" id="Shape" fill="#C9574B" sketch:type="MSShapeGroup"></path>
                            </g>
                        </g>
                    </g>
                    <g id="paperless" mask="url(#mask-2)">
                        <g transform="translate(56.400000, 119.800000)">
                            <g id="android">
                                <path d="M60.3412214,0.16074862 L8.14339644,0.16074862 C3.75764441,0.16074862 0.200249172,3.66779999 0.200249172,7.99148534 L0.200249172,73.9945278 C9.68323228,81.0164613 21.4697281,85.1812945 34.2423089,85.1812945 C47.0171592,85.1812945 58.803655,81.0164613 68.2843686,73.9945278 L68.2843686,7.99148534 C68.2843686,3.66779999 64.7292429,0.16074862 60.3412214,0.16074862 L60.3412214,0.16074862 Z" id="Shape" fill="#E4E7E7" sketch:type="MSShapeGroup"></path>
                                <path d="M63.3353672,13.3861669 L4.5129504,13.3861669 C3.88852783,13.3861669 3.38175008,13.8887249 3.38175008,14.5079482 L3.38175008,76.2878121 C12.1926694,81.9079366 22.670978,85.1812945 33.9241588,85.1812945 C45.1784708,85.1812945 55.6556482,81.9079366 64.4665675,76.2878121 L64.4665675,14.5079482 C64.4665675,13.8887249 63.960921,13.3861669 63.3353672,13.3861669 L63.3353672,13.3861669 Z" id="Shape" fill="#344C59" sketch:type="MSShapeGroup"></path>
                                <path d="M62.557667,15.9052942 L5.92695081,15.9052942 L5.92695081,77.6894303 C14.2584618,82.4448925 23.925325,85.1812945 34.2423089,85.1812945 C44.561558,85.1812945 54.2272886,82.4448925 62.557667,77.6894303 L62.557667,15.9052942 L62.557667,15.9052942 Z" id="Shape" fill="#3F5E6D" sketch:type="MSShapeGroup"></path>
                                <path d="M39.5236004,4.56922137 L28.0701971,4.56922137 C27.4368239,4.56922137 26.9248568,5.13448282 26.9248568,5.82815555 C26.9248568,6.52434615 27.4368239,7.08834866 28.0701971,7.08834866 L39.5236004,7.08834866 C40.1569736,7.08834866 40.6689407,6.52434615 40.6689407,5.82815555 C40.6689407,5.13448282 40.1569736,4.56922137 39.5236004,4.56922137 L39.5236004,4.56922137 Z M44.1049617,4.56922137 C43.4715885,4.56922137 42.9596214,5.13448282 42.9596214,5.82815555 C42.9596214,6.52434615 43.4715885,7.08834866 44.1049617,7.08834866 C44.7383349,7.08834866 45.2503021,6.52434615 45.2503021,5.82815555 C45.2503021,5.13448282 44.7383349,4.56922137 44.1049617,4.56922137 L44.1049617,4.56922137 Z M48.686323,4.56922137 C48.0529498,4.56922137 47.5409827,5.13448282 47.5409827,5.82815555 C47.5409827,6.52434615 48.0529498,7.08834866 48.686323,7.08834866 C49.3196962,7.08834866 49.8316634,6.52434615 49.8316634,5.82815555 C49.8316634,5.13448282 49.3196962,4.56922137 48.686323,4.56922137 L48.686323,4.56922137 Z" id="Shape" fill="#BFC3C5" sketch:type="MSShapeGroup"></path>
                            </g>
                            <g id="archive-2" transform="translate(13.562553, 29.130712)">
                                <path d="M0,17.3375231 L0,27.7104001 L13.7865039,12.8920043 L13.7865039,8.94932317 L7.32654209,8.9379624 L8.74633949e-16,17.3375231 L0,17.3375231 Z M33.9295709,8.81892129 L27.5730079,8.8169455 L27.5730079,12.8920043 L41.3595118,27.7104001 L41.3595118,17.3375231 L33.9295709,8.81892129 L33.9295709,8.81892129 Z" id="Shape" fill="#227F9E" sketch:type="MSShapeGroup"></path>
                                <path d="M27.011969,0.479833769 L17.6674698,0.479833769 L17.1748503,0 L13.2186231,0 C12.9245293,0 12.7260036,0.224562204 12.7260036,0.434729395 L12.7260036,9.11684161 C12.7260036,9.64657809 13.1673907,10.0765091 13.7112426,10.0765091 L27.011969,10.0765091 C27.5558209,10.0765091 27.997208,9.64657809 27.997208,9.11684161 L27.997208,1.43950131 C27.997208,0.909764826 27.5558209,0.479833769 27.011969,0.479833769 L27.011969,0.479833769 Z" id="Shape" fill="#816B32" sketch:type="MSShapeGroup"></path>
                                <path d="M13.0714237,1.25956364 L28.2880881,1.25956364 C28.8299977,1.25956364 29.2698084,1.68277703 29.2698084,2.20423638 L29.2698084,9.76161823 C29.2698084,10.2830776 28.8299977,10.706291 28.2880881,10.706291 L13.0714237,10.706291 C12.5295141,10.706291 12.0897035,10.2830776 12.0897035,9.76161823 L12.0897035,2.20423638 C12.0897035,1.68277703 12.5295141,1.25956364 13.0714237,1.25956364 L13.0714237,1.25956364 Z" id="Shape" fill="#8F7738" sketch:type="MSShapeGroup"></path>
                                <path d="M30.8405507,3.14890911 L25.8915493,3.14890911 C25.7549569,3.14890911 24.8864071,3.98837965 24.8864071,4.12220829 L10.534303,4.12220829 C9.98793326,4.12220829 9.54450273,4.55824632 9.54450273,5.09550747 L9.54450273,12.8819009 C9.54450273,13.419162 9.98793326,13.8552001 10.534303,13.8552001 L30.8252088,13.8552001 C31.3715786,13.8552001 31.8150091,13.419162 31.8150091,12.8819009 L31.8150091,4.10712215 C31.8150091,3.58884034 31.3260478,3.14890911 30.8405507,3.14890911 L30.8405507,3.14890911 Z" id="Shape" fill="#B09246" sketch:type="MSShapeGroup"></path>
                                <path d="M9.25881693,5.03825457 L31.4643947,5.03825457 C32.0091716,5.03825457 32.4513093,5.46146796 32.4513093,5.9829273 L32.4513093,13.5403092 C32.4513093,14.0617685 32.0091716,14.4849819 31.4643947,14.4849819 L9.25881693,14.4849819 C8.71404009,14.4849819 8.27190236,14.0617685 8.27190236,13.5403092 L8.27190236,5.9829273 C8.27190236,5.46146796 8.71404009,5.03825457 9.25881693,5.03825457 L9.25881693,5.03825457 Z" id="Shape" fill="#BF9F4B" sketch:type="MSShapeGroup"></path>
                                <path d="M7.35036417,7.55738186 L34.0091477,7.55738186 C34.5541717,7.55738186 34.99651,7.98059524 34.99651,8.50205459 L34.99651,16.0594364 C34.99651,16.5808958 34.5541717,17.0041092 34.0091477,17.0041092 L7.35036417,17.0041092 C6.80534015,17.0041092 6.36300182,16.5808958 6.36300182,16.0594364 L6.36300182,8.50205459 C6.36300182,7.98059524 6.80534015,7.55738186 7.35036417,7.55738186 L7.35036417,7.55738186 Z" id="Shape" fill="#DCB757" sketch:type="MSShapeGroup"></path>
                                <path d="M11.1605451,5.07158866 L31.0862941,10.3775268 C31.6103716,10.5166302 31.9217728,11.052056 31.7812984,11.5728394 L29.4929415,20.0591191 C29.3529583,20.5799025 28.8136546,20.8888583 28.2900683,20.7492669 L8.36382808,15.4438168 C7.8402418,15.3042254 7.52884057,14.7687995 7.66931494,14.2480162 L9.95767189,5.76173644 C10.0981463,5.24144115 10.6369588,4.93248532 11.1605451,5.07158866 L11.1605451,5.07158866 Z" id="Shape" fill="#E4E7E7" sketch:type="MSShapeGroup"></path>
                                <path d="M6.08462049,9.44672732 L35.9111915,9.44672732 C36.4600004,9.44672732 36.9054106,9.86994071 36.9054106,10.3914001 L36.9054106,17.9487819 C36.9054106,18.4702413 36.4600004,18.8934546 35.9111915,18.8934546 L6.08462049,18.8934546 C5.53581158,18.8934546 5.09040146,18.4702413 5.09040146,17.9487819 L5.09040146,10.3914001 C5.09040146,9.86994071 5.53581158,9.44672732 6.08462049,9.44672732 L6.08462049,9.44672732 Z" id="Shape" fill="#EFC75E" sketch:type="MSShapeGroup"></path>
                                <path d="M1.47712542,15.7445455 L39.8823864,15.7445455 C40.698252,15.7445455 41.3595118,16.4028775 41.3595118,17.2140365 L41.3595118,31.9089456 C41.3595118,32.7205944 40.698252,33.3784365 39.8823864,33.3784365 L1.47712542,33.3784365 C0.661259814,33.3784365 0,32.7205944 0,31.9089456 L0,17.2140365 C0,16.4028775 0.661259814,15.7445455 1.47712542,15.7445455 L1.47712542,15.7445455 Z" id="Shape" fill="#2EA9D3" sketch:type="MSShapeGroup"></path>
                                <path d="M11.536399,22.0423638 C10.4363743,22.0423638 9.54450273,22.8883182 9.54450273,23.9317092 C9.54450273,24.9751003 10.4363743,25.8210547 11.536399,25.8210547 C12.6364236,25.8210547 13.5282952,24.9751003 13.5282952,23.9317092 C13.5282952,22.8883182 12.6364236,22.0423638 11.536399,22.0423638 L11.536399,22.0423638 Z M30.4594131,22.0423638 C29.3593884,22.0423638 28.4675168,22.8883182 28.4675168,23.9317092 C28.4675168,24.9751003 29.3593884,25.8210547 30.4594131,25.8210547 C31.5594377,25.8210547 32.4513093,24.9751003 32.4513093,23.9317092 C32.4513093,22.8883182 31.5594377,22.0423638 30.4594131,22.0423638 L30.4594131,22.0423638 Z" id="Shape" fill="#4DC6EF" sketch:type="MSShapeGroup"></path>
                                <path d="M30.1788086,23.9317092 C29.6268637,23.9317092 29.1789083,24.3831368 29.1789083,24.9393601 L29.1789083,25.4431856 C29.1789083,26.2780244 28.5074753,26.954662 27.6790579,26.954662 L13.6804539,26.954662 C12.8520365,26.954662 12.1806035,26.2780244 12.1806035,25.4431856 L12.1806035,24.9393601 C12.1806035,24.3831368 11.7326482,23.9317092 11.1807032,23.9317092 C10.6287582,23.9317092 10.1808029,24.3831368 10.1808029,24.9393601 L10.1808029,26.4508365 C10.1808029,27.8424024 11.2996913,28.9699638 12.6805536,28.9699638 L28.6789582,28.9699638 C30.0598205,28.9699638 31.1787089,27.8424024 31.1787089,26.4508365 L31.1787089,24.9393601 C31.1787089,24.3831368 30.7307536,23.9317092 30.1788086,23.9317092 L30.1788086,23.9317092 Z" id="Shape" fill="#E4E7E7" sketch:type="MSShapeGroup"></path>
                                <path d="M21.6342062,20.4679092 C21.6342062,19.9464499 21.2066125,19.5232365 20.6797559,19.5232365 C20.1528994,19.5232365 19.7253056,19.9464499 19.7253056,20.4679092 C19.7253056,20.8037404 19.9037878,21.0965889 20.1705567,21.2647407 L19.7253056,23.3019274 L21.6342062,23.3019274 L21.1889551,21.2647407 C21.455724,21.0965889 21.6342062,20.8037404 21.6342062,20.4679092 L21.6342062,20.4679092 Z" id="Shape" fill="#207693" sketch:type="MSShapeGroup"></path>
                                <path d="M8.90820255,10.0765091 L29.9061085,10.0765091 L26.2023181,8.8169455 L9.17421242,8.8169455 L8.90820255,10.0765091 Z" id="Shape" fill="#D8DBDB" sketch:type="MSShapeGroup"></path>
                                <path d="M39.8823864,15.7445455 L1.47712542,15.7445455 C0.661259814,15.7445455 0,16.421687 0,17.2560219 L0,18.2636728 C0,17.4293379 0.661259814,16.7521965 1.47712542,16.7521965 L39.8823864,16.7521965 C40.698252,16.7521965 41.3595118,17.4293379 41.3595118,18.2636728 L41.3595118,17.2560219 C41.3595118,16.421687 40.698252,15.7445455 39.8823864,15.7445455 L39.8823864,15.7445455 Z" id="Shape" fill="#58BADC" sketch:type="MSShapeGroup"></path>
                                <path d="M28.6789582,29.0749274 L12.6805536,29.0749274 C11.2996913,29.0749274 10.1808029,27.9003843 10.1808029,26.4508365 L10.1808029,26.9756547 C10.1808029,28.4252025 11.2996913,29.5997456 12.6805536,29.5997456 L28.6789582,29.5997456 C30.0598205,29.5997456 31.1787089,28.4252025 31.1787089,26.9756547 L31.1787089,26.4508365 C31.1787089,27.9003843 30.0598205,29.0749274 28.6789582,29.0749274 L28.6789582,29.0749274 Z" id="Shape" fill="#2998BE" sketch:type="MSShapeGroup"></path>
                                <path d="M39.8823864,33.0005674 L1.47712542,33.0005674 C0.661259814,33.0005674 0,32.3239299 0,31.4890911 L0,32.496742 C0,33.3315808 0.661259814,34.0082184 1.47712542,34.0082184 L39.8823864,34.0082184 C40.698252,34.0082184 41.3595118,33.3315808 41.3595118,32.496742 L41.3595118,31.4890911 C41.3595118,32.3239299 40.698252,33.0005674 39.8823864,33.0005674 L39.8823864,33.0005674 Z" id="Shape" fill="#249CC5" sketch:type="MSShapeGroup"></path>
                            </g>
                        </g>
                    </g>
                    <g id="directdeposit" mask="url(#mask-2)">
                        <g transform="translate(232.800000, 118.600000)">
                            <g id="android">
                                <path d="M60.2871126,0.16074862 L8.12329652,0.16074862 C3.74040198,0.16074862 0.185324516,3.66779999 0.185324516,7.99148534 L0.185324516,73.9945278 C9.6621291,81.0164613 21.4409456,85.1812945 34.2052046,85.1812945 C46.9717315,85.1812945 58.750548,81.0164613 68.2250846,73.9945278 L68.2250846,7.99148534 C68.2250846,3.66779999 64.6722751,0.16074862 60.2871126,0.16074862 L60.2871126,0.16074862 Z" id="Shape" fill="#E4E7E7" sketch:type="MSShapeGroup"></path>
                                <path d="M63.2793076,13.3861669 L4.49521586,13.3861669 C3.87120012,13.3861669 3.36475256,13.8887249 3.36475256,14.5079482 L3.36475256,76.2878121 C12.1699312,81.9079366 22.6414128,85.1812945 33.8872617,85.1812945 C45.1342412,85.1812945 55.6045923,81.9079366 64.4097709,76.2878121 L64.4097709,14.5079482 C64.4097709,13.8887249 63.9044538,13.3861669 63.2793076,13.3861669 L63.2793076,13.3861669 Z" id="Shape" fill="#344C59" sketch:type="MSShapeGroup"></path>
                                <path d="M62.5021141,15.9052942 L5.90829499,15.9052942 L5.90829499,77.6894303 C14.2343777,82.4448925 23.8949426,85.1812945 34.2052046,85.1812945 C44.5177303,85.1812945 54.1771633,82.4448925 62.5021141,77.6894303 L62.5021141,15.9052942 L62.5021141,15.9052942 Z" id="Shape" fill="#3F5E6D" sketch:type="MSShapeGroup"></path>
                                <path d="M39.4830551,4.56922137 L28.0371142,4.56922137 C27.4041536,4.56922137 26.8925201,5.13448282 26.8925201,5.82815555 C26.8925201,6.52434615 27.4041536,7.08834866 28.0371142,7.08834866 L39.4830551,7.08834866 C40.1160156,7.08834866 40.6276492,6.52434615 40.6276492,5.82815555 C40.6276492,5.13448282 40.1160156,4.56922137 39.4830551,4.56922137 L39.4830551,4.56922137 Z M44.0614315,4.56922137 C43.4284709,4.56922137 42.9168374,5.13448282 42.9168374,5.82815555 C42.9168374,6.52434615 43.4284709,7.08834866 44.0614315,7.08834866 C44.694392,7.08834866 45.2060256,6.52434615 45.2060256,5.82815555 C45.2060256,5.13448282 44.694392,4.56922137 44.0614315,4.56922137 L44.0614315,4.56922137 Z M48.6398079,4.56922137 C48.0068473,4.56922137 47.4952138,5.13448282 47.4952138,5.82815555 C47.4952138,6.52434615 48.0068473,7.08834866 48.6398079,7.08834866 C49.2727684,7.08834866 49.7844019,6.52434615 49.7844019,5.82815555 C49.7844019,5.13448282 49.2727684,4.56922137 48.6398079,4.56922137 L48.6398079,4.56922137 Z" id="Shape" fill="#BFC3C5" sketch:type="MSShapeGroup"></path>
                            </g>
                            <g id="credit-card" transform="translate(0.821210, 17.164858)">
                                <g id="Clipped">
                                    <mask id="mask-4" sketch:name="a" fill="white">
                                        <use xlink:href="#path-3"></use>
                                    </mask>
                                    <g id="a"></g>
                                    <g id="Group" mask="url(#mask-4)" sketch:type="MSShapeGroup">
                                        <g transform="translate(4.731527, 14.410249)" id="Shape">
                                            <path d="M41.4469243,0.0741031798 C42.2825876,0.0741031798 42.9598935,0.920529948 42.9598935,1.96344864 L42.9598935,32.1929761 C42.9598935,33.2365246 42.2825876,34.0823215 41.4469243,34.0823215 L0.596755729,34.0823215 L0.596755729,0.0741031798 L41.4469243,0.0741031798 Z" fill="#EFEFEF"></path>
                                            <path d="M37.236923,7.94637595 L25.1550965,7.94637595 C24.4530787,7.94637595 23.8833252,8.51066046 23.8833252,9.20593959 L23.8833252,11.7250669 C23.8833252,12.420346 24.4530787,12.9846305 25.1550965,12.9846305 L37.236923,12.9846305 C37.9389407,12.9846305 38.5086942,12.420346 38.5086942,11.7250669 L38.5086942,9.20593959 C38.5086942,8.51066046 37.9389407,7.94637595 37.236923,7.94637595 L37.236923,7.94637595 Z M0.7305672,7.94637595 L0.7305672,12.9846305 L18.4212309,12.9846305 C18.979245,12.9846305 19.432126,12.420346 19.432126,11.7250669 L19.432126,9.20593959 C19.432126,8.51066046 18.979245,7.94637595 18.4212309,7.94637595 L0.7305672,7.94637595 Z M18.1603548,21.1717942 L13.7091555,21.1717942 C13.0071378,21.1717942 12.4373843,21.7360787 12.4373843,22.4313578 L12.4373843,24.9504851 C12.4373843,25.6457643 13.0071378,26.2100488 13.7091555,26.2100488 L18.1603548,26.2100488 C18.8623725,26.2100488 19.432126,25.6457643 19.432126,24.9504851 L19.432126,22.4313578 C19.432126,21.7360787 18.8623725,21.1717942 18.1603548,21.1717942 L18.1603548,21.1717942 Z M4.17087139,21.1717942 C3.46885368,21.1717942 2.89910017,21.7360787 2.89910017,22.4313578 L2.89910017,24.9504851 C2.89910017,25.6457643 3.46885368,26.2100488 4.17087139,26.2100488 L8.62207064,26.2100488 C9.32408836,26.2100488 9.89384186,25.6457643 9.89384186,24.9504851 L9.89384186,22.4313578 C9.89384186,21.7360787 9.32408836,21.1717942 8.62207064,21.1717942 L4.17087139,21.1717942 Z" fill="#CCD0D2"></path>
                                            <path d="M31.8318953,23.0605099 C31.8318953,24.9731573 30.2657091,26.5243099 28.3345245,26.5243099 C26.4033399,26.5243099 24.8371537,24.9731573 24.8371537,23.0605099 C24.8371537,21.1478625 26.4033399,19.5967099 28.3345245,19.5967099 C30.2657091,19.5967099 31.8318953,21.1478625 31.8318953,23.0605099 Z" fill="#FF6A6A"></path>
                                        </g>
                                    </g>
                                </g>
                            </g>
                            <g id="money" transform="translate(26.256634, 46.134822)">
                                <g id="Group" sketch:type="MSShapeGroup">
                                    <path d="M0.520731616,7.23321842 L12.5908579,4.83704598 C12.9417787,4.76726079 13.2833373,4.99301748 13.3533923,5.34033545 L17.7429694,27.0634668 C17.8133472,27.4111064 17.5860719,27.7497414 17.2351511,27.819205 L5.16502487,30.215699 C4.81410406,30.2851626 4.47254545,30.0597275 4.40249042,29.712088 L0.0129133693,7.9889566 C-0.0574644933,7.64131704 0.169810806,7.3030036 0.520731616,7.23321842 L0.520731616,7.23321842 Z" id="Shape" fill="#2B8272"></path>
                                    <path d="M12.142764,6.37006893 C12.107575,6.19544517 11.9358272,6.08224524 11.7598826,6.11729863 L1.55283266,8.14364174 C1.37656516,8.17837353 1.26260468,8.34849502 1.29747078,8.52311878 L2.38348513,13.8972213 C2.41867406,14.0715234 2.59042188,14.185045 2.76668937,14.14967 C2.94295686,14.1149382 3.05691734,13.9448167 3.02172841,13.7701929 L1.99963523,8.71189253 L11.5687647,6.81257776 L12.5908579,11.8705566 C12.6260468,12.0451803 12.7977946,12.1583803 12.9740621,12.1233269 C13.1500068,12.0885951 13.2642901,11.918152 13.2291012,11.7438498 L12.142764,6.37006893 L12.142764,6.37006893 Z" id="Shape" fill="#4B9587"></path>
                                    <path d="M3.84979821,3.56226038 L16.0987746,2.37333949 C16.4551836,2.33892929 16.7722068,2.59716663 16.8070729,2.95027324 L19.0065426,25.0004624 C19.0417315,25.353569 18.7818499,25.6674415 18.4254409,25.7021733 L6.17646452,26.8910942 C5.82005553,26.9255044 5.50303232,26.6675886 5.46816622,26.3141605 L3.2686966,4.26397132 C3.23350767,3.91086471 3.49338922,3.59667058 3.84979821,3.56226038 L3.84979821,3.56226038 Z" id="Shape" fill="#359685"></path>
                                    <path d="M15.50024,3.85426475 C15.4824841,3.67706826 15.3233268,3.5474672 15.1444766,3.5648331 L4.78569465,4.56980409 C4.60684449,4.58716999 4.47609662,4.74507104 4.49385251,4.92226752 L5.03847386,10.3770893 C5.05622974,10.5546073 5.21538702,10.6838868 5.39423718,10.6665209 C5.57308734,10.649155 5.70351237,10.4915756 5.68575649,10.3140575 L5.1737414,5.18018328 L14.8852408,4.23792247 L15.3975787,9.37211828 C15.4153346,9.54931476 15.5744918,9.67923741 15.753342,9.66154992 C15.9321922,9.64386243 16.0626172,9.48628298 16.0448613,9.3090865 L15.50024,3.85426475 L15.50024,3.85426475 Z" id="Shape" fill="#52A597"></path>
                                    <path d="M8.0708558,0.321269127 L20.3385566,0.321269127 C20.6949656,0.321269127 20.9842251,0.609414409 20.9842251,0.964450561 L20.9842251,23.7973915 C20.9842251,24.1524276 20.6949656,24.4405729 20.3385566,24.4405729 L8.0708558,24.4405729 C7.7144468,24.4405729 7.42518733,24.1524276 7.42518733,23.7973915 L7.42518733,0.964450561 C7.42518733,0.609414409 7.7144468,0.321269127 8.0708558,0.321269127 L8.0708558,0.321269127 Z" id="Shape" fill="#3DB39E"></path>
                                    <path d="M14.2047062,5.4667206 C14.5611152,5.4667206 14.8503747,5.17857532 14.8503747,4.82353917 C14.8503747,4.46850302 14.5611152,4.18035774 14.2047062,4.18035774 C13.8482972,4.18035774 13.5590377,4.46850302 13.5590377,4.82353917 C13.5590377,5.17857532 13.8482972,5.4667206 14.2047062,5.4667206 L14.2047062,5.4667206 Z M14.2047062,21.2246658 C14.5611152,21.2246658 14.8503747,20.9365205 14.8503747,20.5814843 C14.8503747,20.2264482 14.5611152,19.9383029 14.2047062,19.9383029 C13.8482972,19.9383029 13.5590377,20.2264482 13.5590377,20.5814843 C13.5590377,20.9365205 13.8482972,21.2246658 14.2047062,21.2246658 L14.2047062,21.2246658 Z M19.3700539,1.607632 L9.03935849,1.607632 C8.86083116,1.607632 8.71652426,1.75170464 8.71652426,1.92922271 L8.71652426,7.71785563 C8.71652426,7.89569529 8.86083116,8.03944634 9.03935849,8.03944634 C9.21788582,8.03944634 9.36219272,7.89569529 9.36219272,7.71785563 L9.36219272,2.25081343 L19.0472197,2.25081343 L19.0472197,7.71785563 C19.0472197,7.89569529 19.1915266,8.03944634 19.3700539,8.03944634 C19.5485812,8.03944634 19.6928881,7.89569529 19.6928881,7.71785563 L19.6928881,1.92922271 C19.6928881,1.75170464 19.5485812,1.607632 19.3700539,1.607632 L19.3700539,1.607632 Z M19.3700539,17.6871679 C19.1915266,17.6871679 19.0472197,17.8312405 19.0472197,18.0087586 L19.0472197,23.7973915 L9.36219272,23.7973915 L9.36219272,18.0087586 C9.36219272,17.8312405 9.21788582,17.6871679 9.03935849,17.6871679 C8.86083116,17.6871679 8.71652426,17.8312405 8.71652426,18.0087586 L8.71652426,24.1189822 C8.71652426,24.2965003 8.86083116,24.4405729 9.03935849,24.4405729 L19.3700539,24.4405729 C19.5485812,24.4405729 19.6928881,24.2965003 19.6928881,24.1189822 L19.6928881,18.0087586 C19.6928881,17.8312405 19.5485812,17.6871679 19.3700539,17.6871679 L19.3700539,17.6871679 Z M14.2047062,8.03944634 C11.5303474,8.03944634 9.36219272,10.1992496 9.36219272,12.8633071 C9.36219272,15.5273646 11.5303474,17.6871679 14.2047062,17.6871679 C16.879065,17.6871679 19.0472197,15.5273646 19.0472197,12.8633071 C19.0472197,10.1992496 16.879065,8.03944634 14.2047062,8.03944634 L14.2047062,8.03944634 Z M16.8083643,13.1913296 L16.4345222,13.1913296 C16.3702782,13.6930112 16.1639872,14.1068984 15.8543891,14.3204346 C15.796279,14.3580608 15.7255783,14.3828232 15.6480981,14.3828232 C15.461177,14.3828232 15.3065394,14.2323188 15.3065394,14.0441882 C15.3065394,13.9567155 15.3578701,13.8685997 15.4479408,13.7743736 C15.6416414,13.5801328 15.7898223,13.2537182 15.7898223,12.8964309 C15.7898223,12.3757756 15.5386572,12.1808916 15.2807127,12.1808916 C14.4365012,12.1808916 14.8297133,14.4706175 13.2181248,14.4706175 C12.5091808,14.4706175 12.045268,14.0316462 11.9613311,13.191008 L11.6004025,13.191008 C11.4328515,13.191008 11.2975839,13.0591559 11.2975839,12.8961094 C11.2975839,12.7391731 11.4331743,12.6076425 11.6004025,12.6076425 L11.9613311,12.6076425 C12.0384885,11.9991928 12.3735904,11.5225954 12.7280624,11.3090592 C12.7797159,11.2775433 12.8439599,11.258891 12.9088496,11.258891 C13.1022273,11.258891 13.2568649,11.4097171 13.2568649,11.5914158 C13.2568649,11.7293782 13.1797075,11.8046305 13.1151407,11.8673407 C12.8442827,12.1307235 12.6254011,12.4635698 12.6254011,12.8961094 C12.6254011,13.4666113 12.8187788,13.7428577 13.2181248,13.7428577 C14.1591866,13.7428577 13.7272344,11.4534534 15.2807127,11.4534534 C15.8540663,11.4534534 16.3502625,11.8046305 16.4409789,12.6076425 L16.8083643,12.6076425 C16.9759152,12.6076425 17.1111828,12.7391731 17.1111828,12.8961094 C17.1115056,13.0591559 16.9759152,13.1913296 16.8083643,13.1913296 L16.8083643,13.1913296 Z" id="Shape" fill="#81CEC0"></path>
                                </g>
                            </g>
                        </g>
                    </g>
                </g>
                <path d="M28.132,42 L28.132,30.8 L26.564,30.8 L22.484,38.864 L18.388,30.8 L16.804,30.8 L16.804,42 L18.02,42 L18.02,32.768 L22.084,40.816 L22.852,40.816 L26.932,32.768 L26.948,42 L28.132,42 Z M34.788,33.536 C32.292,33.536 30.516,35.264 30.516,37.776 C30.516,40.304 32.292,42.048 34.788,42.048 C37.284,42.048 39.06,40.304 39.06,37.776 C39.06,35.264 37.284,33.536 34.788,33.536 L34.788,33.536 Z M34.788,34.672 C36.548,34.672 37.812,35.952 37.812,37.792 C37.812,39.648 36.548,40.928 34.788,40.928 C33.028,40.928 31.764,39.648 31.764,37.792 C31.764,35.952 33.028,34.672 34.788,34.672 L34.788,34.672 Z M48.996,30.128 L47.748,30.128 L47.748,35.392 C47.124,34.192 45.956,33.504 44.452,33.504 C42.068,33.504 40.404,35.248 40.404,37.776 C40.404,40.288 42.068,42.064 44.468,42.064 C45.972,42.064 47.124,41.376 47.748,40.192 L47.748,42 L48.996,42 L48.996,30.128 Z M44.708,40.944 C42.916,40.944 41.652,39.632 41.652,37.808 C41.652,35.968 42.916,34.64 44.708,34.64 C46.484,34.64 47.748,35.968 47.748,37.808 C47.748,39.632 46.484,40.944 44.708,40.944 L44.708,40.944 Z M55.444,33.536 C52.996,33.536 51.268,35.28 51.268,37.792 C51.268,40.304 52.98,42.048 55.46,42.048 C56.868,42.048 58.052,41.536 58.852,40.64 L58.164,39.904 C57.508,40.592 56.596,40.96 55.556,40.96 C53.924,40.96 52.724,39.92 52.5,38.272 L59.38,38.272 C59.508,35.408 58.164,33.52 55.444,33.536 L55.444,33.536 Z M52.5,37.248 C52.692,35.648 53.844,34.608 55.444,34.608 C57.092,34.608 58.18,35.632 58.26,37.248 L52.5,37.248 Z M62.772,33.568 L61.524,33.568 L61.524,42 L62.772,42 L62.772,37.52 C62.916,35.856 64.02,34.752 65.796,34.784 L65.796,33.52 C64.372,33.536 63.332,34.208 62.772,35.44 L62.772,33.568 Z M71.988,33.52 C70.452,33.536 69.316,34.144 68.724,35.424 L68.724,33.568 L67.476,33.568 L67.476,42 L68.724,42 L68.724,37.472 C68.868,35.872 69.892,34.784 71.556,34.768 C73.044,34.768 73.94,35.648 73.94,37.136 L73.94,42 L75.188,42 L75.188,36.8 C75.188,34.768 74.004,33.52 71.988,33.52 L71.988,33.52 Z M85.684,33.536 C83.252,33.536 81.508,35.28 81.508,37.792 C81.508,40.304 83.236,42.048 85.684,42.048 C87.14,42.048 88.308,41.504 89.06,40.592 L88.34,39.824 C87.748,40.528 86.836,40.912 85.732,40.912 C83.988,40.912 82.74,39.632 82.74,37.792 C82.74,35.952 83.988,34.688 85.732,34.688 C86.756,34.688 87.604,35.056 88.244,35.664 L88.932,34.784 C88.164,33.984 87.044,33.52 85.684,33.536 L85.684,33.536 Z M95.94,33.52 C94.388,33.536 93.236,34.144 92.66,35.456 L92.66,30.128 L91.412,30.128 L91.412,42 L92.66,42 L92.66,37.856 C92.66,36.048 93.716,34.784 95.508,34.768 C96.996,34.768 97.892,35.648 97.892,37.136 L97.892,42 L99.14,42 L99.14,36.8 C99.14,34.768 97.956,33.52 95.94,33.52 L95.94,33.52 Z M105.252,33.536 C102.804,33.536 101.076,35.28 101.076,37.792 C101.076,40.304 102.788,42.048 105.268,42.048 C106.676,42.048 107.86,41.536 108.66,40.64 L107.972,39.904 C107.316,40.592 106.404,40.96 105.364,40.96 C103.732,40.96 102.532,39.92 102.308,38.272 L109.188,38.272 C109.316,35.408 107.972,33.52 105.252,33.536 L105.252,33.536 Z M102.308,37.248 C102.5,35.648 103.652,34.608 105.252,34.608 C106.9,34.608 107.988,35.632 108.068,37.248 L102.308,37.248 Z M114.66,33.536 C112.228,33.536 110.484,35.28 110.484,37.792 C110.484,40.304 112.212,42.048 114.66,42.048 C116.116,42.048 117.284,41.504 118.036,40.592 L117.316,39.824 C116.724,40.528 115.812,40.912 114.708,40.912 C112.964,40.912 111.716,39.632 111.716,37.792 C111.716,35.952 112.964,34.688 114.708,34.688 C115.732,34.688 116.58,35.056 117.22,35.664 L117.908,34.784 C117.14,33.984 116.02,33.52 114.66,33.536 L114.66,33.536 Z M123.412,37.744 L126.292,42 L127.78,42 L124.292,36.832 L127.444,33.568 L125.972,33.568 L121.636,37.888 L121.636,30.128 L120.388,30.128 L120.388,42 L121.636,42 L121.636,39.584 L123.412,37.744 Z M134.468,30.288 C134.004,30.288 133.652,30.656 133.652,31.152 C133.652,31.648 134.004,32.016 134.468,32.016 C134.932,32.016 135.284,31.648 135.284,31.152 C135.284,30.656 134.932,30.288 134.468,30.288 L134.468,30.288 Z M135.092,42 L135.092,33.568 L133.86,33.568 L133.86,42 L135.092,42 Z M142.644,33.52 C141.108,33.536 139.972,34.144 139.38,35.424 L139.38,33.568 L138.132,33.568 L138.132,42 L139.38,42 L139.38,37.472 C139.524,35.872 140.548,34.784 142.212,34.768 C143.7,34.768 144.596,35.648 144.596,37.136 L144.596,42 L145.844,42 L145.844,36.8 C145.844,34.768 144.66,33.52 142.644,33.52 L142.644,33.52 Z M158.244,42 L159.46,42 L159.444,36.432 C159.428,34.624 158.276,33.52 156.196,33.52 C154.756,33.52 153.844,33.936 152.756,34.656 L153.284,35.568 C154.164,34.96 155.028,34.608 155.956,34.608 C157.444,34.608 158.212,35.344 158.212,36.576 L158.212,37.072 L155.444,37.072 C153.46,37.088 152.292,38.016 152.292,39.488 C152.292,40.944 153.412,42.064 155.156,42.064 C156.5,42.064 157.572,41.616 158.244,40.704 L158.244,42 Z M155.396,40.976 C154.212,40.976 153.46,40.368 153.46,39.44 C153.46,38.512 154.196,38.08 155.604,38.08 L158.228,38.08 L158.228,39.088 C157.908,40.256 156.82,40.976 155.396,40.976 L155.396,40.976 Z M166.756,33.52 C165.22,33.536 164.084,34.144 163.492,35.424 L163.492,33.568 L162.244,33.568 L162.244,42 L163.492,42 L163.492,37.472 C163.636,35.872 164.66,34.784 166.324,34.768 C167.812,34.768 168.708,35.648 168.708,37.136 L168.708,42 L169.956,42 L169.956,36.8 C169.956,34.768 168.772,33.52 166.756,33.52 L166.756,33.52 Z M180.484,30.128 L179.236,30.128 L179.236,35.392 C178.612,34.192 177.444,33.504 175.94,33.504 C173.556,33.504 171.892,35.248 171.892,37.776 C171.892,40.288 173.556,42.064 175.956,42.064 C177.46,42.064 178.612,41.376 179.236,40.192 L179.236,42 L180.484,42 L180.484,30.128 Z M176.196,40.944 C174.404,40.944 173.14,39.632 173.14,37.808 C173.14,35.968 174.404,34.64 176.196,34.64 C177.972,34.64 179.236,35.968 179.236,37.808 C179.236,39.632 177.972,40.944 176.196,40.944 L176.196,40.944 Z M195.732,30.128 L194.484,30.128 L194.484,35.392 C193.86,34.192 192.692,33.504 191.188,33.504 C188.804,33.504 187.14,35.248 187.14,37.776 C187.14,40.288 188.804,42.064 191.204,42.064 C192.708,42.064 193.86,41.376 194.484,40.192 L194.484,42 L195.732,42 L195.732,30.128 Z M191.444,40.944 C189.652,40.944 188.388,39.632 188.388,37.808 C188.388,35.968 189.652,34.64 191.444,34.64 C193.22,34.64 194.484,35.968 194.484,37.808 C194.484,39.632 193.22,40.944 191.444,40.944 L191.444,40.944 Z M199.46,30.288 C198.996,30.288 198.644,30.656 198.644,31.152 C198.644,31.648 198.996,32.016 199.46,32.016 C199.924,32.016 200.276,31.648 200.276,31.152 C200.276,30.656 199.924,30.288 199.46,30.288 L199.46,30.288 Z M200.084,42 L200.084,33.568 L198.852,33.568 L198.852,42 L200.084,42 Z M210.468,33.568 L209.22,33.568 L209.22,35.28 C208.612,34.16 207.524,33.52 206.084,33.52 C203.828,33.536 202.276,35.2 202.276,37.552 C202.276,39.952 203.844,41.632 206.116,41.632 C207.54,41.632 208.628,40.992 209.22,39.872 L209.22,41.152 C209.22,42.912 208.02,44.032 206.18,44.032 C205.06,44.016 204.18,43.648 203.348,42.96 L202.772,43.92 C203.796,44.688 204.9,45.12 206.228,45.136 C208.788,45.136 210.468,43.584 210.468,41.12 L210.468,33.568 Z M206.34,40.576 C204.644,40.576 203.46,39.328 203.444,37.6 C203.46,35.856 204.644,34.608 206.34,34.608 C208.02,34.608 209.22,35.84 209.22,37.6 C209.22,39.328 208.02,40.576 206.34,40.576 L206.34,40.576 Z M213.908,30.288 C213.444,30.288 213.092,30.656 213.092,31.152 C213.092,31.648 213.444,32.016 213.908,32.016 C214.372,32.016 214.724,31.648 214.724,31.152 C214.724,30.656 214.372,30.288 213.908,30.288 L213.908,30.288 Z M214.532,42 L214.532,33.568 L213.3,33.568 L213.3,42 L214.532,42 Z M221.572,40.416 C221.108,40.704 220.66,40.848 220.228,40.848 C219.508,40.848 219.108,40.464 219.108,39.44 L219.108,34.848 L221.78,34.848 L221.78,33.824 L219.108,33.84 L219.108,31.616 L217.876,31.616 L217.876,33.84 L216.66,33.84 L216.66,34.848 L217.876,34.848 L217.876,39.664 C217.876,41.328 218.788,42.064 220.02,42.064 C220.692,42.048 221.332,41.824 221.924,41.424 L221.572,40.416 Z M229.044,42 L230.26,42 L230.244,36.432 C230.228,34.624 229.076,33.52 226.996,33.52 C225.556,33.52 224.644,33.936 223.556,34.656 L224.084,35.568 C224.964,34.96 225.828,34.608 226.756,34.608 C228.244,34.608 229.012,35.344 229.012,36.576 L229.012,37.072 L226.244,37.072 C224.26,37.088 223.092,38.016 223.092,39.488 C223.092,40.944 224.212,42.064 225.956,42.064 C227.3,42.064 228.372,41.616 229.044,40.704 L229.044,42 Z M226.196,40.976 C225.012,40.976 224.26,40.368 224.26,39.44 C224.26,38.512 224.996,38.08 226.404,38.08 L229.028,38.08 L229.028,39.088 C228.708,40.256 227.62,40.976 226.196,40.976 L226.196,40.976 Z M234.372,42 L234.372,30.128 L233.124,30.128 L233.124,42 L234.372,42 Z M238.1,30.288 C237.636,30.288 237.284,30.656 237.284,31.152 C237.284,31.648 237.636,32.016 238.1,32.016 C238.564,32.016 238.916,31.648 238.916,31.152 C238.916,30.656 238.564,30.288 238.1,30.288 L238.1,30.288 Z M238.724,42 L238.724,33.568 L237.492,33.568 L237.492,42 L238.724,42 Z M247.86,34.528 L247.86,33.584 L241.22,33.568 L241.22,34.656 L246.356,34.672 L241.076,41.056 L241.076,42 L247.988,42.016 L247.988,40.928 L242.58,40.912 L247.86,34.528 Z M253.38,33.536 C250.932,33.536 249.204,35.28 249.204,37.792 C249.204,40.304 250.916,42.048 253.396,42.048 C254.804,42.048 255.988,41.536 256.788,40.64 L256.1,39.904 C255.444,40.592 254.532,40.96 253.492,40.96 C251.86,40.96 250.66,39.92 250.436,38.272 L257.316,38.272 C257.444,35.408 256.1,33.52 253.38,33.536 L253.38,33.536 Z M250.436,37.248 C250.628,35.648 251.78,34.608 253.38,34.608 C255.028,34.608 256.116,35.632 256.196,37.248 L250.436,37.248 Z M267.204,30.128 L265.956,30.128 L265.956,35.392 C265.332,34.192 264.164,33.504 262.66,33.504 C260.276,33.504 258.612,35.248 258.612,37.776 C258.612,40.288 260.276,42.064 262.676,42.064 C264.18,42.064 265.332,41.376 265.956,40.192 L265.956,42 L267.204,42 L267.204,30.128 Z M262.916,40.944 C261.124,40.944 259.86,39.632 259.86,37.808 C259.86,35.968 261.124,34.64 262.916,34.64 C264.692,34.64 265.956,35.968 265.956,37.808 C265.956,39.632 264.692,40.944 262.916,40.944 L262.916,40.944 Z M279.284,33.52 C277.812,33.52 276.66,34.208 276.036,35.392 L276.036,33.568 L274.788,33.568 L274.788,45.104 L276.036,45.104 L276.036,40.192 C276.66,41.36 277.812,42.048 279.316,42.048 C281.7,42.048 283.332,40.304 283.332,37.808 C283.332,35.28 281.668,33.52 279.284,33.52 L279.284,33.52 Z M279.06,40.912 C277.284,40.912 276.036,39.616 276.036,37.776 C276.036,35.952 277.284,34.64 279.06,34.64 C280.82,34.64 282.068,35.968 282.068,37.776 C282.068,39.6 280.82,40.912 279.06,40.912 L279.06,40.912 Z M290.756,42 L291.972,42 L291.956,36.432 C291.94,34.624 290.788,33.52 288.708,33.52 C287.268,33.52 286.356,33.936 285.268,34.656 L285.796,35.568 C286.676,34.96 287.54,34.608 288.468,34.608 C289.956,34.608 290.724,35.344 290.724,36.576 L290.724,37.072 L287.956,37.072 C285.972,37.088 284.804,38.016 284.804,39.488 C284.804,40.944 285.924,42.064 287.668,42.064 C289.012,42.064 290.084,41.616 290.756,40.704 L290.756,42 Z M287.908,40.976 C286.724,40.976 285.972,40.368 285.972,39.44 C285.972,38.512 286.708,38.08 288.116,38.08 L290.74,38.08 L290.74,39.088 C290.42,40.256 289.332,40.976 287.908,40.976 L287.908,40.976 Z M300.964,33.568 L299.684,33.568 L297.012,40.528 L294.212,33.568 L292.9,33.568 L296.388,41.936 L296.036,42.72 C295.7,43.504 295.156,43.904 294.5,43.904 C294.084,43.904 293.7,43.776 293.316,43.504 L292.788,44.544 C293.3,44.96 293.86,45.168 294.564,45.168 C295.684,45.168 296.564,44.496 297.092,43.2 L300.964,33.568 Z M313.364,33.52 C311.748,33.536 310.564,34.24 310.036,35.728 C309.684,34.336 308.596,33.52 307.012,33.52 C305.492,33.536 304.356,34.16 303.796,35.472 L303.796,33.568 L302.564,33.568 L302.564,42 L303.796,42 L303.796,37.856 C303.796,36.048 304.836,34.8 306.564,34.752 C308.036,34.752 308.9,35.632 308.9,37.136 L308.9,42 L310.164,42 L310.164,37.856 C310.164,36.048 311.172,34.8 312.916,34.752 C314.372,34.752 315.252,35.632 315.252,37.136 L315.252,42 L316.5,42 L316.5,36.8 C316.5,34.768 315.332,33.52 313.364,33.52 L313.364,33.52 Z M322.596,33.536 C320.148,33.536 318.42,35.28 318.42,37.792 C318.42,40.304 320.132,42.048 322.612,42.048 C324.02,42.048 325.204,41.536 326.004,40.64 L325.316,39.904 C324.66,40.592 323.748,40.96 322.708,40.96 C321.076,40.96 319.876,39.92 319.652,38.272 L326.532,38.272 C326.66,35.408 325.316,33.52 322.596,33.536 L322.596,33.536 Z M319.652,37.248 C319.844,35.648 320.996,34.608 322.596,34.608 C324.244,34.608 325.332,35.632 325.412,37.248 L319.652,37.248 Z M333.188,33.52 C331.652,33.536 330.516,34.144 329.924,35.424 L329.924,33.568 L328.676,33.568 L328.676,42 L329.924,42 L329.924,37.472 C330.068,35.872 331.092,34.784 332.756,34.768 C334.244,34.768 335.14,35.648 335.14,37.136 L335.14,42 L336.388,42 L336.388,36.8 C336.388,34.768 335.204,33.52 333.188,33.52 L333.188,33.52 Z M343.172,40.416 C342.708,40.704 342.26,40.848 341.828,40.848 C341.108,40.848 340.708,40.464 340.708,39.44 L340.708,34.848 L343.38,34.848 L343.38,33.824 L340.708,33.84 L340.708,31.616 L339.476,31.616 L339.476,33.84 L338.26,33.84 L338.26,34.848 L339.476,34.848 L339.476,39.664 C339.476,41.328 340.388,42.064 341.62,42.064 C342.292,42.048 342.932,41.824 343.524,41.424 L343.172,40.416 Z M35.964,52.52 C34.348,52.536 33.164,53.24 32.636,54.728 C32.284,53.336 31.196,52.52 29.612,52.52 C28.092,52.536 26.956,53.16 26.396,54.472 L26.396,52.568 L25.164,52.568 L25.164,61 L26.396,61 L26.396,56.856 C26.396,55.048 27.436,53.8 29.164,53.752 C30.636,53.752 31.5,54.632 31.5,56.136 L31.5,61 L32.764,61 L32.764,56.856 C32.764,55.048 33.772,53.8 35.516,53.752 C36.972,53.752 37.852,54.632 37.852,56.136 L37.852,61 L39.1,61 L39.1,55.8 C39.1,53.768 37.932,52.52 35.964,52.52 L35.964,52.52 Z M45.196,52.536 C42.748,52.536 41.02,54.28 41.02,56.792 C41.02,59.304 42.732,61.048 45.212,61.048 C46.62,61.048 47.804,60.536 48.604,59.64 L47.916,58.904 C47.26,59.592 46.348,59.96 45.308,59.96 C43.676,59.96 42.476,58.92 42.252,57.272 L49.132,57.272 C49.26,54.408 47.916,52.52 45.196,52.536 L45.196,52.536 Z M42.252,56.248 C42.444,54.648 43.596,53.608 45.196,53.608 C46.844,53.608 47.932,54.632 48.012,56.248 L42.252,56.248 Z M56.508,61 L57.724,61 L57.708,55.432 C57.692,53.624 56.54,52.52 54.46,52.52 C53.02,52.52 52.108,52.936 51.02,53.656 L51.548,54.568 C52.428,53.96 53.292,53.608 54.22,53.608 C55.708,53.608 56.476,54.344 56.476,55.576 L56.476,56.072 L53.708,56.072 C51.724,56.088 50.556,57.016 50.556,58.488 C50.556,59.944 51.676,61.064 53.42,61.064 C54.764,61.064 55.836,60.616 56.508,59.704 L56.508,61 Z M53.66,59.976 C52.476,59.976 51.724,59.368 51.724,58.44 C51.724,57.512 52.46,57.08 53.868,57.08 L56.492,57.08 L56.492,58.088 C56.172,59.256 55.084,59.976 53.66,59.976 L53.66,59.976 Z M65.02,52.52 C63.484,52.536 62.348,53.144 61.756,54.424 L61.756,52.568 L60.508,52.568 L60.508,61 L61.756,61 L61.756,56.472 C61.9,54.872 62.924,53.784 64.588,53.768 C66.076,53.768 66.972,54.648 66.972,56.136 L66.972,61 L68.22,61 L68.22,55.8 C68.22,53.768 67.036,52.52 65.02,52.52 L65.02,52.52 Z M73.244,52.52 C71.708,52.52 70.316,53.192 70.316,54.808 C70.3,57.8 75.02,56.76 74.972,58.792 C74.956,59.624 74.156,59.992 73.164,59.992 C72.172,59.992 71.084,59.592 70.364,58.92 L69.884,59.864 C70.684,60.632 71.916,61.048 73.116,61.048 C74.732,61.048 76.204,60.312 76.204,58.648 C76.204,55.624 71.5,56.584 71.5,54.712 C71.5,53.928 72.22,53.592 73.164,53.592 C73.948,53.592 74.796,53.864 75.452,54.28 L75.932,53.288 C75.228,52.808 74.252,52.52 73.244,52.52 L73.244,52.52 Z M87.148,52.52 C85.612,52.536 84.476,53.144 83.884,54.424 L83.884,52.568 L82.636,52.568 L82.636,61 L83.884,61 L83.884,56.472 C84.028,54.872 85.052,53.784 86.716,53.768 C88.204,53.768 89.1,54.648 89.1,56.136 L89.1,61 L90.348,61 L90.348,55.8 C90.348,53.768 89.164,52.52 87.148,52.52 L87.148,52.52 Z M96.556,52.536 C94.06,52.536 92.284,54.264 92.284,56.776 C92.284,59.304 94.06,61.048 96.556,61.048 C99.052,61.048 100.828,59.304 100.828,56.776 C100.828,54.264 99.052,52.536 96.556,52.536 L96.556,52.536 Z M96.556,53.672 C98.316,53.672 99.58,54.952 99.58,56.792 C99.58,58.648 98.316,59.928 96.556,59.928 C94.796,59.928 93.532,58.648 93.532,56.792 C93.532,54.952 94.796,53.672 96.556,53.672 L96.556,53.672 Z M118.204,52.52 C116.588,52.536 115.404,53.24 114.876,54.728 C114.524,53.336 113.436,52.52 111.852,52.52 C110.332,52.536 109.196,53.16 108.636,54.472 L108.636,52.568 L107.404,52.568 L107.404,61 L108.636,61 L108.636,56.856 C108.636,55.048 109.676,53.8 111.404,53.752 C112.876,53.752 113.74,54.632 113.74,56.136 L113.74,61 L115.004,61 L115.004,56.856 C115.004,55.048 116.012,53.8 117.756,53.752 C119.212,53.752 120.092,54.632 120.092,56.136 L120.092,61 L121.34,61 L121.34,55.8 C121.34,53.768 120.172,52.52 118.204,52.52 L118.204,52.52 Z M127.532,52.536 C125.036,52.536 123.26,54.264 123.26,56.776 C123.26,59.304 125.036,61.048 127.532,61.048 C130.028,61.048 131.804,59.304 131.804,56.776 C131.804,54.264 130.028,52.536 127.532,52.536 L127.532,52.536 Z M127.532,53.672 C129.292,53.672 130.556,54.952 130.556,56.792 C130.556,58.648 129.292,59.928 127.532,59.928 C125.772,59.928 124.508,58.648 124.508,56.792 C124.508,54.952 125.772,53.672 127.532,53.672 L127.532,53.672 Z M135.244,52.568 L133.996,52.568 L133.996,61 L135.244,61 L135.244,56.52 C135.388,54.856 136.492,53.752 138.268,53.784 L138.268,52.52 C136.844,52.536 135.804,53.208 135.244,54.44 L135.244,52.568 Z M143.276,52.536 C140.828,52.536 139.1,54.28 139.1,56.792 C139.1,59.304 140.812,61.048 143.292,61.048 C144.7,61.048 145.884,60.536 146.684,59.64 L145.996,58.904 C145.34,59.592 144.428,59.96 143.388,59.96 C141.756,59.96 140.556,58.92 140.332,57.272 L147.212,57.272 C147.34,54.408 145.996,52.52 143.276,52.536 L143.276,52.536 Z M140.332,56.248 C140.524,54.648 141.676,53.608 143.276,53.608 C144.924,53.608 146.012,54.632 146.092,56.248 L140.332,56.248 Z M158.316,52.52 C156.844,52.52 155.692,53.208 155.068,54.392 L155.068,52.568 L153.82,52.568 L153.82,64.104 L155.068,64.104 L155.068,59.192 C155.692,60.36 156.844,61.048 158.348,61.048 C160.732,61.048 162.364,59.304 162.364,56.808 C162.364,54.28 160.7,52.52 158.316,52.52 L158.316,52.52 Z M158.092,59.912 C156.316,59.912 155.068,58.616 155.068,56.776 C155.068,54.952 156.316,53.64 158.092,53.64 C159.852,53.64 161.1,54.968 161.1,56.776 C161.1,58.6 159.852,59.912 158.092,59.912 L158.092,59.912 Z M169.788,61 L171.004,61 L170.988,55.432 C170.972,53.624 169.82,52.52 167.74,52.52 C166.3,52.52 165.388,52.936 164.3,53.656 L164.828,54.568 C165.708,53.96 166.572,53.608 167.5,53.608 C168.988,53.608 169.756,54.344 169.756,55.576 L169.756,56.072 L166.988,56.072 C165.004,56.088 163.836,57.016 163.836,58.488 C163.836,59.944 164.956,61.064 166.7,61.064 C168.044,61.064 169.116,60.616 169.788,59.704 L169.788,61 Z M166.94,59.976 C165.756,59.976 165.004,59.368 165.004,58.44 C165.004,57.512 165.74,57.08 167.148,57.08 L169.772,57.08 L169.772,58.088 C169.452,59.256 168.364,59.976 166.94,59.976 L166.94,59.976 Z M178.364,52.52 C176.892,52.52 175.74,53.208 175.116,54.392 L175.116,52.568 L173.868,52.568 L173.868,64.104 L175.116,64.104 L175.116,59.192 C175.74,60.36 176.892,61.048 178.396,61.048 C180.78,61.048 182.412,59.304 182.412,56.808 C182.412,54.28 180.748,52.52 178.364,52.52 L178.364,52.52 Z M178.14,59.912 C176.364,59.912 175.116,58.616 175.116,56.776 C175.116,54.952 176.364,53.64 178.14,53.64 C179.9,53.64 181.148,54.968 181.148,56.776 C181.148,58.6 179.9,59.912 178.14,59.912 L178.14,59.912 Z M187.932,52.536 C185.484,52.536 183.756,54.28 183.756,56.792 C183.756,59.304 185.468,61.048 187.948,61.048 C189.356,61.048 190.54,60.536 191.34,59.64 L190.652,58.904 C189.996,59.592 189.084,59.96 188.044,59.96 C186.412,59.96 185.212,58.92 184.988,57.272 L191.868,57.272 C191.996,54.408 190.652,52.52 187.932,52.536 L187.932,52.536 Z M184.988,56.248 C185.18,54.648 186.332,53.608 187.932,53.608 C189.58,53.608 190.668,54.632 190.748,56.248 L184.988,56.248 Z M195.26,52.568 L194.012,52.568 L194.012,61 L195.26,61 L195.26,56.52 C195.404,54.856 196.508,53.752 198.284,53.784 L198.284,52.52 C196.86,52.536 195.82,53.208 195.26,54.44 L195.26,52.568 Z M209.644,61 L212.764,52.568 L211.468,52.568 L209.004,59.704 L206.524,52.568 L205.212,52.568 L202.764,59.704 L200.268,52.568 L198.956,52.568 L202.108,61 L203.404,61 L205.868,54.152 L208.348,61 L209.644,61 Z M217.388,52.536 C214.892,52.536 213.116,54.264 213.116,56.776 C213.116,59.304 214.892,61.048 217.388,61.048 C219.884,61.048 221.66,59.304 221.66,56.776 C221.66,54.264 219.884,52.536 217.388,52.536 L217.388,52.536 Z M217.388,53.672 C219.148,53.672 220.412,54.952 220.412,56.792 C220.412,58.648 219.148,59.928 217.388,59.928 C215.628,59.928 214.364,58.648 214.364,56.792 C214.364,54.952 215.628,53.672 217.388,53.672 L217.388,53.672 Z M225.1,52.568 L223.852,52.568 L223.852,61 L225.1,61 L225.1,56.52 C225.244,54.856 226.348,53.752 228.124,53.784 L228.124,52.52 C226.7,52.536 225.66,53.208 225.1,54.44 L225.1,52.568 Z M232.908,56.744 L235.788,61 L237.276,61 L233.788,55.832 L236.94,52.568 L235.468,52.568 L231.132,56.888 L231.132,49.128 L229.884,49.128 L229.884,61 L231.132,61 L231.132,58.584 L232.908,56.744 Z M246.78,52.536 C244.284,52.536 242.508,54.264 242.508,56.776 C242.508,59.304 244.284,61.048 246.78,61.048 C249.276,61.048 251.052,59.304 251.052,56.776 C251.052,54.264 249.276,52.536 246.78,52.536 L246.78,52.536 Z M246.78,53.672 C248.54,53.672 249.804,54.952 249.804,56.792 C249.804,58.648 248.54,59.928 246.78,59.928 C245.02,59.928 243.756,58.648 243.756,56.792 C243.756,54.952 245.02,53.672 246.78,53.672 L246.78,53.672 Z M254.492,52.568 L253.244,52.568 L253.244,61 L254.492,61 L254.492,56.52 C254.636,54.856 255.74,53.752 257.516,53.784 L257.516,52.52 C256.092,52.536 255.052,53.208 254.492,54.44 L254.492,52.568 Z M266.764,61 L270.076,52.568 L268.812,52.568 L266.14,59.704 L263.452,52.568 L262.124,52.568 L265.468,61 L266.764,61 Z M274.7,52.536 C272.204,52.536 270.428,54.264 270.428,56.776 C270.428,59.304 272.204,61.048 274.7,61.048 C277.196,61.048 278.972,59.304 278.972,56.776 C278.972,54.264 277.196,52.536 274.7,52.536 L274.7,52.536 Z M274.7,53.672 C276.46,53.672 277.724,54.952 277.724,56.792 C277.724,58.648 276.46,59.928 274.7,59.928 C272.94,59.928 271.676,58.648 271.676,56.792 C271.676,54.952 272.94,53.672 274.7,53.672 L274.7,53.672 Z M288.476,52.568 L287.228,52.568 L287.228,56.712 C287.228,58.504 286.204,59.768 284.46,59.8 C283.004,59.8 282.124,58.92 282.124,57.432 L282.124,52.568 L280.876,52.568 L280.876,57.768 C280.876,59.8 282.06,61.048 284.028,61.048 C285.548,61.032 286.668,60.408 287.228,59.096 L287.228,61 L288.476,61 L288.476,52.568 Z M294.844,52.536 C292.412,52.536 290.668,54.28 290.668,56.792 C290.668,59.304 292.396,61.048 294.844,61.048 C296.3,61.048 297.468,60.504 298.22,59.592 L297.5,58.824 C296.908,59.528 295.996,59.912 294.892,59.912 C293.148,59.912 291.9,58.632 291.9,56.792 C291.9,54.952 293.148,53.688 294.892,53.688 C295.916,53.688 296.764,54.056 297.404,54.664 L298.092,53.784 C297.324,52.984 296.204,52.52 294.844,52.536 L294.844,52.536 Z M305.1,52.52 C303.548,52.536 302.396,53.144 301.82,54.456 L301.82,49.128 L300.572,49.128 L300.572,61 L301.82,61 L301.82,56.856 C301.82,55.048 302.876,53.784 304.668,53.768 C306.156,53.768 307.052,54.648 307.052,56.136 L307.052,61 L308.3,61 L308.3,55.8 C308.3,53.768 307.116,52.52 305.1,52.52 L305.1,52.52 Z M314.412,52.536 C311.964,52.536 310.236,54.28 310.236,56.792 C310.236,59.304 311.948,61.048 314.428,61.048 C315.836,61.048 317.02,60.536 317.82,59.64 L317.132,58.904 C316.476,59.592 315.564,59.96 314.524,59.96 C312.892,59.96 311.692,58.92 311.468,57.272 L318.348,57.272 C318.476,54.408 317.132,52.52 314.412,52.536 L314.412,52.536 Z M311.468,56.248 C311.66,54.648 312.812,53.608 314.412,53.608 C316.06,53.608 317.148,54.632 317.228,56.248 L311.468,56.248 Z M321.74,52.568 L320.492,52.568 L320.492,61 L321.74,61 L321.74,56.52 C321.884,54.856 322.988,53.752 324.764,53.784 L324.764,52.52 C323.34,52.536 322.3,53.208 321.74,54.44 L321.74,52.568 Z M328.684,52.52 C327.148,52.52 325.756,53.192 325.756,54.808 C325.74,57.8 330.46,56.76 330.412,58.792 C330.396,59.624 329.596,59.992 328.604,59.992 C327.612,59.992 326.524,59.592 325.804,58.92 L325.324,59.864 C326.124,60.632 327.356,61.048 328.556,61.048 C330.172,61.048 331.644,60.312 331.644,58.648 C331.644,55.624 326.94,56.584 326.94,54.712 C326.94,53.928 327.66,53.592 328.604,53.592 C329.388,53.592 330.236,53.864 330.892,54.28 L331.372,53.288 C330.668,52.808 329.692,52.52 328.684,52.52 L328.684,52.52 Z M333.772,59.464 C333.324,59.464 332.988,59.816 332.988,60.296 C332.988,60.776 333.324,61.128 333.772,61.128 C334.204,61.128 334.54,60.776 334.54,60.296 C334.54,59.816 334.204,59.464 333.772,59.464 L333.772,59.464 Z M132.412,90 L132.412,78.8 L128.876,78.8 L128.876,80.016 L131.148,80.016 L131.148,90 L132.412,90 Z M140.012,78.768 C137.036,78.768 135.388,80.784 135.388,84.4 C135.388,88.016 137.036,90.032 140.012,90.032 C142.988,90.032 144.636,88.016 144.636,84.4 C144.636,80.784 142.988,78.768 140.012,78.768 L140.012,78.768 Z M140.012,79.856 C142.188,79.856 143.34,81.36 143.34,84.4 C143.34,87.424 142.188,88.944 140.012,88.944 C137.836,88.944 136.684,87.424 136.684,84.4 C136.684,81.36 137.836,79.856 140.012,79.856 L140.012,79.856 Z M150.956,78.768 C147.98,78.768 146.332,80.784 146.332,84.4 C146.332,88.016 147.98,90.032 150.956,90.032 C153.932,90.032 155.58,88.016 155.58,84.4 C155.58,80.784 153.932,78.768 150.956,78.768 L150.956,78.768 Z M150.956,79.856 C153.132,79.856 154.284,81.36 154.284,84.4 C154.284,87.424 153.132,88.944 150.956,88.944 C148.78,88.944 147.628,87.424 147.628,84.4 C147.628,81.36 148.78,79.856 150.956,79.856 L150.956,79.856 Z M159.964,78.784 C158.172,78.784 157.116,80.016 157.116,82.096 C157.116,84.192 158.172,85.408 159.964,85.408 C161.756,85.408 162.828,84.192 162.828,82.096 C162.828,80.016 161.756,78.784 159.964,78.784 L159.964,78.784 Z M159.052,90 L160.3,90 L168.668,78.8 L167.436,78.8 L159.052,90 Z M159.964,79.584 C161.228,79.584 161.932,80.496 161.932,82.096 C161.932,83.696 161.228,84.592 159.964,84.592 C158.7,84.592 157.996,83.696 157.996,82.096 C157.996,80.496 158.7,79.584 159.964,79.584 L159.964,79.584 Z M167.948,83.408 C166.156,83.408 165.1,84.624 165.1,86.704 C165.1,88.8 166.156,90.016 167.948,90.016 C169.74,90.016 170.812,88.8 170.812,86.704 C170.812,84.624 169.74,83.408 167.948,83.408 L167.948,83.408 Z M167.948,84.208 C169.212,84.208 169.916,85.104 169.916,86.704 C169.916,88.32 169.212,89.216 167.948,89.216 C166.684,89.216 165.98,88.32 165.98,86.704 C165.98,85.104 166.684,84.208 167.948,84.208 L167.948,84.208 Z M177.58,78.8 L177.58,90 L182.06,90 C185.356,90 187.868,87.584 187.868,84.4 C187.868,81.216 185.372,78.8 182.108,78.8 L177.58,78.8 Z M178.86,80.032 L182.076,80.032 C184.588,80.032 186.572,81.904 186.572,84.416 C186.572,86.912 184.62,88.784 182.124,88.784 L178.86,88.784 L178.86,80.032 Z M190.636,78.288 C190.172,78.288 189.82,78.656 189.82,79.152 C189.82,79.648 190.172,80.016 190.636,80.016 C191.1,80.016 191.452,79.648 191.452,79.152 C191.452,78.656 191.1,78.288 190.636,78.288 L190.636,78.288 Z M191.26,90 L191.26,81.568 L190.028,81.568 L190.028,90 L191.26,90 Z M201.644,81.568 L200.396,81.568 L200.396,83.28 C199.788,82.16 198.7,81.52 197.26,81.52 C195.004,81.536 193.452,83.2 193.452,85.552 C193.452,87.952 195.02,89.632 197.292,89.632 C198.716,89.632 199.804,88.992 200.396,87.872 L200.396,89.152 C200.396,90.912 199.196,92.032 197.356,92.032 C196.236,92.016 195.356,91.648 194.524,90.96 L193.948,91.92 C194.972,92.688 196.076,93.12 197.404,93.136 C199.964,93.136 201.644,91.584 201.644,89.12 L201.644,81.568 Z M197.516,88.576 C195.82,88.576 194.636,87.328 194.62,85.6 C194.636,83.856 195.82,82.608 197.516,82.608 C199.196,82.608 200.396,83.84 200.396,85.6 C200.396,87.328 199.196,88.576 197.516,88.576 L197.516,88.576 Z M205.084,78.288 C204.62,78.288 204.268,78.656 204.268,79.152 C204.268,79.648 204.62,80.016 205.084,80.016 C205.548,80.016 205.9,79.648 205.9,79.152 C205.9,78.656 205.548,78.288 205.084,78.288 L205.084,78.288 Z M205.708,90 L205.708,81.568 L204.476,81.568 L204.476,90 L205.708,90 Z M212.748,88.416 C212.284,88.704 211.836,88.848 211.404,88.848 C210.684,88.848 210.284,88.464 210.284,87.44 L210.284,82.848 L212.956,82.848 L212.956,81.824 L210.284,81.84 L210.284,79.616 L209.052,79.616 L209.052,81.84 L207.836,81.84 L207.836,82.848 L209.052,82.848 L209.052,87.664 C209.052,89.328 209.964,90.064 211.196,90.064 C211.868,90.048 212.508,89.824 213.1,89.424 L212.748,88.416 Z M220.22,90 L221.436,90 L221.42,84.432 C221.404,82.624 220.252,81.52 218.172,81.52 C216.732,81.52 215.82,81.936 214.732,82.656 L215.26,83.568 C216.14,82.96 217.004,82.608 217.932,82.608 C219.42,82.608 220.188,83.344 220.188,84.576 L220.188,85.072 L217.42,85.072 C215.436,85.088 214.268,86.016 214.268,87.488 C214.268,88.944 215.388,90.064 217.132,90.064 C218.476,90.064 219.548,89.616 220.22,88.704 L220.22,90 Z M217.372,88.976 C216.188,88.976 215.436,88.368 215.436,87.44 C215.436,86.512 216.172,86.08 217.58,86.08 L220.204,86.08 L220.204,87.088 C219.884,88.256 218.796,88.976 217.372,88.976 L217.372,88.976 Z M225.548,90 L225.548,78.128 L224.3,78.128 L224.3,90 L225.548,90 Z M229.516,81.696 L229.516,78.992 L228.316,78.992 L228.316,81.696 L228.492,86.624 L229.324,86.624 L229.516,81.696 Z M228.908,88.464 C228.476,88.464 228.14,88.816 228.14,89.296 C228.14,89.776 228.476,90.128 228.908,90.128 C229.356,90.128 229.692,89.776 229.692,89.296 C229.692,88.816 229.356,88.464 228.908,88.464 L228.908,88.464 Z" id="Modern-check-in-and-" fill="#FFFFFF" sketch:type="MSShapeGroup"></path>
            </g>
        </g>
    </g>
</svg>