<?xml version="1.0" encoding="UTF-8" standalone="no"?>
<svg width="1591px" height="509px" viewBox="0 0 1591 509" version="1.1" xmlns="http://www.w3.org/2000/svg" xmlns:xlink="http://www.w3.org/1999/xlink" xmlns:sketch="http://www.bohemiancoding.com/sketch/ns">
    <!-- Generator: Sketch 3.3.3 (12081) - http://www.bohemiancoding.com/sketch -->
    <title>DigitalLandingPagetext-gold</title>
    <desc>Created with Sketch.</desc>
    <defs>
        <rect id="path-1" x="0" y="0" width="1591" height="508.932599"></rect>
        <path id="path-3" d="M113.418193,0 C50.7795935,0 0,50.7979282 0,113.461944 C0,176.12596 50.7795935,226.928426 113.418193,226.928426 C176.056793,226.928426 226.836387,176.12596 226.836387,113.461944 C226.836387,50.7979282 176.056793,0 113.418193,0 L113.418193,0 Z"></path>
    </defs>
    <g id="Home-Page" stroke="none" stroke-width="1" fill="none" fill-rule="evenodd" sketch:type="MSPage">
        <g id="Landing-Page-1.0" sketch:type="MSArtboardGroup" transform="translate(-232.000000, -1953.000000)">
            <g id="DigitalLandingPagetext-gold" sketch:type="MSLayerGroup" transform="translate(232.000000, 1953.000000)">
                <mask id="mask-2" sketch:name="Mask" fill="white">
                    <use xlink:href="#path-1"></use>
                </mask>
                <use id="Mask" fill="#EFC75E" sketch:type="MSShapeGroup" xlink:href="#path-1"></use>
                <g id="digitalcheckin" mask="url(#mask-2)">
                    <g transform="translate(673.690141, 243.319351)">
                        <g id="android">
                            <path d="M214.314085,1.13686838e-13 L28.3056338,1.13686838e-13 C12.6768803,1.13686838e-13 0,12.6298151 0,28.200544 L0,265.894872 C33.7928831,291.182703 75.7944,306.181364 121.309859,306.181364 C166.833406,306.181364 208.834923,291.182703 242.619718,265.894872 L242.619718,28.200544 C242.619718,12.6298151 229.950925,1.27999475e-13 214.314085,1.27999475e-13 L214.314085,1.13686838e-13 Z" id="Shape" fill="#E4E7E7" sketch:type="MSShapeGroup"></path>
                            <path d="M224.983809,47.6282121 L15.3684349,47.6282121 C13.1432871,47.6282121 11.33737,49.4380559 11.33737,51.668042 L11.33737,274.153592 C42.7353345,294.39314 80.0750886,306.181364 120.176122,306.181364 C160.281187,306.181364 197.61691,294.39314 229.014874,274.153592 L229.014874,51.668042 C229.014874,49.4380559 227.212988,47.6282121 224.983809,47.6282121 L224.983809,47.6282121 Z" id="Shape" fill="#344C59" sketch:type="MSShapeGroup"></path>
                            <path d="M222.212452,56.7002525 L20.407266,56.7002525 L20.407266,279.201189 C50.096845,296.32686 84.5449903,306.181364 121.309859,306.181364 C158.0828,306.181364 192.526909,296.32686 222.212452,279.201189 L222.212452,56.7002525 L222.212452,56.7002525 Z" id="Shape" fill="#3F5E6D" sketch:type="MSShapeGroup"></path>
                            <path d="M140.129893,15.8760707 L99.3153613,15.8760707 C97.0583177,15.8760707 95.2339081,17.9117259 95.2339081,20.409824 C95.2339081,22.9169896 97.0583177,24.9481111 99.3153613,24.9481111 L140.129893,24.9481111 C142.386937,24.9481111 144.211347,22.9169896 144.211347,20.409824 C144.211347,17.9117259 142.386937,15.8760707 140.129893,15.8760707 L140.129893,15.8760707 Z M156.455706,15.8760707 C154.198663,15.8760707 152.374253,17.9117259 152.374253,20.409824 C152.374253,22.9169896 154.198663,24.9481111 156.455706,24.9481111 C158.71275,24.9481111 160.537159,22.9169896 160.537159,20.409824 C160.537159,17.9117259 158.71275,15.8760707 156.455706,15.8760707 L156.455706,15.8760707 Z M172.781519,15.8760707 C170.524475,15.8760707 168.700066,17.9117259 168.700066,20.409824 C168.700066,22.9169896 170.524475,24.9481111 172.781519,24.9481111 C175.038563,24.9481111 176.862972,22.9169896 176.862972,20.409824 C176.862972,17.9117259 175.038563,15.8760707 172.781519,15.8760707 L172.781519,15.8760707 Z" id="Shape" fill="#BFC3C5" sketch:type="MSShapeGroup"></path>
                        </g>
                        <g id="clipboard" transform="translate(24.942214, 138.348616)">
                            <path d="M10.8838752,13.6080606 C4.87325513,13.6080606 0,17.6700103 0,22.679975 L0,144.459086 C24.5431386,164.519357 58.1471033,167.832747 95.2339081,167.832747 C132.323434,167.832747 165.924678,164.519357 190.467816,144.459086 L190.467816,22.679975 C190.467816,17.6700103 185.594561,13.6080606 179.583941,13.6080606 L10.8838752,13.6080606 Z" id="Shape" fill="#E2574C" sketch:type="MSShapeGroup"></path>
                            <path d="M21.4237199,34.0201515 C18.3593461,34.0201515 15.872318,36.0522563 15.872318,38.5560997 L15.872318,155.853452 C38.5803274,169.091617 66.3484395,172.368768 96.3676451,172.368768 C126.386851,172.368768 154.154963,169.091617 176.862972,155.853452 L176.862972,38.5560997 C176.862972,36.0522563 174.375944,34.0201515 171.31157,34.0201515 L21.4237199,34.0201515 Z" id="Shape" fill="#F0DDAB" sketch:type="MSShapeGroup"></path>
                            <path d="M179.583941,13.6080606 L10.8838752,13.6080606 C4.87325513,13.6080606 0,17.6700667 0,22.680101 L0,27.2161212 C0,22.2060869 4.87325513,18.1440808 10.8838752,18.1440808 L179.583941,18.1440808 C185.594561,18.1440808 190.467816,22.2060869 190.467816,27.2161212 L190.467816,22.680101 C190.467816,17.6700667 185.594561,13.6080606 179.583941,13.6080606 L179.583941,13.6080606 Z" id="Shape" fill="#BF392B" sketch:type="MSShapeGroup"></path>
                            <path d="M146.932315,133.812596 L43.5355009,133.812596 C42.0308051,133.812596 40.8145321,134.826396 40.8145321,136.080606 C40.8145321,137.334816 42.0308051,138.348616 43.5355009,138.348616 L146.932315,138.348616 C148.437011,138.348616 149.653284,137.334816 149.653284,136.080606 C149.653284,134.826396 148.437011,133.812596 146.932315,133.812596 L146.932315,133.812596 Z M146.932315,111.132495 L43.5355009,111.132495 C42.0308051,111.132495 40.8145321,112.146295 40.8145321,113.400505 C40.8145321,114.654715 42.0308051,115.668515 43.5355009,115.668515 L146.932315,115.668515 C148.437011,115.668515 149.653284,114.654715 149.653284,113.400505 C149.653284,112.146295 148.437011,111.132495 146.932315,111.132495 L146.932315,111.132495 Z M146.932315,88.4523939 L43.5355009,88.4523939 C42.0308051,88.4523939 40.8145321,89.4684624 40.8145321,90.720404 C40.8145321,91.9746136 42.0308051,92.9884141 43.5355009,92.9884141 L146.932315,92.9884141 C148.437011,92.9884141 149.653284,91.9746136 149.653284,90.720404 C149.653284,89.4684624 148.437011,88.4523939 146.932315,88.4523939 L146.932315,88.4523939 Z M146.932315,156.492697 L43.5355009,156.492697 C42.0308051,156.492697 40.8145321,157.506497 40.8145321,158.760707 C40.8145321,160.014917 42.0308051,161.028717 43.5355009,161.028717 L146.932315,161.028717 C148.437011,161.028717 149.653284,160.014917 149.653284,158.760707 C149.653284,157.506497 148.437011,156.492697 146.932315,156.492697 L146.932315,156.492697 Z M43.5355009,70.3083131 L146.932315,70.3083131 C148.437011,70.3083131 149.653284,69.2945126 149.653284,68.040303 C149.653284,66.7883614 148.437011,65.7722929 146.932315,65.7722929 L43.5355009,65.7722929 C42.0308051,65.7722929 40.8145321,66.7883614 40.8145321,68.040303 C40.8145321,69.2945126 42.0308051,70.3083131 43.5355009,70.3083131 L43.5355009,70.3083131 Z" id="Shape" fill="#D8C69A" sketch:type="MSShapeGroup"></path>
                            <path d="M43.52444,22.680101 L149.21085,22.680101 C150.709429,22.680101 151.920758,23.6961695 151.920758,24.9481111 L151.920758,40.8241818 C151.920758,44.5822745 148.278642,47.6282121 143.791034,47.6282121 L48.9442559,47.6282121 C44.4566483,47.6282121 40.8145321,44.5822745 40.8145321,40.8241818 L40.8145321,24.9481111 C40.8145321,23.6961695 42.0258609,22.680101 43.52444,22.680101 L43.52444,22.680101 Z M79.7125508,5.68434189e-14 L113.982047,5.68434189e-14 C118.469654,5.68434189e-14 120.813725,2.74429222 122.111771,6.8040303 L127.531587,22.680101 L67.9136116,22.680101 L73.3334275,6.8040303 C74.1247206,3.92365747 75.704597,5.68434189e-14 79.7125508,5.68434189e-14 L79.7125508,5.68434189e-14 Z" id="Shape" fill="#CCD0D2" sketch:type="MSShapeGroup"></path>
                            <path d="M69.811608,18.1440808 L68.0242201,22.680101 L126.978544,22.680101 L125.193836,18.1440808 L69.811608,18.1440808 Z" id="Shape" fill="#A4A7A9" sketch:type="MSShapeGroup"></path>
                            <path d="M149.21085,22.680101 L43.52444,22.680101 C42.0258609,22.680101 40.8145321,23.6961695 40.8145321,24.9481111 L40.8145321,31.7521414 C40.8145321,30.5001998 42.0258609,29.4841313 43.52444,29.4841313 L149.21085,29.4841313 C150.709429,29.4841313 151.920758,30.5001998 151.920758,31.7521414 L151.920758,24.9481111 C151.920758,23.6961695 150.709429,22.680101 149.21085,22.680101 L149.21085,22.680101 Z" id="Shape" fill="#B7BBBD" sketch:type="MSShapeGroup"></path>
                        </g>
                        <g id="pencil" transform="translate(149.653284, 158.760707)">
                            <path d="M81.6290641,23.6710572 C75.9862346,14.0176523 68.1064117,5.87899561 58.7080458,1.20792265e-13 C39.7507513,19.2901947 7.28032928,52.3308147 6.65984935,52.960806 C4.8133773,54.8397031 -1.09751041,82.4457828 0.178827684,83.744534 C1.48646191,85.0765156 27.9575506,78.2850711 29.7509553,76.4574041 L81.6290641,23.6710572 L81.6290641,23.6710572 Z" id="Shape" fill="#BF392B" sketch:type="MSShapeGroup"></path>
                            <path d="M18.0243486,64.203568 C16.6814004,62.7888466 16.5088127,56.5802652 15.1550777,55.155601 C13.8026911,53.728096 6.60119872,52.1656527 6.59580536,52.1642323 C4.83891627,54.0150174 -0.625912168,80.1802607 0.0590453563,83.4443468 L0.456806124,83.864786 C3.53372162,84.5579427 27.7701616,78.0681215 29.477162,76.2684709 C29.477162,76.2684709 27.9319626,68.6139192 26.6092395,67.2219243 C25.2865164,65.8270886 19.3699935,65.6197097 18.0243486,64.203568 L18.0243486,64.203568 Z" id="Shape" fill="#FFCABA" sketch:type="MSShapeGroup"></path>
                            <path d="M6.75015599e-14,83.2679953 L0.0350854337,83.4655467 L0.434519602,83.8674149 C3.51933888,84.5263705 27.7687713,78.3454483 29.477162,76.6310813 C29.477162,76.6310813 27.9900794,69.40016 26.6365914,68.040303 C4.07530806,80.9095568 0.55192086,82.9459595 7.70899061e-14,83.2679953 L6.75015599e-14,83.2679953 Z" id="Shape" fill="#E5B5A7" sketch:type="MSShapeGroup"></path>
                            <path d="M0.0172464256,81.6483636 C0.447898918,80.9411123 2.81436966,76.9991665 15.872318,55.0121698 C14.4546947,53.6531113 6.9076863,52.1642323 6.9076863,52.1642323 C5.11871349,53.8762403 -0.345631248,77.4941072 0.0172464256,81.6483636 L0.0172464256,81.6483636 Z" id="Shape" fill="#FFDCD2" sketch:type="MSShapeGroup"></path>
                            <path d="M4.96016212,78.7755266 C3.98097006,77.8850441 2.30052254,77.2197708 0.739801565,77.1123434 C0.075604327,80.7001596 -0.222286709,83.3845502 0.186778972,83.7560161 C0.584442125,84.1184217 3.22127665,83.836263 6.79596908,83.2137019 C6.88291336,81.6437087 6.08188579,79.7941454 4.96016212,78.7755266 L4.96016212,78.7755266 Z" id="Shape" fill="#BF392B" sketch:type="MSShapeGroup"></path>
                            <path d="M15.4603838,54.4322266 C15.4399287,54.4645962 65.7567461,4.72866313 65.7567461,4.72866313 C63.5925966,3.02386273 61.3302626,1.4390997 58.9656531,-1.77635684e-14 L6.80242201,51.5917918 C17.6504432,54.4322289 14.0912558,53.0780972 15.4603838,54.4322266 Z" id="Shape" fill="#C9574B" sketch:type="MSShapeGroup"></path>
                        </g>
                    </g>
                </g>
                <g id="paperless" mask="url(#mask-2)">
                    <g transform="translate(191.250960, 247.104136)">
                        <g id="android">
                            <path d="M215.25231,0.579223314 L29.0495429,0.579223314 C13.4044625,0.579223314 0.71433915,13.2161338 0.71433915,28.7956103 L0.71433915,266.623475 C34.5425245,291.925512 76.5879189,306.932599 122.150926,306.932599 C167.72203,306.932599 209.767424,291.925512 243.587514,266.623475 L243.587514,28.7956103 C243.587514,13.2161338 230.905486,0.579223314 215.25231,0.579223314 L215.25231,0.579223314 Z" id="Shape" fill="#E4E7E7" sketch:type="MSShapeGroup"></path>
                            <path d="M225.933181,48.2341928 L16.0988289,48.2341928 C13.8713566,48.2341928 12.0635529,50.0450534 12.0635529,52.2762923 L12.0635529,274.886835 C43.4943177,295.137753 80.8730794,306.932599 121.016005,306.932599 C161.162966,306.932599 198.537693,295.137753 229.968457,274.886835 L229.968457,52.2762923 C229.968457,50.0450534 228.164689,48.2341928 225.933181,48.2341928 L225.933181,48.2341928 Z" id="Shape" fill="#344C59" sketch:type="MSShapeGroup"></path>
                            <path d="M223.158929,57.3113299 L21.1429239,57.3113299 L21.1429239,279.937266 C50.8635186,297.072559 85.3476507,306.932599 122.150926,306.932599 C158.962283,306.932599 193.442375,297.072559 223.158929,279.937266 L223.158929,57.3113299 L223.158929,57.3113299 Z" id="Shape" fill="#3F5E6D" sketch:type="MSShapeGroup"></path>
                            <path d="M140.990621,16.4642132 L100.133452,16.4642132 C97.8740503,16.4642132 96.0477348,18.501012 96.0477348,21.0005135 C96.0477348,23.5090876 97.8740503,25.5413502 100.133452,25.5413502 L140.990621,25.5413502 C143.250023,25.5413502 145.076338,23.5090876 145.076338,21.0005135 C145.076338,18.501012 143.250023,16.4642132 140.990621,16.4642132 L140.990621,16.4642132 Z M157.333489,16.4642132 C155.074088,16.4642132 153.247772,18.501012 153.247772,21.0005135 C153.247772,23.5090876 155.074088,25.5413502 157.333489,25.5413502 C159.592891,25.5413502 161.419206,23.5090876 161.419206,21.0005135 C161.419206,18.501012 159.592891,16.4642132 157.333489,16.4642132 L157.333489,16.4642132 Z M173.676357,16.4642132 C171.416956,16.4642132 169.59064,18.501012 169.59064,21.0005135 C169.59064,23.5090876 171.416956,25.5413502 173.676357,25.5413502 C175.935758,25.5413502 177.762074,23.5090876 177.762074,21.0005135 C177.762074,18.501012 175.935758,16.4642132 173.676357,16.4642132 L173.676357,16.4642132 Z" id="Shape" fill="#BFC3C5" sketch:type="MSShapeGroup"></path>
                        </g>
                        <g id="archive-2" transform="translate(48.381037, 104.966299)">
                            <path d="M0,62.4720609 L0,99.8485076 L49.1799263,46.4535837 L49.1799263,32.2469743 L26.135618,32.2060382 L3.12003923e-15,62.4720609 L0,62.4720609 Z M121.035312,31.777099 L98.3598527,31.7699797 L98.3598527,46.4535837 L147.539779,99.8485076 L147.539779,62.4720609 L121.035312,31.777099 L121.035312,31.777099 Z" id="Shape" fill="#227F9E" sketch:type="MSShapeGroup"></path>
                            <path d="M96.358486,1.72897849 L63.0243075,1.72897849 L61.2670099,0 L47.1541527,0 C46.105046,0 45.3968551,0.809161932 45.3968551,1.56645451 L45.3968551,32.8505912 C45.3968551,34.7593835 46.9713937,36.3085482 48.9114503,36.3085482 L96.358486,36.3085482 C98.2985425,36.3085482 99.8730812,34.7593835 99.8730812,32.8505912 L99.8730812,5.18693546 C99.8730812,3.27814321 98.2985425,1.72897849 96.358486,1.72897849 L96.358486,1.72897849 Z" id="Shape" fill="#816B32" sketch:type="MSShapeGroup"></path>
                            <path d="M46.6290554,4.53856853 L100.910724,4.53856853 C102.843851,4.53856853 104.412767,6.06352755 104.412767,7.94249492 L104.412767,35.1739061 C104.412767,37.0528734 102.843851,38.5778325 100.910724,38.5778325 L46.6290554,38.5778325 C44.6959276,38.5778325 43.1270123,37.0528734 43.1270123,35.1739061 L43.1270123,7.94249492 C43.1270123,6.06352755 44.6959276,4.53856853 46.6290554,4.53856853 L46.6290554,4.53856853 Z" id="Shape" fill="#8F7738" sketch:type="MSShapeGroup"></path>
                            <path d="M110.016,11.3464213 L92.3616671,11.3464213 C91.8744075,11.3464213 88.7760722,14.3712741 88.7760722,14.853497 L37.5785078,14.853497 C35.6294695,14.853497 34.0476413,16.4246669 34.0476413,18.3605727 L34.0476413,46.4171781 C34.0476413,48.3530839 35.6294695,49.9242538 37.5785078,49.9242538 L109.961271,49.9242538 C111.91031,49.9242538 113.492138,48.3530839 113.492138,46.4171781 L113.492138,14.7991373 C113.492138,12.9316195 111.74789,11.3464213 110.016,11.3464213 L110.016,11.3464213 Z" id="Shape" fill="#B09246" sketch:type="MSShapeGroup"></path>
                            <path d="M33.0285282,18.1542741 L112.241408,18.1542741 C114.184764,18.1542741 115.76198,19.6792331 115.76198,21.5582005 L115.76198,48.7896117 C115.76198,50.668579 114.184764,52.1935381 112.241408,52.1935381 L33.0285282,52.1935381 C31.0851723,52.1935381 29.5079558,50.668579 29.5079558,48.7896117 L29.5079558,21.5582005 C29.5079558,19.6792331 31.0851723,18.1542741 33.0285282,18.1542741 L33.0285282,18.1542741 Z" id="Shape" fill="#BF9F4B" sketch:type="MSShapeGroup"></path>
                            <path d="M26.2205973,27.2314112 L121.319182,27.2314112 C123.263419,27.2314112 124.841351,28.7563702 124.841351,30.6353376 L124.841351,57.8667487 C124.841351,59.7457161 123.263419,61.2706751 121.319182,61.2706751 L26.2205973,61.2706751 C24.2763596,61.2706751 22.6984275,59.7457161 22.6984275,57.8667487 L22.6984275,30.6353376 C22.6984275,28.7563702 24.2763596,27.2314112 26.2205973,27.2314112 L26.2205973,27.2314112 Z" id="Shape" fill="#DCB757" sketch:type="MSShapeGroup"></path>
                            <path d="M39.8124707,18.2743864 L110.892628,37.3932011 C112.762144,37.8944303 113.872991,39.8237229 113.371883,41.7002545 L105.208739,72.2787507 C104.709383,74.1552823 102.785551,75.2685387 100.917788,74.7655508 L29.835878,55.6484948 C27.968114,55.1455069 26.8572675,53.2162143 27.3583749,51.3396827 L35.5215196,20.7611865 C36.022627,18.8864135 37.9447068,17.7731572 39.8124707,18.2743864 L39.8124707,18.2743864 Z" id="Shape" fill="#E4E7E7" sketch:type="MSShapeGroup"></path>
                            <path d="M21.7053713,34.0392639 L128.10425,34.0392639 C130.06199,34.0392639 131.65088,35.564223 131.65088,37.4431903 L131.65088,64.6746015 C131.65088,66.5535689 130.06199,68.0785279 128.10425,68.0785279 L21.7053713,68.0785279 C19.747632,68.0785279 18.158742,66.5535689 18.158742,64.6746015 L18.158742,37.4431903 C18.158742,35.564223 19.747632,34.0392639 21.7053713,34.0392639 L21.7053713,34.0392639 Z" id="Shape" fill="#EFC75E" sketch:type="MSShapeGroup"></path>
                            <path d="M5.26927782,56.7321066 L142.270501,56.7321066 C145.180899,56.7321066 147.539779,59.1042651 147.539779,62.0271032 L147.539779,114.977069 C147.539779,117.901672 145.180899,120.272066 142.270501,120.272066 L5.26927782,120.272066 C2.35888004,120.272066 0,117.901672 0,114.977069 L0,62.0271032 C0,59.1042651 2.35888004,56.7321066 5.26927782,56.7321066 L5.26927782,56.7321066 Z" id="Shape" fill="#2EA9D3" sketch:type="MSShapeGroup"></path>
                            <path d="M41.153236,79.4249492 C37.2291713,79.4249492 34.0476413,82.4731653 34.0476413,86.232802 C34.0476413,89.9924387 37.2291713,93.0406548 41.153236,93.0406548 C45.0773007,93.0406548 48.2588307,89.9924387 48.2588307,86.232802 C48.2588307,82.4731653 45.0773007,79.4249492 41.153236,79.4249492 L41.153236,79.4249492 Z M108.656386,79.4249492 C104.732321,79.4249492 101.550791,82.4731653 101.550791,86.232802 C101.550791,89.9924387 104.732321,93.0406548 108.656386,93.0406548 C112.58045,93.0406548 115.76198,89.9924387 115.76198,86.232802 C115.76198,82.4731653 112.58045,79.4249492 108.656386,79.4249492 L108.656386,79.4249492 Z" id="Shape" fill="#4DC6EF" sketch:type="MSShapeGroup"></path>
                            <path d="M107.655399,86.232802 C105.686473,86.232802 104.088503,87.859425 104.088503,89.8636568 L104.088503,91.6790842 C104.088503,94.6872474 101.693333,97.1253665 98.7381598,97.1253665 L48.8016192,97.1253665 C45.8464461,97.1253665 43.4512756,94.6872474 43.4512756,91.6790842 L43.4512756,89.8636568 C43.4512756,87.859425 41.8533063,86.232802 39.8843798,86.232802 C37.9154534,86.232802 36.3174841,87.859425 36.3174841,89.8636568 L36.3174841,95.3099391 C36.3174841,100.32415 40.3088404,104.387076 45.2347235,104.387076 L102.305056,104.387076 C107.230939,104.387076 111.222295,100.32415 111.222295,95.3099391 L111.222295,89.8636568 C111.222295,87.859425 109.624326,86.232802 107.655399,86.232802 L107.655399,86.232802 Z" id="Shape" fill="#E4E7E7" sketch:type="MSShapeGroup"></path>
                            <path d="M77.1746536,73.7517386 C77.1746536,71.8727712 75.6493193,70.3478122 73.7698895,70.3478122 C71.8904597,70.3478122 70.3651254,71.8727712 70.3651254,73.7517386 C70.3651254,74.9618344 71.0018163,76.0170516 71.9534478,76.6229505 L70.3651254,83.9635177 L77.1746536,83.9635177 L75.5863312,76.6229505 C76.5379627,76.0170516 77.1746536,74.9618344 77.1746536,73.7517386 L77.1746536,73.7517386 Z" id="Shape" fill="#207693" sketch:type="MSShapeGroup"></path>
                            <path d="M31.7777986,36.3085482 L106.682609,36.3085482 L93.4702577,31.7699797 L32.7267227,31.7699797 L31.7777986,36.3085482 Z" id="Shape" fill="#D8DBDB" sketch:type="MSShapeGroup"></path>
                            <path d="M142.270501,56.7321066 L5.26927782,56.7321066 C2.35888004,56.7321066 0,59.172041 0,62.1783888 L0,65.8092436 C0,62.8028958 2.35888004,60.3629614 5.26927782,60.3629614 L142.270501,60.3629614 C145.180899,60.3629614 147.539779,62.8028958 147.539779,65.8092436 L147.539779,62.1783888 C147.539779,59.172041 145.180899,56.7321066 142.270501,56.7321066 L142.270501,56.7321066 Z" id="Shape" fill="#58BADC" sketch:type="MSShapeGroup"></path>
                            <path d="M102.305056,104.76529 L45.2347235,104.76529 C40.3088404,104.76529 36.3174841,100.533075 36.3174841,95.3099391 L36.3174841,97.2010093 C36.3174841,102.424145 40.3088404,106.65636 45.2347235,106.65636 L102.305056,106.65636 C107.230939,106.65636 111.222295,102.424145 111.222295,97.2010093 L111.222295,95.3099391 C111.222295,100.533075 107.230939,104.76529 102.305056,104.76529 L102.305056,104.76529 Z" id="Shape" fill="#2998BE" sketch:type="MSShapeGroup"></path>
                            <path d="M142.270501,118.910495 L5.26927782,118.910495 C2.35888004,118.910495 0,116.472376 0,113.464213 L0,117.095068 C0,120.103231 2.35888004,122.54135 5.26927782,122.54135 L142.270501,122.54135 C145.180899,122.54135 147.539779,120.103231 147.539779,117.095068 L147.539779,113.464213 C147.539779,116.472376 145.180899,118.910495 142.270501,118.910495 L142.270501,118.910495 Z" id="Shape" fill="#249CC5" sketch:type="MSShapeGroup"></path>
                        </g>
                    </g>
                </g>
                <g id="directdeposit" mask="url(#mask-2)">
                    <g transform="translate(1155.714469, 247.104136)">
                        <g id="android">
                            <path d="M215.05929,0.579223314 L28.9778414,0.579223314 C13.3429544,0.579223314 0.661099149,13.2161338 0.661099149,28.7956103 L0.661099149,266.623475 C34.4672441,291.925512 76.4852444,306.932599 122.018566,306.932599 C167.559978,306.932599 209.577978,291.925512 243.376033,266.623475 L243.376033,28.7956103 C243.376033,13.2161338 230.702268,0.579223314 215.05929,0.579223314 L215.05929,0.579223314 Z" id="Shape" fill="#E4E7E7" sketch:type="MSShapeGroup"></path>
                            <path d="M225.733203,48.2341928 L16.0355653,48.2341928 C13.8095443,48.2341928 12.0029185,50.0450534 12.0029185,52.2762923 L12.0029185,274.886835 C43.413205,295.137753 80.7676129,306.932599 120.884384,306.932599 C161.005188,306.932599 198.355563,295.137753 229.76585,274.886835 L229.76585,52.2762923 C229.76585,50.0450534 227.963256,48.2341928 225.733203,48.2341928 L225.733203,48.2341928 Z" id="Shape" fill="#344C59" sketch:type="MSShapeGroup"></path>
                            <path d="M222.960758,57.3113299 L21.0763739,57.3113299 L21.0763739,279.937266 C50.7776045,297.072559 85.2392689,306.932599 122.018566,306.932599 C158.805938,306.932599 193.263565,297.072559 222.960758,279.937266 L222.960758,57.3113299 L222.960758,57.3113299 Z" id="Shape" fill="#3F5E6D" sketch:type="MSShapeGroup"></path>
                            <path d="M140.845986,16.4642132 L100.015436,16.4642132 C97.7575071,16.4642132 95.9323815,18.501012 95.9323815,21.0005135 C95.9323815,23.5090876 97.7575071,25.5413502 100.015436,25.5413502 L140.845986,25.5413502 C143.103915,25.5413502 144.929041,23.5090876 144.929041,21.0005135 C144.929041,18.501012 143.103915,16.4642132 140.845986,16.4642132 L140.845986,16.4642132 Z M157.178206,16.4642132 C154.920276,16.4642132 153.095151,18.501012 153.095151,21.0005135 C153.095151,23.5090876 154.920276,25.5413502 157.178206,25.5413502 C159.436135,25.5413502 161.261261,23.5090876 161.261261,21.0005135 C161.261261,18.501012 159.436135,16.4642132 157.178206,16.4642132 L157.178206,16.4642132 Z M173.510426,16.4642132 C171.252496,16.4642132 169.427371,18.501012 169.427371,21.0005135 C169.427371,23.5090876 171.252496,25.5413502 173.510426,25.5413502 C175.768355,25.5413502 177.593481,23.5090876 177.593481,21.0005135 C177.593481,18.501012 175.768355,16.4642132 173.510426,16.4642132 L173.510426,16.4642132 Z" id="Shape" fill="#BFC3C5" sketch:type="MSShapeGroup"></path>
                        </g>
                        <g id="credit-card" transform="translate(2.929463, 61.849898)">
                            <g id="Clipped">
                                <mask id="mask-4" sketch:name="a" fill="white">
                                    <use xlink:href="#path-3"></use>
                                </mask>
                                <g id="a"></g>
                                <g id="Group" mask="url(#mask-4)" sketch:type="MSShapeGroup">
                                    <g transform="translate(16.878547, 51.924254)" id="Shape">
                                        <path d="M147.851601,0.267014979 C150.832622,0.267014979 153.248743,3.31693303 153.248743,7.07486777 L153.248743,116.000512 C153.248743,119.760716 150.832622,122.808365 147.851601,122.808365 L2.12877775,122.808365 L2.12877775,0.267014979 L147.851601,0.267014979 Z" fill="#EFEFEF"></path>
                                        <path d="M132.833468,28.6330683 L89.7345546,28.6330683 C87.2302809,28.6330683 85.1978269,30.666347 85.1978269,33.1716368 L85.1978269,42.2487738 C85.1978269,44.7540637 87.2302809,46.7873424 89.7345546,46.7873424 L132.833468,46.7873424 C135.337742,46.7873424 137.370196,44.7540637 137.370196,42.2487738 L137.370196,33.1716368 C137.370196,30.666347 135.337742,28.6330683 132.833468,28.6330683 L132.833468,28.6330683 Z M2.60611691,28.6330683 L2.60611691,46.7873424 L65.7131629,46.7873424 C67.7037394,46.7873424 69.3192798,44.7540637 69.3192798,42.2487738 L69.3192798,33.1716368 C69.3192798,30.666347 67.7037394,28.6330683 65.7131629,28.6330683 L2.60611691,28.6330683 Z M64.7825521,76.2880378 L48.904005,76.2880378 C46.3997313,76.2880378 44.3672773,78.3213165 44.3672773,80.8266063 L44.3672773,89.9037434 C44.3672773,92.4090332 46.3997313,94.4423119 48.904005,94.4423119 L64.7825521,94.4423119 C67.2868258,94.4423119 69.3192798,92.4090332 69.3192798,89.9037434 L69.3192798,80.8266063 C69.3192798,78.3213165 67.2868258,76.2880378 64.7825521,76.2880378 L64.7825521,76.2880378 Z M14.8785471,76.2880378 C12.3742733,76.2880378 10.3418193,78.3213165 10.3418193,80.8266063 L10.3418193,89.9037434 C10.3418193,92.4090332 12.3742733,94.4423119 14.8785471,94.4423119 L30.7570941,94.4423119 C33.2613678,94.4423119 35.2938218,92.4090332 35.2938218,89.9037434 L35.2938218,80.8266063 C35.2938218,78.3213165 33.2613678,76.2880378 30.7570941,76.2880378 L14.8785471,76.2880378 Z" fill="#CCD0D2"></path>
                                        <path d="M113.552375,83.0936213 C113.552375,89.9854376 107.965395,95.5746847 101.076374,95.5746847 C94.1873529,95.5746847 88.6003727,89.9854376 88.6003727,83.0936213 C88.6003727,76.201805 94.1873529,70.6125579 101.076374,70.6125579 C107.965395,70.6125579 113.552375,76.201805 113.552375,83.0936213 Z" fill="#FF6A6A"></path>
                                    </g>
                                </g>
                            </g>
                        </g>
                        <g id="money" transform="translate(93.664018, 166.236975)">
                            <g id="Group" sketch:type="MSShapeGroup">
                                <path d="M1.85758062,26.0633574 L44.9147562,17.4292619 C46.1665789,17.1778059 47.3850044,17.9912719 47.6349083,19.242758 L63.2936335,97.5174215 C63.544689,98.7700664 62.7339409,99.9902654 61.4821181,100.240563 L18.4249425,108.875817 C17.1731198,109.126114 15.9546943,108.313807 15.7047904,107.061162 L0.0460652354,28.7864986 C-0.204990298,27.5338536 0.605757846,26.3148134 1.85758062,26.0633574 L1.85758062,26.0633574 Z" id="Shape" fill="#2B8272"></path>
                                <path d="M43.3162925,22.9531826 C43.1907647,22.3239632 42.5780971,21.9160715 41.9504583,22.0423789 L5.53934456,29.3438734 C4.9105541,29.469022 4.50402839,30.0820185 4.62840453,30.7112379 L8.50249083,50.0756682 C8.62801859,50.7037288 9.24068622,51.1127794 9.86947669,50.9853132 C10.4982672,50.8601646 10.9047929,50.2471681 10.7792651,49.6179487 L7.1332017,31.3914438 L41.2686928,24.5476687 L44.9147562,42.7730148 C45.0402839,43.4022343 45.6529516,43.810126 46.281742,43.6838186 C46.9093809,43.55867 47.3170582,42.9445148 47.1915304,42.3164542 L43.3162925,22.9531826 L43.3162925,22.9531826 Z" id="Shape" fill="#4B9587"></path>
                                <path d="M13.7331983,12.8358443 L57.4283774,8.55182189 C58.6997779,8.42783206 59.8306794,9.35833517 59.9550555,10.6306794 L67.8011167,90.0838257 C67.9266445,91.3561699 66.9995817,92.4871426 65.7281812,92.6122912 L22.0330021,96.8963136 C20.7616016,97.0203034 19.6307001,96.0909591 19.5063239,94.8174561 L11.6602627,15.3643098 C11.5347349,14.0919656 12.4617978,12.9598341 13.7331983,12.8358443 L13.7331983,12.8358443 Z" id="Shape" fill="#359685"></path>
                                <path d="M55.2932537,13.8880197 C55.229914,13.24953 54.66216,12.7825403 54.0241565,12.8451146 L17.0717762,16.4663129 C16.4337727,16.5288872 15.9673622,17.0978499 16.0307019,17.7363395 L17.9735032,37.3916245 C18.0368429,38.0312729 18.604597,38.4971039 19.2426005,38.4345296 C19.880604,38.3719553 20.3458629,37.8041514 20.2825232,37.1645029 L18.4560366,18.6656839 L53.0993969,15.2704484 L54.9270351,33.7704262 C54.9903748,34.4089159 55.5581288,34.8770644 56.1961323,34.8133313 C56.8341358,34.7495982 57.2993947,34.1817943 57.236055,33.5433046 L55.2932537,13.8880197 L55.2932537,13.8880197 Z" id="Shape" fill="#52A597"></path>
                                <path d="M28.7907721,1.15762467 L72.5527458,1.15762467 C73.8241463,1.15762467 74.8560076,2.19589464 74.8560076,3.47519158 L74.8560076,85.7488168 C74.8560076,87.0281137 73.8241463,88.0663837 72.5527458,88.0663837 L28.7907721,88.0663837 C27.5193716,88.0663837 26.4875104,87.0281137 26.4875104,85.7488168 L26.4875104,3.47519158 C26.4875104,2.19589464 27.5193716,1.15762467 28.7907721,1.15762467 L28.7907721,1.15762467 Z" id="Shape" fill="#3DB39E"></path>
                                <path d="M50.671759,19.6981599 C51.9431595,19.6981599 52.9750207,18.65989 52.9750207,17.380593 C52.9750207,16.1012961 51.9431595,15.0630261 50.671759,15.0630261 C49.4003585,15.0630261 48.3684972,16.1012961 48.3684972,17.380593 C48.3684972,18.65989 49.4003585,19.6981599 50.671759,19.6981599 L50.671759,19.6981599 Z M50.671759,76.4785491 C51.9431595,76.4785491 52.9750207,75.4402792 52.9750207,74.1609822 C52.9750207,72.8816853 51.9431595,71.8434153 50.671759,71.8434153 C49.4003585,71.8434153 48.3684972,72.8816853 48.3684972,74.1609822 C48.3684972,75.4402792 49.4003585,76.4785491 50.671759,76.4785491 L50.671759,76.4785491 Z M69.0978531,5.79275848 L32.2456648,5.79275848 C31.6088129,5.79275848 31.0940339,6.31189347 31.0940339,6.95154194 L31.0940339,27.8096441 C31.0940339,28.4504514 31.6088129,28.9684276 32.2456648,28.9684276 C32.8825167,28.9684276 33.3972957,28.4504514 33.3972957,27.8096441 L33.3972957,8.11032539 L67.9462222,8.11032539 L67.9462222,27.8096441 C67.9462222,28.4504514 68.4610012,28.9684276 69.0978531,28.9684276 C69.734705,28.9684276 70.249484,28.4504514 70.249484,27.8096441 L70.249484,6.95154194 C70.249484,6.31189347 69.734705,5.79275848 69.0978531,5.79275848 L69.0978531,5.79275848 Z M69.0978531,63.7319312 C68.4610012,63.7319312 67.9462222,64.2510661 67.9462222,64.8907146 L67.9462222,85.7488168 L33.3972957,85.7488168 L33.3972957,64.8907146 C33.3972957,64.2510661 32.8825167,63.7319312 32.2456648,63.7319312 C31.6088129,63.7319312 31.0940339,64.2510661 31.0940339,64.8907146 L31.0940339,86.9076002 C31.0940339,87.5472487 31.6088129,88.0663837 32.2456648,88.0663837 L69.0978531,88.0663837 C69.734705,88.0663837 70.249484,87.5472487 70.249484,86.9076002 L70.249484,64.8907146 C70.249484,64.2510661 69.734705,63.7319312 69.0978531,63.7319312 L69.0978531,63.7319312 Z M50.671759,28.9684276 C41.1316487,28.9684276 33.3972957,36.7508172 33.3972957,46.3501794 C33.3972957,55.9495415 41.1316487,63.7319312 50.671759,63.7319312 C60.2118692,63.7319312 67.9462222,55.9495415 67.9462222,46.3501794 C67.9462222,36.7508172 60.2118692,28.9684276 50.671759,28.9684276 L50.671759,28.9684276 Z M59.9596621,47.5321385 L58.6260735,47.5321385 C58.3968989,49.3398407 57.6610068,50.831195 56.5565928,51.6006272 C56.3492992,51.7362048 56.0970921,51.8254312 55.8207006,51.8254312 C55.1539064,51.8254312 54.6022752,51.2831205 54.6022752,50.6052322 C54.6022752,50.2900431 54.7853845,49.9725364 55.1066895,49.6330129 C55.797668,48.9331077 56.3262666,47.7569425 56.3262666,46.4695341 C56.3262666,44.5934636 55.4302978,43.8912409 54.5101447,43.8912409 C51.4986299,43.8912409 52.9013164,52.1417791 47.152375,52.1417791 C44.6233935,52.1417791 42.9685,50.5600396 42.6690759,47.5309797 L41.3815526,47.5309797 C40.7838562,47.5309797 40.3013228,47.0558785 40.3013228,46.4683753 C40.3013228,45.9028889 40.7850078,45.4289465 41.3815526,45.4289465 L42.6690759,45.4289465 C42.9443157,43.2365282 44.1397086,41.5192111 45.4041993,40.7497789 C45.5884602,40.6362181 45.8176348,40.5690087 46.0491126,40.5690087 C46.7389395,40.5690087 47.2905707,41.1124781 47.2905707,41.7671908 C47.2905707,42.2643089 47.0153309,42.5354642 46.7850047,42.761427 C45.8187864,43.7104706 45.0379807,44.9098115 45.0379807,46.4683753 C45.0379807,48.5240571 45.7278076,49.5194521 47.152375,49.5194521 C50.509379,49.5194521 48.9684969,41.2700727 54.5101447,41.2700727 C56.5554412,41.2700727 58.3254978,42.5354642 58.6491061,45.4289465 L59.9596621,45.4289465 C60.5573585,45.4289465 61.0398918,45.9028889 61.0398918,46.4683753 C61.0410435,47.0558785 60.5573585,47.5321385 59.9596621,47.5321385 L59.9596621,47.5321385 Z" id="Shape" fill="#81CEC0"></path>
                            </g>
                        </g>
                    </g>
                </g>
                <path d="M322.872,82.5 L322.872,65.7 L319.536,65.7 L314.016,76.86 L308.472,65.7 L305.112,65.7 L305.112,82.5 L307.776,82.5 L307.776,69.948 L313.08,80.748 L314.928,80.748 L320.232,69.948 L320.256,82.5 L322.872,82.5 Z M332.616,69.636 C328.656,69.636 325.944,72.252 325.944,76.116 C325.944,79.956 328.656,82.596 332.616,82.596 C336.552,82.596 339.264,79.956 339.264,76.116 C339.264,72.252 336.552,69.636 332.616,69.636 L332.616,69.636 Z M332.616,72.012 C334.896,72.012 336.504,73.692 336.504,76.14 C336.504,78.612 334.896,80.292 332.616,80.292 C330.312,80.292 328.704,78.612 328.704,76.14 C328.704,73.692 330.312,72.012 332.616,72.012 L332.616,72.012 Z M354.312,64.692 L351.552,64.692 L351.552,71.94 C350.616,70.452 349.08,69.612 347.016,69.612 C343.416,69.612 340.944,72.228 340.944,76.068 C340.944,79.956 343.392,82.62 347.064,82.62 C349.104,82.62 350.64,81.804 351.552,80.316 L351.552,82.5 L354.312,82.5 L354.312,64.692 Z M347.64,80.316 C345.312,80.316 343.728,78.588 343.704,76.164 C343.728,73.716 345.336,71.964 347.64,71.964 C349.944,71.964 351.552,73.692 351.552,76.164 C351.552,78.588 349.944,80.316 347.64,80.316 L347.64,80.316 Z M363.768,69.636 C359.976,69.66 357.312,72.276 357.312,76.14 C357.312,79.98 359.904,82.596 363.84,82.596 C366.048,82.596 367.872,81.804 369.12,80.436 L367.656,78.876 C366.72,79.836 365.448,80.364 364.056,80.364 C362.04,80.364 360.528,79.14 360.096,77.172 L369.744,77.172 C370.08,72.564 368.256,69.636 363.768,69.636 L363.768,69.636 Z M360.048,75.156 C360.36,73.116 361.776,71.844 363.792,71.844 C365.88,71.844 367.248,73.092 367.344,75.156 L360.048,75.156 Z M375.384,69.732 L372.624,69.732 L372.624,82.5 L375.384,82.5 L375.384,75.828 C375.6,73.644 377.232,72.132 379.8,72.276 L379.8,69.636 C377.784,69.636 376.248,70.548 375.384,72.276 L375.384,69.732 Z M389.544,69.636 C387.384,69.636 385.752,70.404 384.84,72.18 L384.84,69.732 L382.08,69.732 L382.08,82.5 L384.84,82.5 L384.84,75.708 C385.032,73.716 386.352,72.252 388.464,72.228 C390.384,72.228 391.536,73.404 391.536,75.324 L391.536,82.5 L394.296,82.5 L394.296,74.556 C394.296,71.508 392.52,69.636 389.544,69.636 L389.544,69.636 Z M409.416,69.636 C405.624,69.636 402.984,72.276 402.984,76.14 C402.984,79.98 405.624,82.596 409.416,82.596 C411.84,82.596 413.688,81.732 414.84,80.22 L413.304,78.684 C412.44,79.692 411.144,80.22 409.536,80.22 C407.328,80.22 405.744,78.564 405.744,76.14 C405.744,73.716 407.328,72.06 409.536,72.06 C411.072,72.036 412.296,72.588 413.184,73.5 L414.696,71.724 C413.52,70.38 411.72,69.636 409.416,69.636 L409.416,69.636 Z M425.328,69.636 C423.144,69.636 421.512,70.428 420.6,72.228 L420.6,64.692 L417.84,64.692 L417.84,82.5 L420.6,82.5 L420.6,76.212 C420.6,73.956 421.968,72.252 424.248,72.228 C426.168,72.228 427.32,73.404 427.32,75.324 L427.32,82.5 L430.08,82.5 L430.08,74.556 C430.08,71.508 428.304,69.636 425.328,69.636 L425.328,69.636 Z M439.032,69.636 C435.24,69.66 432.576,72.276 432.576,76.14 C432.576,79.98 435.168,82.596 439.104,82.596 C441.312,82.596 443.136,81.804 444.384,80.436 L442.92,78.876 C441.984,79.836 440.712,80.364 439.32,80.364 C437.304,80.364 435.792,79.14 435.36,77.172 L445.008,77.172 C445.344,72.564 443.52,69.636 439.032,69.636 L439.032,69.636 Z M435.312,75.156 C435.624,73.116 437.04,71.844 439.056,71.844 C441.144,71.844 442.512,73.092 442.608,75.156 L435.312,75.156 Z M453.12,69.636 C449.328,69.636 446.688,72.276 446.688,76.14 C446.688,79.98 449.328,82.596 453.12,82.596 C455.544,82.596 457.392,81.732 458.544,80.22 L457.008,78.684 C456.144,79.692 454.848,80.22 453.24,80.22 C451.032,80.22 449.448,78.564 449.448,76.14 C449.448,73.716 451.032,72.06 453.24,72.06 C454.776,72.036 456,72.588 456.888,73.5 L458.4,71.724 C457.224,70.38 455.424,69.636 453.12,69.636 L453.12,69.636 Z M466.464,76.644 L470.208,82.5 L473.472,82.5 L468.384,74.676 L473.112,69.732 L469.944,69.732 L464.304,75.444 L464.304,64.692 L461.544,64.692 L461.544,82.5 L464.304,82.5 L464.304,78.924 L466.464,76.644 Z M483.264,64.404 C482.352,64.404 481.656,65.1 481.656,66.084 C481.656,67.044 482.352,67.74 483.264,67.74 C484.176,67.74 484.872,67.044 484.872,66.084 C484.872,65.1 484.176,64.404 483.264,64.404 L483.264,64.404 Z M484.632,82.5 L484.632,69.732 L481.896,69.732 L481.896,82.5 L484.632,82.5 Z M496.176,69.636 C494.016,69.636 492.384,70.404 491.472,72.18 L491.472,69.732 L488.712,69.732 L488.712,82.5 L491.472,82.5 L491.472,75.708 C491.664,73.716 492.984,72.252 495.096,72.228 C497.016,72.228 498.168,73.404 498.168,75.324 L498.168,82.5 L500.928,82.5 L500.928,74.556 C500.928,71.508 499.152,69.636 496.176,69.636 L496.176,69.636 Z M518.472,82.5 L521.184,82.5 L521.16,74.124 C521.136,71.316 519.288,69.636 516,69.636 C513.576,69.636 512.28,70.188 510.504,71.244 L511.632,73.164 C512.904,72.3 514.176,71.868 515.4,71.868 C517.416,71.868 518.448,72.828 518.448,74.436 L518.448,74.82 L514.584,74.82 C511.512,74.844 509.76,76.332 509.76,78.66 C509.76,80.916 511.488,82.62 514.248,82.62 C516.096,82.62 517.56,82.068 518.472,80.94 L518.472,82.5 Z M514.824,80.436 C513.288,80.436 512.352,79.692 512.352,78.54 C512.352,77.316 513.192,76.836 514.992,76.836 L518.448,76.836 L518.448,78.012 C518.304,79.404 516.792,80.436 514.824,80.436 L514.824,80.436 Z M532.344,69.636 C530.184,69.636 528.552,70.404 527.64,72.18 L527.64,69.732 L524.88,69.732 L524.88,82.5 L527.64,82.5 L527.64,75.708 C527.832,73.716 529.152,72.252 531.264,72.228 C533.184,72.228 534.336,73.404 534.336,75.324 L534.336,82.5 L537.096,82.5 L537.096,74.556 C537.096,71.508 535.32,69.636 532.344,69.636 L532.344,69.636 Z M552.96,64.692 L550.2,64.692 L550.2,71.94 C549.264,70.452 547.728,69.612 545.664,69.612 C542.064,69.612 539.592,72.228 539.592,76.068 C539.592,79.956 542.04,82.62 545.712,82.62 C547.752,82.62 549.288,81.804 550.2,80.316 L550.2,82.5 L552.96,82.5 L552.96,64.692 Z M546.288,80.316 C543.96,80.316 542.376,78.588 542.352,76.164 C542.376,73.716 543.984,71.964 546.288,71.964 C548.592,71.964 550.2,73.692 550.2,76.164 C550.2,78.588 548.592,80.316 546.288,80.316 L546.288,80.316 Z M575.52,64.692 L572.76,64.692 L572.76,71.94 C571.824,70.452 570.288,69.612 568.224,69.612 C564.624,69.612 562.152,72.228 562.152,76.068 C562.152,79.956 564.6,82.62 568.272,82.62 C570.312,82.62 571.848,81.804 572.76,80.316 L572.76,82.5 L575.52,82.5 L575.52,64.692 Z M568.848,80.316 C566.52,80.316 564.936,78.588 564.912,76.164 C564.936,73.716 566.544,71.964 568.848,71.964 C571.152,71.964 572.76,73.692 572.76,76.164 C572.76,78.588 571.152,80.316 568.848,80.316 L568.848,80.316 Z M581.088,64.404 C580.176,64.404 579.48,65.1 579.48,66.084 C579.48,67.044 580.176,67.74 581.088,67.74 C582,67.74 582.696,67.044 582.696,66.084 C582.696,65.1 582,64.404 581.088,64.404 L581.088,64.404 Z M582.456,82.5 L582.456,69.732 L579.72,69.732 L579.72,82.5 L582.456,82.5 Z M598.056,69.732 L595.32,69.732 L595.32,71.796 C594.432,70.404 592.968,69.612 591,69.636 C587.616,69.66 585.336,72.108 585.336,75.708 C585.336,79.38 587.64,81.876 591.096,81.876 C593.016,81.876 594.456,81.108 595.32,79.716 L595.32,81.324 C595.32,83.532 593.736,84.948 591.312,84.948 C589.752,84.948 588.504,84.444 587.304,83.556 L586.128,85.548 C587.688,86.604 589.44,87.228 591.432,87.228 C595.44,87.228 598.056,84.924 598.056,81.252 L598.056,69.732 Z M591.648,79.716 C589.44,79.716 587.952,78.084 587.928,75.78 C587.952,73.5 589.464,71.868 591.648,71.868 C593.808,71.868 595.32,73.476 595.32,75.78 C595.32,78.084 593.808,79.716 591.648,79.716 L591.648,79.716 Z M603.264,64.404 C602.352,64.404 601.656,65.1 601.656,66.084 C601.656,67.044 602.352,67.74 603.264,67.74 C604.176,67.74 604.872,67.044 604.872,66.084 C604.872,65.1 604.176,64.404 603.264,64.404 L603.264,64.404 Z M604.632,82.5 L604.632,69.732 L601.896,69.732 L601.896,82.5 L604.632,82.5 Z M615.24,79.572 C614.496,79.932 613.896,80.124 613.32,80.124 C612.456,80.124 611.952,79.716 611.952,78.396 L611.952,72.276 L615.72,72.276 L615.72,70.212 L611.952,70.212 L611.952,66.708 L609.216,66.708 L609.216,70.212 L607.416,70.212 L607.416,72.276 L609.216,72.276 L609.216,78.9 C609.216,81.516 610.872,82.62 612.792,82.62 C613.872,82.62 614.928,82.284 615.936,81.684 L615.24,79.572 Z M626.136,82.5 L628.848,82.5 L628.824,74.124 C628.8,71.316 626.952,69.636 623.664,69.636 C621.24,69.636 619.944,70.188 618.168,71.244 L619.296,73.164 C620.568,72.3 621.84,71.868 623.064,71.868 C625.08,71.868 626.112,72.828 626.112,74.436 L626.112,74.82 L622.248,74.82 C619.176,74.844 617.424,76.332 617.424,78.66 C617.424,80.916 619.152,82.62 621.912,82.62 C623.76,82.62 625.224,82.068 626.136,80.94 L626.136,82.5 Z M622.488,80.436 C620.952,80.436 620.016,79.692 620.016,78.54 C620.016,77.316 620.856,76.836 622.656,76.836 L626.112,76.836 L626.112,78.012 C625.968,79.404 624.456,80.436 622.488,80.436 L622.488,80.436 Z M635.424,82.5 L635.424,64.692 L632.664,64.692 L632.664,82.5 L635.424,82.5 Z M640.992,64.404 C640.08,64.404 639.384,65.1 639.384,66.084 C639.384,67.044 640.08,67.74 640.992,67.74 C641.904,67.74 642.6,67.044 642.6,66.084 C642.6,65.1 641.904,64.404 640.992,64.404 L640.992,64.404 Z M642.36,82.5 L642.36,69.732 L639.624,69.732 L639.624,82.5 L642.36,82.5 Z M656.184,71.604 L656.184,69.756 L645.696,69.732 L645.696,71.988 L652.776,71.988 L645.48,80.628 L645.48,82.5 L656.4,82.524 L656.4,80.268 L648.888,80.244 L656.184,71.604 Z M664.44,69.636 C660.648,69.66 657.984,72.276 657.984,76.14 C657.984,79.98 660.576,82.596 664.512,82.596 C666.72,82.596 668.544,81.804 669.792,80.436 L668.328,78.876 C667.392,79.836 666.12,80.364 664.728,80.364 C662.712,80.364 661.2,79.14 660.768,77.172 L670.416,77.172 C670.752,72.564 668.928,69.636 664.44,69.636 L664.44,69.636 Z M660.72,75.156 C661.032,73.116 662.448,71.844 664.464,71.844 C666.552,71.844 667.92,73.092 668.016,75.156 L660.72,75.156 Z M685.464,64.692 L682.704,64.692 L682.704,71.94 C681.768,70.452 680.232,69.612 678.168,69.612 C674.568,69.612 672.096,72.228 672.096,76.068 C672.096,79.956 674.544,82.62 678.216,82.62 C680.256,82.62 681.792,81.804 682.704,80.316 L682.704,82.5 L685.464,82.5 L685.464,64.692 Z M678.792,80.316 C676.464,80.316 674.88,78.588 674.856,76.164 C674.88,73.716 676.488,71.964 678.792,71.964 C681.096,71.964 682.704,73.692 682.704,76.164 C682.704,78.588 681.096,80.316 678.792,80.316 L678.792,80.316 Z M703.2,69.636 C701.208,69.636 699.672,70.452 698.736,71.94 L698.736,69.732 L695.976,69.732 L695.976,87.156 L698.736,87.156 L698.736,80.292 C699.672,81.78 701.208,82.596 703.248,82.596 C706.896,82.596 709.296,79.98 709.296,76.164 C709.296,72.276 706.824,69.636 703.2,69.636 L703.2,69.636 Z M702.624,80.244 C700.344,80.244 698.736,78.54 698.736,76.068 C698.736,73.668 700.344,71.94 702.624,71.94 C704.904,71.94 706.512,73.692 706.512,76.068 C706.512,78.516 704.904,80.244 702.624,80.244 L702.624,80.244 Z M719.832,82.5 L722.544,82.5 L722.52,74.124 C722.496,71.316 720.648,69.636 717.36,69.636 C714.936,69.636 713.64,70.188 711.864,71.244 L712.992,73.164 C714.264,72.3 715.536,71.868 716.76,71.868 C718.776,71.868 719.808,72.828 719.808,74.436 L719.808,74.82 L715.944,74.82 C712.872,74.844 711.12,76.332 711.12,78.66 C711.12,80.916 712.848,82.62 715.608,82.62 C717.456,82.62 718.92,82.068 719.832,80.94 L719.832,82.5 Z M716.184,80.436 C714.648,80.436 713.712,79.692 713.712,78.54 C713.712,77.316 714.552,76.836 716.352,76.836 L719.808,76.836 L719.808,78.012 C719.664,79.404 718.152,80.436 716.184,80.436 L716.184,80.436 Z M736.68,69.732 L733.92,69.732 L730.368,79.404 L726.552,69.732 L723.696,69.732 L728.976,82.308 L728.544,83.268 C728.112,84.228 727.44,84.684 726.6,84.684 C726.024,84.684 725.544,84.492 724.944,84.06 L723.768,86.196 C724.656,86.94 725.568,87.276 726.72,87.276 C728.64,87.276 730.08,86.268 730.872,84.252 L736.68,69.732 Z M755.4,69.636 C753.072,69.636 751.368,70.572 750.552,72.708 C749.952,70.764 748.392,69.636 746.112,69.636 C744,69.636 742.368,70.404 741.48,72.204 L741.48,69.732 L738.744,69.732 L738.744,82.5 L741.48,82.5 L741.48,76.188 C741.48,73.956 742.824,72.276 745.032,72.204 C746.904,72.204 748.032,73.38 748.032,75.324 L748.032,82.5 L750.792,82.5 L750.792,76.188 C750.792,73.956 752.112,72.276 754.296,72.204 C756.168,72.204 757.32,73.38 757.32,75.324 L757.32,82.5 L760.08,82.5 L760.08,74.556 C760.08,71.508 758.328,69.636 755.4,69.636 L755.4,69.636 Z M769.032,69.636 C765.24,69.66 762.576,72.276 762.576,76.14 C762.576,79.98 765.168,82.596 769.104,82.596 C771.312,82.596 773.136,81.804 774.384,80.436 L772.92,78.876 C771.984,79.836 770.712,80.364 769.32,80.364 C767.304,80.364 765.792,79.14 765.36,77.172 L775.008,77.172 C775.344,72.564 773.52,69.636 769.032,69.636 L769.032,69.636 Z M765.312,75.156 C765.624,73.116 767.04,71.844 769.056,71.844 C771.144,71.844 772.512,73.092 772.608,75.156 L765.312,75.156 Z M785.352,69.636 C783.192,69.636 781.56,70.404 780.648,72.18 L780.648,69.732 L777.888,69.732 L777.888,82.5 L780.648,82.5 L780.648,75.708 C780.84,73.716 782.16,72.252 784.272,72.228 C786.192,72.228 787.344,73.404 787.344,75.324 L787.344,82.5 L790.104,82.5 L790.104,74.556 C790.104,71.508 788.328,69.636 785.352,69.636 L785.352,69.636 Z M800.328,79.572 C799.584,79.932 798.984,80.124 798.408,80.124 C797.544,80.124 797.04,79.716 797.04,78.396 L797.04,72.276 L800.808,72.276 L800.808,70.212 L797.04,70.212 L797.04,66.708 L794.304,66.708 L794.304,70.212 L792.504,70.212 L792.504,72.276 L794.304,72.276 L794.304,78.9 C794.304,81.516 795.96,82.62 797.88,82.62 C798.96,82.62 800.016,82.284 801.024,81.684 L800.328,79.572 Z M826.416,69.636 C824.088,69.636 822.384,70.572 821.568,72.708 C820.968,70.764 819.408,69.636 817.128,69.636 C815.016,69.636 813.384,70.404 812.496,72.204 L812.496,69.732 L809.76,69.732 L809.76,82.5 L812.496,82.5 L812.496,76.188 C812.496,73.956 813.84,72.276 816.048,72.204 C817.92,72.204 819.048,73.38 819.048,75.324 L819.048,82.5 L821.808,82.5 L821.808,76.188 C821.808,73.956 823.128,72.276 825.312,72.204 C827.184,72.204 828.336,73.38 828.336,75.324 L828.336,82.5 L831.096,82.5 L831.096,74.556 C831.096,71.508 829.344,69.636 826.416,69.636 L826.416,69.636 Z M840.048,69.636 C836.256,69.66 833.592,72.276 833.592,76.14 C833.592,79.98 836.184,82.596 840.12,82.596 C842.328,82.596 844.152,81.804 845.4,80.436 L843.936,78.876 C843,79.836 841.728,80.364 840.336,80.364 C838.32,80.364 836.808,79.14 836.376,77.172 L846.024,77.172 C846.36,72.564 844.536,69.636 840.048,69.636 L840.048,69.636 Z M836.328,75.156 C836.64,73.116 838.056,71.844 840.072,71.844 C842.16,71.844 843.528,73.092 843.624,75.156 L836.328,75.156 Z M856.56,82.5 L859.272,82.5 L859.248,74.124 C859.224,71.316 857.376,69.636 854.088,69.636 C851.664,69.636 850.368,70.188 848.592,71.244 L849.72,73.164 C850.992,72.3 852.264,71.868 853.488,71.868 C855.504,71.868 856.536,72.828 856.536,74.436 L856.536,74.82 L852.672,74.82 C849.6,74.844 847.848,76.332 847.848,78.66 C847.848,80.916 849.576,82.62 852.336,82.62 C854.184,82.62 855.648,82.068 856.56,80.94 L856.56,82.5 Z M852.912,80.436 C851.376,80.436 850.44,79.692 850.44,78.54 C850.44,77.316 851.28,76.836 853.08,76.836 L856.536,76.836 L856.536,78.012 C856.392,79.404 854.88,80.436 852.912,80.436 L852.912,80.436 Z M870.432,69.636 C868.272,69.636 866.64,70.404 865.728,72.18 L865.728,69.732 L862.968,69.732 L862.968,82.5 L865.728,82.5 L865.728,75.708 C865.92,73.716 867.24,72.252 869.352,72.228 C871.272,72.228 872.424,73.404 872.424,75.324 L872.424,82.5 L875.184,82.5 L875.184,74.556 C875.184,71.508 873.408,69.636 870.432,69.636 L870.432,69.636 Z M882.696,69.612 C880.248,69.612 877.992,70.716 877.992,73.308 C877.968,77.916 884.688,76.452 884.688,79.068 C884.688,80.028 883.776,80.436 882.6,80.436 C881.208,80.436 879.432,79.836 878.328,78.852 L877.344,80.82 C878.616,81.972 880.608,82.596 882.48,82.596 C885.048,82.596 887.376,81.42 887.376,78.804 C887.4,74.172 880.608,75.444 880.608,73.092 C880.608,72.18 881.4,71.82 882.48,71.82 C883.608,71.82 885.024,72.252 886.152,72.948 L887.16,70.908 C886.008,70.092 884.304,69.612 882.696,69.612 L882.696,69.612 Z M903.816,69.636 C901.656,69.636 900.024,70.404 899.112,72.18 L899.112,69.732 L896.352,69.732 L896.352,82.5 L899.112,82.5 L899.112,75.708 C899.304,73.716 900.624,72.252 902.736,72.228 C904.656,72.228 905.808,73.404 905.808,75.324 L905.808,82.5 L908.568,82.5 L908.568,74.556 C908.568,71.508 906.792,69.636 903.816,69.636 L903.816,69.636 Z M917.736,69.636 C913.776,69.636 911.064,72.252 911.064,76.116 C911.064,79.956 913.776,82.596 917.736,82.596 C921.672,82.596 924.384,79.956 924.384,76.116 C924.384,72.252 921.672,69.636 917.736,69.636 L917.736,69.636 Z M917.736,72.012 C920.016,72.012 921.624,73.692 921.624,76.14 C921.624,78.612 920.016,80.292 917.736,80.292 C915.432,80.292 913.824,78.612 913.824,76.14 C913.824,73.692 915.432,72.012 917.736,72.012 L917.736,72.012 Z M950.112,69.636 C947.784,69.636 946.08,70.572 945.264,72.708 C944.664,70.764 943.104,69.636 940.824,69.636 C938.712,69.636 937.08,70.404 936.192,72.204 L936.192,69.732 L933.456,69.732 L933.456,82.5 L936.192,82.5 L936.192,76.188 C936.192,73.956 937.536,72.276 939.744,72.204 C941.616,72.204 942.744,73.38 942.744,75.324 L942.744,82.5 L945.504,82.5 L945.504,76.188 C945.504,73.956 946.824,72.276 949.008,72.204 C950.88,72.204 952.032,73.38 952.032,75.324 L952.032,82.5 L954.792,82.5 L954.792,74.556 C954.792,71.508 953.04,69.636 950.112,69.636 L950.112,69.636 Z M963.96,69.636 C960,69.636 957.288,72.252 957.288,76.116 C957.288,79.956 960,82.596 963.96,82.596 C967.896,82.596 970.608,79.956 970.608,76.116 C970.608,72.252 967.896,69.636 963.96,69.636 L963.96,69.636 Z M963.96,72.012 C966.24,72.012 967.848,73.692 967.848,76.14 C967.848,78.612 966.24,80.292 963.96,80.292 C961.656,80.292 960.048,78.612 960.048,76.14 C960.048,73.692 961.656,72.012 963.96,72.012 L963.96,72.012 Z M976.248,69.732 L973.488,69.732 L973.488,82.5 L976.248,82.5 L976.248,75.828 C976.464,73.644 978.096,72.132 980.664,72.276 L980.664,69.636 C978.648,69.636 977.112,70.548 976.248,72.276 L976.248,69.732 Z M988.2,69.636 C984.408,69.66 981.744,72.276 981.744,76.14 C981.744,79.98 984.336,82.596 988.272,82.596 C990.48,82.596 992.304,81.804 993.552,80.436 L992.088,78.876 C991.152,79.836 989.88,80.364 988.488,80.364 C986.472,80.364 984.96,79.14 984.528,77.172 L994.176,77.172 C994.512,72.564 992.688,69.636 988.2,69.636 L988.2,69.636 Z M984.48,75.156 C984.792,73.116 986.208,71.844 988.224,71.844 C990.312,71.844 991.68,73.092 991.776,75.156 L984.48,75.156 Z M1010.592,69.636 C1008.6,69.636 1007.064,70.452 1006.128,71.94 L1006.128,69.732 L1003.368,69.732 L1003.368,87.156 L1006.128,87.156 L1006.128,80.292 C1007.064,81.78 1008.6,82.596 1010.64,82.596 C1014.288,82.596 1016.688,79.98 1016.688,76.164 C1016.688,72.276 1014.216,69.636 1010.592,69.636 L1010.592,69.636 Z M1010.016,80.244 C1007.736,80.244 1006.128,78.54 1006.128,76.068 C1006.128,73.668 1007.736,71.94 1010.016,71.94 C1012.296,71.94 1013.904,73.692 1013.904,76.068 C1013.904,78.516 1012.296,80.244 1010.016,80.244 L1010.016,80.244 Z M1027.224,82.5 L1029.936,82.5 L1029.912,74.124 C1029.888,71.316 1028.04,69.636 1024.752,69.636 C1022.328,69.636 1021.032,70.188 1019.256,71.244 L1020.384,73.164 C1021.656,72.3 1022.928,71.868 1024.152,71.868 C1026.168,71.868 1027.2,72.828 1027.2,74.436 L1027.2,74.82 L1023.336,74.82 C1020.264,74.844 1018.512,76.332 1018.512,78.66 C1018.512,80.916 1020.24,82.62 1023,82.62 C1024.848,82.62 1026.312,82.068 1027.224,80.94 L1027.224,82.5 Z M1023.576,80.436 C1022.04,80.436 1021.104,79.692 1021.104,78.54 C1021.104,77.316 1021.944,76.836 1023.744,76.836 L1027.2,76.836 L1027.2,78.012 C1027.056,79.404 1025.544,80.436 1023.576,80.436 L1023.576,80.436 Z M1040.976,69.636 C1038.984,69.636 1037.448,70.452 1036.512,71.94 L1036.512,69.732 L1033.752,69.732 L1033.752,87.156 L1036.512,87.156 L1036.512,80.292 C1037.448,81.78 1038.984,82.596 1041.024,82.596 C1044.672,82.596 1047.072,79.98 1047.072,76.164 C1047.072,72.276 1044.6,69.636 1040.976,69.636 L1040.976,69.636 Z M1040.4,80.244 C1038.12,80.244 1036.512,78.54 1036.512,76.068 C1036.512,73.668 1038.12,71.94 1040.4,71.94 C1042.68,71.94 1044.288,73.692 1044.288,76.068 C1044.288,78.516 1042.68,80.244 1040.4,80.244 L1040.4,80.244 Z M1055.208,69.636 C1051.416,69.66 1048.752,72.276 1048.752,76.14 C1048.752,79.98 1051.344,82.596 1055.28,82.596 C1057.488,82.596 1059.312,81.804 1060.56,80.436 L1059.096,78.876 C1058.16,79.836 1056.888,80.364 1055.496,80.364 C1053.48,80.364 1051.968,79.14 1051.536,77.172 L1061.184,77.172 C1061.52,72.564 1059.696,69.636 1055.208,69.636 L1055.208,69.636 Z M1051.488,75.156 C1051.8,73.116 1053.216,71.844 1055.232,71.844 C1057.32,71.844 1058.688,73.092 1058.784,75.156 L1051.488,75.156 Z M1066.824,69.732 L1064.064,69.732 L1064.064,82.5 L1066.824,82.5 L1066.824,75.828 C1067.04,73.644 1068.672,72.132 1071.24,72.276 L1071.24,69.636 C1069.224,69.636 1067.688,70.548 1066.824,72.276 L1066.824,69.732 Z M1089,82.5 L1093.656,69.732 L1090.848,69.732 L1087.584,79.764 L1084.344,69.732 L1081.488,69.732 L1078.272,79.764 L1074.96,69.732 L1072.128,69.732 L1076.832,82.5 L1079.664,82.5 L1082.904,73.044 L1086.144,82.5 L1089,82.5 Z M1100.568,69.636 C1096.608,69.636 1093.896,72.252 1093.896,76.116 C1093.896,79.956 1096.608,82.596 1100.568,82.596 C1104.504,82.596 1107.216,79.956 1107.216,76.116 C1107.216,72.252 1104.504,69.636 1100.568,69.636 L1100.568,69.636 Z M1100.568,72.012 C1102.848,72.012 1104.456,73.692 1104.456,76.14 C1104.456,78.612 1102.848,80.292 1100.568,80.292 C1098.264,80.292 1096.656,78.612 1096.656,76.14 C1096.656,73.692 1098.264,72.012 1100.568,72.012 L1100.568,72.012 Z M1112.856,69.732 L1110.096,69.732 L1110.096,82.5 L1112.856,82.5 L1112.856,75.828 C1113.072,73.644 1114.704,72.132 1117.272,72.276 L1117.272,69.636 C1115.256,69.636 1113.72,70.548 1112.856,72.276 L1112.856,69.732 Z M1124.592,76.644 L1128.336,82.5 L1131.6,82.5 L1126.512,74.676 L1131.24,69.732 L1128.072,69.732 L1122.432,75.444 L1122.432,64.692 L1119.672,64.692 L1119.672,82.5 L1122.432,82.5 L1122.432,78.924 L1124.592,76.644 Z M1145.496,69.636 C1141.536,69.636 1138.824,72.252 1138.824,76.116 C1138.824,79.956 1141.536,82.596 1145.496,82.596 C1149.432,82.596 1152.144,79.956 1152.144,76.116 C1152.144,72.252 1149.432,69.636 1145.496,69.636 L1145.496,69.636 Z M1145.496,72.012 C1147.776,72.012 1149.384,73.692 1149.384,76.14 C1149.384,78.612 1147.776,80.292 1145.496,80.292 C1143.192,80.292 1141.584,78.612 1141.584,76.14 C1141.584,73.692 1143.192,72.012 1145.496,72.012 L1145.496,72.012 Z M1157.784,69.732 L1155.024,69.732 L1155.024,82.5 L1157.784,82.5 L1157.784,75.828 C1158,73.644 1159.632,72.132 1162.2,72.276 L1162.2,69.636 C1160.184,69.636 1158.648,70.548 1157.784,72.276 L1157.784,69.732 Z M1176.456,82.5 L1181.352,69.732 L1178.592,69.732 L1175.088,79.788 L1171.536,69.732 L1168.656,69.732 L1173.6,82.5 L1176.456,82.5 Z M1188.264,69.636 C1184.304,69.636 1181.592,72.252 1181.592,76.116 C1181.592,79.956 1184.304,82.596 1188.264,82.596 C1192.2,82.596 1194.912,79.956 1194.912,76.116 C1194.912,72.252 1192.2,69.636 1188.264,69.636 L1188.264,69.636 Z M1188.264,72.012 C1190.544,72.012 1192.152,73.692 1192.152,76.14 C1192.152,78.612 1190.544,80.292 1188.264,80.292 C1185.96,80.292 1184.352,78.612 1184.352,76.14 C1184.352,73.692 1185.96,72.012 1188.264,72.012 L1188.264,72.012 Z M1209.384,69.732 L1206.624,69.732 L1206.624,76.02 C1206.624,78.252 1205.328,79.956 1203.12,80.004 C1201.272,80.004 1200.144,78.828 1200.144,76.908 L1200.144,69.732 L1197.384,69.732 L1197.384,77.676 C1197.384,80.724 1199.136,82.596 1202.064,82.596 C1204.152,82.572 1205.76,81.78 1206.624,80.004 L1206.624,82.5 L1209.384,82.5 L1209.384,69.732 Z M1218.696,69.636 C1214.904,69.636 1212.264,72.276 1212.264,76.14 C1212.264,79.98 1214.904,82.596 1218.696,82.596 C1221.12,82.596 1222.968,81.732 1224.12,80.22 L1222.584,78.684 C1221.72,79.692 1220.424,80.22 1218.816,80.22 C1216.608,80.22 1215.024,78.564 1215.024,76.14 C1215.024,73.716 1216.608,72.06 1218.816,72.06 C1220.352,72.036 1221.576,72.588 1222.464,73.5 L1223.976,71.724 C1222.8,70.38 1221,69.636 1218.696,69.636 L1218.696,69.636 Z M1234.608,69.636 C1232.424,69.636 1230.792,70.428 1229.88,72.228 L1229.88,64.692 L1227.12,64.692 L1227.12,82.5 L1229.88,82.5 L1229.88,76.212 C1229.88,73.956 1231.248,72.252 1233.528,72.228 C1235.448,72.228 1236.6,73.404 1236.6,75.324 L1236.6,82.5 L1239.36,82.5 L1239.36,74.556 C1239.36,71.508 1237.584,69.636 1234.608,69.636 L1234.608,69.636 Z M1248.312,69.636 C1244.52,69.66 1241.856,72.276 1241.856,76.14 C1241.856,79.98 1244.448,82.596 1248.384,82.596 C1250.592,82.596 1252.416,81.804 1253.664,80.436 L1252.2,78.876 C1251.264,79.836 1249.992,80.364 1248.6,80.364 C1246.584,80.364 1245.072,79.14 1244.64,77.172 L1254.288,77.172 C1254.624,72.564 1252.8,69.636 1248.312,69.636 L1248.312,69.636 Z M1244.592,75.156 C1244.904,73.116 1246.32,71.844 1248.336,71.844 C1250.424,71.844 1251.792,73.092 1251.888,75.156 L1244.592,75.156 Z M1259.928,69.732 L1257.168,69.732 L1257.168,82.5 L1259.928,82.5 L1259.928,75.828 C1260.144,73.644 1261.776,72.132 1264.344,72.276 L1264.344,69.636 C1262.328,69.636 1260.792,70.548 1259.928,72.276 L1259.928,69.732 Z M1270.44,69.612 C1267.992,69.612 1265.736,70.716 1265.736,73.308 C1265.712,77.916 1272.432,76.452 1272.432,79.068 C1272.432,80.028 1271.52,80.436 1270.344,80.436 C1268.952,80.436 1267.176,79.836 1266.072,78.852 L1265.088,80.82 C1266.36,81.972 1268.352,82.596 1270.224,82.596 C1272.792,82.596 1275.12,81.42 1275.12,78.804 C1275.144,74.172 1268.352,75.444 1268.352,73.092 C1268.352,72.18 1269.144,71.82 1270.224,71.82 C1271.352,71.82 1272.768,72.252 1273.896,72.948 L1274.904,70.908 C1273.752,70.092 1272.048,69.612 1270.44,69.612 L1270.44,69.612 Z M1278.48,79.548 C1277.616,79.548 1276.968,80.196 1276.968,81.108 C1276.968,82.044 1277.616,82.716 1278.48,82.716 C1279.344,82.716 1279.992,82.044 1279.992,81.108 C1279.992,80.196 1279.344,79.548 1278.48,79.548 L1278.48,79.548 Z M720.66,122.5 L720.66,105.7 L714.54,105.7 L714.54,108.22 L717.828,108.22 L717.828,122.5 L720.66,122.5 Z M731.82,105.628 C727.212,105.628 724.668,108.652 724.668,114.1 C724.668,119.548 727.212,122.572 731.82,122.572 C736.404,122.572 738.948,119.548 738.948,114.1 C738.948,108.652 736.404,105.628 731.82,105.628 L731.82,105.628 Z M731.82,107.86 C734.628,107.86 736.044,109.828 736.044,114.1 C736.044,118.348 734.628,120.34 731.82,120.34 C728.988,120.34 727.572,118.348 727.572,114.1 C727.572,109.828 728.988,107.86 731.82,107.86 L731.82,107.86 Z M748.404,105.628 C743.796,105.628 741.252,108.652 741.252,114.1 C741.252,119.548 743.796,122.572 748.404,122.572 C752.988,122.572 755.532,119.548 755.532,114.1 C755.532,108.652 752.988,105.628 748.404,105.628 L748.404,105.628 Z M748.404,107.86 C751.212,107.86 752.628,109.828 752.628,114.1 C752.628,118.348 751.212,120.34 748.404,120.34 C745.572,120.34 744.156,118.348 744.156,114.1 C744.156,109.828 745.572,107.86 748.404,107.86 L748.404,107.86 Z M762.036,105.652 C759.276,105.652 757.596,107.524 757.596,110.644 C757.596,113.788 759.276,115.684 762.036,115.684 C764.796,115.684 766.476,113.788 766.476,110.644 C766.476,107.524 764.796,105.652 762.036,105.652 L762.036,105.652 Z M760.764,122.5 L763.428,122.5 L775.764,105.7 L773.124,105.7 L760.764,122.5 Z M762.036,107.284 C763.692,107.284 764.652,108.508 764.652,110.644 C764.652,112.804 763.692,114.052 762.036,114.052 C760.38,114.052 759.444,112.804 759.444,110.644 C759.444,108.508 760.38,107.284 762.036,107.284 L762.036,107.284 Z M774.684,112.54 C771.924,112.54 770.244,114.412 770.244,117.532 C770.244,120.676 771.924,122.548 774.684,122.548 C777.444,122.548 779.124,120.676 779.124,117.532 C779.124,114.412 777.444,112.54 774.684,112.54 L774.684,112.54 Z M774.684,114.148 C776.34,114.148 777.3,115.396 777.3,117.532 C777.3,119.692 776.34,120.916 774.684,120.916 C773.028,120.916 772.092,119.692 772.092,117.532 C772.092,115.396 773.028,114.148 774.684,114.148 L774.684,114.148 Z M788.436,105.7 L788.436,122.5 L795.252,122.5 C800.34,122.5 804.012,118.948 804.012,114.1 C804.012,109.228 800.364,105.7 795.324,105.7 L788.436,105.7 Z M791.268,108.244 L795.276,108.244 C798.588,108.244 801.156,110.692 801.156,114.124 C801.156,117.532 798.66,119.956 795.396,119.956 L791.268,119.956 L791.268,108.244 Z M808.236,104.404 C807.324,104.404 806.628,105.1 806.628,106.084 C806.628,107.044 807.324,107.74 808.236,107.74 C809.148,107.74 809.844,107.044 809.844,106.084 C809.844,105.1 809.148,104.404 808.236,104.404 L808.236,104.404 Z M809.604,122.5 L809.604,109.732 L806.868,109.732 L806.868,122.5 L809.604,122.5 Z M825.204,109.732 L822.468,109.732 L822.468,111.796 C821.58,110.404 820.116,109.612 818.148,109.636 C814.764,109.66 812.484,112.108 812.484,115.708 C812.484,119.38 814.788,121.876 818.244,121.876 C820.164,121.876 821.604,121.108 822.468,119.716 L822.468,121.324 C822.468,123.532 820.884,124.948 818.46,124.948 C816.9,124.948 815.652,124.444 814.452,123.556 L813.276,125.548 C814.836,126.604 816.588,127.228 818.58,127.228 C822.588,127.228 825.204,124.924 825.204,121.252 L825.204,109.732 Z M818.796,119.716 C816.588,119.716 815.1,118.084 815.076,115.78 C815.1,113.5 816.612,111.868 818.796,111.868 C820.956,111.868 822.468,113.476 822.468,115.78 C822.468,118.084 820.956,119.716 818.796,119.716 L818.796,119.716 Z M830.412,104.404 C829.5,104.404 828.804,105.1 828.804,106.084 C828.804,107.044 829.5,107.74 830.412,107.74 C831.324,107.74 832.02,107.044 832.02,106.084 C832.02,105.1 831.324,104.404 830.412,104.404 L830.412,104.404 Z M831.78,122.5 L831.78,109.732 L829.044,109.732 L829.044,122.5 L831.78,122.5 Z M842.388,119.572 C841.644,119.932 841.044,120.124 840.468,120.124 C839.604,120.124 839.1,119.716 839.1,118.396 L839.1,112.276 L842.868,112.276 L842.868,110.212 L839.1,110.212 L839.1,106.708 L836.364,106.708 L836.364,110.212 L834.564,110.212 L834.564,112.276 L836.364,112.276 L836.364,118.9 C836.364,121.516 838.02,122.62 839.94,122.62 C841.02,122.62 842.076,122.284 843.084,121.684 L842.388,119.572 Z M853.284,122.5 L855.996,122.5 L855.972,114.124 C855.948,111.316 854.1,109.636 850.812,109.636 C848.388,109.636 847.092,110.188 845.316,111.244 L846.444,113.164 C847.716,112.3 848.988,111.868 850.212,111.868 C852.228,111.868 853.26,112.828 853.26,114.436 L853.26,114.82 L849.396,114.82 C846.324,114.844 844.572,116.332 844.572,118.66 C844.572,120.916 846.3,122.62 849.06,122.62 C850.908,122.62 852.372,122.068 853.284,120.94 L853.284,122.5 Z M849.636,120.436 C848.1,120.436 847.164,119.692 847.164,118.54 C847.164,117.316 848.004,116.836 849.804,116.836 L853.26,116.836 L853.26,118.012 C853.116,119.404 851.604,120.436 849.636,120.436 L849.636,120.436 Z M862.572,122.5 L862.572,104.692 L859.812,104.692 L859.812,122.5 L862.572,122.5 Z M868.908,110.044 L868.908,105.916 L866.292,105.916 L866.292,110.044 L866.724,117.148 L868.476,117.148 L868.908,110.044 Z M867.612,119.548 C866.748,119.548 866.1,120.196 866.1,121.108 C866.1,122.044 866.748,122.716 867.612,122.716 C868.476,122.716 869.124,122.044 869.124,121.108 C869.124,120.196 868.476,119.548 867.612,119.548 L867.612,119.548 Z" id="Modern-check-in-and-" fill="#FFFFFF" sketch:type="MSShapeGroup" mask="url(#mask-2)"></path>
            </g>
        </g>
    </g>
</svg>