<?xml version="1.0" encoding="UTF-8" standalone="no"?>
<svg width="375px" height="137px" viewBox="0 0 375 137" version="1.1" xmlns="http://www.w3.org/2000/svg" xmlns:xlink="http://www.w3.org/1999/xlink" xmlns:sketch="http://www.bohemiancoding.com/sketch/ns">
    <!-- Generator: Sketch 3.4 (15588) - http://www.bohemiancoding.com/sketch -->
    <title>LaLaLand</title>
    <desc>Created with Sketch.</desc>
    <defs>
        <rect id="path-1" x="0" y="0" width="375" height="170"></rect>
    </defs>
    <g id="Home-Page" stroke="none" stroke-width="1" fill="none" fill-rule="evenodd" sketch:type="MSPage">
        <g id="Landing-Page-1.0-Mobile" sketch:type="MSArtboardGroup" transform="translate(0.000000, -457.000000)">
            <g id="LaLaLand" sketch:type="MSLayerGroup" transform="translate(0.000000, 424.000000)">
                <mask id="mask-2" sketch:name="Mask" fill="white">
                    <use xlink:href="#path-1"></use>
                </mask>
                <use id="Mask" sketch:type="MSShapeGroup" xlink:href="#path-1"></use>
                <g id="Footer" mask="url(#mask-2)">
                    <g transform="translate(-116.000000, 33.000000)" id="Group">
                        <g>
                            <path d="M426.483271,117.5 C426.483271,52.6065419 369.183209,0 298.5,0 C227.816791,0 170.516729,52.6065419 170.516729,117.5 L426.483271,117.5 Z" id="Sun" fill="#F2C400" sketch:type="MSShapeGroup"></path>
                            <g id="tree-palm" transform="translate(401.456512, 73.000000)" sketch:type="MSShapeGroup">
                                <path d="M21.0091005,0.473920986 C18.117901,-0.657857459 14.6264172,0.261712527 12.4626808,2.97297751 C11.7174127,3.90807494 11.2256544,4.95790296 10.9484045,6.03792325 L15.343706,6.03792325 L15.343706,7.57427798 L16.3340054,6.3338074 L15.7472869,5.01569958 L17.1352323,5.32883645 L19.0056094,2.98505441 L18.418891,1.66694659 L19.8068363,1.98008346 L21.0091005,0.473920986" id="Fill-744" fill="#46A046"></path>
                                <path d="M8.6244227,7.57427798 L8.6244227,6.03792325 L13.0197242,6.03792325 C12.7424743,4.95790296 12.250716,3.90807494 11.5054479,2.97297751 C9.34171149,0.261712527 5.84937989,-0.657857459 2.95902824,0.473920986 L4.16129243,1.98008346 L5.54923777,1.66694659 L4.96251928,2.98505441 L6.83289644,5.32883645 L8.22084177,5.01569958 L7.63412328,6.3338074 L8.6244227,7.57427798" id="Fill-745" fill="#46A046"></path>
                                <path d="M11.913469,7.8772491 L8.67088227,7.8772491 C8.31012548,9.48395278 6.98115493,15.7704441 9.44731198,24.5406607 L16.2746553,24.5406607 C11.0838129,19.0320876 11.5949554,10.7915921 11.913469,7.8772491" id="Fill-746" fill="#BE9664"></path>
                                <path d="M19.3762668,4.76725111 C16.978637,3.42634474 14.2668586,3.31700795 11.9839315,4.22843942 C9.7010044,3.31700795 6.98922599,3.42634474 4.59159616,4.76725111 C1.19844918,6.66533774 -0.510964165,10.4326461 0.134452792,13.9366715 L2.02020022,12.8826649 L1.96028087,11.2469865 L3.2767945,12.1794106 L6.2094185,10.5393588 L6.15035515,8.90368047 L7.46686878,9.83610459 L11.9839315,7.30998745 L16.5009942,9.83610459 L17.8175078,8.90368047 L17.7584445,10.5393588 L20.6910685,12.1794106 L22.0075821,11.2469865 L21.9476628,12.8826649 L23.8334102,13.9366715 C24.4796831,10.4326461 22.7694138,6.66533774 19.3762668,4.76725111" id="Fill-747" fill="#8CBE3C"></path>
                            </g>
                            <path d="M0,87.929368 C0,87.929368 35.6072171,109.478565 51.2806247,109.478565 C80.3939188,109.478565 104.95754,118.24434 143.298194,109.478565 C181.638848,100.71279 183.83949,87.929368 208.477306,87.929368 C209.495408,87.929368 244.301212,106.1914 245.380185,106.1914 C276.731015,106.1914 274.355014,87.929368 305.766715,87.929368 C306.648292,87.929368 373.188239,97.4256244 374.061005,97.4256244 C410.570377,97.4256244 381.412567,87.929368 417.913128,87.929368 C431.704215,87.929368 438.546058,109.478565 452.419717,109.478565 C462.828473,109.478565 490.760371,87.929368 490.760371,87.929368 L490.760371,137 L0,137 L0,87.929368 Z" id="Rectangle-318" fill="#38B69F" sketch:type="MSShapeGroup" transform="translate(245.380185, 112.464684) scale(-1, 1) translate(-245.380185, -112.464684) "></path>
                            <g id="Buldings" transform="translate(223.693753, 71.122677)" fill="#7EA29C" sketch:type="MSShapeGroup">
                                <rect id="Rectangle-153" x="0" y="14.2304833" width="6.70961445" height="33.1226766"></rect>
                                <rect id="Rectangle-153" x="7.6681308" y="3.43494424" width="3.35480722" height="44.4089219"></rect>
                                <rect id="Rectangle-153" x="11.9814544" y="0" width="7.6681308" height="42.936803"></rect>
                            </g>
                            <path d="M0,96.5167286 C0,96.5167286 35.6072171,111.170183 51.2806247,111.170183 C80.3939188,111.170183 104.95754,117.13091 143.298194,111.170183 C181.638848,105.209456 183.83949,96.5167286 208.477306,96.5167286 C209.495408,96.5167286 244.301212,108.93491 245.380185,108.93491 C276.731015,108.93491 274.355014,96.5167286 305.766715,96.5167286 C306.648292,96.5167286 373.188239,102.974183 374.061005,102.974183 C410.570377,102.974183 381.412567,96.5167286 417.913128,96.5167286 C431.704215,96.5167286 438.546058,111.170183 452.419717,111.170183 C462.828473,111.170183 490.760371,96.5167286 490.760371,96.5167286 L490.760371,137 L0,137 L0,96.5167286 Z" id="Rectangle-318" fill="#2F9C88" sketch:type="MSShapeGroup"></path>
                            <path d="M0,116.993203 C0,116.993203 74.2113031,131.155408 116.726745,120.855623 C159.242187,110.555837 161.682449,95.535316 189.002996,95.535316 C190.131956,95.535316 228.727649,116.993203 229.924109,116.993203 C264.688627,116.993203 262.053912,95.535316 296.88593,95.535316 C297.863499,95.535316 371.648762,106.693417 372.616561,106.693417 C413.101318,106.693417 380.768611,95.535316 421.243598,95.535316 C436.536351,95.535316 450.694259,113.200743 466.078575,113.200743 C477.620706,113.200743 490.760371,109.02974 490.760371,109.02974 L490.760371,136.018587 L0,136.018587 L0,116.993203 Z" id="SAND" fill="#FCD997" sketch:type="MSShapeGroup"></path>
                            <path d="M460.087848,130.237128 C428.312875,130.237128 398.931971,138.524726 360.691416,134.141838 C320.21794,129.758951 319.660088,123.36724 291.006055,123.36724 C289.821992,123.36724 250.284626,132.498256 249.095224,132.498256 C214.535805,132.498256 214.389605,123.36724 177.857474,123.36724 C176.832192,123.36724 104.001347,128.115368 103.013843,128.115368 C61.7047989,128.115368 89.0919891,125.921204 45.2898975,128.115368 C22.5251342,129.255716 -3.40533415e-15,116.497351 -3.40533415e-15,116.497351 L1.70579344e-07,134.141838 L490.760371,134.141838 L490.760371,128.115368 C490.760371,128.115368 477.194195,130.237128 460.087848,130.237128 Z" id="Rectangle-318" fill="#E2E6E8" sketch:type="MSShapeGroup" transform="translate(245.380185, 125.959108) scale(-1, 1) translate(-245.380185, -125.959108) "></path>
                            <path d="M460.087848,131.60223 C428.312875,131.60223 398.931971,139.889828 360.691416,135.506941 C320.217941,131.124053 319.660088,124.732342 291.006055,124.732342 C289.821992,124.732342 250.284626,133.863358 249.095224,133.863358 C214.535805,133.863358 214.389605,124.732342 177.857474,124.732342 C176.832192,124.732342 104.001348,129.48047 103.013844,129.48047 C61.7047989,129.48047 89.0919891,127.286306 45.2898976,129.48047 C22.5251343,130.620818 5.10733537e-08,117.862454 5.10733537e-08,117.862454 L2.21652701e-07,135.50694 L490.760371,135.50694 L490.760371,129.48047 C490.760371,129.48047 477.194195,131.60223 460.087848,131.60223 Z" id="Rectangle-318" fill="#93D3E8" sketch:type="MSShapeGroup" transform="translate(245.380186, 127.324210) scale(-1, 1) translate(-245.380186, -127.324210) "></path>
                        </g>
                    </g>
                </g>
                <path d="M24.8045714,127.160923 L24.5585767,131.787729 L22.1121261,132.677724 L22.3619223,128.041113 L21.5869678,128.322289 L21,139 L21.7757825,138.711643 L22.0234419,134.293516 L24.4705371,133.400101 L24.2228456,137.808875 L25.0036524,137.522964 L25.5834012,126.882194 L24.8045714,127.160923 Z M28.300883,136.400943 C29.6954269,135.900305 30.9106384,133.170875 31.0734324,130.146595 C31.2284698,127.12062 30.2642018,125.181412 28.8759271,125.669185 C27.4904059,126.158811 26.2983897,128.850292 26.1354476,131.904368 C25.9680313,134.941549 26.9099547,136.903434 28.300883,136.400943 Z M28.3990044,134.793174 C27.4870047,135.12108 26.8159609,133.72808 26.9313095,131.618509 C27.0439166,129.508119 27.8854304,127.599275 28.801511,127.274923 C29.7121958,126.95372 30.3749121,128.327312 30.2654614,130.431647 C30.1524592,132.535163 29.3125016,134.466063 28.3990044,134.793174 Z M32.1795017,124.557688 L31.6272466,135.137967 L34.4567413,134.140452 L34.5462495,132.528442 L32.5095768,133.242792 L32.9666161,124.284523 L32.1795017,124.557688 Z M35.7481595,123.326209 L35.2185655,133.87399 L38.0654914,132.886008 L38.1522816,131.278966 L36.103586,131.986455 L36.5390044,123.055715 L35.7481595,123.326209 Z M42.1915399,121.14723 L40.6504972,126.708148 L39.5218659,122.043217 L38.7213114,122.313765 L40.1641854,128.791773 L39.9867298,132.226101 L40.7827553,131.95427 L40.9612752,128.462304 L43.0022175,120.877031 L42.1915399,121.14723 Z M49.2765398,118.814746 L47.807901,127.673517 L46.9719706,119.566334 L46.1842384,119.839582 L44.6900081,128.709173 L43.8880873,120.582762 L43.0292534,120.868035 L44.147869,130.815237 L44.983297,130.534958 L46.4860832,122.000685 L47.275786,129.770864 L48.1082026,129.495219 L50.1073221,118.545455 L49.2765398,118.814746 Z M52.4203117,128.155491 C53.8692775,127.686287 55.0851501,125.02902 55.1847268,122.066415 C55.2649339,119.102113 54.2046304,117.185721 52.7758621,117.64206 C51.3491831,118.100252 50.1789446,120.720495 50.0772045,123.712588 C49.958953,126.688095 50.9742191,128.626547 52.4203117,128.155491 Z M52.4951155,126.580559 C51.5484289,126.88786 50.8227407,125.511485 50.9010895,123.444778 C50.9710508,121.377252 51.7992699,119.518857 52.743819,119.215261 C53.6824746,118.914663 54.4099563,120.271796 54.3497099,122.333268 C54.2802954,124.39392 53.4429856,126.274054 52.4951155,126.580559 Z M57.8562342,126.409405 C59.3156208,125.947132 60.5236188,123.305774 60.6005157,120.356766 C60.6555408,117.406062 59.5685269,115.4947 58.1322299,115.944109 C56.6979015,116.39537 55.5402833,118.999907 55.4609438,121.978335 C55.3624532,124.940245 56.3995828,126.873531 57.8562342,126.409405 Z M57.9211777,124.841713 C56.9678741,125.144471 56.226106,123.771761 56.2901234,121.714504 C56.3445366,119.656428 57.1642709,117.809156 58.1141411,117.510136 C59.0580261,117.214081 59.8037191,118.567585 59.7603827,120.619607 C59.706668,122.670809 58.8756066,124.539751 57.9211777,124.841713 Z M63.3257788,124.61794 C64.8160328,124.156157 65.9473873,121.652884 65.9994765,118.688004 C66.0268199,115.706704 64.980244,113.867401 63.5297916,114.312029 L61.5505495,114.922712 L61.3336015,125.239541 L63.3257788,124.61794 Z M65.1682742,118.957277 C65.1312439,121.043143 64.3675512,122.75142 63.4139725,123.046589 L62.2094853,123.421015 L62.3507986,116.233717 L63.5063391,115.877244 C64.4621673,115.583565 65.1933611,116.855858 65.1682742,118.957277 Z" id="HOLLYWOOD" opacity="0.71641791" fill="#FFFFFF" sketch:type="MSShapeGroup" mask="url(#mask-2)"></path>
            </g>
        </g>
    </g>
</svg>