<?xml version="1.0" encoding="UTF-8" standalone="no"?>
<svg width="2047px" height="813px" viewBox="0 0 2047 813" version="1.1" xmlns="http://www.w3.org/2000/svg" xmlns:xlink="http://www.w3.org/1999/xlink" xmlns:sketch="http://www.bohemiancoding.com/sketch/ns">
    <!-- Generator: Sketch 3.3.3 (12081) - http://www.bohemiancoding.com/sketch -->
    <title>LaLaLand</title>
    <desc>Created with Sketch.</desc>
    <defs></defs>
    <g id="Home-Page" stroke="none" stroke-width="1" fill="none" fill-rule="evenodd" sketch:type="MSPage">
        <g id="Landing-Page-1.0" sketch:type="MSArtboardGroup" transform="translate(0.000000, -171.000000)">
            <g id="LaLaLand" sketch:type="MSLayerGroup" transform="translate(-1.000000, 171.000000)">
                <g id="Group" transform="translate(0.000000, 544.000000)" sketch:type="MSShapeGroup">
                    <g id="tree-palm" transform="translate(1686.000000, 23.000000)">
                        <path d="M71,1.56424476 C61.2292264,-2.17135369 49.4297994,0.86382005 42.1174785,9.81274226 C39.5988539,12.8991666 37.9369628,16.3642758 37,19.929039 L51.8538682,19.929039 L51.8538682,25 L55.2005731,20.9056474 L53.217765,16.5550419 L57.9083095,17.5885954 L64.2292264,9.85260383 L62.2464183,5.50199831 L66.9369628,6.53555185 L71,1.56424476" id="Fill-744" fill="#46A046"></path>
                        <path d="M29.1461318,25 L29.1461318,19.929039 L44,19.929039 C43.0630372,16.3642758 41.4011461,12.8991666 38.8825215,9.81274226 C31.5702006,0.86382005 19.7679083,-2.17135369 10,1.56424476 L14.0630372,6.53555185 L18.7535817,5.50199831 L16.7707736,9.85260383 L23.0916905,17.5885954 L27.782235,16.5550419 L25.7994269,20.9056474 L29.1461318,25" id="Fill-745" fill="#46A046"></path>
                        <path d="M40.261424,26 L29.3031414,26 C28.0839682,31.3031579 23.5927283,52.0526316 31.9270761,81 L55,81 C37.4576112,62.8181579 39.1850111,35.6192105 40.261424,26" id="Fill-746" fill="#BE9664"></path>
                        <path d="M65.4818585,15.7350018 C57.3790976,11.3091464 48.2146754,10.9482645 40.499551,13.9565759 C32.7844266,10.9482645 23.6200044,11.3091464 15.5172435,15.7350018 C4.05014446,21.9999113 -1.72679719,34.4344574 0.454381579,46 L6.8272421,42.5210987 L6.6247454,37.1223057 L11.0738872,40.1999064 L20.9846544,34.7866781 L20.7850505,29.3878852 L25.2341924,32.4654859 L40.499551,24.1276709 L55.7649096,32.4654859 L60.2140514,29.3878852 L60.0144475,34.7866781 L69.9252147,40.1999064 L74.3743565,37.1223057 L74.1718598,42.5210987 L80.5447204,46 C82.7287919,34.4344574 76.9489575,21.9999113 65.4818585,15.7350018" id="Fill-747" fill="#8CBE3C"></path>
                    </g>
                    <path d="M0,69 C0,69 148.593051,156.829304 214,156.829304 C335.493156,156.829304 438,192.556478 598,156.829304 C758,121.102129 767.183532,69 870,69 C874.248658,69 1019.49732,143.431613 1024,143.431613 C1154.83065,143.431613 1144.91532,69 1276,69 C1279.67892,69 1557.35784,107.704439 1561,107.704439 C1713.35784,107.704439 1591.67892,69 1744,69 C1801.55181,69 1830.10361,156.829304 1888,156.829304 C1931.43695,156.829304 2048,69 2048,69 L2048,269 L0,269 L0,69 Z" id="Rectangle-318" fill="#38B69F" transform="translate(1024.000000, 169.000000) scale(-1, 1) translate(-1024.000000, -169.000000) "></path>
                    <g id="Buldings" transform="translate(933.500000, 0.500000)" fill="#7EA29C">
                        <rect id="Rectangle-153" x="0" y="58" width="28" height="135"></rect>
                        <rect id="Rectangle-153" x="32" y="14" width="14" height="181"></rect>
                        <rect id="Rectangle-153" x="50" y="0" width="32" height="175"></rect>
                    </g>
                    <path d="M0,104 C0,104 148.593051,163.723926 214,163.723926 C335.493156,163.723926 438,188.018405 598,163.723926 C758,139.429448 767.183532,104 870,104 C874.248658,104 1019.49732,154.613497 1024,154.613497 C1154.83065,154.613497 1144.91532,104 1276,104 C1279.67892,104 1557.35784,130.319018 1561,130.319018 C1713.35784,130.319018 1591.67892,104 1744,104 C1801.55181,104 1830.10361,163.723926 1888,163.723926 C1931.43695,163.723926 2048,104 2048,104 L2048,269 L0,269 L0,104 Z" id="Rectangle-318" fill="#2F9C88"></path>
                    <path d="M0,187.457146 C0,187.457146 309.692383,245.178861 487.114258,203.199432 C664.536133,161.220002 674.719629,100 788.731445,100 C793.442726,100 954.507034,187.457145 959.5,187.457145 C1104.57637,187.457145 1093.5814,100 1238.93945,100 C1243.01896,100 1550.93343,145.477716 1554.97217,145.477716 C1723.91976,145.477716 1588.99162,100 1757.89844,100 C1821.71687,100 1880.79947,172 1945,172 C1993.16665,172 2048,155 2048,155 L2048,265 L0,265 L0,187.457146 Z" id="SAND" fill="#FCD997"></path>
                    <path d="M1920,241.436175 C1787.39935,241.436175 1664.78943,275.214414 1505.20715,257.350826 C1336.30664,239.487239 1333.97866,213.436175 1214.40205,213.436175 C1209.46082,213.436175 1044.4668,250.651981 1039.50329,250.651981 C895.282819,250.651981 894.672709,213.436175 742.219888,213.436175 C737.941264,213.436175 434.009696,232.788394 429.888728,232.788394 C257.501289,232.788394 371.791213,223.845513 189,232.788393 C94,237.436175 -1.42108547e-14,185.436175 -1.42108547e-14,185.436175 L7.11847406e-07,257.350824 L2048,257.350825 L2048,232.788393 C2048,232.788393 1991.38677,241.436175 1920,241.436175 Z" id="Rectangle-318" fill="#E2E6E8" transform="translate(1024.000000, 224.000000) scale(-1, 1) translate(-1024.000000, -224.000000) "></path>
                    <path d="M1920,247 C1787.39935,247 1664.78943,280.778239 1505.20715,262.914652 C1336.30664,245.051065 1333.97866,219 1214.40205,219 C1209.46082,219 1044.4668,256.215807 1039.50329,256.215807 C895.282819,256.215807 894.672709,219 742.219888,219 C737.941264,219 434.009697,238.352219 429.888728,238.352219 C257.501289,238.352219 371.791213,229.409339 189,238.352219 C94.0000002,243 2.13134612e-07,191 2.13134612e-07,191 L9.24982032e-07,262.914649 L2048,262.91465 L2048,238.352219 C2048,238.352219 1991.38677,247 1920,247 Z" id="Rectangle-318" fill="#93D3E8" transform="translate(1024.000000, 229.563825) scale(-1, 1) translate(-1024.000000, -229.563825) "></path>
                </g>
                <rect id="Rectangle-137" sketch:type="MSShapeGroup" x="1" y="331" width="2048" height="246"></rect>
                <path d="M721.754003,621.314195 L721.369184,628.552089 L717.542105,629.944344 L717.932871,622.691111 L716.720579,623.130966 L715.802362,639.83453 L717.015949,639.383442 L717.403373,632.471991 L721.23146,631.074388 L720.843987,637.971206 L722.065434,637.523945 L722.972358,620.878167 L721.754003,621.314195 Z M727.223422,635.768723 C729.404962,634.985556 731.305965,630.7158 731.56063,625.9848 C731.803161,621.251147 730.294719,618.217568 728.122986,618.980611 C725.95556,619.746552 724.090842,623.956941 723.835946,628.734553 C723.57405,633.485735 725.047538,636.554789 727.223422,635.768723 Z M727.376917,633.253626 C725.95024,633.766582 724.900499,631.587458 725.080944,628.287373 C725.257099,624.986007 726.573513,621.999926 728.006574,621.49253 C729.431194,620.99006 730.467907,623.138823 730.296689,626.430718 C730.119915,629.721331 728.805936,632.741914 727.376917,633.253626 Z M733.290898,617.241852 L732.426983,633.792999 L736.853274,632.232548 L736.993295,629.710817 L733.807247,630.828303 L734.522212,616.814528 L733.290898,617.241852 Z M738.87349,615.3154 L738.045025,631.81571 L742.498584,630.270171 L742.634353,627.756212 L739.429498,628.862964 L740.11064,614.892257 L738.87349,615.3154 Z M748.953124,611.906737 L746.54241,620.605902 L744.776848,613.308365 L743.524509,613.731594 L745.781654,623.865398 L745.504053,629.237853 L746.749307,628.812617 L747.028573,623.349996 L750.221299,611.484055 L748.953124,611.906737 Z M760.036469,608.257941 L757.73902,622.116066 L756.431341,609.433679 L755.19906,609.861132 L752.861577,623.736184 L751.6071,611.023718 L750.263593,611.469982 L752.013487,627.030783 L753.32038,626.592331 L755.671248,613.241831 L756.906611,625.397029 L758.208793,624.965827 L761.336095,607.836679 L760.036469,608.257941 Z M764.954396,622.870037 C767.22107,622.136043 769.123107,617.979175 769.278879,613.344654 C769.40435,608.707481 767.745676,605.709593 765.510597,606.423462 C763.278787,607.14023 761.448137,611.239179 761.288981,615.919828 C761.103995,620.574531 762.692216,623.606929 764.954396,622.870037 Z M765.071414,620.406309 C763.590475,620.887032 762.455252,618.733914 762.577816,615.500883 C762.68726,612.26657 763.982875,609.35941 765.460471,608.884482 C766.928847,608.414246 768.066875,610.537261 767.972629,613.762103 C767.864041,616.985663 766.554205,619.926831 765.071414,620.406309 Z M773.458024,620.138566 C775.741,619.415414 777.630719,615.283433 777.751011,610.670184 C777.837089,606.054281 776.136631,603.064261 773.889775,603.76729 C771.645998,604.473216 769.83509,608.547596 769.710976,613.206869 C769.556904,617.840301 771.179326,620.864617 773.458024,620.138566 Z M773.559617,617.686163 C772.068327,618.15978 770.90795,616.012396 771.008095,612.794147 C771.093215,609.574618 772.375558,606.684857 773.861478,606.217088 C775.338034,605.753958 776.504551,607.871297 776.436758,611.081356 C776.35273,614.290133 775.052668,617.213792 773.559617,617.686163 Z M782.014248,617.336106 C784.345511,616.613721 786.115334,612.697752 786.196819,608.059674 C786.239593,603.395909 784.602393,600.518614 782.333393,601.214164 L779.237187,602.169479 L778.897807,618.308501 L782.014248,617.336106 Z M784.896536,608.480908 C784.838608,611.74391 783.643934,614.416235 782.152213,614.87798 L780.267986,615.463709 L780.489048,604.220336 L782.296706,603.662691 C783.791945,603.203278 784.935781,605.193575 784.896536,608.480908 Z" id="HOLLYWOOD" opacity="0.71641791" fill="#FFFFFF" sketch:type="MSShapeGroup"></path>
                <circle id="Sunn" fill="#F2C400" sketch:type="MSShapeGroup" cx="233" cy="139" r="139"></circle>
            </g>
        </g>
    </g>
</svg>