<svg xmlns="http://www.w3.org/2000/svg" width="100" height="100" viewBox="0 0 100 100"><path fill="#3DB39E" d="M50 0c27.614 0 50 22.386 50 50s-22.386 50-50 50S0 77.614 0 50 22.386 0 50 0z"/><path fill="#E1E1E1" d="M40 21c-2.762 0-5 2.238-5 5s2.238 5 5 5 5-2.238 5-5-2.238-5-5-5zm0 7c-1.104 0-2-.896-2-2s.896-2 2-2 2 .896 2 2-.896 2-2 2zm20-7c-2.762 0-5 2.238-5 5s2.238 5 5 5 5-2.238 5-5-2.238-5-5-5zm0 7c-1.104 0-2-.896-2-2s.896-2 2-2 2 .896 2 2-.896 2-2 2z"/><path fill="#F2F1EF" d="M53.607 81.988C55.057 81.076 56 79.632 56 78l-.02-.74L56 77l-.02-.7C67.457 73.6 76 63.3 76 51c0-14.36-11.64-26-26-26S24 36.64 24 51c0 12.3 8.544 22.598 20.02 25.3L44 77l.02.265L44 78c0 1.632.942 3.076 2.393 3.988-.69 4.945-1.182 10.538-1.382 17.763 1.64.164 3.305.25 4.99.25s3.35-.086 4.99-.25c-.2-7.224-.692-12.816-1.383-17.762z"/><path fill="#37A18E" d="M49 26c-14.36 0-26 11.64-26 26 0 12.3 8.544 22.598 20.02 25.3L43 78l.02.265L43 79c0 1.632.942 3.076 2.393 3.988-.654 4.685-1.127 9.964-1.346 16.646C46 99.867 47.984 100 50 100c1.334 0 2.652-.068 3.96-.17-.216-6.776-.692-12.112-1.353-16.842C54.057 82.076 55 80.632 55 79l-.02-.74L55 78l-.02-.7C66.457 74.6 75 64.3 75 52c0-14.36-11.64-26-26-26z"/><path fill="#F2F1EF" d="M76 51c0-12.03-8.17-22.146-19.265-25.114.168-.6.265-1.232.265-1.886 0-3.866-3.134-7-7-7s-7 3.134-7 7c0 .654.097 1.285.265 1.886C32.17 28.854 24 38.97 24 51c0 12.3 8.544 22.598 20.02 25.3L44 77l.02.265L44 78c0 1.632.942 3.076 2.393 3.988-.698 5.003-1.195 10.663-1.39 18.012h9.995c-.195-7.35-.692-13.01-1.39-18.012C55.057 81.076 56 79.632 56 78l-.02-.74L56 77l-.02-.7C67.457 73.6 76 63.3 76 51zM46 24c0-2.21 1.79-4 4-4s4 1.79 4 4c0 .45-.09.873-.228 1.276-1.23-.18-2.49-.276-3.772-.276-1.282 0-2.54.097-3.773.276C46.09 24.873 46 24.45 46 24z"/><path fill="#DBDDDD" d="M45.145 97c.03-.67.057-1.346.09-2h9.53c.034.654.062 1.33.09 2h-9.71zm.207-4c.042-.68.087-1.344.134-2h9.03c.046.656.09 1.32.133 2H45.35zm9.01-4h-8.726c.057-.68.113-1.35.176-2h8.375c.063.65.12 1.32.176 2z"/><path fill="#93D3E8" d="M50 29c12.15 0 22 9.85 22 22s-9.85 22-22 22-22-9.85-22-22 9.85-22 22-22z"/><path fill="#84BDD0" d="M50 32c11.646 0 21.172 9.05 21.943 20.5.034-.496.057-.995.057-1.5 0-12.15-9.85-22-22-22s-22 9.85-22 22c0 .505.023 1.004.057 1.5C28.827 41.05 38.354 32 50 32z"/><path d="M53.217 72.764c4.27-.626 8.135-2.48 11.238-5.187L42.87 30.187c-4.023 1.38-7.517 3.888-10.106 7.15l20.453 35.427zm-1.766-43.71C50.97 29.02 50.49 29 50 29c-1.043 0-2.068.078-3.073.218L67.325 64.55c.928-1.185 1.738-2.465 2.41-3.827L51.45 29.053z" fill="#A9DCED"/><path d="M51.45 29.053C50.97 29.02 50.49 29 50 29c-1.043 0-2.068.078-3.073.218l1.646 2.85C49.047 32.04 49.52 32 50 32c1.128 0 2.228.11 3.31.273l-1.86-3.22zm-8.58 1.135c-4.023 1.378-7.517 3.887-10.106 7.15l1.04 1.8c2.793-3.046 6.432-5.292 10.547-6.384l-1.48-2.566z" fill="#98C6D5"/><path fill="#CFCECC" d="M50 83c-1.356 0-2.603-.38-3.607-1.012l-.128.92C47.29 83.59 48.587 84 50 84s2.71-.41 3.735-1.09l-.128-.922C52.603 82.62 51.355 83 50 83zm-5.92-5.703c1.904.444 3.88.703 5.92.703s4.016-.26 5.92-.703c.028.274.05.657.063 1L56 78c0-.275-.027-1.187-.08-1.703-1.904.444-3.88.703-5.92.703s-4.016-.26-5.92-.703c-.052.516-.08 1.428-.08 1.703l.02.302c.012-.344.033-.73.06-1.005z"/></svg>