<svg width="240" height="240" viewBox="0 0 240 240" xmlns="http://www.w3.org/2000/svg"><title>mirror</title><desc>Created with Sketch.</desc><g fill="none"><rect id="Shape" fill="#3DB39E" width="240" height="238.017" rx="11"/><path d="M95 50.58c-6.63 0-12 5.325-12 11.9 0 6.573 5.37 11.9 12 11.9s12-5.327 12-11.9c0-6.575-5.37-11.9-12-11.9zm0 16.66c-2.65 0-4.8-2.133-4.8-4.76 0-2.628 2.15-4.76 4.8-4.76s4.8 2.132 4.8 4.76c0 2.627-2.15 4.76-4.8 4.76zm48-16.66c-6.63 0-12 5.325-12 11.9 0 6.573 5.37 11.9 12 11.9s12-5.327 12-11.9c0-6.575-5.37-11.9-12-11.9zm0 16.66c-2.65 0-4.8-2.133-4.8-4.76 0-2.628 2.15-4.76 4.8-4.76s4.8 2.132 4.8 4.76c0 2.627-2.15 4.76-4.8 4.76z" id="Shape" fill="#E1E1E1"/><path d="M128.6 196.89c3.46-2.182 5.708-5.64 5.708-9.545l-.048-1.768.048-.625-.046-1.673C161.626 176.81 182 152.162 182 122.723c0-34.367-27.76-62.228-62-62.228-34.24 0-62 27.86-62 62.228 0 29.44 20.374 54.086 47.738 60.555l-.046 1.672.048.634-.048 1.76c0 3.905 2.247 7.362 5.707 9.544-1.647 11.836-2.82 25.222-3.297 42.514 3.91.39 7.88.596 11.897.596 4.018 0 7.986-.206 11.9-.596-.478-17.292-1.65-30.676-3.3-42.514z" id="Shape" fill="#F2F1EF"/><path d="M117 61.488c-34.24 0-62 27.77-62 62.023 0 29.343 20.374 53.91 47.738 60.357l-.046 1.668.048.632-.048 1.753c0 3.894 2.247 7.338 5.707 9.514-1.56 11.176-2.69 23.77-3.21 39.71 4.656.555 9.387.873 14.195.873 3.18 0 6.324-.163 9.443-.408-.515-16.163-1.65-28.893-3.227-40.176 3.46-2.176 5.708-5.62 5.708-9.514l-.048-1.762.048-.623-.046-1.668C158.626 177.42 179 152.853 179 123.51c0-34.252-27.76-62.022-62-62.022z" id="Shape" fill="#37A18E"/><path d="M182 121.506c0-28.603-19.485-52.66-45.94-59.716.4-1.43.632-2.93.632-4.484 0-9.193-7.473-16.645-16.692-16.645-9.22 0-16.692 7.453-16.692 16.646 0 1.555.23 3.055.632 4.484C77.485 68.847 58 92.903 58 121.506c0 29.246 20.374 53.732 47.738 60.16l-.046 1.662.048.63-.048 1.747c0 3.88 2.247 7.315 5.707 9.483-1.666 11.896-2.85 25.354-3.318 42.83h23.836c-.465-17.476-1.65-30.934-3.317-42.83 3.46-2.168 5.708-5.602 5.708-9.483l-.048-1.757.048-.62-.046-1.662c27.364-6.428 47.738-30.914 47.738-60.16zm-71.538-64.2c0-5.253 4.27-9.512 9.538-9.512 5.268 0 9.538 4.26 9.538 9.512 0 1.067-.217 2.075-.543 3.034-2.936-.426-5.938-.657-8.995-.657-3.057 0-6.06.23-8.997.657-.324-.96-.54-1.967-.54-3.034z" id="Shape" fill="#F2F1EF"/><path d="M109 231.074c.072-1.597.14-3.203.225-4.76h23.55c.084 1.557.153 3.163.225 4.76h-24zm.512-9.52c.103-1.616.215-3.2.33-4.76h22.315c.116 1.56.228 3.144.33 4.76h-22.975zm22.27-9.52h-21.57c.142-1.617.28-3.217.436-4.76h20.7c.154 1.543.295 3.143.434 4.76z" id="Shape" fill="#DBDDDD"/><path d="M121 68.43c29.27 0 53 23.533 53 52.562 0 29.028-23.73 52.562-53 52.562s-53-23.534-53-52.562c0-29.03 23.73-52.562 53-52.562z" id="Shape" fill="#93D3E8"/><path d="M121 75.52c28.056 0 51.005 21.387 52.863 48.447.082-1.172.137-2.352.137-3.545 0-28.714-23.73-51.992-53-51.992s-53 23.278-53 51.992c0 1.193.055 2.373.137 3.545C69.995 96.907 92.944 75.52 121 75.52z" id="Shape" fill="#84BDD0"/><path d="M127.367 172.99c10.336-1.496 19.696-5.923 27.208-12.393l-52.26-89.33c-9.738 3.293-18.197 9.288-24.465 17.08l49.517 84.643zM-28.908-68.303C45.93.05 44.76 0 43.58 0c-2.526 0-5.008.186-7.44.52l49.384 84.415c2.246-2.83 4.207-5.89 5.834-9.143L47.092.127z" id="Shape" fill="#A9DCED"/><path d="M121.975 68.56c-1.134-.08-2.276-.13-3.43-.13-2.465 0-4.888.19-7.263.53l3.89 6.94c1.12-.073 2.237-.167 3.373-.167 2.667 0 5.267.265 7.826.664l-4.395-7.838zM-50.31-65.54C16.184 6.246 7.925 12.354 1.806 20.294l2.456 4.382c6.604-7.412 15.205-12.88 24.93-15.538L25.69 2.892z" id="Shape" fill="#98C6D5"/><path d="M120 198.013c-3.164 0-6.074-.878-8.416-2.345l-.3 2.134c2.393 1.578 5.42 2.53 8.716 2.53 3.297 0 6.323-.952 8.715-2.53l-.3-2.134c-2.34 1.467-5.253 2.345-8.415 2.345zm-13.813-13.216c4.442 1.03 9.053 1.63 13.813 1.63s9.37-.6 13.816-1.63c.063.635.112 1.522.144 2.317l.04-.688c0-.637-.063-2.75-.184-3.947-4.445 1.028-9.056 1.628-13.816 1.628-4.76 0-9.37-.6-13.813-1.63-.122 1.197-.187 3.31-.187 3.948l.044.7c.03-.797.08-1.692.143-2.33z" fill="#CFCECC"/></g></svg>