<svg xmlns="http://www.w3.org/2000/svg" width="100" height="100" viewBox="0 0 100 100"><path fill="#EFC75E" d="M50 0c27.614 0 50 22.387 50 50 0 27.615-22.386 50-50 50S0 77.615 0 50C0 22.387 22.386 0 50 0z"/><path fill="#2D4552" d="M43 66c2.21 0 4 1.79 4 4v11c0 1.105.896 2 2 2h9c1.104 0 2-.895 2-2V66H43zm0 0c2.21 0 4 1.79 4 4v11c0 1.105.896 2 2 2h9c1.104 0 2-.895 2-2V66H43z"/><path fill="#324D5B" d="M67 61v3c0 1.105-.896 2-2 2H32c-1.104 0-2-.895-2-2v-3h37z"/><path fill="#2D4552" d="M18 33h7c1.104 0 2 .896 2 2v5c0 1.105-.896 2-2 2h-7c-1.104 0-2-.895-2-2v-5c0-1.104.896-2 2-2z"/><path fill="#3F5E6D" d="M24 27h43c1.656 0 3 1.344 3 3v31H24c-1.657 0-3-1.343-3-3V30c0-1.656 1.343-3 3-3z"/><path fill="#3DB39E" d="M62.5 51c1.38 0 2.5 1.12 2.5 2.5S63.88 56 62.5 56 60 54.88 60 53.5s1.12-2.5 2.5-2.5z"/><path fill="#EFC75E" d="M54.5 51c1.38 0 2.5 1.12 2.5 2.5S55.88 56 54.5 56 52 54.88 52 53.5s1.12-2.5 2.5-2.5z"/><path fill="#E4E7E7" d="M61.5 32c1.934 0 3.5 1.567 3.5 3.5 0 1.934-1.566 3.5-3.5 3.5S58 37.434 58 35.5c0-1.933 1.566-3.5 3.5-3.5z"/><path fill="#2D4552" d="M70 38h5v14h-5V38z"/><path fill="#3F5E6D" d="M80 35h1c1.656 0 3 1.344 3 3v14c0 1.657-1.344 3-3 3h-1c-1.656 0-5-3-5-3V38s3.344-3 5-3z"/><path fill="#2D4552" d="M30 61h37v2H30z"/><path fill="#E4E7E7" d="M21 55h24.5c.83 0 1.5-.672 1.5-1.5s-.67-1.5-1.5-1.5H21v3z"/><path fill="#BCBEBE" d="M61.5 32c-.17 0-.335.027-.5.05v2.45c0 .276.224.5.5.5s.5-.224.5-.5v-2.45c-.165-.023-.33-.05-.5-.05z"/><path fill="#395462" d="M61.5 39c-1.934 0-3.5-1.566-3.5-3.5 0-.71.215-1.37.578-1.92-.95.625-1.578 1.698-1.578 2.92 0 1.934 1.566 3.5 3.5 3.5 1.223 0 2.296-.628 2.922-1.578-.552.363-1.21.578-1.922.578z"/><path d="M47 74h13v2H47zm-.555-6H60v-2H43c1.477 0 2.752.81 3.445 2zM47 70h13v2H47zm0 8h13v2H47z" fill="#263A45"/></svg>