<svg width="15" height="15" viewBox="0 0 15 15" xmlns="http://www.w3.org/2000/svg"><title>Imported Layers</title><desc>Created with Sketch.</desc><path d="M.09 14.89c.078.082.19.12.3.105l4.826-.734c.072-.01.14-.043.19-.094L14.9 4.672c.133-.133.133-.348 0-.48L10.81.1c-.134-.133-.35-.133-.483 0L8.012 2.415.834 9.595c-.052.05-.086.118-.096.19l-.734 4.824c-.016.1.016.206.087.282m.656-.638l.592-3.89 3.3 3.3-3.89.59m4.527-.917l-3.61-3.61L8.162 3.23l3.61 3.61-6.497 6.497m6.98-6.98l-3.61-3.61L10.568.824l3.61 3.61-1.926 1.925" fill="#22CACC"/></svg>