<svg xmlns="http://www.w3.org/2000/svg" width="100" height="100" viewBox="0 0 100 100"><path fill="#E2574C" d="M50 0C22.386 0 0 22.386 0 50s22.386 50 50 50 50-22.386 50-50S77.614 0 50 0z"/><path fill="#CCD0D2" d="M76 28h7c2.21 0 4 1.792 4 4v7c0 2.21-1.79 4-4 4h-7c-2.21 0-4-1.79-4-4v-7c0-2.21 1.79-4 4-4z"/><path fill="#F3F3F3" d="M79 32c0-2.21 1.79-4 4-4H21c-2.06 0-4 1.955-4 4v55.547C25.806 95.293 37.35 100 50 100c10.815 0 20.82-3.445 29-9.282V32z"/><path fill="#CCD0D2" d="M69.5 53h-43c-.828 0-1.5.672-1.5 1.5s.672 1.5 1.5 1.5h43c.828 0 1.5-.672 1.5-1.5s-.672-1.5-1.5-1.5zm0 7h-43c-.828 0-1.5.672-1.5 1.5 0 .83.672 1.5 1.5 1.5h43c.828 0 1.5-.67 1.5-1.5 0-.828-.672-1.5-1.5-1.5zm0 7h-43c-.828 0-1.5.672-1.5 1.5s.672 1.5 1.5 1.5h43c.828 0 1.5-.672 1.5-1.5s-.672-1.5-1.5-1.5zm0 7h-43c-.828 0-1.5.672-1.5 1.5s.672 1.5 1.5 1.5h43c.828 0 1.5-.672 1.5-1.5s-.672-1.5-1.5-1.5zm-12-32h12c.828 0 1.5-.672 1.5-1.5s-.672-1.5-1.5-1.5h-12c-.828 0-1.5.672-1.5 1.5s.672 1.5 1.5 1.5zm-1 39h-30c-.828 0-1.5.672-1.5 1.5s.672 1.5 1.5 1.5h30c.828 0 1.5-.672 1.5-1.5s-.672-1.5-1.5-1.5zm-28-44c-1.933 0-3.5 1.566-3.5 3.5s1.567 3.5 3.5 3.5 3.5-1.567 3.5-3.5c0-1.934-1.567-3.5-3.5-3.5zm10 0c-1.933 0-3.5 1.566-3.5 3.5s1.567 3.5 3.5 3.5 3.5-1.567 3.5-3.5c0-1.934-1.567-3.5-3.5-3.5z"/></svg>