<svg width="280" height="280" viewBox="0 0 280 280" xmlns="http://www.w3.org/2000/svg"><title>Wardrobe</title><desc>Created with Sketch.</desc><g fill="none"><path d="M140 0c77.32 0 140 62.68 140 140s-62.68 140-140 140S0 217.32 0 140 62.68 0 140 0z" id="Shape" fill="#EFC75E"/><path d="M186.256 28.003c-16.26 0-29.487 13.084-29.487 29.17 0 13.418 10.432 24.825 22.923 28.213 1.26.342 2.173 1.428 2.173 2.736v26.754c0 1.55 1.257 2.808 2.808 2.808 1.55 0 2.808-1.257 2.808-2.808v-30.7l-.016-.084.016-.078c0-1.403-1.06-2.596-2.47-2.74-12.006-1.228-22.626-11.904-22.626-24.1 0-13.02 10.707-23.616 23.87-23.616 12.33 0 22.506 7.89 23.744 19.77.148 1.398 1.352 2.708 2.772 2.708 1.686 0 3.074-1.198 2.892-2.858-1.58-14.622-14.212-25.175-29.408-25.175z" id="Shape" fill="#F4EECC"/><path d="M.818 124.942l255.59-62.72c-9.428-14.084-21.36-26.337-35.135-36.176l-206.09 50.57c-7.528 14.79-12.52 31.08-14.365 48.326z" id="Shape" fill="#DEDEDE"/><path d="M.818 124.942l255.59-62.72c-2.288-3.42-4.738-6.72-7.312-9.918L2.668 112.776c-.79 3.998-1.41 8.052-1.85 12.166z" id="Shape" fill="#BDBDBD"/><path d="M6.286 98.4l232.932-57.162c-3.072-3.088-6.292-6.025-9.638-8.814L10.724 86.212C9.066 90.188 7.577 94.248 6.286 98.4z" id="Shape" fill="#EBEBEB"/><path d="M187.827 27.997c-9.352 0-17.705 4.228-23.18 10.817l13.383-3.22c2.522-1.1 5.272-1.776 8.162-1.966l.162-.04v.034l1.473-.072c12.482 0 22.78 7.884 24.038 19.75.148 1.395 1.366 2.706 2.803 2.706 1.705 0 3.108-1.2 2.928-2.856-1.596-14.61-14.39-25.153-29.77-25.153z" id="Shape" fill="#F4EECC"/><path d="M184.8 100.8c3.09 0 5.6 2.51 5.6 5.6v5.6h-11.2v-5.6c0-3.09 2.51-5.6 5.6-5.6z" id="Shape" fill="#BEACAC"/><path d="M184.8 100.8c-2.274 0-4.22 1.358-5.096 3.304.703-.32 1.476-.504 2.296-.504 3.09 0 5.6 2.51 5.6 5.6v2.8h2.8v-5.6c0-3.09-2.51-5.6-5.6-5.6z" id="Shape" fill="#AB9A9A"/><path d="M278.63 159.415L202.536 113.6c-11.07-5.898-24.396-5.898-35.465 0L38.094 191.253c-4.44 2.366-5.86 8-3.063 12.152 2.13 3.156 6.116 4.525 9.762 3.354l128.48-46.61c7.496-2.4 15.566-2.4 23.058 0l75.39 27.352c3.234-8.974 5.56-18.374 6.91-28.087z" id="Shape" fill="#CA824F"/><path d="M202.535 113.6c-11.07-5.898-24.396-5.898-35.465 0l-1.7 1.02c10.207-4.02 21.765-3.44 31.565 1.78l76.096 45.812 5.6-2.8-76.095-45.813z" id="Shape" fill="#B57547"/><path d="M140 280c-48.815 0-91.773-24.998-116.827-62.874 3.654-24.917 20.22-46.42 44.04-56.06l50.73-18.266h2.208c-1.648 2.67-2.55 5.485-2.55 8.4 0 17.01 30.086 30.8 67.2 30.8 37.114 0 67.2-13.79 67.2-30.8 0-2.915-.902-5.73-2.55-8.4h2.998l26.978 9.537C273.176 223.874 213.16 280 140 280z" id="Shape" fill="#324D5B"/><path d="M263.2 158.2c0-4.374-1.935-8.988-5.4-13.507l-5.352-1.893h-3c1.65 2.67 2.552 5.485 2.552 8.4 0 17.01-30.086 30.8-67.2 30.8-37.114 0-67.2-13.79-67.2-30.8 0-2.915.902-5.73 2.55-8.4h-2.206l-6.946 2.503c-2.966 4.323-4.598 8.72-4.598 12.897 0 19.33 34.474 35 77 35s79.8-15.67 79.8-35z" fill="#526068"/></g></svg>