<svg xmlns="http://www.w3.org/2000/svg" width="100" height="100" viewBox="0 0 100 100"><path fill="#EDEDED" d="M50 0c27.614 0 50 22.386 50 50s-22.386 50-50 50S0 77.614 0 50C0 22.385 22.386 0 50 0z"/><path fill="#324D5B" d="M83 79c0-7.732-6.268-14-14-14H31c-7.732 0-14 6.268-14 14v8.547C25.806 95.293 37.35 100 50 100c12.65 0 24.193-4.707 33-12.453V79z"/><path fill="#2B424D" d="M17 78.556v8.99c1.583 1.395 3.248 2.697 5 3.884V78.556c0-7.62 6.268-13.798 14-13.798h-5c-7.732 0-14 6.178-14 13.798z"/><path fill="#5B717C" d="M41.5 51h17C65.403 51 71 56.597 71 63.5S65.403 76 58.5 76h-17C34.597 76 29 70.403 29 63.5S34.597 51 41.5 51z"/><path fill="#E9AD9A" d="M43 24h14c6.627 0 12 5.373 12 12v24c0 6.627-5.373 12-12 12H43c-6.627 0-12-5.373-12-12V36c0-6.627 5.373-12 12-12z"/><path fill="#D49F8F" d="M48 60.008c-.955 0-2-.41-2-1.99 0-1.297 4-4.64 4-5.996V33H31.394c-.248.96-.394 1.962-.394 3v24c0 6.627 5.373 12 12 12h7V59.99s-1.045.018-2 .018z"/><path fill="#828282" d="M62.5 42h-6c-.828 0-1.5.672-1.5 1.5s.672 1.5 1.5 1.5h6c.828 0 1.5-.672 1.5-1.5s-.672-1.5-1.5-1.5zm-19 0h-6c-.828 0-1.5.672-1.5 1.5s.672 1.5 1.5 1.5h6c.828 0 1.5-.672 1.5-1.5s-.672-1.5-1.5-1.5z"/><path fill="#324D5B" d="M40.5 48c-1.38 0-2.5 1.12-2.5 2.5s1.12 2.5 2.5 2.5 2.5-1.12 2.5-2.5-1.12-2.5-2.5-2.5zm19 0c-1.38 0-2.5 1.12-2.5 2.5s1.12 2.5 2.5 2.5 2.5-1.12 2.5-2.5-1.12-2.5-2.5-2.5z"/><path fill="#E37948" d="M32 24c13.885-5.104 42-4 42-4 2.13 0 3 1.293 3 3 0 8.692-5.676 13-8 13H31c-2.61 0-4-2.238-4-5 0-2.082 1.166-5.545 5-7z"/><path fill="#EFC75E" d="M64.388 92.004c-.175 0-.347-.058-.494-.17l-2.39-1.844-2.393 1.844c-.145.112-.32.17-.493.17-.172 0-.343-.057-.488-.168-.295-.22-.417-.617-.302-.977l.94-2.943-2.42-1.398c-.294-.223-.42-.615-.306-.976.11-.358.43-.6.79-.6h.007l2.972.024.896-2.958c.11-.36.43-.606.793-.606s.686.246.794.606l.896 2.958 2.97-.023h.01c.358 0 .68.24.788.6.113.36-.01.752-.305.974l-2.417 1.397.94 2.942c.114.358-.008.754-.3.976-.144.11-.317.168-.488.168z"/><path fill="#D27043" d="M71 34H33c-2.61 0-4-2.238-4-5 0-1.144.356-2.705 1.31-4.12C27.816 26.57 27 29.264 27 31c0 .2.023.388.037.58L27 32v6c0 2.418 1.718 4.436 4 4.9V36h38c1.167 0 3.18-1.09 4.895-3.272C72.785 33.576 71.73 34 71 34z"/></svg>