<?xml version="1.0" encoding="UTF-8" standalone="no"?>
<svg width="240px" height="240px" viewBox="0 0 240 240" version="1.1" xmlns="http://www.w3.org/2000/svg" xmlns:xlink="http://www.w3.org/1999/xlink" xmlns:sketch="http://www.bohemiancoding.com/sketch/ns">
    <!-- Generator: Sketch 3.3.3 (12081) - http://www.bohemiancoding.com/sketch -->
    <title>mirror</title>
    <desc>Created with Sketch.</desc>
    <defs></defs>
    <g id="Onboard-Profile-Dashboard" stroke="none" stroke-width="1" fill="none" fill-rule="evenodd" sketch:type="MSPage">
        <g id="mirror" sketch:type="MSLayerGroup">
            <rect id="Shape" fill="#3DB39E" sketch:type="MSShapeGroup" x="0" y="0" width="240" height="238.016529" rx="11"></rect>
            <path d="M95,50.5785124 C88.3712,50.5785124 83,55.9053223 83,62.4793388 C83,69.0533554 88.3712,74.3801653 95,74.3801653 C101.6288,74.3801653 107,69.0533554 107,62.4793388 C107,55.9053223 101.6288,50.5785124 95,50.5785124 L95,50.5785124 Z M95,67.2396694 C92.3504,67.2396694 90.2,65.1070413 90.2,62.4793388 C90.2,59.8516364 92.3504,57.7190083 95,57.7190083 C97.6496,57.7190083 99.8,59.8516364 99.8,62.4793388 C99.8,65.1070413 97.6496,67.2396694 95,67.2396694 L95,67.2396694 Z M143,50.5785124 C136.3712,50.5785124 131,55.9053223 131,62.4793388 C131,69.0533554 136.3712,74.3801653 143,74.3801653 C149.6288,74.3801653 155,69.0533554 155,62.4793388 C155,55.9053223 149.6288,50.5785124 143,50.5785124 L143,50.5785124 Z M143,67.2396694 C140.3504,67.2396694 138.2,65.1070413 138.2,62.4793388 C138.2,59.8516364 140.3504,57.7190083 143,57.7190083 C145.6496,57.7190083 147.8,59.8516364 147.8,62.4793388 C147.8,65.1070413 145.6496,67.2396694 143,67.2396694 L143,67.2396694 Z" id="Shape" fill="#E1E1E1" sketch:type="MSShapeGroup"></path>
            <path d="M128.601308,196.890288 C132.061385,194.707517 134.307692,191.251464 134.307692,187.345455 L134.26,185.57674 L134.307692,184.952066 L134.262385,183.279088 C161.625846,176.809759 182,152.162645 182,122.723967 C182,88.3573025 154.240692,60.4958678 120,60.4958678 C85.7593077,60.4958678 58,88.3573025 58,122.723967 C58,152.162645 78.3741538,176.809759 105.737615,183.279088 L105.692308,184.952066 L105.74,185.586314 L105.692308,187.345455 C105.692308,191.251464 107.938615,194.707517 111.398692,196.890288 C109.753308,208.725593 108.580077,222.111815 108.103154,239.404046 C112.013923,239.794169 115.981923,240 120,240 C124.018077,240 127.986077,239.794169 131.899231,239.404046 C131.422308,222.111815 130.249077,208.727987 128.601308,196.890288 L128.601308,196.890288 Z" id="Shape" fill="#F2F1EF" sketch:type="MSShapeGroup"></path>
            <path d="M117,61.4876033 C82.7593077,61.4876033 55,89.2575117 55,123.51128 C55,152.85325 75.3741538,177.419397 102.737615,183.867474 L102.692308,185.534956 L102.74,186.167121 L102.692308,187.920482 C102.692308,191.813661 104.938615,195.258361 108.398692,197.43396 C106.839154,208.61015 105.711231,221.203342 105.189,237.143426 C109.846154,237.699254 114.577231,238.016529 119.384615,238.016529 C122.565692,238.016529 125.708615,237.854313 128.827692,237.608604 C128.312615,221.446665 127.177538,208.717498 125.601308,197.43396 C129.061385,195.258361 131.307692,191.813661 131.307692,187.920482 L131.26,186.157579 L131.307692,185.534956 L131.262385,183.867474 C158.625846,177.419397 179,152.85325 179,123.51128 C179,89.2575117 151.240692,61.4876033 117,61.4876033 L117,61.4876033 Z" id="Shape" fill="#37A18E" sketch:type="MSShapeGroup"></path>
            <path d="M182,121.505526 C182,92.903264 162.515308,68.8473086 136.060385,61.7900707 C136.461,60.3610276 136.692308,58.8606512 136.692308,57.305586 C136.692308,48.1131056 129.218923,40.661157 120,40.661157 C110.781077,40.661157 103.307692,48.1131056 103.307692,57.305586 C103.307692,58.8606512 103.539,60.3610276 103.939615,61.7900707 C77.4846923,68.8473086 58,92.903264 58,121.505526 C58,150.752166 78.3741538,175.238498 105.737615,181.665626 L105.692308,183.327691 L105.74,183.957801 L105.692308,185.705466 C105.692308,189.585996 107.938615,193.019504 111.398692,195.188035 C109.734231,207.084047 108.549077,220.542256 108.081692,238.016529 L131.918308,238.016529 C131.453308,220.542256 130.268154,207.084047 128.601308,195.188035 C132.061385,193.019504 134.307692,189.585996 134.307692,185.705466 L134.26,183.94829 L134.307692,183.327691 L134.262385,181.665626 C161.625846,175.238498 182,150.752166 182,121.505526 L182,121.505526 Z M110.461538,57.305586 C110.461538,52.0530798 114.732385,47.7944837 120,47.7944837 C125.267615,47.7944837 129.538462,52.0530798 129.538462,57.305586 C129.538462,58.3732072 129.321462,59.381384 128.994769,60.3396276 C126.059308,59.9140058 123.057077,59.6833615 120,59.6833615 C116.942923,59.6833615 113.940692,59.9140058 111.002846,60.3396276 C110.678538,59.381384 110.461538,58.3732072 110.461538,57.305586 L110.461538,57.305586 Z" id="Shape" fill="#F2F1EF" sketch:type="MSShapeGroup"></path>
            <path d="M109,231.07438 C109.071671,229.477289 109.140871,227.870678 109.2249,226.31405 L132.7751,226.31405 C132.859129,227.870678 132.928329,229.477289 133,231.07438 L109,231.07438 L109,231.07438 Z M109.511585,221.553719 C109.615385,219.937587 109.726599,218.354777 109.842756,216.793388 L132.157244,216.793388 C132.273401,218.354777 132.384615,219.937587 132.488415,221.553719 L109.511585,221.553719 L109.511585,221.553719 Z M131.781588,212.033058 L110.213469,212.033058 C110.35434,210.416926 110.49274,208.817455 110.64844,207.272727 L131.346617,207.272727 C131.502317,208.817455 131.643188,210.416926 131.781588,212.033058 L131.781588,212.033058 Z" id="Shape" fill="#DBDDDD" sketch:type="MSShapeGroup"></path>
            <path d="M121,68.4297521 C150.270455,68.4297521 174,91.9631856 174,120.991736 C174,150.020285 150.270455,173.553719 121,173.553719 C91.7295455,173.553719 68,150.020285 68,120.991736 C68,91.9631856 91.7295455,68.4297521 121,68.4297521 L121,68.4297521 Z" id="Shape" fill="#93D3E8" sketch:type="MSShapeGroup"></path>
            <path d="M121,75.5196061 C149.056273,75.5196061 172.005273,96.9073325 173.862682,123.966942 C173.944591,122.794753 174,121.615474 174,120.422015 C174,91.7081062 150.270455,68.4297521 121,68.4297521 C91.7295455,68.4297521 68,91.7081062 68,120.422015 C68,121.615474 68.0554091,122.794753 68.1373182,123.966942 C69.9947273,96.9073325 92.9437273,75.5196061 121,75.5196061 L121,75.5196061 Z" id="Shape" fill="#84BDD0" sketch:type="MSShapeGroup"></path>
            <g id="Group" transform="translate(76.000000, 68.429752)" fill="#A9DCED" sketch:type="MSShapeGroup">
                <path d="M51.3674737,104.56012 C61.7029474,103.064493 71.0627368,98.6373403 78.5752632,92.167438 L26.3144211,2.83834711 C16.5769474,6.13063862 8.11778947,12.1250939 1.84968421,19.9186026 L51.3674737,104.56012 L51.3674737,104.56012 Z M47.0918947,0.126626597 C45.9297895,0.0501728024 44.7604211,0 43.5789474,0 C41.0537895,0 38.5722105,0.186356123 36.1390526,0.520841473 L85.5236842,84.9353869 C87.7704211,82.1042074 89.7314737,79.0460556 91.3584211,75.791991 L47.0918947,0.126626597 L47.0918947,0.126626597 Z" id="Shape"></path>
            </g>
            <g id="Group" transform="translate(76.000000, 68.429752)" fill="#98C6D5" sketch:type="MSShapeGroup">
                <path d="M45.9750909,0.129015778 C44.8405455,0.0511194591 43.6989091,0 42.5454545,0 C40.0801818,0 37.6574545,0.189872276 35.282,0.53066867 L39.1725455,7.4707438 C40.2929091,7.397716 41.4085455,7.30277986 42.5454545,7.30277986 C45.2116364,7.30277986 47.8116364,7.5681142 50.3714545,7.96733283 L45.9750909,0.129015778 L45.9750909,0.129015778 Z M25.6903636,2.89190083 C16.1838182,6.24631104 7.92527273,12.3538693 1.80581818,20.2944252 L4.26163636,24.6760932 C10.8656364,17.2637716 19.4669091,11.7964237 29.1932727,9.13821187 L25.6903636,2.89190083 L25.6903636,2.89190083 Z" id="Shape"></path>
            </g>
            <path d="M120,198.013139 C116.836,198.013139 113.926333,197.134829 111.583667,195.667889 L111.285,197.802252 C113.676667,199.380428 116.703,200.330579 120,200.330579 C123.297,200.330579 126.323333,199.380428 128.715,197.802252 L128.416333,195.667889 C126.073667,197.134829 123.161667,198.013139 120,198.013139 L120,198.013139 Z M106.186667,184.796779 C110.629333,185.825722 115.24,186.425939 120,186.425939 C124.76,186.425939 129.370667,185.825722 133.815667,184.796779 C133.878667,185.431757 133.927667,186.319337 133.960333,187.114219 L134,186.425939 C134,185.788643 133.937,183.675138 133.815667,182.479339 C129.370667,183.508282 124.76,184.108499 120,184.108499 C115.24,184.108499 110.629333,183.508282 106.186667,182.479339 C106.065333,183.675138 106,185.788643 106,186.425939 L106.044333,187.125806 C106.074667,186.328607 106.123667,185.434075 106.186667,184.796779 L106.186667,184.796779 Z" id="Shape" fill="#CFCECC" sketch:type="MSShapeGroup"></path>
        </g>
    </g>
</svg>