<?xml version="1.0" encoding="UTF-8" standalone="no"?>
<svg width="240px" height="239px" viewBox="0 0 240 239" version="1.1" xmlns="http://www.w3.org/2000/svg" xmlns:xlink="http://www.w3.org/1999/xlink" xmlns:sketch="http://www.bohemiancoding.com/sketch/ns">
    <!-- Generator: Sketch 3.4.1 (15681) - http://www.bohemiancoding.com/sketch -->
    <title>picturebox</title>
    <desc>Created with Sketch.</desc>
    <defs></defs>
    <g id="Page-1" stroke="none" stroke-width="1" fill="none" fill-rule="evenodd" sketch:type="MSPage">
        <g id="picture" sketch:type="MSLayerGroup">
            <g id="Group" sketch:type="MSShapeGroup">
                <rect id="Shape" fill="#2998BE" x="0" y="0" width="240" height="238.016529" rx="11"></rect>
                <path d="M43.0208,84.5384 L165.7304,51.6584 C169.6016,50.6192 173.5784,52.892 174.6056,56.732 L198.8288,147.1328 C199.8584,150.9752 197.5544,154.928 193.6784,155.9672 L70.9712,188.8472 C67.0976,189.8864 63.1232,187.6136 62.096,183.7736 L37.8728,93.3704 C36.8432,89.5304 39.1496,85.5752 43.0208,84.5384 L43.0208,84.5384 Z M63.2912,84.2312 L190.3304,84.2312 C194.3384,84.2312 197.588,87.4544 197.588,91.4312 L197.588,185.0216 C197.588,188.996 194.3384,192.2216 190.3304,192.2216 L63.2912,192.2216 C59.2808,192.2216 56.0336,188.996 56.0336,185.0216 L56.0336,91.4312 C56.0336,87.4544 59.2808,84.2312 63.2912,84.2312 L63.2912,84.2312 Z" id="Shape" fill="#2998BE"></path>
                <path d="M197.588,153.3032 L197.588,142.508 L181.9736,84.2312 L63.2912,84.2312 C59.2808,84.2312 56.0336,87.4544 56.0336,91.4312 L56.0336,161.144 L62.096,183.7736 C63.1256,187.616 67.0976,189.8864 70.9712,188.8472 L193.6784,155.9696 C195.3152,155.5304 196.6472,154.5536 197.588,153.3032 L197.588,153.3032 Z" id="Shape" fill="#268BAE"></path>
                <path d="M45.4208,79.7384 L168.1304,46.8584 C172.0016,45.8192 175.9784,48.092 177.0056,51.932 L201.2288,142.3328 C202.2584,146.1752 199.9544,150.128 196.0784,151.1672 L73.3712,184.0472 C69.4976,185.0864 65.5232,182.8136 64.496,178.9736 L40.2728,88.5704 C39.2432,84.7304 41.5496,80.7752 45.4208,79.7384 L45.4208,79.7384 Z" id="Shape" fill="#EDEDED"></path>
                <path d="M197.588,150.5624 L197.588,128.7488 L185.66,84.2312 L63.2912,84.2312 C59.2808,84.2312 56.0336,87.4544 56.0336,91.4312 L56.0336,147.3848 L64.496,178.9712 C65.5256,182.8136 69.4976,185.084 73.3712,184.0448 L196.0784,151.1672 C196.616,151.0256 197.1152,150.812 197.588,150.5624 L197.588,150.5624 Z" id="Shape" fill="#D5D5D5"></path>
                <path d="M55.472,86.9264 L162.9464,58.1288 C165.9128,57.3344 168.9632,59.0888 169.7552,62.0504 L189.872,137.1224 C190.664,140.0816 188.9048,143.1272 185.9336,143.924 L78.4616,172.7192 C75.4952,173.516 72.4448,171.7592 71.6504,168.7976 L51.536,93.7256 C50.744,90.7688 52.5056,87.7208 55.472,86.9264 L55.472,86.9264 Z" id="Shape" fill="#4681A0"></path>
                <path d="M175.7,84.2312 L65.5328,84.2312 L58.4,86.144 C56.9552,87.4592 56.0336,89.3312 56.0336,91.4312 L56.0336,110.5064 L71.6528,168.8 C72.4472,171.7592 75.4976,173.5184 78.464,172.7216 L185.936,143.9264 C188.9048,143.1296 190.6664,140.084 189.8744,137.1248 L175.7,84.2312 L175.7,84.2312 Z" id="Shape" fill="#3F7490"></path>
                <path d="M68.0912,79.4312 L195.1304,79.4312 C199.1384,79.4312 202.388,82.6544 202.388,86.6312 L202.388,180.2216 C202.388,184.196 199.1384,187.4216 195.1304,187.4216 L68.0912,187.4216 C64.0808,187.4216 60.8336,184.196 60.8336,180.2216 L60.8336,86.6312 C60.8336,82.6544 64.0808,79.4312 68.0912,79.4312 L68.0912,79.4312 Z" id="Shape" fill="#F6F6F6"></path>
                <path d="M75.9416,88.9784 L187.2056,88.9784 C190.2776,88.9784 192.7688,91.4648 192.7688,94.5296 L192.7688,172.2488 C192.7688,175.3136 190.2776,177.7976 187.2056,177.7976 L75.9416,177.7976 C72.8696,177.7976 70.3784,175.3136 70.3784,172.2488 L70.3784,94.5296 C70.376,91.4624 72.8672,88.9784 75.9416,88.9784 L75.9416,88.9784 Z" id="Shape" fill="#A3E0F5"></path>
                <path d="M80.012,151.3736 C76.6784,151.3736 73.4624,151.652 70.376,152.1248 L70.376,172.2464 C70.376,175.3112 72.8672,177.7952 75.9392,177.7952 L117.896,177.7952 C118.2104,176.6192 118.4216,175.4216 118.4216,174.1904 C118.424,161.5928 101.2256,151.3736 80.012,151.3736 L80.012,151.3736 Z" id="Shape" fill="#3DB39E"></path>
                <path d="M192.7688,172.2488 L192.7688,142.3688 C185.3336,140.456 177.176,139.4 168.6128,139.4 C134.0504,139.4 106.028,156.5936 106.028,177.8 L187.2056,177.8 C190.2776,177.7976 192.7688,175.3136 192.7688,172.2488 L192.7688,172.2488 Z" id="Shape" fill="#4BC2AD"></path>
                <path d="M70.376,94.5296 L70.376,122.3312 C71.5568,122.4728 72.7496,122.5664 73.9688,122.5664 C90.536,122.5664 103.9664,109.1432 103.9664,92.5832 C103.9664,91.3616 103.8704,90.1616 103.7288,88.9784 L75.9416,88.9784 C72.8672,88.9784 70.376,91.4624 70.376,94.5296 L70.376,94.5296 Z" id="Shape" fill="#EFC75E"></path>
            </g>
        </g>
    </g>
</svg>