<?xml version="1.0" encoding="UTF-8" standalone="no"?>
<svg width="280px" height="280px" viewBox="0 0 280 280" version="1.1" xmlns="http://www.w3.org/2000/svg" xmlns:xlink="http://www.w3.org/1999/xlink" xmlns:sketch="http://www.bohemiancoding.com/sketch/ns">
    <!-- Generator: Sketch 3.3.3 (12081) - http://www.bohemiancoding.com/sketch -->
    <title>Wardrobe</title>
    <desc>Created with Sketch.</desc>
    <defs></defs>
    <g id="Iconography" stroke="none" stroke-width="1" fill="none" fill-rule="evenodd" sketch:type="MSPage">
        <g id="Icons" sketch:type="MSArtboardGroup" transform="translate(-370.000000, -41.000000)">
            <g id="Wardrobe" sketch:type="MSLayerGroup" transform="translate(370.000000, 41.000000)">
                <path d="M140,0 C217.3192,0 280,62.6808 280,140 C280,217.3192 217.3192,280 140,280 C62.6808,280 0,217.3192 0,140 C0,62.6808 62.6808,0 140,0 L140,0 Z" id="Shape" fill="#EFC75E" sketch:type="MSShapeGroup"></path>
                <path d="M186.256,28.0028 C169.9964,28.0028 156.7692,41.0872 156.7692,57.1732 C156.7692,70.5908 167.202,81.998 179.6928,85.386 C180.9528,85.7276 181.8656,86.814 181.8656,88.1216 L181.8656,114.8756 C181.8656,116.4268 183.1228,117.684 184.674,117.684 C186.2252,117.684 187.4824,116.4268 187.4824,114.8756 L187.4824,84.1764 L187.4656,84.0924 L187.4824,84.014 C187.4824,82.6112 186.4212,81.4184 185.0128,81.2728 C173.0064,80.0464 162.386,69.37 162.386,57.1732 C162.386,44.1532 173.0932,33.558 186.256,33.558 C198.5872,33.558 208.7624,41.4484 210,53.3288 C210.1484,54.726 211.3524,56.0364 212.772,56.0364 C214.4576,56.0364 215.8464,54.838 215.6644,53.1776 C214.0852,38.556 201.4516,28.0028 186.256,28.0028 L186.256,28.0028 Z" id="Shape" fill="#F4EECC" sketch:type="MSShapeGroup"></path>
                <path d="M0.8176,124.9416 L256.4072,62.2216 C246.9796,48.1376 235.0488,35.8848 221.2728,26.0456 L15.1816,76.6164 C7.6552,91.406 2.6628,107.6964 0.8176,124.9416 L0.8176,124.9416 Z" id="Shape" fill="#DEDEDE" sketch:type="MSShapeGroup"></path>
                <path d="M0.8176,124.9416 L256.4072,62.2216 C254.1196,58.8028 251.6696,55.5016 249.0964,52.304 L2.6684,112.7756 C1.8788,116.774 1.2572,120.8284 0.8176,124.9416 L0.8176,124.9416 Z" id="Shape" fill="#BDBDBD" sketch:type="MSShapeGroup"></path>
                <path d="M6.286,98.4004 L239.218,41.2384 C236.1464,38.15 232.9264,35.2128 229.5804,32.424 L10.724,86.212 C9.0664,90.188 7.5768,94.248 6.286,98.4004 L6.286,98.4004 Z" id="Shape" fill="#EBEBEB" sketch:type="MSShapeGroup"></path>
                <path d="M187.8268,27.9972 C178.4748,27.9972 170.1224,32.2252 164.6484,38.8136 L178.0296,35.5936 C180.5524,34.4932 183.302,33.8184 186.1916,33.628 L186.354,33.5888 L186.354,33.6224 L187.8268,33.5496 C200.3092,33.5496 210.6076,41.4344 211.8648,53.3008 C212.0132,54.6952 213.2312,56.0056 214.6676,56.0056 C216.3728,56.0056 217.7756,54.8072 217.5964,53.1496 C216.0004,38.5392 203.2072,27.9972 187.8268,27.9972 L187.8268,27.9972 Z" id="Shape" fill="#F4EECC" sketch:type="MSShapeGroup"></path>
                <path d="M184.8,100.8 C187.8912,100.8 190.4,103.3088 190.4,106.4 L190.4,112 L179.2,112 L179.2,106.4 C179.2,103.3088 181.7088,100.8 184.8,100.8 L184.8,100.8 Z" id="Shape" fill="#BEACAC" sketch:type="MSShapeGroup"></path>
                <path d="M184.8,100.8 C182.5264,100.8 180.5804,102.158 179.704,104.104 C180.4068,103.7848 181.1796,103.6 182,103.6 C185.0912,103.6 187.6,106.1088 187.6,109.2 L187.6,112 L190.4,112 L190.4,106.4 C190.4,103.3088 187.8912,100.8 184.8,100.8 L184.8,100.8 Z" id="Shape" fill="#AB9A9A" sketch:type="MSShapeGroup"></path>
                <path d="M278.6308,159.4152 L202.5352,113.5988 C191.464,107.702 178.1388,107.702 167.0704,113.5988 L38.094,191.254 C33.6532,193.62 32.2336,199.2536 35.0308,203.406 C37.1588,206.5616 41.146,207.9308 44.7916,206.7604 L173.2724,160.1488 C180.768,157.7492 188.8376,157.7492 196.3304,160.1488 L271.7204,187.502 C274.9544,178.528 277.2812,169.1284 278.6308,159.4152 L278.6308,159.4152 Z" id="Shape" fill="#CA824F" sketch:type="MSShapeGroup"></path>
                <path d="M202.5352,113.5988 C191.464,107.702 178.1388,107.702 167.0704,113.5988 L165.3708,114.6208 C175.5768,110.6 187.1352,111.1796 196.9352,116.3988 L273.0308,162.2124 L278.6308,159.4124 L202.5352,113.5988 L202.5352,113.5988 Z" id="Shape" fill="#B57547" sketch:type="MSShapeGroup"></path>
                <path d="M140,280 C91.1848,280 48.2272,255.0016 23.1728,217.126 C26.8268,192.2088 43.3944,170.7048 67.214,161.0672 L117.9444,142.8 L120.1508,142.8 C118.5016,145.4712 117.6,148.2852 117.6,151.2 C117.6,168.21 147.686,182 184.8,182 C221.914,182 252,168.21 252,151.2 C252,148.2852 251.0984,145.4712 249.4492,142.8 L252.448,142.8 L279.426,152.3368 C273.1764,223.874 213.1612,280 140,280 L140,280 Z" id="Shape" fill="#324D5B" sketch:type="MSShapeGroup"></path>
                <path d="M263.2,158.2 C263.2,153.8264 261.2652,149.212 257.7988,144.6928 L252.448,142.8 L249.4492,142.8 C251.0984,145.4712 252,148.2852 252,151.2 C252,168.21 221.914,182 184.8,182 C147.686,182 117.6,168.21 117.6,151.2 C117.6,148.2852 118.5016,145.4712 120.1508,142.8 L117.9444,142.8 L110.9976,145.3032 C108.0324,149.6264 106.4,154.0224 106.4,158.2 C106.4,177.5312 140.8736,193.2 183.4,193.2 C225.9264,193.2 263.2,177.5312 263.2,158.2 L263.2,158.2 Z" id="Shape" fill="#526068" sketch:type="MSShapeGroup"></path>
            </g>
        </g>
    </g>
</svg>