<svg width="2047" height="813" viewBox="0 0 2047 813" xmlns="http://www.w3.org/2000/svg"><title>LaLaLand</title><desc>Created with Sketch.</desc><g transform="translate(0 -171) translate(-1 171)" fill="none"><g><g><path d="M1757 568.564c-9.77-3.735-21.57-.7-28.883 8.25-2.518 3.085-4.18 6.55-5.117 10.115h14.854V592l3.347-4.094-1.982-4.35 4.69 1.033 6.32-7.737-1.982-4.35 4.69 1.033 4.064-4.972" fill="#46A046"/><path d="M1715.146 592v-5.07H1730c-.937-3.566-2.6-7.03-5.117-10.117-7.313-8.95-19.115-11.984-28.883-8.25l4.063 4.973 4.69-1.034-1.982 4.35 6.322 7.737 4.69-1.035-1.983 4.35 3.346 4.095" fill="#46A046"/><path d="M1726.26 593h-10.957c-1.22 5.303-5.71 26.053 2.624 55H1741c-17.542-18.182-15.815-45.38-14.74-55" fill="#BE9664"/><path d="M1751.482 582.735c-8.103-4.426-17.267-4.787-24.982-1.778-7.716-3.01-16.88-2.648-24.983 1.778-11.467 6.265-17.244 18.7-15.063 30.265l6.373-3.48-.202-5.398 4.45 3.078 9.91-5.413-.2-5.4 4.45 3.078 15.265-8.337 15.265 8.337 4.45-3.077-.2 5.4 9.91 5.412 4.45-3.078-.203 5.4 6.373 3.478c2.184-11.566-3.596-24-15.063-30.265" fill="#8CBE3C"/></g><path d="M2048 613s-148.593 87.83-214 87.83c-121.493 0-224 35.726-384 0C1290 665.1 1280.816 613 1178 613c-4.25 0-149.497 74.432-154 74.432-130.83 0-120.915-74.432-252-74.432-3.68 0-281.358 38.704-285 38.704-152.358 0-30.68-38.704-183-38.704-57.552 0-86.104 87.83-144 87.83C116.563 700.83 0 613 0 613v200h2048V613z" id="Rectangle-318" fill="#38B69F"/><g fill="#7EA29C"><path d="M933.5 602.5h28v135h-28zM965.5 558.5h14v181h-14zM983.5 544.5h32v175h-32z"/></g><path d="M0 648s148.593 59.724 214 59.724c121.493 0 224 24.294 384 0C758 683.43 767.184 648 870 648c4.25 0 149.497 50.613 154 50.613 130.83 0 120.915-50.613 252-50.613 3.68 0 281.358 26.32 285 26.32 152.358 0 30.68-26.32 183-26.32 57.552 0 86.104 59.724 144 59.724 43.437 0 160-59.724 160-59.724v165H0V648z" id="Rectangle-318" fill="#2F9C88"/><path d="M0 731.457S309.692 789.18 487.114 747.2C664.536 705.22 674.72 644 788.73 644c4.713 0 165.777 87.457 170.77 87.457 145.076 0 134.08-87.457 279.44-87.457 4.08 0 311.993 45.478 316.032 45.478 168.948 0 34.02-45.478 202.926-45.478 63.82 0 122.9 72 187.102 72 48.167 0 103-17 103-17v110H0v-77.543z" fill="#FCD997"/><path d="M128 785.436c132.6 0 255.21 33.778 414.793 15.915 168.9-17.863 171.228-43.914 290.805-43.914 4.94 0 169.935 37.216 174.9 37.216 144.22 0 144.83-37.216 297.282-37.216 4.28 0 308.21 19.352 312.33 19.352 172.39 0 58.1-8.942 240.89 0 95 4.648 189-47.352 189-47.352v71.915H0V776.79s56.613 8.648 128 8.648z" id="Rectangle-318" fill="#E2E6E8"/><path d="M128 791c132.6 0 255.21 33.778 414.793 15.915C711.693 789.05 714.02 763 833.598 763c4.94 0 169.935 37.216 174.9 37.216 144.22 0 144.83-37.216 297.282-37.216 4.28 0 308.21 19.352 312.33 19.352 172.39 0 58.1-8.943 240.89 0C1954 787 2048 735 2048 735v71.915H0v-24.563S56.613 791 128 791z" fill="#93D3E8"/></g><path d="M1 331h2048v246H1z"/><path d="M721.754 621.314l-.385 7.238-3.828 1.392.39-7.253-1.21.44-.92 16.705 1.214-.452.387-6.91 3.828-1.4-.386 6.898 1.22-.446.908-16.646-1.218.436zm5.47 14.455c2.18-.784 4.082-5.054 4.337-9.785.243-4.734-1.265-7.767-3.437-7.004-2.167.767-4.032 4.977-4.287 9.755-.262 4.75 1.212 7.82 3.387 7.034zm.153-2.516c-1.427.513-2.477-1.667-2.296-4.967.177-3.3 1.494-6.287 2.927-6.794 1.424-.503 2.46 1.646 2.29 4.938-.177 3.29-1.49 6.312-2.92 6.824zm5.914-16.012l-.863 16.55 4.426-1.56.14-2.52-3.186 1.116.715-14.013-1.23.427zm5.583-1.927l-.828 16.5 4.454-1.545.134-2.514-3.205 1.107.68-13.97-1.237.422zm10.08-3.408l-2.41 8.7-1.766-7.3-1.252.425 2.257 10.133-.278 5.373 1.245-.425.28-5.463 3.19-11.866-1.267.423zm11.083-3.65l-2.297 13.86-1.31-12.683-1.23.427-2.338 13.876-1.255-12.712-1.343.446 1.75 15.56 1.306-.438 2.35-13.35 1.237 12.155 1.302-.43 3.126-17.13-1.3.42zm4.918 14.613c2.267-.734 4.17-4.89 4.325-9.525.124-4.638-1.534-7.635-3.77-6.922-2.23.717-4.062 4.816-4.22 9.497-.186 4.655 1.402 7.687 3.664 6.95zm.117-2.464c-1.48.48-2.615-1.672-2.492-4.905.11-3.233 1.405-6.14 2.882-6.616 1.47-.47 2.607 1.653 2.513 4.878-.11 3.224-1.42 6.165-2.902 6.644zm8.388-.267c2.283-.725 4.173-4.857 4.293-9.47.087-4.616-1.613-7.606-3.86-6.903-2.244.706-4.055 4.78-4.18 9.44-.153 4.633 1.47 7.658 3.748 6.932zm.102-2.454c-1.492.474-2.652-1.674-2.552-4.892.085-3.22 1.368-6.11 2.853-6.577 1.478-.463 2.645 1.654 2.577 4.864-.084 3.21-1.384 6.134-2.877 6.606zm8.454-.35c2.332-.722 4.1-4.638 4.183-9.276.043-4.664-1.595-7.54-3.864-6.846l-3.096.955-.34 16.14 3.117-.974zm2.883-8.855c-.058 3.264-1.253 5.936-2.745 6.398l-1.884.586.22-11.244 1.81-.557c1.494-.46 2.638 1.53 2.6 4.818z" opacity=".716" fill="#fff"/><circle fill="#F2C400" cx="233" cy="139" r="139"/></g></svg>