<svg xmlns="http://www.w3.org/2000/svg" width="100" height="100" viewBox="0 0 100 100"><path fill="#CCD0D2" d="M9.628 9.627C.278 18.977-.448 33.733 7.426 43.964c.165-1.17.38-2.325.636-3.464-5.652-9.11-4.562-21.235 3.32-29.118 7.89-7.888 20.028-8.974 29.14-3.308 1.138-.256 2.292-.47 3.463-.633-10.233-7.89-25-7.17-34.357 2.187zm78.99 1.755c7.88 7.88 8.97 20 3.326 29.108.258 1.14.473 2.293.638 3.465 7.865-10.23 7.138-24.98-2.21-34.328C81.016.27 66.25-.45 56.017 7.44c1.17.164 2.325.376 3.464.633 9.113-5.665 21.25-4.58 29.137 3.31zm3.964 44.662c-.165 1.172-.38 2.326-.638 3.466 5.645 9.11 4.553 21.227-3.327 29.106-7.888 7.888-20.023 8.975-29.136 3.312-1.138.256-2.293.47-3.464.633 10.234 7.89 25 7.168 34.356-2.187 9.348-9.348 10.075-24.097 2.21-34.33zm-81.2 32.572C3.5 80.733 2.41 68.61 8.063 59.5c-.257-1.14-.47-2.294-.636-3.465-7.874 10.232-7.148 24.987 2.2 34.337 9.357 9.355 24.125 10.077 34.358 2.188-1.17-.164-2.324-.378-3.462-.634-9.114 5.666-21.25 4.58-29.14-3.31z"/><path fill="#E2574C" d="M50-.01C22.38-.01-.01 22.38-.01 50S22.38 100.01 50 100.01 100.01 77.62 100.01 50 77.62-.01 50-.01zm0 74.998C36.2 74.988 25.013 63.8 25.013 50 25.013 36.2 36.2 25.012 50 25.012S74.988 36.2 74.988 50C74.988 63.8 63.8 74.988 50 74.988z"/><path fill="#E4645A" d="M50 7C26.252 7 7 26.25 7 50s19.252 43 43 43 43-19.253 43-43S73.748 7 50 7zm0 83c-22.092 0-40-17.91-40-40 0-22.092 17.908-40 40-40s40 17.908 40 40c0 22.09-17.908 40-40 40z"/><path d="M8.125 22.674l18.498 18.498c.8-2.12 1.882-4.103 3.198-5.903L12.03 17.475c-1.41 1.644-2.716 3.38-3.905 5.198zM22.652 91.86L41.145 73.37c-2.117-.803-4.096-1.884-5.894-3.2l-17.79 17.79c1.644 1.41 3.376 2.714 5.192 3.903zm42.08-21.68c-1.8 1.316-3.782 2.397-5.902 3.198l18.496 18.496c1.82-1.188 3.554-2.494 5.198-3.903L64.732 70.18zm23.226-52.72l-17.79 17.792c1.316 1.797 2.397 3.776 3.2 5.894L91.86 22.653c-1.188-1.817-2.493-3.55-3.902-5.192z" fill="#D85349"/><path fill="#D95449" d="M50 19c-17.12 0-31 13.878-31 31s13.88 31 31 31 31-13.88 31-31-13.88-31-31-31zm0 55.988C36.2 74.988 25.013 63.8 25.013 50 25.013 36.2 36.2 25.012 50 25.012S74.988 36.2 74.988 50C74.988 63.8 63.8 74.988 50 74.988z"/><path fill="#D05046" d="M22.042 36.59l4.58 4.58c.192-.51.403-1.01.627-1.5l.047-.107c.458-.993.977-1.95 1.556-2.868l.065-.1c.286-.45.585-.89.898-1.32l.004-.006-4.29-4.292c-1.35 1.735-2.526 3.612-3.488 5.613zm52.415-5.628l-4.29 4.29c.315.43.615.87.902 1.32l.067.107c.58.917 1.1 1.875 1.56 2.868l.04.086c.225.495.437.998.63 1.51l4.58-4.58c-.963-1.996-2.14-3.87-3.49-5.602zM64.732 70.18l-.02.013c-.42.308-.853.6-1.294.882l-.122.078c-.912.575-1.863 1.092-2.85 1.546l-.127.057c-.49.223-.986.432-1.49.622l4.577 4.577c2.002-.96 3.88-2.137 5.613-3.487l-4.288-4.29zm-23.586 3.188c-.51-.193-1.014-.405-1.508-.632l-.09-.04c-.99-.458-1.948-.98-2.865-1.558l-.11-.07c-.448-.286-.887-.584-1.314-.897l-.006-.003-4.29 4.288c1.733 1.35 3.607 2.527 5.605 3.49l4.576-4.577z"/><path fill="#DA5E54" d="M13.2 27.748l2.196 2.197c1.1-1.894 2.34-3.695 3.727-5.375l-2.126-2.126c-1.394 1.666-2.667 3.437-3.798 5.304zm69.79-5.32l-2.125 2.126c1.385 1.678 2.626 3.477 3.727 5.368l2.196-2.197c-1.13-1.864-2.404-3.632-3.797-5.297zm-7.56 58.448c-1.68 1.386-3.48 2.627-5.375 3.727l2.197 2.197c1.867-1.132 3.638-2.403 5.305-3.797l-2.127-2.127zM29.923 84.59c-1.89-1.1-3.69-2.34-5.368-3.726L22.43 82.99c1.664 1.393 3.432 2.666 5.296 3.797l2.197-2.196z"/><path d="M38.388 72.125c-4.496-2.364-8.18-6.058-10.535-10.56L9.748 79.672c2.97 4.022 6.523 7.58 10.54 10.554l18.1-18.1zm23.18-44.273c4.5 2.356 8.192 6.04 10.557 10.536l18.1-18.1C87.25 16.272 83.69 12.72 79.67 9.75L61.568 27.852zM9.76 20.312l18.102 18.1c2.36-4.5 6.05-8.19 10.55-10.55L20.313 9.76c-4.02 2.97-7.58 6.53-10.55 10.55zM90.24 79.686l-18.1-18.102c-2.36 4.5-6.05 8.19-10.55 10.552l18.1 18.1c4.02-2.97 7.58-6.53 10.55-10.55z" fill="#EFEFEF"/><path fill="#F1F1F1" d="M25.315 85.197l2.15-2.15c-4.138-2.827-7.718-6.41-10.54-10.553l-2.152 2.15c2.875 4.102 6.445 7.675 10.542 10.553zm59.9-10.536l-2.15-2.15c-2.826 4.143-6.408 7.726-10.55 10.552l2.15 2.15c4.1-2.877 7.673-6.45 10.55-10.55zm-10.57-59.888l-2.15 2.15c4.143 2.823 7.726 6.403 10.553 10.542l2.15-2.15c-2.878-4.097-6.45-7.667-10.552-10.542zm-59.86 10.563l2.152 2.15c2.826-4.14 6.41-7.724 10.55-10.55l-2.15-2.15c-4.1 2.877-7.673 6.45-10.55 10.55z"/><path fill="#E6E6E6" d="M27.863 38.412c.88-1.68 1.95-3.248 3.175-4.676l.033-.04c.81-.938 1.69-1.817 2.63-2.627l.04-.035c1.426-1.226 2.992-2.292 4.672-3.173l-4.415-4.417c-4.316 2.606-7.944 6.234-10.55 10.55l4.416 4.417zm38.12-14.977l-4.416 4.417.004.002c1.682.88 3.248 1.945 4.677 3.17l.034.028c.94.81 1.82 1.685 2.63 2.624l.04.046c.813.947 1.56 1.954 2.225 3.016l.004.005c.334.535.65 1.083.945 1.645l4.415-4.415c-2.61-4.312-6.24-7.935-10.556-10.538zm6.156 38.15c-.882 1.68-1.948 3.247-3.174 4.675l-.036.04c-.81.94-1.688 1.818-2.627 2.628l-.04.034c-1.427 1.226-2.993 2.294-4.674 3.175l4.414 4.415c4.315-2.606 7.944-6.235 10.55-10.552l-4.415-4.415zM36.745 71.18l-.013-.008c-1.06-.665-2.064-1.408-3.01-2.22l-.05-.045c-.938-.81-1.814-1.688-2.622-2.628l-.026-.033c-1.225-1.43-2.29-2.998-3.17-4.68l-4.418 4.416c2.603 4.315 6.227 7.946 10.538 10.556l4.414-4.415c-.56-.295-1.108-.61-1.642-.945z"/></svg>