<svg width="100" height="100" viewBox="0 0 100 100" xmlns="http://www.w3.org/2000/svg"><title>boy</title><desc>Created with Sketch.</desc><g fill="none"><path d="M50 0c27.614 0 50 22.386 50 50s-22.386 50-50 50S0 77.614 0 50C0 22.385 22.386 0 50 0z" id="Shape" fill="#EFC75E"/><path d="M83 79c0-7.732-6.268-14-14-14H31c-7.732 0-14 6.268-14 14v8.547C25.806 95.293 37.35 100 50 100c12.65 0 24.193-4.707 33-12.453V79z" id="Shape" fill="#324D5B"/><path d="M17 78.556v8.99c1.583 1.395 3.248 2.697 5 3.884V78.556c0-7.62 6.268-13.798 14-13.798h-5c-7.732 0-14 6.178-14 13.798z" id="Shape" fill="#2B424D"/><path d="M41.5 51h17C65.403 51 71 56.597 71 63.5S65.403 76 58.5 76h-17C34.597 76 29 70.403 29 63.5S34.597 51 41.5 51z" id="Shape" fill="#5B717C"/><path d="M43 24h14c6.627 0 12 5.373 12 12v24c0 6.627-5.373 12-12 12H43c-6.627 0-12-5.373-12-12V36c0-6.627 5.373-12 12-12z" id="Shape" fill="#E9AD9A"/><path d="M50 52.022V36H31v24c0 6.627 5.373 12 12 12h7V59.99c-5.714-7.968 0-6.61 0-7.968z" id="Shape" fill="#D49F8F"/><path d="M62.5 42h-6c-.828 0-1.5.672-1.5 1.5s.672 1.5 1.5 1.5h6c.828 0 1.5-.672 1.5-1.5s-.672-1.5-1.5-1.5zm-19 0h-6c-.828 0-1.5.672-1.5 1.5s.672 1.5 1.5 1.5h6c.828 0 1.5-.672 1.5-1.5s-.672-1.5-1.5-1.5z" id="Shape" fill="#828282"/><path d="M40.5 48c-1.38 0-2.5 1.12-2.5 2.5s1.12 2.5 2.5 2.5 2.5-1.12 2.5-2.5-1.12-2.5-2.5-2.5zm19 0c-1.38 0-2.5 1.12-2.5 2.5s1.12 2.5 2.5 2.5 2.5-1.12 2.5-2.5-1.12-2.5-2.5-2.5z" id="Shape" fill="#324D5B"/><path d="M32 24c13.885-5.104 42-4 42-4 2.13 0 3 1.293 3 3 0 8.692-5.676 13-8 13H31c-2.61 0-4-2.238-4-5 0-2.082 1.166-5.545 5-7z" id="Shape" fill="#E37948"/><path d="M71 34H33c-2.61 0-4-2.238-4-5 0-1.144.356-2.705 1.31-4.12C27.816 26.57 27 29.264 27 31c0 .2.023.388.037.58L27 32v6c0 2.418 1.718 4.436 4 4.9V36h38c1.167 0 3.18-1.09 4.895-3.272C72.785 33.576 71.73 34 71 34z" fill="#D27043"/></g></svg>