<svg width="360" height="190" viewBox="0 0 360 190" xmlns="http://www.w3.org/2000/svg" xmlns:xlink="http://www.w3.org/1999/xlink"><title>DigitalLandingGold-Mobile + Modern check in and</title><desc>Created with Sketch.</desc><defs><path id="a" d="M0 0h360v190H0z"/><path id="c" d="M31.794 0C14.234 0 0 14.098 0 31.488s14.235 31.49 31.794 31.49c17.56 0 31.795-14.1 31.795-31.49S49.353 0 31.793 0z"/></defs><g fill="none"><g transform="translate(-8 -1655) translate(8 1655)"><mask id="b"><use xlink:href="#a"/></mask><use fill="#F2C400" xlink:href="#a"/><g mask="url(#b)"><g id="android"><path d="M205.62 118.6h-52.44c-4.406 0-7.98 3.512-7.98 7.842v66.094c9.527 7.032 21.368 11.203 34.2 11.203 12.834 0 24.675-4.172 34.2-11.204v-66.094c0-4.33-3.572-7.842-7.98-7.842z" id="Shape" fill="#E4E7E7"/><path d="M208.628 131.844h-59.095c-.628 0-1.137.503-1.137 1.123v61.866c8.852 5.628 19.38 8.906 30.684 8.906 11.307 0 21.833-3.28 30.684-8.907v-61.866c0-.62-.508-1.123-1.136-1.123z" id="Shape" fill="#344C59"/><path d="M207.847 134.366h-56.894v61.87c8.37 4.762 18.082 7.503 28.447 7.503 10.367 0 20.078-2.742 28.447-7.504v-61.87z" id="Shape" fill="#3F5E6D"/><path d="M184.706 123.015H173.2c-.637 0-1.15.566-1.15 1.26 0 .697.513 1.262 1.15 1.262h11.506c.636 0 1.15-.565 1.15-1.262 0-.694-.514-1.26-1.15-1.26zm-140.598-118.6c-.636 0-1.15.566-1.15 1.26 0 .697.514 1.262 1.15 1.262.637 0 1.15-.565 1.15-1.262 0-.694-.513-1.26-1.15-1.26zm4.603 0c-.635 0-1.15.566-1.15 1.26 0 .697.515 1.262 1.15 1.262.637 0 1.152-.565 1.152-1.262 0-.694-.515-1.26-1.15-1.26z" id="Shape" fill="#BFC3C5"/></g><g><path d="M155.3 160.854c-1.694 0-3.068 1.13-3.068 2.523v33.862c6.92 5.577 16.393 6.5 26.85 6.5 10.455 0 19.928-.923 26.847-6.5v-33.863c0-1.394-1.375-2.523-3.07-2.523H155.3z" id="Shape" fill="#E2574C"/><path d="M158.272 166.53c-.864 0-1.565.565-1.565 1.26v32.618c6.402 3.68 14.23 4.592 22.693 4.592 8.463 0 16.292-.91 22.694-4.592V167.79c0-.695-.7-1.26-1.565-1.26H158.27z" id="Shape" fill="#F0DDAB"/><path d="M202.86 160.854H155.3c-1.694 0-3.068 1.13-3.068 2.523v1.26c0-1.392 1.374-2.522 3.068-2.522h47.56c1.695 0 3.07 1.13 3.07 2.523v-1.26c0-1.395-1.375-2.524-3.07-2.524z" id="Shape" fill="#BF392B"/><path d="M193.656 194.28h-29.15c-.425 0-.767.28-.767.63 0 .348.34.63.766.63h29.15c.424 0 .767-.282.767-.63 0-.35-.343-.63-.767-.63zM-110.808-126.17h-29.15c-.425 0-.767.282-.767.63 0 .35.342.632.767.632h29.15c.424 0 .767-.282.767-.63 0-.35-.342-.632-.766-.632zm0-6.306h-29.15c-.425 0-.767.282-.767.63 0 .35.342.63.767.63h29.15c.424 0 .767-.28.767-.63 0-.348-.342-.63-.766-.63zm0 18.92h-29.15c-.425 0-.767.28-.767.63s.342.63.767.63h29.15c.424 0 .767-.28.767-.63s-.342-.63-.766-.63zM12.274 19.55h29.15c.424 0 .767-.282.767-.63 0-.348-.342-.63-.766-.63h-29.15c-.425 0-.767.282-.767.63 0 .348.342.63.767.63z" id="Shape" fill="#D8C69A"/><path d="M164.503 163.377h29.795c.422 0 .764.282.764.63v4.415c0 1.045-1.027 1.892-2.292 1.892h-26.74c-1.265 0-2.29-.847-2.29-1.892v-4.415c0-.348.34-.63.763-.63zM-129.76-157.07h9.66c1.266 0 1.927.763 2.293 1.892l1.528 4.415H19.146l1.528-4.415c.223-.8.67-1.892 1.8-1.892z" id="Shape" fill="#CCD0D2"/><path d="M171.913 162.115l-.503 1.262h16.62l-.503-1.262h-15.614z" id="Shape" fill="#A4A7A9"/><path d="M194.298 163.377h-29.795c-.423 0-.764.282-.764.63v1.892c0-.35.34-.63.763-.63h29.795c.422 0 .764.28.764.63v-1.893c0-.348-.342-.63-.764-.63z" id="Shape" fill="#B7BBBD"/></g><g><path d="M210.404 169.328c-1.59-2.684-3.812-4.947-6.462-6.582-5.344 5.364-14.5 14.55-14.673 14.727-.522.522-2.188 8.198-1.83 8.56.37.37 7.833-1.52 8.338-2.027l14.626-14.678z" id="Shape" fill="#BF392B"/><path d="M192.472 180.6c-.378-.395-.427-2.12-.808-2.517-.382-.397-2.412-.83-2.413-.832-.495.516-2.035 7.79-1.842 8.7l.112.116c.867.193 7.7-1.612 8.18-2.112 0 0-.434-2.13-.807-2.516-.373-.388-2.04-.445-2.42-.84z" id="Shape" fill="#FFCABA"/><path d="M187.39 185.9l.01.055.114.112c.87.183 7.706-1.536 8.187-2.012 0 0-.418-2.01-.8-2.39-6.36 3.58-7.353 4.145-7.51 4.235z" id="Shape" fill="#E5B5A7"/><path d="M187.396 185.45c.12-.197.788-1.293 4.47-7.407-.4-.378-2.528-.792-2.528-.792-.504.477-2.044 7.044-1.942 8.2z" id="Shape" fill="#FFDCD2"/><path d="M188.79 184.65c-.277-.247-.75-.432-1.19-.462-.188.998-.272 1.744-.156 1.848.112.1.855.022 1.863-.15.024-.438-.2-.952-.518-1.235z" id="Shape" fill="#BF392B"/><path d="M191.75 177.882c-.006.01 14.18-13.82 14.18-13.82-.61-.475-1.25-.916-1.915-1.316l-14.706 14.346c3.057.79 2.054.413 2.44.79z" id="Shape" fill="#C9574B"/></g></g><g mask="url(#b)"><g id="android"><path d="M116.74 119.96H64.544c-4.385 0-7.943 3.508-7.943 7.83v66.005c9.483 7.02 21.27 11.186 34.042 11.186 12.775 0 24.562-4.164 34.042-11.185V127.79c0-4.322-3.555-7.83-7.943-7.83z" id="Shape" fill="#E4E7E7"/><path d="M119.735 133.186H60.913c-.624 0-1.13.503-1.13 1.122v61.78c8.81 5.62 19.288 8.893 30.54 8.893 11.255 0 21.733-3.272 30.544-8.892v-61.78c0-.62-.506-1.122-1.132-1.122z" id="Shape" fill="#344C59"/><path d="M118.958 135.705h-56.63v61.784c8.33 4.755 17.997 7.49 28.314 7.49 10.32 0 19.985-2.735 28.316-7.49v-61.785z" id="Shape" fill="#3F5E6D"/><path d="M95.924 124.37H84.47c-.633 0-1.145.564-1.145 1.258 0 .696.512 1.26 1.145 1.26h11.454c.633 0 1.145-.564 1.145-1.26 0-.694-.513-1.26-1.146-1.26zm-51.82-119.8c-.632 0-1.144.564-1.144 1.258 0 .696.512 1.26 1.145 1.26s1.145-.564 1.145-1.26c0-.694-.512-1.26-1.145-1.26zm4.582 0c-.633 0-1.145.564-1.145 1.258 0 .696.513 1.26 1.146 1.26.634 0 1.146-.564 1.146-1.26 0-.694-.512-1.26-1.146-1.26z" id="Shape" fill="#BFC3C5"/></g><g><path d="M69.963 166.27v10.37l13.787-14.817v-3.943l-6.46-.01-7.327 8.4zm-36.033-157.45l-6.357-.003v4.075L41.36 27.71V17.338l-7.43-8.52z" id="Shape" fill="#227F9E"/><path d="M96.975 149.41H87.63l-.492-.48h-3.956c-.294 0-.493.226-.493.436v8.682c0 .53.44.96.984.96h13.3c.545 0 .986-.43.986-.96v-7.677c0-.53-.44-.96-.985-.96z" id="Shape" fill="#816B32"/><path d="M83.034 150.19H98.25c.543 0 .983.424.983.945v7.558c0 .52-.44.944-.982.944H83.035c-.54 0-.98-.423-.98-.944v-7.558c0-.52.44-.944.98-.944z" id="Shape" fill="#8F7738"/><path d="M100.804 152.08h-4.95c-.136 0-1.005.84-1.005.973H80.496c-.546 0-.99.436-.99.974v7.786c0 .537.444.973.99.973h20.29c.548 0 .99-.436.99-.973v-8.775c0-.518-.488-.958-.973-.958z" id="Shape" fill="#B09246"/><path d="M79.222 153.97h22.205c.545 0 .987.422.987.944v7.557c0 .523-.442.946-.987.946H79.222c-.545 0-.987-.423-.987-.945v-7.556c0-.522.442-.945.987-.945z" id="Shape" fill="#BF9F4B"/><path d="M77.313 156.488h26.66c.544 0 .987.424.987.945v7.557c0 .522-.443.945-.988.945h-26.66c-.544 0-.986-.423-.986-.945v-7.557c0-.52.442-.945.987-.945z" id="Shape" fill="#DCB757"/><path d="M81.124 154.003l19.925 5.306c.523.138.835.673.694 1.194l-2.288 8.486c-.14.52-.68.83-1.203.69l-19.926-5.305c-.524-.14-.835-.675-.695-1.196l2.29-8.487c.14-.52.678-.83 1.202-.69z" id="Shape" fill="#E4E7E7"/><path d="M76.048 158.378h29.826c.55 0 .994.423.994.944v7.558c0 .52-.445.944-.994.944H76.048c-.55 0-.995-.423-.995-.944v-7.558c0-.52.446-.944.995-.944z" id="Shape" fill="#EFC75E"/><path d="M71.44 164.676h38.405c.816 0 1.478.658 1.478 1.47v14.694c0 .812-.662 1.47-1.478 1.47H71.44c-.816 0-1.477-.658-1.477-1.47v-14.695c0-.81.66-1.47 1.477-1.47z" id="Shape" fill="#2EA9D3"/><path d="M81.5 170.973c-1.1 0-1.992.846-1.992 1.89 0 1.043.89 1.89 1.99 1.89s1.993-.847 1.993-1.89c0-1.044-.89-1.89-1.99-1.89zm-51.04-148.93c-1.1 0-1.992.845-1.992 1.89 0 1.042.89 1.888 1.99 1.888s1.993-.845 1.993-1.888c0-1.044-.89-1.89-1.99-1.89z" id="Shape" fill="#4DC6EF"/><path d="M100.142 172.863c-.552 0-1 .45-1 1.007v.504c0 .835-.672 1.512-1.5 1.512h-14c-.827 0-1.498-.677-1.498-1.512v-.504c0-.556-.448-1.007-1-1.007s-1 .45-1 1.007v1.512c0 1.39 1.12 2.52 2.5 2.52h15.998c1.38 0 2.5-1.13 2.5-2.52v-1.512c0-.556-.448-1.007-1-1.007z" id="Shape" fill="#E4E7E7"/><path d="M91.597 169.4c0-.523-.427-.946-.954-.946-.527 0-.955.423-.955.945 0 .335.18.628.446.796l-.446 2.037h1.91l-.446-2.037c.267-.168.445-.46.445-.797z" id="Shape" fill="#207693"/><path d="M78.87 159.008h21l-3.705-1.26H79.137l-.266 1.26z" id="Shape" fill="#D8DBDB"/><path d="M109.845 164.676H71.44c-.816 0-1.477.677-1.477 1.51v1.01c0-.836.66-1.513 1.477-1.513h38.405c.816 0 1.478.677 1.478 1.512v-1.008c0-.834-.662-1.51-1.478-1.51z" id="Shape" fill="#58BADC"/><path d="M98.642 178.006H82.644c-1.38 0-2.5-1.175-2.5-2.624v.525c0 1.45 1.12 2.624 2.5 2.624h15.998c1.38 0 2.5-1.174 2.5-2.623v-.525c0 1.45-1.12 2.624-2.5 2.624z" id="Shape" fill="#2998BE"/><path d="M109.845 181.932H71.44c-.816 0-1.477-.677-1.477-1.512v1.008c0 .835.66 1.51 1.477 1.51h38.405c.816 0 1.478-.675 1.478-1.51v-1.008c0 .835-.662 1.512-1.478 1.512z" id="Shape" fill="#249CC5"/></g></g><g mask="url(#b)"><g><path d="M293.087 118.76h-52.164c-4.383 0-7.938 3.508-7.938 7.83v66.005c9.477 7.02 21.256 11.186 34.02 11.186 12.767 0 24.546-4.164 34.02-11.185V126.59c0-4.322-3.553-7.83-7.938-7.83z" id="Shape" fill="#E4E7E7"/><path d="M296.08 131.986h-58.785c-.624 0-1.13.503-1.13 1.122v61.78c8.805 5.62 19.276 8.893 30.522 8.893 11.247 0 21.718-3.272 30.523-8.892v-61.78c0-.62-.506-1.122-1.13-1.122z" id="Shape" fill="#344C59"/><path d="M295.302 134.505h-56.594v61.784c8.326 4.755 17.987 7.49 28.297 7.49 10.313 0 19.972-2.735 28.297-7.49v-61.785z" id="Shape" fill="#3F5E6D"/><path d="M272.283 123.17h-11.446c-.633 0-1.144.564-1.144 1.258 0 .696.51 1.26 1.144 1.26h11.446c.633 0 1.145-.564 1.145-1.26 0-.694-.512-1.26-1.145-1.26zm-228.222-118.6c-.632 0-1.143.564-1.143 1.258 0 .696.51 1.26 1.144 1.26.634 0 1.146-.564 1.146-1.26 0-.694-.512-1.26-1.145-1.26zm4.58 0c-.633 0-1.145.564-1.145 1.258 0 .696.512 1.26 1.145 1.26s1.144-.564 1.144-1.26c0-.694-.51-1.26-1.144-1.26z" id="Shape" fill="#BFC3C5"/></g><g transform="translate(232.8 118.6) translate(.821 17.165)"><mask id="d"><use xlink:href="#c"/></mask><g id="Shape" mask="url(#d)"><path d="M46.178 14.484c.836 0 1.513.847 1.513 1.89v30.23c0 1.043-.676 1.89-1.512 1.89H5.328v-34.01h40.85z" fill="#EFEFEF"/><path d="M41.968 22.357h-12.08c-.703 0-1.273.564-1.273 1.26v2.518c0 .696.57 1.26 1.272 1.26h12.08c.703 0 1.273-.564 1.273-1.26v-2.52c0-.694-.57-1.258-1.272-1.258zM-4-6.464v5.038h17.69c.56 0 1.012-.565 1.012-1.26v-2.52c0-.694-.453-1.26-1.01-1.26H.73zM18.16 21.17h-4.45c-.703 0-1.273.564-1.273 1.26v2.518c0 .696.57 1.26 1.272 1.26h4.45c.702 0 1.272-.564 1.272-1.26v-2.52c0-.694-.57-1.258-1.272-1.258zm-13.99 0c-.7 0-1.27.564-1.27 1.26v2.518c0 .696.57 1.26 1.27 1.26h4.452c.702 0 1.272-.564 1.272-1.26v-2.52c0-.694-.57-1.258-1.272-1.258h-4.45z" fill="#CCD0D2"/><path d="M36.563 37.47c0 1.913-1.566 3.465-3.497 3.465-1.93 0-3.497-1.552-3.497-3.464s1.565-3.463 3.496-3.463c1.93 0 3.497 1.55 3.497 3.464z" fill="#FF6A6A"/></g></g><g><path d="M259.578 171.968l12.07-2.396c.35-.07.692.156.762.503l4.39 21.723c.07.348-.157.687-.508.756l-12.07 2.397c-.35.07-.692-.155-.763-.503l-4.39-21.723c-.07-.348.157-.686.508-.756z" id="Shape" fill="#2B8272"/><path d="M271.2 171.105c-.035-.175-.207-.288-.383-.253l-10.207 2.027c-.176.033-.29.203-.256.378l1.086 5.374c.036.175.207.288.384.253.176-.035.29-.205.255-.38l-1.023-5.058 9.57-1.9 1.02 5.06c.036.173.208.286.384.25.177-.033.29-.204.256-.378l-1.086-5.375z" id="Shape" fill="#4B9587"/><path d="M262.907 168.297l12.25-1.19c.355-.033.672.225.707.578l2.2 22.05c.035.354-.225.667-.582.702l-12.25 1.19c-.355.034-.672-.224-.707-.578l-2.2-22.05c-.034-.354.225-.668.582-.703z" id="Shape" fill="#359685"/><path d="M274.557 168.59c-.018-.178-.177-.308-.356-.29l-10.357 1.005c-.18.017-.31.175-.292.352l.545 5.455c.018.178.177.307.356.29.18-.018.31-.175.293-.353l-.512-5.135 9.712-.942.513 5.134c.017.177.176.307.355.29.18-.018.31-.176.292-.353l-.545-5.455z" id="Shape" fill="#52A597"/><path d="M267.128 165.056h12.268c.356 0 .645.288.645.643v22.832c0 .355-.288.644-.644.644h-12.268c-.357 0-.646-.29-.646-.644V165.7c0-.356.29-.644.646-.644z" id="Shape" fill="#3DB39E"/><path d="M273.262 170.202c.356 0 .645-.288.645-.643 0-.356-.29-.645-.645-.645-.357 0-.646.29-.646.644 0 .354.29.642.646.642zM-244.852-143.51c.356 0 .645-.288.645-.644 0-.354-.29-.642-.645-.642-.357 0-.646.288-.646.643 0 .357.288.645.645.645zM19.37 1.608H9.04c-.18 0-.323.144-.323.32v5.79c0 .178.144.32.322.32.178 0 .322-.142.322-.32V2.25h9.685V7.72c0 .178.145.32.323.32.18 0 .323-.142.323-.32v-5.79c0-.176-.144-.32-.323-.32zm0 16.08c-.178 0-.323.143-.323.32v5.79H9.362v-5.79c0-.177-.144-.32-.323-.32-.18 0-.323.143-.323.32v6.11c0 .18.144.323.322.323h10.33c.18 0 .323-.143.323-.32v-6.11c0-.18-.144-.323-.323-.323zm-5.165-9.65c-2.675 0-4.843 2.16-4.843 4.825 0 2.664 2.168 4.824 4.843 4.824 2.674 0 4.842-2.16 4.842-4.824 0-2.664-2.168-4.824-4.842-4.824zm2.603 5.153h-.373c-.065.503-.27.917-.58 1.13-.06.038-.13.063-.207.063-.187 0-.34-.15-.34-.34 0-.086.05-.174.14-.27.194-.193.342-.52.342-.877 0-.52-.25-.715-.51-.715-.843 0-.45 2.29-2.062 2.29-.71 0-1.173-.438-1.257-1.28h-.36c-.167 0-.302-.13-.302-.294 0-.157.135-.288.302-.288h.36c.078-.61.414-1.085.768-1.3.052-.03.116-.05.18-.05.194 0 .35.152.35.333 0 .14-.078.215-.143.277-.27.264-.49.597-.49 1.03 0 .57.194.846.593.846.94 0 .51-2.29 2.063-2.29.574 0 1.07.352 1.16 1.155h.368c.168 0 .303.13.303.288.002.163-.134.295-.302.295z" fill="#81CEC0"/></g></g></g><path d="M28.132 42V30.8h-1.568l-4.08 8.064-4.096-8.064h-1.584V42h1.216v-9.232l4.064 8.048h.768l4.08-8.048.016 9.232h1.184zm6.656-8.464c-2.496 0-4.272 1.728-4.272 4.24 0 2.528 1.776 4.272 4.272 4.272 2.496 0 4.272-1.744 4.272-4.272 0-2.512-1.776-4.24-4.272-4.24zm0 1.136c1.76 0 3.024 1.28 3.024 3.12 0 1.856-1.264 3.136-3.024 3.136s-3.024-1.28-3.024-3.136c0-1.84 1.264-3.12 3.024-3.12zm14.208-4.544h-1.248v5.264c-.624-1.2-1.792-1.888-3.296-1.888-2.384 0-4.048 1.744-4.048 4.272 0 2.512 1.664 4.288 4.064 4.288 1.504 0 2.656-.688 3.28-1.872V42h1.248V30.128zm-4.288 10.816c-1.792 0-3.056-1.312-3.056-3.136 0-1.84 1.264-3.168 3.056-3.168 1.776 0 3.04 1.328 3.04 3.168 0 1.824-1.264 3.136-3.04 3.136zm10.736-7.408c-2.448 0-4.176 1.744-4.176 4.256 0 2.512 1.712 4.256 4.192 4.256 1.408 0 2.592-.512 3.392-1.408l-.688-.736c-.656.688-1.568 1.056-2.608 1.056-1.632 0-2.832-1.04-3.056-2.688h6.88c.128-2.864-1.216-4.752-3.936-4.736zM52.5 37.248c.192-1.6 1.344-2.64 2.944-2.64 1.648 0 2.736 1.024 2.816 2.64H52.5zm10.272-3.68h-1.248V42h1.248v-4.48c.144-1.664 1.248-2.768 3.024-2.736V33.52c-1.424.016-2.464.688-3.024 1.92v-1.872zm9.216-.048c-1.536.016-2.672.624-3.264 1.904v-1.856h-1.248V42h1.248v-4.528c.144-1.6 1.168-2.688 2.832-2.704 1.488 0 2.384.88 2.384 2.368V42h1.248v-5.2c0-2.032-1.184-3.28-3.2-3.28zm13.696.016c-2.432 0-4.176 1.744-4.176 4.256 0 2.512 1.728 4.256 4.176 4.256 1.456 0 2.624-.544 3.376-1.456l-.72-.768c-.592.704-1.504 1.088-2.608 1.088-1.744 0-2.992-1.28-2.992-3.12s1.248-3.104 2.992-3.104c1.024 0 1.872.368 2.512.976l.688-.88c-.768-.8-1.888-1.264-3.248-1.248zm10.256-.016c-1.552.016-2.704.624-3.28 1.936v-5.328h-1.248V42h1.248v-4.144c0-1.808 1.056-3.072 2.848-3.088 1.488 0 2.384.88 2.384 2.368V42h1.248v-5.2c0-2.032-1.184-3.28-3.2-3.28zm9.312.016c-2.448 0-4.176 1.744-4.176 4.256 0 2.512 1.712 4.256 4.192 4.256 1.408 0 2.592-.512 3.392-1.408l-.688-.736c-.656.688-1.568 1.056-2.608 1.056-1.632 0-2.832-1.04-3.056-2.688h6.88c.128-2.864-1.216-4.752-3.936-4.736zm-2.944 3.712c.192-1.6 1.344-2.64 2.944-2.64 1.648 0 2.736 1.024 2.816 2.64h-5.76zm12.352-3.712c-2.432 0-4.176 1.744-4.176 4.256 0 2.512 1.728 4.256 4.176 4.256 1.456 0 2.624-.544 3.376-1.456l-.72-.768c-.592.704-1.504 1.088-2.608 1.088-1.744 0-2.992-1.28-2.992-3.12s1.248-3.104 2.992-3.104c1.024 0 1.872.368 2.512.976l.688-.88c-.768-.8-1.888-1.264-3.248-1.248zm8.752 4.208l2.88 4.256h1.488l-3.488-5.168 3.152-3.264h-1.472l-4.336 4.32v-7.76h-1.248V42h1.248v-2.416l1.776-1.84zm11.056-7.456c-.464 0-.816.368-.816.864s.352.864.816.864c.464 0 .816-.368.816-.864s-.352-.864-.816-.864zM135.092 42v-8.432h-1.232V42h1.232zm7.552-8.48c-1.536.016-2.672.624-3.264 1.904v-1.856h-1.248V42h1.248v-4.528c.144-1.6 1.168-2.688 2.832-2.704 1.488 0 2.384.88 2.384 2.368V42h1.248v-5.2c0-2.032-1.184-3.28-3.2-3.28zm15.6 8.48h1.216l-.016-5.568c-.016-1.808-1.168-2.912-3.248-2.912-1.44 0-2.352.416-3.44 1.136l.528.912c.88-.608 1.744-.96 2.672-.96 1.488 0 2.256.736 2.256 1.968v.496h-2.768c-1.984.016-3.152.944-3.152 2.416 0 1.456 1.12 2.576 2.864 2.576 1.344 0 2.416-.448 3.088-1.36V42zm-2.848-1.024c-1.184 0-1.936-.608-1.936-1.536s.736-1.36 2.144-1.36h2.624v1.008c-.32 1.168-1.408 1.888-2.832 1.888zm11.36-7.456c-1.536.016-2.672.624-3.264 1.904v-1.856h-1.248V42h1.248v-4.528c.144-1.6 1.168-2.688 2.832-2.704 1.488 0 2.384.88 2.384 2.368V42h1.248v-5.2c0-2.032-1.184-3.28-3.2-3.28zm13.728-3.392h-1.248v5.264c-.624-1.2-1.792-1.888-3.296-1.888-2.384 0-4.048 1.744-4.048 4.272 0 2.512 1.664 4.288 4.064 4.288 1.504 0 2.656-.688 3.28-1.872V42h1.248V30.128zm-4.288 10.816c-1.792 0-3.056-1.312-3.056-3.136 0-1.84 1.264-3.168 3.056-3.168 1.776 0 3.04 1.328 3.04 3.168 0 1.824-1.264 3.136-3.04 3.136zm19.536-10.816h-1.248v5.264c-.624-1.2-1.792-1.888-3.296-1.888-2.384 0-4.048 1.744-4.048 4.272 0 2.512 1.664 4.288 4.064 4.288 1.504 0 2.656-.688 3.28-1.872V42h1.248V30.128zm-4.288 10.816c-1.792 0-3.056-1.312-3.056-3.136 0-1.84 1.264-3.168 3.056-3.168 1.776 0 3.04 1.328 3.04 3.168 0 1.824-1.264 3.136-3.04 3.136zm8.016-10.656c-.464 0-.816.368-.816.864s.352.864.816.864c.464 0 .816-.368.816-.864s-.352-.864-.816-.864zM200.084 42v-8.432h-1.232V42h1.232zm10.384-8.432h-1.248v1.712c-.608-1.12-1.696-1.76-3.136-1.76-2.256.016-3.808 1.68-3.808 4.032 0 2.4 1.568 4.08 3.84 4.08 1.424 0 2.512-.64 3.104-1.76v1.28c0 1.76-1.2 2.88-3.04 2.88-1.12-.016-2-.384-2.832-1.072l-.576.96c1.024.768 2.128 1.2 3.456 1.216 2.56 0 4.24-1.552 4.24-4.016v-7.552zm-4.128 7.008c-1.696 0-2.88-1.248-2.896-2.976.016-1.744 1.2-2.992 2.896-2.992 1.68 0 2.88 1.232 2.88 2.992 0 1.728-1.2 2.976-2.88 2.976zm7.568-10.288c-.464 0-.816.368-.816.864s.352.864.816.864c.464 0 .816-.368.816-.864s-.352-.864-.816-.864zM214.532 42v-8.432H213.3V42h1.232zm7.04-1.584c-.464.288-.912.432-1.344.432-.72 0-1.12-.384-1.12-1.408v-4.592h2.672v-1.024l-2.672.016v-2.224h-1.232v2.224h-1.216v1.008h1.216v4.816c0 1.664.912 2.4 2.144 2.4.672-.016 1.312-.24 1.904-.64l-.352-1.008zM229.044 42h1.216l-.016-5.568c-.016-1.808-1.168-2.912-3.248-2.912-1.44 0-2.352.416-3.44 1.136l.528.912c.88-.608 1.744-.96 2.672-.96 1.488 0 2.256.736 2.256 1.968v.496h-2.768c-1.984.016-3.152.944-3.152 2.416 0 1.456 1.12 2.576 2.864 2.576 1.344 0 2.416-.448 3.088-1.36V42zm-2.848-1.024c-1.184 0-1.936-.608-1.936-1.536s.736-1.36 2.144-1.36h2.624v1.008c-.32 1.168-1.408 1.888-2.832 1.888zM234.372 42V30.128h-1.248V42h1.248zm3.728-11.712c-.464 0-.816.368-.816.864s.352.864.816.864c.464 0 .816-.368.816-.864s-.352-.864-.816-.864zM238.724 42v-8.432h-1.232V42h1.232zm9.136-7.472v-.944l-6.64-.016v1.088l5.136.016-5.28 6.384V42l6.912.016v-1.088l-5.408-.016 5.28-6.384zm5.52-.992c-2.448 0-4.176 1.744-4.176 4.256 0 2.512 1.712 4.256 4.192 4.256 1.408 0 2.592-.512 3.392-1.408l-.688-.736c-.656.688-1.568 1.056-2.608 1.056-1.632 0-2.832-1.04-3.056-2.688h6.88c.128-2.864-1.216-4.752-3.936-4.736zm-2.944 3.712c.192-1.6 1.344-2.64 2.944-2.64 1.648 0 2.736 1.024 2.816 2.64h-5.76zm16.768-7.12h-1.248v5.264c-.624-1.2-1.792-1.888-3.296-1.888-2.384 0-4.048 1.744-4.048 4.272 0 2.512 1.664 4.288 4.064 4.288 1.504 0 2.656-.688 3.28-1.872V42h1.248V30.128zm-4.288 10.816c-1.792 0-3.056-1.312-3.056-3.136 0-1.84 1.264-3.168 3.056-3.168 1.776 0 3.04 1.328 3.04 3.168 0 1.824-1.264 3.136-3.04 3.136zm16.368-7.424c-1.472 0-2.624.688-3.248 1.872v-1.824h-1.248v11.536h1.248v-4.912c.624 1.168 1.776 1.856 3.28 1.856 2.384 0 4.016-1.744 4.016-4.24 0-2.528-1.664-4.288-4.048-4.288zm-.224 7.392c-1.776 0-3.024-1.296-3.024-3.136 0-1.824 1.248-3.136 3.024-3.136 1.76 0 3.008 1.328 3.008 3.136 0 1.824-1.248 3.136-3.008 3.136zM290.756 42h1.216l-.016-5.568c-.016-1.808-1.168-2.912-3.248-2.912-1.44 0-2.352.416-3.44 1.136l.528.912c.88-.608 1.744-.96 2.672-.96 1.488 0 2.256.736 2.256 1.968v.496h-2.768c-1.984.016-3.152.944-3.152 2.416 0 1.456 1.12 2.576 2.864 2.576 1.344 0 2.416-.448 3.088-1.36V42zm-2.848-1.024c-1.184 0-1.936-.608-1.936-1.536s.736-1.36 2.144-1.36h2.624v1.008c-.32 1.168-1.408 1.888-2.832 1.888zm13.056-7.408h-1.28l-2.672 6.96-2.8-6.96H292.9l3.488 8.368-.352.784c-.336.784-.88 1.184-1.536 1.184-.416 0-.8-.128-1.184-.4l-.528 1.04c.512.416 1.072.624 1.776.624 1.12 0 2-.672 2.528-1.968l3.872-9.632zm12.4-.048c-1.616.016-2.8.72-3.328 2.208-.352-1.392-1.44-2.208-3.024-2.208-1.52.016-2.656.64-3.216 1.952v-1.904h-1.232V42h1.232v-4.144c0-1.808 1.04-3.056 2.768-3.104 1.472 0 2.336.88 2.336 2.384V42h1.264v-4.144c0-1.808 1.008-3.056 2.752-3.104 1.456 0 2.336.88 2.336 2.384V42h1.248v-5.2c0-2.032-1.168-3.28-3.136-3.28zm9.232.016c-2.448 0-4.176 1.744-4.176 4.256 0 2.512 1.712 4.256 4.192 4.256 1.408 0 2.592-.512 3.392-1.408l-.688-.736c-.656.688-1.568 1.056-2.608 1.056-1.632 0-2.832-1.04-3.056-2.688h6.88c.128-2.864-1.216-4.752-3.936-4.736zm-2.944 3.712c.192-1.6 1.344-2.64 2.944-2.64 1.648 0 2.736 1.024 2.816 2.64h-5.76zm13.536-3.728c-1.536.016-2.672.624-3.264 1.904v-1.856h-1.248V42h1.248v-4.528c.144-1.6 1.168-2.688 2.832-2.704 1.488 0 2.384.88 2.384 2.368V42h1.248v-5.2c0-2.032-1.184-3.28-3.2-3.28zm9.984 6.896c-.464.288-.912.432-1.344.432-.72 0-1.12-.384-1.12-1.408v-4.592h2.672v-1.024l-2.672.016v-2.224h-1.232v2.224h-1.216v1.008h1.216v4.816c0 1.664.912 2.4 2.144 2.4.672-.016 1.312-.24 1.904-.64l-.352-1.008zM35.964 52.52c-1.616.016-2.8.72-3.328 2.208-.352-1.392-1.44-2.208-3.024-2.208-1.52.016-2.656.64-3.216 1.952v-1.904h-1.232V61h1.232v-4.144c0-1.808 1.04-3.056 2.768-3.104 1.472 0 2.336.88 2.336 2.384V61h1.264v-4.144c0-1.808 1.008-3.056 2.752-3.104 1.456 0 2.336.88 2.336 2.384V61H39.1v-5.2c0-2.032-1.168-3.28-3.136-3.28zm9.232.016c-2.448 0-4.176 1.744-4.176 4.256 0 2.512 1.712 4.256 4.192 4.256 1.408 0 2.592-.512 3.392-1.408l-.688-.736c-.656.688-1.568 1.056-2.608 1.056-1.632 0-2.832-1.04-3.056-2.688h6.88c.128-2.864-1.216-4.752-3.936-4.736zm-2.944 3.712c.192-1.6 1.344-2.64 2.944-2.64 1.648 0 2.736 1.024 2.816 2.64h-5.76zM56.508 61h1.216l-.016-5.568c-.016-1.808-1.168-2.912-3.248-2.912-1.44 0-2.352.416-3.44 1.136l.528.912c.88-.608 1.744-.96 2.672-.96 1.488 0 2.256.736 2.256 1.968v.496h-2.768c-1.984.016-3.152.944-3.152 2.416 0 1.456 1.12 2.576 2.864 2.576 1.344 0 2.416-.448 3.088-1.36V61zm-2.848-1.024c-1.184 0-1.936-.608-1.936-1.536s.736-1.36 2.144-1.36h2.624v1.008c-.32 1.168-1.408 1.888-2.832 1.888zm11.36-7.456c-1.536.016-2.672.624-3.264 1.904v-1.856h-1.248V61h1.248v-4.528c.144-1.6 1.168-2.688 2.832-2.704 1.488 0 2.384.88 2.384 2.368V61h1.248v-5.2c0-2.032-1.184-3.28-3.2-3.28zm8.224 0c-1.536 0-2.928.672-2.928 2.288-.016 2.992 4.704 1.952 4.656 3.984-.016.832-.816 1.2-1.808 1.2-.992 0-2.08-.4-2.8-1.072l-.48.944c.8.768 2.032 1.184 3.232 1.184 1.616 0 3.088-.736 3.088-2.4 0-3.024-4.704-2.064-4.704-3.936 0-.784.72-1.12 1.664-1.12.784 0 1.632.272 2.288.688l.48-.992c-.704-.48-1.68-.768-2.688-.768zm13.904 0c-1.536.016-2.672.624-3.264 1.904v-1.856h-1.248V61h1.248v-4.528c.144-1.6 1.168-2.688 2.832-2.704 1.488 0 2.384.88 2.384 2.368V61h1.248v-5.2c0-2.032-1.184-3.28-3.2-3.28zm9.408.016c-2.496 0-4.272 1.728-4.272 4.24 0 2.528 1.776 4.272 4.272 4.272 2.496 0 4.272-1.744 4.272-4.272 0-2.512-1.776-4.24-4.272-4.24zm0 1.136c1.76 0 3.024 1.28 3.024 3.12 0 1.856-1.264 3.136-3.024 3.136s-3.024-1.28-3.024-3.136c0-1.84 1.264-3.12 3.024-3.12zm21.648-1.152c-1.616.016-2.8.72-3.328 2.208-.352-1.392-1.44-2.208-3.024-2.208-1.52.016-2.656.64-3.216 1.952v-1.904h-1.232V61h1.232v-4.144c0-1.808 1.04-3.056 2.768-3.104 1.472 0 2.336.88 2.336 2.384V61h1.264v-4.144c0-1.808 1.008-3.056 2.752-3.104 1.456 0 2.336.88 2.336 2.384V61h1.248v-5.2c0-2.032-1.168-3.28-3.136-3.28zm9.328.016c-2.496 0-4.272 1.728-4.272 4.24 0 2.528 1.776 4.272 4.272 4.272 2.496 0 4.272-1.744 4.272-4.272 0-2.512-1.776-4.24-4.272-4.24zm0 1.136c1.76 0 3.024 1.28 3.024 3.12 0 1.856-1.264 3.136-3.024 3.136s-3.024-1.28-3.024-3.136c0-1.84 1.264-3.12 3.024-3.12zm7.712-1.104h-1.248V61h1.248v-4.48c.144-1.664 1.248-2.768 3.024-2.736V52.52c-1.424.016-2.464.688-3.024 1.92v-1.872zm8.032-.032c-2.448 0-4.176 1.744-4.176 4.256 0 2.512 1.712 4.256 4.192 4.256 1.408 0 2.592-.512 3.392-1.408l-.688-.736c-.656.688-1.568 1.056-2.608 1.056-1.632 0-2.832-1.04-3.056-2.688h6.88c.128-2.864-1.216-4.752-3.936-4.736zm-2.944 3.712c.192-1.6 1.344-2.64 2.944-2.64 1.648 0 2.736 1.024 2.816 2.64h-5.76zm17.984-3.728c-1.472 0-2.624.688-3.248 1.872v-1.824h-1.248v11.536h1.248v-4.912c.624 1.168 1.776 1.856 3.28 1.856 2.384 0 4.016-1.744 4.016-4.24 0-2.528-1.664-4.288-4.048-4.288zm-.224 7.392c-1.776 0-3.024-1.296-3.024-3.136 0-1.824 1.248-3.136 3.024-3.136 1.76 0 3.008 1.328 3.008 3.136 0 1.824-1.248 3.136-3.008 3.136zM169.788 61h1.216l-.016-5.568c-.016-1.808-1.168-2.912-3.248-2.912-1.44 0-2.352.416-3.44 1.136l.528.912c.88-.608 1.744-.96 2.672-.96 1.488 0 2.256.736 2.256 1.968v.496h-2.768c-1.984.016-3.152.944-3.152 2.416 0 1.456 1.12 2.576 2.864 2.576 1.344 0 2.416-.448 3.088-1.36V61zm-2.848-1.024c-1.184 0-1.936-.608-1.936-1.536s.736-1.36 2.144-1.36h2.624v1.008c-.32 1.168-1.408 1.888-2.832 1.888zm11.424-7.456c-1.472 0-2.624.688-3.248 1.872v-1.824h-1.248v11.536h1.248v-4.912c.624 1.168 1.776 1.856 3.28 1.856 2.384 0 4.016-1.744 4.016-4.24 0-2.528-1.664-4.288-4.048-4.288zm-.224 7.392c-1.776 0-3.024-1.296-3.024-3.136 0-1.824 1.248-3.136 3.024-3.136 1.76 0 3.008 1.328 3.008 3.136 0 1.824-1.248 3.136-3.008 3.136zm9.792-7.376c-2.448 0-4.176 1.744-4.176 4.256 0 2.512 1.712 4.256 4.192 4.256 1.408 0 2.592-.512 3.392-1.408l-.688-.736c-.656.688-1.568 1.056-2.608 1.056-1.632 0-2.832-1.04-3.056-2.688h6.88c.128-2.864-1.216-4.752-3.936-4.736zm-2.944 3.712c.192-1.6 1.344-2.64 2.944-2.64 1.648 0 2.736 1.024 2.816 2.64h-5.76zm10.272-3.68h-1.248V61h1.248v-4.48c.144-1.664 1.248-2.768 3.024-2.736V52.52c-1.424.016-2.464.688-3.024 1.92v-1.872zM209.644 61l3.12-8.432h-1.296l-2.464 7.136-2.48-7.136h-1.312l-2.448 7.136-2.496-7.136h-1.312L202.108 61h1.296l2.464-6.848 2.48 6.848h1.296zm7.744-8.464c-2.496 0-4.272 1.728-4.272 4.24 0 2.528 1.776 4.272 4.272 4.272 2.496 0 4.272-1.744 4.272-4.272 0-2.512-1.776-4.24-4.272-4.24zm0 1.136c1.76 0 3.024 1.28 3.024 3.12 0 1.856-1.264 3.136-3.024 3.136s-3.024-1.28-3.024-3.136c0-1.84 1.264-3.12 3.024-3.12zm7.712-1.104h-1.248V61h1.248v-4.48c.144-1.664 1.248-2.768 3.024-2.736V52.52c-1.424.016-2.464.688-3.024 1.92v-1.872zm7.808 4.176l2.88 4.256h1.488l-3.488-5.168 3.152-3.264h-1.472l-4.336 4.32v-7.76h-1.248V61h1.248v-2.416l1.776-1.84zm13.872-4.208c-2.496 0-4.272 1.728-4.272 4.24 0 2.528 1.776 4.272 4.272 4.272 2.496 0 4.272-1.744 4.272-4.272 0-2.512-1.776-4.24-4.272-4.24zm0 1.136c1.76 0 3.024 1.28 3.024 3.12 0 1.856-1.264 3.136-3.024 3.136s-3.024-1.28-3.024-3.136c0-1.84 1.264-3.12 3.024-3.12zm7.712-1.104h-1.248V61h1.248v-4.48c.144-1.664 1.248-2.768 3.024-2.736V52.52c-1.424.016-2.464.688-3.024 1.92v-1.872zM266.764 61l3.312-8.432h-1.264l-2.672 7.136-2.688-7.136h-1.328L265.468 61h1.296zm7.936-8.464c-2.496 0-4.272 1.728-4.272 4.24 0 2.528 1.776 4.272 4.272 4.272 2.496 0 4.272-1.744 4.272-4.272 0-2.512-1.776-4.24-4.272-4.24zm0 1.136c1.76 0 3.024 1.28 3.024 3.12 0 1.856-1.264 3.136-3.024 3.136s-3.024-1.28-3.024-3.136c0-1.84 1.264-3.12 3.024-3.12zm13.776-1.104h-1.248v4.144c0 1.792-1.024 3.056-2.768 3.088-1.456 0-2.336-.88-2.336-2.368v-4.864h-1.248v5.2c0 2.032 1.184 3.28 3.152 3.28 1.52-.016 2.64-.64 3.2-1.952V61h1.248v-8.432zm6.368-.032c-2.432 0-4.176 1.744-4.176 4.256 0 2.512 1.728 4.256 4.176 4.256 1.456 0 2.624-.544 3.376-1.456l-.72-.768c-.592.704-1.504 1.088-2.608 1.088-1.744 0-2.992-1.28-2.992-3.12s1.248-3.104 2.992-3.104c1.024 0 1.872.368 2.512.976l.688-.88c-.768-.8-1.888-1.264-3.248-1.248zm10.256-.016c-1.552.016-2.704.624-3.28 1.936v-5.328h-1.248V61h1.248v-4.144c0-1.808 1.056-3.072 2.848-3.088 1.488 0 2.384.88 2.384 2.368V61h1.248v-5.2c0-2.032-1.184-3.28-3.2-3.28zm9.312.016c-2.448 0-4.176 1.744-4.176 4.256 0 2.512 1.712 4.256 4.192 4.256 1.408 0 2.592-.512 3.392-1.408l-.688-.736c-.656.688-1.568 1.056-2.608 1.056-1.632 0-2.832-1.04-3.056-2.688h6.88c.128-2.864-1.216-4.752-3.936-4.736zm-2.944 3.712c.192-1.6 1.344-2.64 2.944-2.64 1.648 0 2.736 1.024 2.816 2.64h-5.76zm10.272-3.68h-1.248V61h1.248v-4.48c.144-1.664 1.248-2.768 3.024-2.736V52.52c-1.424.016-2.464.688-3.024 1.92v-1.872zm6.944-.048c-1.536 0-2.928.672-2.928 2.288-.016 2.992 4.704 1.952 4.656 3.984-.016.832-.816 1.2-1.808 1.2-.992 0-2.08-.4-2.8-1.072l-.48.944c.8.768 2.032 1.184 3.232 1.184 1.616 0 3.088-.736 3.088-2.4 0-3.024-4.704-2.064-4.704-3.936 0-.784.72-1.12 1.664-1.12.784 0 1.632.272 2.288.688l.48-.992c-.704-.48-1.68-.768-2.688-.768zm5.088 6.944c-.448 0-.784.352-.784.832s.336.832.784.832c.432 0 .768-.352.768-.832s-.336-.832-.768-.832zM132.412 90V78.8h-3.536v1.216h2.272V90h1.264zm7.6-11.232c-2.976 0-4.624 2.016-4.624 5.632 0 3.616 1.648 5.632 4.624 5.632s4.624-2.016 4.624-5.632c0-3.616-1.648-5.632-4.624-5.632zm0 1.088c2.176 0 3.328 1.504 3.328 4.544 0 3.024-1.152 4.544-3.328 4.544s-3.328-1.52-3.328-4.544c0-3.04 1.152-4.544 3.328-4.544zm10.944-1.088c-2.976 0-4.624 2.016-4.624 5.632 0 3.616 1.648 5.632 4.624 5.632s4.624-2.016 4.624-5.632c0-3.616-1.648-5.632-4.624-5.632zm0 1.088c2.176 0 3.328 1.504 3.328 4.544 0 3.024-1.152 4.544-3.328 4.544s-3.328-1.52-3.328-4.544c0-3.04 1.152-4.544 3.328-4.544zm9.008-1.072c-1.792 0-2.848 1.232-2.848 3.312 0 2.096 1.056 3.312 2.848 3.312 1.792 0 2.864-1.216 2.864-3.312 0-2.08-1.072-3.312-2.864-3.312zM159.052 90h1.248l8.368-11.2h-1.232L159.052 90zm.912-10.416c1.264 0 1.968.912 1.968 2.512s-.704 2.496-1.968 2.496-1.968-.896-1.968-2.496.704-2.512 1.968-2.512zm7.984 3.824c-1.792 0-2.848 1.216-2.848 3.296 0 2.096 1.056 3.312 2.848 3.312 1.792 0 2.864-1.216 2.864-3.312 0-2.08-1.072-3.296-2.864-3.296zm0 .8c1.264 0 1.968.896 1.968 2.496 0 1.616-.704 2.512-1.968 2.512s-1.968-.896-1.968-2.512c0-1.6.704-2.496 1.968-2.496zm9.632-5.408V90h4.48c3.296 0 5.808-2.416 5.808-5.6 0-3.184-2.496-5.6-5.76-5.6h-4.528zm1.28 1.232h3.216c2.512 0 4.496 1.872 4.496 4.384 0 2.496-1.952 4.368-4.448 4.368h-3.264v-8.752zm11.776-1.744c-.464 0-.816.368-.816.864s.352.864.816.864c.464 0 .816-.368.816-.864s-.352-.864-.816-.864zM191.26 90v-8.432h-1.232V90h1.232zm10.384-8.432h-1.248v1.712c-.608-1.12-1.696-1.76-3.136-1.76-2.256.016-3.808 1.68-3.808 4.032 0 2.4 1.568 4.08 3.84 4.08 1.424 0 2.512-.64 3.104-1.76v1.28c0 1.76-1.2 2.88-3.04 2.88-1.12-.016-2-.384-2.832-1.072l-.576.96c1.024.768 2.128 1.2 3.456 1.216 2.56 0 4.24-1.552 4.24-4.016v-7.552zm-4.128 7.008c-1.696 0-2.88-1.248-2.896-2.976.016-1.744 1.2-2.992 2.896-2.992 1.68 0 2.88 1.232 2.88 2.992 0 1.728-1.2 2.976-2.88 2.976zm7.568-10.288c-.464 0-.816.368-.816.864s.352.864.816.864c.464 0 .816-.368.816-.864s-.352-.864-.816-.864zM205.708 90v-8.432h-1.232V90h1.232zm7.04-1.584c-.464.288-.912.432-1.344.432-.72 0-1.12-.384-1.12-1.408v-4.592h2.672v-1.024l-2.672.016v-2.224h-1.232v2.224h-1.216v1.008h1.216v4.816c0 1.664.912 2.4 2.144 2.4.672-.016 1.312-.24 1.904-.64l-.352-1.008zM220.22 90h1.216l-.016-5.568c-.016-1.808-1.168-2.912-3.248-2.912-1.44 0-2.352.416-3.44 1.136l.528.912c.88-.608 1.744-.96 2.672-.96 1.488 0 2.256.736 2.256 1.968v.496h-2.768c-1.984.016-3.152.944-3.152 2.416 0 1.456 1.12 2.576 2.864 2.576 1.344 0 2.416-.448 3.088-1.36V90zm-2.848-1.024c-1.184 0-1.936-.608-1.936-1.536s.736-1.36 2.144-1.36h2.624v1.008c-.32 1.168-1.408 1.888-2.832 1.888zM225.548 90V78.128H224.3V90h1.248zm3.968-8.304v-2.704h-1.2v2.704l.176 4.928h.832l.192-4.928zm-.608 6.768c-.432 0-.768.352-.768.832s.336.832.768.832c.448 0 .784-.352.784-.832s-.336-.832-.784-.832z" fill="#fff"/></g></svg>