<svg width="1591" height="509" viewBox="0 0 1591 509" xmlns="http://www.w3.org/2000/svg" xmlns:xlink="http://www.w3.org/1999/xlink"><title>DigitalLandingPagetext-gold</title><desc>Created with Sketch.</desc><defs><path id="a" d="M0 0h1591v508.933H0z"/><path id="c" d="M113.418 0C50.78 0 0 50.798 0 113.462s50.78 113.466 113.418 113.466c62.64 0 113.418-50.802 113.418-113.466C226.836 50.798 176.056 0 113.418 0z"/></defs><g transform="translate(-232 -1953) translate(232 1953)" fill="none"><mask id="b"><use xlink:href="#a"/></mask><use fill="#EFC75E" xlink:href="#a"/><g mask="url(#b)"><g id="android"><path d="M888.004 243.32H701.996c-15.63 0-28.306 12.63-28.306 28.2v237.694C707.483 534.502 749.485 549.5 795 549.5c45.524 0 87.525-14.998 121.31-40.286V271.52c0-15.57-12.67-28.2-28.306-28.2z" id="Shape" fill="#E4E7E7"/><path d="M898.674 290.948H689.06c-2.227 0-4.032 1.81-4.032 4.04v222.485c31.397 20.24 68.737 32.028 108.838 32.028 40.105 0 77.44-11.788 108.84-32.027V294.987c0-2.23-1.803-4.04-4.032-4.04z" id="Shape" fill="#344C59"/><path d="M895.903 300.02H694.097v222.5c29.69 17.126 64.138 26.98 100.903 26.98 36.773 0 71.217-9.854 100.903-26.98v-222.5z" id="Shape" fill="#3F5E6D"/><path d="M813.82 259.195h-40.814c-2.258 0-4.082 2.036-4.082 4.534 0 2.506 1.824 4.537 4.082 4.537h40.814c2.257 0 4.08-2.03 4.08-4.538 0-2.5-1.823-4.535-4.08-4.535zm-657.364-243.32c-2.257 0-4.082 2.037-4.082 4.535 0 2.507 1.825 4.538 4.082 4.538 2.257 0 4.08-2.03 4.08-4.538 0-2.498-1.823-4.534-4.08-4.534zm16.326 0c-2.258 0-4.082 2.037-4.082 4.535 0 2.507 1.824 4.538 4.082 4.538 2.257 0 4.08-2.03 4.08-4.538 0-2.498-1.823-4.534-4.08-4.534z" id="Shape" fill="#BFC3C5"/></g><g><path d="M709.516 395.276c-6.01 0-10.884 4.062-10.884 9.072v121.78c24.543 20.06 58.147 23.373 95.234 23.373 37.09 0 70.69-3.313 95.234-23.373v-121.78c0-5.01-4.873-9.07-10.884-9.07h-168.7z" id="Shape" fill="#E2574C"/><path d="M720.056 415.688c-3.065 0-5.552 2.032-5.552 4.536V537.52c22.708 13.24 50.476 16.517 80.496 16.517 30.02 0 57.787-3.277 80.495-16.516V420.225c0-2.504-2.487-4.536-5.55-4.536h-149.89z" id="Shape" fill="#F0DDAB"/><path d="M878.216 395.276h-168.7c-6.01 0-10.884 4.062-10.884 9.072v4.536c0-5.01 4.873-9.072 10.884-9.072h168.7c6.01 0 10.884 4.062 10.884 9.072v-4.536c0-5.01-4.873-9.072-10.884-9.072z" id="Shape" fill="#BF392B"/><path d="M845.564 515.48H742.168c-1.505 0-2.72 1.014-2.72 2.27 0 1.253 1.215 2.267 2.72 2.267h103.396c1.505 0 2.72-1.014 2.72-2.268 0-1.256-1.215-2.27-2.72-2.27zM-551.7-270.535H43.536c-1.505 0-2.72 1.014-2.72 2.27 0 1.253 1.215 2.267 2.72 2.267h103.396c1.505 0 2.72-1.015 2.72-2.27 0-1.254-1.215-2.268-2.72-2.268zm0-22.68H43.536c-1.505 0-2.72 1.016-2.72 2.268 0 1.255 1.215 2.268 2.72 2.268h103.396c1.505 0 2.72-1.013 2.72-2.268 0-1.252-1.215-2.268-2.72-2.268zm0 68.04H43.536c-1.505 0-2.72 1.014-2.72 2.27 0 1.253 1.215 2.267 2.72 2.267h103.396c1.505 0 2.72-1.015 2.72-2.27 0-1.254-1.215-2.267-2.72-2.267zM43.536 70.31h103.396c1.505 0 2.72-1.013 2.72-2.268 0-1.252-1.215-2.268-2.72-2.268H43.536c-1.505 0-2.72 1.016-2.72 2.268 0 1.255 1.215 2.268 2.72 2.268z" id="Shape" fill="#D8C69A"/><path d="M742.156 404.348h105.687c1.498 0 2.71 1.016 2.71 2.268v15.876c0 3.758-3.642 6.804-8.13 6.804h-94.847c-4.487 0-8.13-3.046-8.13-6.804v-15.876c0-1.252 1.212-2.268 2.71-2.268zM-618.92-381.668h34.27c4.487 0 6.83 2.744 8.13 6.804l5.42 15.876h-59.62l5.42-15.876C74.125 3.924 75.705 0 79.713 0z" id="Shape" fill="#CCD0D2"/><path d="M768.444 399.812l-1.788 4.536h58.955l-1.784-4.536h-55.382z" id="Shape" fill="#A4A7A9"/><path d="M847.843 404.348H742.156c-1.498 0-2.71 1.016-2.71 2.268v6.804c0-1.252 1.212-2.268 2.71-2.268h105.687c1.498 0 2.71 1.016 2.71 2.268v-6.804c0-1.252-1.212-2.268-2.71-2.268z" id="Shape" fill="#B7BBBD"/></g><g><path d="M904.972 425.75c-5.643-9.652-13.523-17.79-22.92-23.67L830 455.04c-1.846 1.88-7.757 29.486-6.48 30.785 1.307 1.332 27.78-5.46 29.572-7.288l51.878-52.786z" id="Shape" fill="#BF392B"/><path d="M841.367 466.284c-1.343-1.415-1.515-7.624-2.87-9.048-1.35-1.428-8.553-2.99-8.558-2.992-1.758 1.85-7.223 28.016-6.538 31.28l.398.42c3.077.694 27.313-5.796 29.02-7.596 0 0-1.545-7.654-2.868-9.046-1.322-1.395-7.24-1.602-8.585-3.018z" id="Shape" fill="#FFCABA"/><path d="M823.343 485.348l.035.198.4.4c3.084.66 27.334-5.52 29.042-7.235 0 0-1.487-7.23-2.84-8.59-22.562 12.87-26.085 14.906-26.637 15.228z" id="Shape" fill="#E5B5A7"/><path d="M823.36 483.728c.43-.707 2.797-4.65 15.855-26.636-1.417-1.36-8.964-2.848-8.964-2.848-1.788 1.712-7.253 25.33-6.89 29.484z" id="Shape" fill="#FFDCD2"/><path d="M828.303 480.856c-.98-.89-2.66-1.556-4.22-1.664-.664 3.588-.962 6.273-.553 6.644.397.362 3.034.08 6.61-.542.086-1.57-.715-3.42-1.837-4.438z" id="Shape" fill="#BF392B"/><path d="M838.803 456.512c-.02.033 50.297-49.703 50.297-49.703-2.164-1.706-4.427-3.29-6.79-4.73l-52.165 51.592c10.848 2.84 7.29 1.486 8.658 2.84z" id="Shape" fill="#C9574B"/></g></g><g mask="url(#b)"><g id="android"><path d="M406.503 247.683H220.3c-15.645 0-28.335 12.637-28.335 28.217v237.828c33.828 25.302 75.874 40.31 121.437 40.31 45.57 0 87.616-15.008 121.436-40.31V275.9c0-15.58-12.682-28.217-28.335-28.217z" id="Shape" fill="#E4E7E7"/><path d="M417.184 295.338H207.35c-2.228 0-4.035 1.81-4.035 4.042v222.61c31.43 20.252 68.81 32.047 108.952 32.047 40.147 0 77.522-11.795 108.952-32.046V299.38c0-2.23-1.804-4.042-4.036-4.042z" id="Shape" fill="#344C59"/><path d="M414.41 304.415H212.394V527.04c29.72 17.137 64.205 26.997 101.008 26.997 36.81 0 71.29-9.86 101.008-26.996V304.416z" id="Shape" fill="#3F5E6D"/><path d="M332.242 263.568h-40.858c-2.26 0-4.085 2.037-4.085 4.537 0 2.508 1.825 4.54 4.084 4.54h40.858c2.26 0 4.085-2.032 4.085-4.54 0-2.5-1.826-4.537-4.085-4.537zM-33.92-230.64c-2.258 0-4.084 2.037-4.084 4.537 0 2.51 1.826 4.54 4.085 4.54 2.26 0 4.086-2.03 4.086-4.54 0-2.5-1.827-4.536-4.087-4.536zm16.344 0c-2.26 0-4.085 2.037-4.085 4.537 0 2.51 1.827 4.54 4.086 4.54 2.26 0 4.086-2.03 4.086-4.54 0-2.5-1.826-4.536-4.086-4.536z" id="Shape" fill="#BFC3C5"/></g><g><path d="M239.632 414.542v37.377l49.18-53.396v-14.207l-23.044-.04-26.136 30.265zm-118.597-382.765L98.36 31.77v14.684l49.18 53.395V62.47l-26.505-30.695z" id="Shape" fill="#227F9E"/><path d="M335.99 353.8h-33.334l-1.757-1.73h-14.114c-1.05 0-1.757.81-1.757 1.566v31.285c0 1.91 1.573 3.46 3.513 3.46h47.447c1.94 0 3.515-1.55 3.515-3.46v-27.663c0-1.91-1.574-3.458-3.515-3.458z" id="Shape" fill="#816B32"/><path d="M286.26 356.61h54.283c1.933 0 3.502 1.524 3.502 3.402v27.232c0 1.88-1.57 3.404-3.502 3.404H286.26c-1.932 0-3.5-1.525-3.5-3.404v-27.232c0-1.878 1.568-3.403 3.5-3.403z" id="Shape" fill="#8F7738"/><path d="M349.648 363.416h-17.654c-.488 0-3.586 3.025-3.586 3.507H277.21c-1.95 0-3.53 1.572-3.53 3.508v28.057c0 1.936 1.58 3.507 3.53 3.507h72.383c1.95 0 3.53-1.57 3.53-3.507V366.87c0-1.868-1.743-3.454-3.475-3.454z" id="Shape" fill="#B09246"/><path d="M272.66 370.224h79.213c1.944 0 3.52 1.525 3.52 3.404v27.232c0 1.88-1.576 3.404-3.52 3.404H272.66c-1.943 0-3.52-1.525-3.52-3.404v-27.232c0-1.88 1.577-3.404 3.52-3.404z" id="Shape" fill="#BF9F4B"/><path d="M265.853 379.3h95.098c1.945 0 3.523 1.526 3.523 3.405v27.232c0 1.88-1.578 3.404-3.522 3.404h-95.097c-1.945 0-3.523-1.524-3.523-3.403v-27.232c0-1.88 1.578-3.404 3.523-3.404z" id="Shape" fill="#DCB757"/><path d="M279.444 370.344l71.08 19.12c1.87.5 2.98 2.43 2.48 4.306l-8.163 30.58c-.5 1.875-2.422 2.99-4.29 2.486l-71.082-19.118c-1.868-.502-2.98-2.432-2.478-4.308l8.164-30.58c.5-1.874 2.423-2.987 4.29-2.486z" id="Shape" fill="#E4E7E7"/><path d="M261.337 386.11h106.4c1.957 0 3.546 1.524 3.546 3.403v27.232c0 1.88-1.59 3.404-3.547 3.404h-106.4c-1.956 0-3.545-1.526-3.545-3.405v-27.232c0-1.88 1.59-3.404 3.547-3.404z" id="Shape" fill="#EFC75E"/><path d="M244.9 408.802h137.003c2.91 0 5.27 2.372 5.27 5.295v52.95c0 2.925-2.36 5.295-5.27 5.295H244.9c-2.91 0-5.268-2.37-5.268-5.295v-52.95c0-2.923 2.36-5.295 5.27-5.295z" id="Shape" fill="#2EA9D3"/><path d="M280.785 431.495c-3.924 0-7.105 3.048-7.105 6.808s3.18 6.808 7.105 6.808c3.924 0 7.106-3.048 7.106-6.807 0-3.76-3.18-6.808-7.105-6.808zm-172.13-352.07c-3.923 0-7.104 3.048-7.104 6.808s3.182 6.808 7.106 6.808 7.106-3.048 7.106-6.807c0-3.76-3.182-6.808-7.106-6.808z" id="Shape" fill="#4DC6EF"/><path d="M347.287 438.303c-1.97 0-3.566 1.626-3.566 3.63v1.816c0 3.007-2.395 5.445-5.35 5.445h-49.936c-2.956 0-5.35-2.438-5.35-5.446v-1.816c0-2.005-1.6-3.63-3.568-3.63-1.97 0-3.567 1.625-3.567 3.63v5.446c0 5.014 3.99 9.077 8.917 9.077h57.07c4.926 0 8.917-4.063 8.917-9.077v-5.446c0-2.005-1.598-3.63-3.567-3.63z" id="Shape" fill="#E4E7E7"/><path d="M316.807 425.822c0-1.88-1.526-3.404-3.405-3.404-1.88 0-3.405 1.525-3.405 3.404 0 1.21.637 2.265 1.588 2.87l-1.588 7.342h6.81l-1.59-7.34c.953-.607 1.59-1.662 1.59-2.872z" id="Shape" fill="#207693"/><path d="M271.41 388.38h74.905l-13.213-4.54H272.36l-.95 4.54z" id="Shape" fill="#D8DBDB"/><path d="M381.903 408.802H244.9c-2.91 0-5.268 2.44-5.268 5.446v3.63c0-3.005 2.36-5.445 5.27-5.445h137c2.91 0 5.27 2.44 5.27 5.446v-3.632c0-3.006-2.36-5.446-5.27-5.446z" id="Shape" fill="#58BADC"/><path d="M341.937 456.835h-57.07c-4.926 0-8.918-4.232-8.918-9.455v1.89c0 5.224 3.99 9.456 8.917 9.456h57.07c4.926 0 8.917-4.232 8.917-9.455v-1.89c0 5.223-3.99 9.455-8.917 9.455z" id="Shape" fill="#2998BE"/><path d="M381.903 470.98H244.9c-2.91 0-5.268-2.438-5.268-5.446v3.63c0 3.01 2.36 5.447 5.27 5.447h137c2.91 0 5.27-2.437 5.27-5.445v-3.63c0 3.007-2.36 5.445-5.27 5.445z" id="Shape" fill="#249CC5"/></g></g><g mask="url(#b)"><g><path d="M1370.774 247.683h-186.082c-15.635 0-28.316 12.637-28.316 28.217v237.828c33.806 25.302 75.824 40.31 121.357 40.31 45.54 0 87.56-15.008 121.358-40.31V275.9c0-15.58-12.673-28.217-28.316-28.217z" id="Shape" fill="#E4E7E7"/><path d="M1381.448 295.338H1171.75c-2.226 0-4.033 1.81-4.033 4.042v222.61c31.41 20.252 68.765 32.047 108.882 32.047 40.12 0 77.47-11.795 108.88-32.046V299.38c0-2.23-1.802-4.042-4.032-4.042z" id="Shape" fill="#344C59"/><path d="M1378.675 304.415H1176.79V527.04c29.702 17.137 64.164 26.997 100.943 26.997 36.787 0 71.245-9.86 100.942-26.996V304.416z" id="Shape" fill="#3F5E6D"/><path d="M1296.56 263.568h-40.83c-2.258 0-4.083 2.037-4.083 4.537 0 2.508 1.825 4.54 4.083 4.54h40.83c2.258 0 4.084-2.032 4.084-4.54 0-2.5-1.826-4.537-4.084-4.537zM-998.536-230.64c-2.258 0-4.083 2.037-4.083 4.537 0 2.51 1.825 4.54 4.083 4.54s4.083-2.03 4.083-4.54c0-2.5-1.824-4.536-4.082-4.536zm16.332 0c-2.258 0-4.083 2.037-4.083 4.537 0 2.51 1.825 4.54 4.083 4.54s4.083-2.03 4.083-4.54c0-2.5-1.825-4.536-4.083-4.536z" id="Shape" fill="#BFC3C5"/></g><g transform="translate(1155.714 247.104) translate(2.929 61.85)"><mask id="d"><use xlink:href="#c"/></mask><g id="Shape" mask="url(#d)"><path d="M164.73 52.19c2.98 0 5.397 3.05 5.397 6.81v108.925c0 3.76-2.416 6.808-5.397 6.808H19.007V52.19H164.73z" fill="#EFEFEF"/><path d="M149.712 80.557h-43.1c-2.503 0-4.536 2.034-4.536 4.54v9.076c0 2.505 2.033 4.54 4.537 4.54h43.1c2.503 0 4.536-2.035 4.536-4.54v-9.077c0-2.505-2.034-4.54-4.538-4.54zM-14.273-23.29v18.154h63.107c1.99 0 3.606-2.033 3.606-4.538V33.17c0-2.506-1.616-4.54-3.607-4.54H2.606zm62.177 47.655h-15.88c-2.503 0-4.536 2.033-4.536 4.54v9.076c0 2.505 2.033 4.538 4.537 4.538h15.88c2.503 0 4.535-2.033 4.535-4.538v-9.077c0-2.506-2.033-4.54-4.537-4.54zm-49.904 0c-2.506 0-4.538 2.033-4.538 4.54v9.076c0 2.505 2.032 4.538 4.537 4.538h15.877c2.504 0 4.537-2.033 4.537-4.538v-9.077c0-2.506-2.033-4.54-4.537-4.54H14.88z" fill="#CCD0D2"/><path d="M130.43 135.018c0 6.892-5.586 12.48-12.475 12.48-6.89 0-12.476-5.588-12.476-12.48s5.586-12.48 12.475-12.48c6.89 0 12.476 5.588 12.476 12.48z" fill="#FF6A6A"/></g></g><g><path d="M1251.236 439.404l43.057-8.634c1.252-.25 2.47.562 2.72 1.814l15.66 78.274c.25 1.253-.56 2.473-1.813 2.724l-43.057 8.635c-1.252.25-2.47-.562-2.72-1.815l-15.66-78.275c-.25-1.252.56-2.47 1.813-2.723z" id="Shape" fill="#2B8272"/><path d="M1292.694 436.294c-.125-.63-.738-1.037-1.366-.91l-36.41 7.3c-.63.126-1.036.74-.912 1.368l3.874 19.365c.126.628.74 1.037 1.367.91.63-.126 1.036-.74.91-1.368l-3.646-18.228 34.137-6.843 3.646 18.224c.125.63.738 1.037 1.367.91.627-.124 1.035-.738.91-1.367l-3.876-19.363z" id="Shape" fill="#4B9587"/><path d="M1263.11 426.177l43.696-4.284c1.272-.124 2.403.806 2.527 2.08l7.846 79.452c.125 1.272-.802 2.403-2.074 2.528l-43.695 4.284c-1.27.124-2.4-.805-2.526-2.08l-7.846-79.452c-.125-1.272.802-2.404 2.073-2.528z" id="Shape" fill="#359685"/><path d="M1304.67 427.23c-.062-.64-.63-1.106-1.268-1.044l-36.952 3.62c-.638.064-1.105.633-1.04 1.27l1.942 19.657c.063.64.63 1.105 1.27 1.043.637-.063 1.102-.63 1.04-1.27l-1.828-18.5 34.643-3.395 1.828 18.5c.063.64.63 1.108 1.27 1.044.637-.063 1.102-.63 1.04-1.27l-1.944-19.655z" id="Shape" fill="#52A597"/><path d="M1278.17 414.5h43.76c1.272 0 2.304 1.037 2.304 2.316v82.274c0 1.28-1.032 2.317-2.303 2.317h-43.76c-1.273 0-2.304-1.038-2.304-2.317v-82.274c0-1.28 1.03-2.317 2.303-2.317z" id="Shape" fill="#3DB39E"/><path d="M1300.05 433.04c1.27 0 2.303-1.04 2.303-2.318 0-1.28-1.032-2.318-2.303-2.318-1.272 0-2.304 1.038-2.304 2.318s1.032 2.317 2.304 2.317zm-1249.378-356.56c1.27 0 2.303-1.04 2.303-2.32 0-1.278-1.032-2.317-2.303-2.317-1.272 0-2.304 1.04-2.304 2.318 0 1.28 1.032 2.32 2.304 2.32zM69.098 5.792H32.246c-.637 0-1.152.52-1.152 1.16V27.81c0 .64.515 1.158 1.152 1.158.637 0 1.15-.518 1.15-1.158V8.11h34.55v19.7c0 .64.515 1.158 1.152 1.158.637 0 1.15-.518 1.15-1.158V6.952c0-.64-.513-1.16-1.15-1.16zm0 57.94c-.637 0-1.152.518-1.152 1.158v20.86h-34.55V64.89c0-.64-.513-1.158-1.15-1.158-.637 0-1.152.52-1.152 1.16v22.016c0 .64.515 1.158 1.152 1.158h36.852c.637 0 1.15-.52 1.15-1.158V64.89c0-.64-.513-1.158-1.15-1.158zM50.672 28.967c-9.54 0-17.275 7.783-17.275 17.382 0 9.6 7.735 17.382 17.275 17.382S67.946 55.95 67.946 46.35c0-9.6-7.734-17.382-17.274-17.382zm9.288 18.564h-1.334c-.23 1.808-.965 3.3-2.07 4.07-.207.134-.46.223-.735.223-.666 0-1.218-.542-1.218-1.22 0-.315.183-.632.505-.972.69-.7 1.22-1.876 1.22-3.163 0-1.877-.897-2.58-1.817-2.58-3.01 0-1.61 8.252-7.358 8.252-2.53 0-4.184-1.582-4.483-4.61H41.38c-.598 0-1.08-.476-1.08-1.064 0-.565.483-1.04 1.08-1.04h1.287c.274-2.19 1.47-3.91 2.734-4.678.184-.114.414-.18.645-.18.69 0 1.24.542 1.24 1.197 0 .497-.275.768-.505.994-.966.95-1.747 2.15-1.747 3.708 0 2.056.69 3.05 2.114 3.05 3.357 0 1.816-8.248 7.358-8.248 2.045 0 3.815 1.265 4.14 4.16h1.31c.597 0 1.08.473 1.08 1.038 0 .588-.483 1.064-1.08 1.064z" fill="#81CEC0"/></g></g><path d="M322.872 82.5V65.7h-3.336l-5.52 11.16-5.544-11.16h-3.36v16.8h2.664V69.948l5.304 10.8h1.848l5.304-10.8.024 12.552h2.616zm9.744-12.864c-3.96 0-6.672 2.616-6.672 6.48 0 3.84 2.712 6.48 6.672 6.48 3.936 0 6.648-2.64 6.648-6.48 0-3.864-2.712-6.48-6.648-6.48zm0 2.376c2.28 0 3.888 1.68 3.888 4.128 0 2.472-1.608 4.152-3.888 4.152-2.304 0-3.912-1.68-3.912-4.152 0-2.448 1.608-4.128 3.912-4.128zm21.696-7.32h-2.76v7.248c-.936-1.488-2.472-2.328-4.536-2.328-3.6 0-6.072 2.616-6.072 6.456 0 3.888 2.448 6.552 6.12 6.552 2.04 0 3.576-.816 4.488-2.304V82.5h2.76V64.692zm-6.672 15.624c-2.328 0-3.912-1.728-3.936-4.152.024-2.448 1.632-4.2 3.936-4.2 2.304 0 3.912 1.728 3.912 4.2 0 2.424-1.608 4.152-3.912 4.152zm16.128-10.68c-3.792.024-6.456 2.64-6.456 6.504 0 3.84 2.592 6.456 6.528 6.456 2.208 0 4.032-.792 5.28-2.16l-1.464-1.56c-.936.96-2.208 1.488-3.6 1.488-2.016 0-3.528-1.224-3.96-3.192h9.648c.336-4.608-1.488-7.536-5.976-7.536zm-3.72 5.52c.312-2.04 1.728-3.312 3.744-3.312 2.088 0 3.456 1.248 3.552 3.312h-7.296zm15.336-5.424h-2.76V82.5h2.76v-6.672c.216-2.184 1.848-3.696 4.416-3.552v-2.64c-2.016 0-3.552.912-4.416 2.64v-2.544zm14.16-.096c-2.16 0-3.792.768-4.704 2.544v-2.448h-2.76V82.5h2.76v-6.792c.192-1.992 1.512-3.456 3.624-3.48 1.92 0 3.072 1.176 3.072 3.096V82.5h2.76v-7.944c0-3.048-1.776-4.92-4.752-4.92zm19.872 0c-3.792 0-6.432 2.64-6.432 6.504 0 3.84 2.64 6.456 6.432 6.456 2.424 0 4.272-.864 5.424-2.376l-1.536-1.536c-.864 1.008-2.16 1.536-3.768 1.536-2.208 0-3.792-1.656-3.792-4.08 0-2.424 1.584-4.08 3.792-4.08 1.536-.024 2.76.528 3.648 1.44l1.512-1.776c-1.176-1.344-2.976-2.088-5.28-2.088zm15.912 0c-2.184 0-3.816.792-4.728 2.592v-7.536h-2.76V82.5h2.76v-6.288c0-2.256 1.368-3.96 3.648-3.984 1.92 0 3.072 1.176 3.072 3.096V82.5h2.76v-7.944c0-3.048-1.776-4.92-4.752-4.92zm13.704 0c-3.792.024-6.456 2.64-6.456 6.504 0 3.84 2.592 6.456 6.528 6.456 2.208 0 4.032-.792 5.28-2.16l-1.464-1.56c-.936.96-2.208 1.488-3.6 1.488-2.016 0-3.528-1.224-3.96-3.192h9.648c.336-4.608-1.488-7.536-5.976-7.536zm-3.72 5.52c.312-2.04 1.728-3.312 3.744-3.312 2.088 0 3.456 1.248 3.552 3.312h-7.296zm17.808-5.52c-3.792 0-6.432 2.64-6.432 6.504 0 3.84 2.64 6.456 6.432 6.456 2.424 0 4.272-.864 5.424-2.376l-1.536-1.536c-.864 1.008-2.16 1.536-3.768 1.536-2.208 0-3.792-1.656-3.792-4.08 0-2.424 1.584-4.08 3.792-4.08 1.536-.024 2.76.528 3.648 1.44l1.512-1.776c-1.176-1.344-2.976-2.088-5.28-2.088zm13.344 7.008l3.744 5.856h3.264l-5.088-7.824 4.728-4.944h-3.168l-5.64 5.712V64.692h-2.76V82.5h2.76v-3.576l2.16-2.28zm16.8-12.24c-.912 0-1.608.696-1.608 1.68 0 .96.696 1.656 1.608 1.656.912 0 1.608-.696 1.608-1.656 0-.984-.696-1.68-1.608-1.68zm1.368 18.096V69.732h-2.736V82.5h2.736zm11.544-12.864c-2.16 0-3.792.768-4.704 2.544v-2.448h-2.76V82.5h2.76v-6.792c.192-1.992 1.512-3.456 3.624-3.48 1.92 0 3.072 1.176 3.072 3.096V82.5h2.76v-7.944c0-3.048-1.776-4.92-4.752-4.92zM518.472 82.5h2.712l-.024-8.376c-.024-2.808-1.872-4.488-5.16-4.488-2.424 0-3.72.552-5.496 1.608l1.128 1.92c1.272-.864 2.544-1.296 3.768-1.296 2.016 0 3.048.96 3.048 2.568v.384h-3.864c-3.072.024-4.824 1.512-4.824 3.84 0 2.256 1.728 3.96 4.488 3.96 1.848 0 3.312-.552 4.224-1.68v1.56zm-3.648-2.064c-1.536 0-2.472-.744-2.472-1.896 0-1.224.84-1.704 2.64-1.704h3.456v1.176c-.144 1.392-1.656 2.424-3.624 2.424zm17.52-10.8c-2.16 0-3.792.768-4.704 2.544v-2.448h-2.76V82.5h2.76v-6.792c.192-1.992 1.512-3.456 3.624-3.48 1.92 0 3.072 1.176 3.072 3.096V82.5h2.76v-7.944c0-3.048-1.776-4.92-4.752-4.92zm20.616-4.944h-2.76v7.248c-.936-1.488-2.472-2.328-4.536-2.328-3.6 0-6.072 2.616-6.072 6.456 0 3.888 2.448 6.552 6.12 6.552 2.04 0 3.576-.816 4.488-2.304V82.5h2.76V64.692zm-6.672 15.624c-2.328 0-3.912-1.728-3.936-4.152.024-2.448 1.632-4.2 3.936-4.2 2.304 0 3.912 1.728 3.912 4.2 0 2.424-1.608 4.152-3.912 4.152zm29.232-15.624h-2.76v7.248c-.936-1.488-2.472-2.328-4.536-2.328-3.6 0-6.072 2.616-6.072 6.456 0 3.888 2.448 6.552 6.12 6.552 2.04 0 3.576-.816 4.488-2.304V82.5h2.76V64.692zm-6.672 15.624c-2.328 0-3.912-1.728-3.936-4.152.024-2.448 1.632-4.2 3.936-4.2 2.304 0 3.912 1.728 3.912 4.2 0 2.424-1.608 4.152-3.912 4.152zm12.24-15.912c-.912 0-1.608.696-1.608 1.68 0 .96.696 1.656 1.608 1.656.912 0 1.608-.696 1.608-1.656 0-.984-.696-1.68-1.608-1.68zm1.368 18.096V69.732h-2.736V82.5h2.736zm15.6-12.768h-2.736v2.064c-.888-1.392-2.352-2.184-4.32-2.16-3.384.024-5.664 2.472-5.664 6.072 0 3.672 2.304 6.168 5.76 6.168 1.92 0 3.36-.768 4.224-2.16v1.608c0 2.208-1.584 3.624-4.008 3.624-1.56 0-2.808-.504-4.008-1.392l-1.176 1.992c1.56 1.056 3.312 1.68 5.304 1.68 4.008 0 6.624-2.304 6.624-5.976v-11.52zm-6.408 9.984c-2.208 0-3.696-1.632-3.72-3.936.024-2.28 1.536-3.912 3.72-3.912 2.16 0 3.672 1.608 3.672 3.912s-1.512 3.936-3.672 3.936zm11.616-15.312c-.912 0-1.608.696-1.608 1.68 0 .96.696 1.656 1.608 1.656.912 0 1.608-.696 1.608-1.656 0-.984-.696-1.68-1.608-1.68zm1.368 18.096V69.732h-2.736V82.5h2.736zm10.608-2.928c-.744.36-1.344.552-1.92.552-.864 0-1.368-.408-1.368-1.728v-6.12h3.768v-2.064h-3.768v-3.504h-2.736v3.504h-1.8v2.064h1.8V78.9c0 2.616 1.656 3.72 3.576 3.72 1.08 0 2.136-.336 3.144-.936l-.696-2.112zm10.896 2.928h2.712l-.024-8.376c-.024-2.808-1.872-4.488-5.16-4.488-2.424 0-3.72.552-5.496 1.608l1.128 1.92c1.272-.864 2.544-1.296 3.768-1.296 2.016 0 3.048.96 3.048 2.568v.384h-3.864c-3.072.024-4.824 1.512-4.824 3.84 0 2.256 1.728 3.96 4.488 3.96 1.848 0 3.312-.552 4.224-1.68v1.56zm-3.648-2.064c-1.536 0-2.472-.744-2.472-1.896 0-1.224.84-1.704 2.64-1.704h3.456v1.176c-.144 1.392-1.656 2.424-3.624 2.424zm12.936 2.064V64.692h-2.76V82.5h2.76zm5.568-18.096c-.912 0-1.608.696-1.608 1.68 0 .96.696 1.656 1.608 1.656.912 0 1.608-.696 1.608-1.656 0-.984-.696-1.68-1.608-1.68zM642.36 82.5V69.732h-2.736V82.5h2.736zm13.824-10.896v-1.848l-10.488-.024v2.256h7.08l-7.296 8.64V82.5l10.92.024v-2.256l-7.512-.024 7.296-8.64zm8.256-1.968c-3.792.024-6.456 2.64-6.456 6.504 0 3.84 2.592 6.456 6.528 6.456 2.208 0 4.032-.792 5.28-2.16l-1.464-1.56c-.936.96-2.208 1.488-3.6 1.488-2.016 0-3.528-1.224-3.96-3.192h9.648c.336-4.608-1.488-7.536-5.976-7.536zm-3.72 5.52c.312-2.04 1.728-3.312 3.744-3.312 2.088 0 3.456 1.248 3.552 3.312h-7.296zm24.744-10.464h-2.76v7.248c-.936-1.488-2.472-2.328-4.536-2.328-3.6 0-6.072 2.616-6.072 6.456 0 3.888 2.448 6.552 6.12 6.552 2.04 0 3.576-.816 4.488-2.304V82.5h2.76V64.692zm-6.672 15.624c-2.328 0-3.912-1.728-3.936-4.152.024-2.448 1.632-4.2 3.936-4.2 2.304 0 3.912 1.728 3.912 4.2 0 2.424-1.608 4.152-3.912 4.152zm24.408-10.68c-1.992 0-3.528.816-4.464 2.304v-2.208h-2.76v17.424h2.76v-6.864c.936 1.488 2.472 2.304 4.512 2.304 3.648 0 6.048-2.616 6.048-6.432 0-3.888-2.472-6.528-6.096-6.528zm-.576 10.608c-2.28 0-3.888-1.704-3.888-4.176 0-2.4 1.608-4.128 3.888-4.128s3.888 1.752 3.888 4.128c0 2.448-1.608 4.176-3.888 4.176zm17.208 2.256h2.712l-.024-8.376c-.024-2.808-1.872-4.488-5.16-4.488-2.424 0-3.72.552-5.496 1.608l1.128 1.92c1.272-.864 2.544-1.296 3.768-1.296 2.016 0 3.048.96 3.048 2.568v.384h-3.864c-3.072.024-4.824 1.512-4.824 3.84 0 2.256 1.728 3.96 4.488 3.96 1.848 0 3.312-.552 4.224-1.68v1.56zm-3.648-2.064c-1.536 0-2.472-.744-2.472-1.896 0-1.224.84-1.704 2.64-1.704h3.456v1.176c-.144 1.392-1.656 2.424-3.624 2.424zm20.496-10.704h-2.76l-3.552 9.672-3.816-9.672h-2.856l5.28 12.576-.432.96c-.432.96-1.104 1.416-1.944 1.416-.576 0-1.056-.192-1.656-.624l-1.176 2.136c.888.744 1.8 1.08 2.952 1.08 1.92 0 3.36-1.008 4.152-3.024l5.808-14.52zm18.72-.096c-2.328 0-4.032.936-4.848 3.072-.6-1.944-2.16-3.072-4.44-3.072-2.112 0-3.744.768-4.632 2.568v-2.472h-2.736V82.5h2.736v-6.312c0-2.232 1.344-3.912 3.552-3.984 1.872 0 3 1.176 3 3.12V82.5h2.76v-6.312c0-2.232 1.32-3.912 3.504-3.984 1.872 0 3.024 1.176 3.024 3.12V82.5h2.76v-7.944c0-3.048-1.752-4.92-4.68-4.92zm13.632 0c-3.792.024-6.456 2.64-6.456 6.504 0 3.84 2.592 6.456 6.528 6.456 2.208 0 4.032-.792 5.28-2.16l-1.464-1.56c-.936.96-2.208 1.488-3.6 1.488-2.016 0-3.528-1.224-3.96-3.192h9.648c.336-4.608-1.488-7.536-5.976-7.536zm-3.72 5.52c.312-2.04 1.728-3.312 3.744-3.312 2.088 0 3.456 1.248 3.552 3.312h-7.296zm20.04-5.52c-2.16 0-3.792.768-4.704 2.544v-2.448h-2.76V82.5h2.76v-6.792c.192-1.992 1.512-3.456 3.624-3.48 1.92 0 3.072 1.176 3.072 3.096V82.5h2.76v-7.944c0-3.048-1.776-4.92-4.752-4.92zm14.976 9.936c-.744.36-1.344.552-1.92.552-.864 0-1.368-.408-1.368-1.728v-6.12h3.768v-2.064h-3.768v-3.504h-2.736v3.504h-1.8v2.064h1.8V78.9c0 2.616 1.656 3.72 3.576 3.72 1.08 0 2.136-.336 3.144-.936l-.696-2.112zm26.088-9.936c-2.328 0-4.032.936-4.848 3.072-.6-1.944-2.16-3.072-4.44-3.072-2.112 0-3.744.768-4.632 2.568v-2.472h-2.736V82.5h2.736v-6.312c0-2.232 1.344-3.912 3.552-3.984 1.872 0 3 1.176 3 3.12V82.5h2.76v-6.312c0-2.232 1.32-3.912 3.504-3.984 1.872 0 3.024 1.176 3.024 3.12V82.5h2.76v-7.944c0-3.048-1.752-4.92-4.68-4.92zm13.632 0c-3.792.024-6.456 2.64-6.456 6.504 0 3.84 2.592 6.456 6.528 6.456 2.208 0 4.032-.792 5.28-2.16l-1.464-1.56c-.936.96-2.208 1.488-3.6 1.488-2.016 0-3.528-1.224-3.96-3.192h9.648c.336-4.608-1.488-7.536-5.976-7.536zm-3.72 5.52c.312-2.04 1.728-3.312 3.744-3.312 2.088 0 3.456 1.248 3.552 3.312h-7.296zM856.56 82.5h2.712l-.024-8.376c-.024-2.808-1.872-4.488-5.16-4.488-2.424 0-3.72.552-5.496 1.608l1.128 1.92c1.272-.864 2.544-1.296 3.768-1.296 2.016 0 3.048.96 3.048 2.568v.384h-3.864c-3.072.024-4.824 1.512-4.824 3.84 0 2.256 1.728 3.96 4.488 3.96 1.848 0 3.312-.552 4.224-1.68v1.56zm-3.648-2.064c-1.536 0-2.472-.744-2.472-1.896 0-1.224.84-1.704 2.64-1.704h3.456v1.176c-.144 1.392-1.656 2.424-3.624 2.424zm17.52-10.8c-2.16 0-3.792.768-4.704 2.544v-2.448h-2.76V82.5h2.76v-6.792c.192-1.992 1.512-3.456 3.624-3.48 1.92 0 3.072 1.176 3.072 3.096V82.5h2.76v-7.944c0-3.048-1.776-4.92-4.752-4.92zm12.264-.024c-2.448 0-4.704 1.104-4.704 3.696-.024 4.608 6.696 3.144 6.696 5.76 0 .96-.912 1.368-2.088 1.368-1.392 0-3.168-.6-4.272-1.584l-.984 1.968c1.272 1.152 3.264 1.776 5.136 1.776 2.568 0 4.896-1.176 4.896-3.792.024-4.632-6.768-3.36-6.768-5.712 0-.912.792-1.272 1.872-1.272 1.128 0 2.544.432 3.672 1.128l1.008-2.04c-1.152-.816-2.856-1.296-4.464-1.296zm21.12.024c-2.16 0-3.792.768-4.704 2.544v-2.448h-2.76V82.5h2.76v-6.792c.192-1.992 1.512-3.456 3.624-3.48 1.92 0 3.072 1.176 3.072 3.096V82.5h2.76v-7.944c0-3.048-1.776-4.92-4.752-4.92zm13.92 0c-3.96 0-6.672 2.616-6.672 6.48 0 3.84 2.712 6.48 6.672 6.48 3.936 0 6.648-2.64 6.648-6.48 0-3.864-2.712-6.48-6.648-6.48zm0 2.376c2.28 0 3.888 1.68 3.888 4.128 0 2.472-1.608 4.152-3.888 4.152-2.304 0-3.912-1.68-3.912-4.152 0-2.448 1.608-4.128 3.912-4.128zm32.376-2.376c-2.328 0-4.032.936-4.848 3.072-.6-1.944-2.16-3.072-4.44-3.072-2.112 0-3.744.768-4.632 2.568v-2.472h-2.736V82.5h2.736v-6.312c0-2.232 1.344-3.912 3.552-3.984 1.872 0 3 1.176 3 3.12V82.5h2.76v-6.312c0-2.232 1.32-3.912 3.504-3.984 1.872 0 3.024 1.176 3.024 3.12V82.5h2.76v-7.944c0-3.048-1.752-4.92-4.68-4.92zm13.848 0c-3.96 0-6.672 2.616-6.672 6.48 0 3.84 2.712 6.48 6.672 6.48 3.936 0 6.648-2.64 6.648-6.48 0-3.864-2.712-6.48-6.648-6.48zm0 2.376c2.28 0 3.888 1.68 3.888 4.128 0 2.472-1.608 4.152-3.888 4.152-2.304 0-3.912-1.68-3.912-4.152 0-2.448 1.608-4.128 3.912-4.128zm12.288-2.28h-2.76V82.5h2.76v-6.672c.216-2.184 1.848-3.696 4.416-3.552v-2.64c-2.016 0-3.552.912-4.416 2.64v-2.544zm11.952-.096c-3.792.024-6.456 2.64-6.456 6.504 0 3.84 2.592 6.456 6.528 6.456 2.208 0 4.032-.792 5.28-2.16l-1.464-1.56c-.936.96-2.208 1.488-3.6 1.488-2.016 0-3.528-1.224-3.96-3.192h9.648c.336-4.608-1.488-7.536-5.976-7.536zm-3.72 5.52c.312-2.04 1.728-3.312 3.744-3.312 2.088 0 3.456 1.248 3.552 3.312h-7.296zm26.112-5.52c-1.992 0-3.528.816-4.464 2.304v-2.208h-2.76v17.424h2.76v-6.864c.936 1.488 2.472 2.304 4.512 2.304 3.648 0 6.048-2.616 6.048-6.432 0-3.888-2.472-6.528-6.096-6.528zm-.576 10.608c-2.28 0-3.888-1.704-3.888-4.176 0-2.4 1.608-4.128 3.888-4.128s3.888 1.752 3.888 4.128c0 2.448-1.608 4.176-3.888 4.176zm17.208 2.256h2.712l-.024-8.376c-.024-2.808-1.872-4.488-5.16-4.488-2.424 0-3.72.552-5.496 1.608l1.128 1.92c1.272-.864 2.544-1.296 3.768-1.296 2.016 0 3.048.96 3.048 2.568v.384h-3.864c-3.072.024-4.824 1.512-4.824 3.84 0 2.256 1.728 3.96 4.488 3.96 1.848 0 3.312-.552 4.224-1.68v1.56zm-3.648-2.064c-1.536 0-2.472-.744-2.472-1.896 0-1.224.84-1.704 2.64-1.704h3.456v1.176c-.144 1.392-1.656 2.424-3.624 2.424zm17.4-10.8c-1.992 0-3.528.816-4.464 2.304v-2.208h-2.76v17.424h2.76v-6.864c.936 1.488 2.472 2.304 4.512 2.304 3.648 0 6.048-2.616 6.048-6.432 0-3.888-2.472-6.528-6.096-6.528zm-.576 10.608c-2.28 0-3.888-1.704-3.888-4.176 0-2.4 1.608-4.128 3.888-4.128s3.888 1.752 3.888 4.128c0 2.448-1.608 4.176-3.888 4.176zm14.808-10.608c-3.792.024-6.456 2.64-6.456 6.504 0 3.84 2.592 6.456 6.528 6.456 2.208 0 4.032-.792 5.28-2.16l-1.464-1.56c-.936.96-2.208 1.488-3.6 1.488-2.016 0-3.528-1.224-3.96-3.192h9.648c.336-4.608-1.488-7.536-5.976-7.536zm-3.72 5.52c.312-2.04 1.728-3.312 3.744-3.312 2.088 0 3.456 1.248 3.552 3.312h-7.296zm15.336-5.424h-2.76V82.5h2.76v-6.672c.216-2.184 1.848-3.696 4.416-3.552v-2.64c-2.016 0-3.552.912-4.416 2.64v-2.544zM1089 82.5l4.656-12.768h-2.808l-3.264 10.032-3.24-10.032h-2.856l-3.216 10.032-3.312-10.032h-2.832l4.704 12.768h2.832l3.24-9.456 3.24 9.456H1089zm11.568-12.864c-3.96 0-6.672 2.616-6.672 6.48 0 3.84 2.712 6.48 6.672 6.48 3.936 0 6.648-2.64 6.648-6.48 0-3.864-2.712-6.48-6.648-6.48zm0 2.376c2.28 0 3.888 1.68 3.888 4.128 0 2.472-1.608 4.152-3.888 4.152-2.304 0-3.912-1.68-3.912-4.152 0-2.448 1.608-4.128 3.912-4.128zm12.288-2.28h-2.76V82.5h2.76v-6.672c.216-2.184 1.848-3.696 4.416-3.552v-2.64c-2.016 0-3.552.912-4.416 2.64v-2.544zm11.736 6.912l3.744 5.856h3.264l-5.088-7.824 4.728-4.944h-3.168l-5.64 5.712V64.692h-2.76V82.5h2.76v-3.576l2.16-2.28zm20.904-7.008c-3.96 0-6.672 2.616-6.672 6.48 0 3.84 2.712 6.48 6.672 6.48 3.936 0 6.648-2.64 6.648-6.48 0-3.864-2.712-6.48-6.648-6.48zm0 2.376c2.28 0 3.888 1.68 3.888 4.128 0 2.472-1.608 4.152-3.888 4.152-2.304 0-3.912-1.68-3.912-4.152 0-2.448 1.608-4.128 3.912-4.128zm12.288-2.28h-2.76V82.5h2.76v-6.672c.216-2.184 1.848-3.696 4.416-3.552v-2.64c-2.016 0-3.552.912-4.416 2.64v-2.544zm18.672 12.768l4.896-12.768h-2.76l-3.504 10.056-3.552-10.056h-2.88L1173.6 82.5h2.856zm11.808-12.864c-3.96 0-6.672 2.616-6.672 6.48 0 3.84 2.712 6.48 6.672 6.48 3.936 0 6.648-2.64 6.648-6.48 0-3.864-2.712-6.48-6.648-6.48zm0 2.376c2.28 0 3.888 1.68 3.888 4.128 0 2.472-1.608 4.152-3.888 4.152-2.304 0-3.912-1.68-3.912-4.152 0-2.448 1.608-4.128 3.912-4.128zm21.12-2.28h-2.76v6.288c0 2.232-1.296 3.936-3.504 3.984-1.848 0-2.976-1.176-2.976-3.096v-7.176h-2.76v7.944c0 3.048 1.752 4.92 4.68 4.92 2.088-.024 3.696-.816 4.56-2.592V82.5h2.76V69.732zm9.312-.096c-3.792 0-6.432 2.64-6.432 6.504 0 3.84 2.64 6.456 6.432 6.456 2.424 0 4.272-.864 5.424-2.376l-1.536-1.536c-.864 1.008-2.16 1.536-3.768 1.536-2.208 0-3.792-1.656-3.792-4.08 0-2.424 1.584-4.08 3.792-4.08 1.536-.024 2.76.528 3.648 1.44l1.512-1.776c-1.176-1.344-2.976-2.088-5.28-2.088zm15.912 0c-2.184 0-3.816.792-4.728 2.592v-7.536h-2.76V82.5h2.76v-6.288c0-2.256 1.368-3.96 3.648-3.984 1.92 0 3.072 1.176 3.072 3.096V82.5h2.76v-7.944c0-3.048-1.776-4.92-4.752-4.92zm13.704 0c-3.792.024-6.456 2.64-6.456 6.504 0 3.84 2.592 6.456 6.528 6.456 2.208 0 4.032-.792 5.28-2.16l-1.464-1.56c-.936.96-2.208 1.488-3.6 1.488-2.016 0-3.528-1.224-3.96-3.192h9.648c.336-4.608-1.488-7.536-5.976-7.536zm-3.72 5.52c.312-2.04 1.728-3.312 3.744-3.312 2.088 0 3.456 1.248 3.552 3.312h-7.296zm15.336-5.424h-2.76V82.5h2.76v-6.672c.216-2.184 1.848-3.696 4.416-3.552v-2.64c-2.016 0-3.552.912-4.416 2.64v-2.544zm10.512-.12c-2.448 0-4.704 1.104-4.704 3.696-.024 4.608 6.696 3.144 6.696 5.76 0 .96-.912 1.368-2.088 1.368-1.392 0-3.168-.6-4.272-1.584l-.984 1.968c1.272 1.152 3.264 1.776 5.136 1.776 2.568 0 4.896-1.176 4.896-3.792.024-4.632-6.768-3.36-6.768-5.712 0-.912.792-1.272 1.872-1.272 1.128 0 2.544.432 3.672 1.128l1.008-2.04c-1.152-.816-2.856-1.296-4.464-1.296zm8.04 9.936c-.864 0-1.512.648-1.512 1.56 0 .936.648 1.608 1.512 1.608s1.512-.672 1.512-1.608c0-.912-.648-1.56-1.512-1.56zM720.66 122.5v-16.8h-6.12v2.52h3.288v14.28h2.832zm11.16-16.872c-4.608 0-7.152 3.024-7.152 8.472 0 5.448 2.544 8.472 7.152 8.472 4.584 0 7.128-3.024 7.128-8.472 0-5.448-2.544-8.472-7.128-8.472zm0 2.232c2.808 0 4.224 1.968 4.224 6.24 0 4.248-1.416 6.24-4.224 6.24-2.832 0-4.248-1.992-4.248-6.24 0-4.272 1.416-6.24 4.248-6.24zm16.584-2.232c-4.608 0-7.152 3.024-7.152 8.472 0 5.448 2.544 8.472 7.152 8.472 4.584 0 7.128-3.024 7.128-8.472 0-5.448-2.544-8.472-7.128-8.472zm0 2.232c2.808 0 4.224 1.968 4.224 6.24 0 4.248-1.416 6.24-4.224 6.24-2.832 0-4.248-1.992-4.248-6.24 0-4.272 1.416-6.24 4.248-6.24zm13.632-2.208c-2.76 0-4.44 1.872-4.44 4.992 0 3.144 1.68 5.04 4.44 5.04 2.76 0 4.44-1.896 4.44-5.04 0-3.12-1.68-4.992-4.44-4.992zm-1.272 16.848h2.664l12.336-16.8h-2.64l-12.36 16.8zm1.272-15.216c1.656 0 2.616 1.224 2.616 3.36 0 2.16-.96 3.408-2.616 3.408-1.656 0-2.592-1.248-2.592-3.408 0-2.136.936-3.36 2.592-3.36zm12.648 5.256c-2.76 0-4.44 1.872-4.44 4.992 0 3.144 1.68 5.016 4.44 5.016 2.76 0 4.44-1.872 4.44-5.016 0-3.12-1.68-4.992-4.44-4.992zm0 1.608c1.656 0 2.616 1.248 2.616 3.384 0 2.16-.96 3.384-2.616 3.384-1.656 0-2.592-1.224-2.592-3.384 0-2.136.936-3.384 2.592-3.384zm13.752-8.448v16.8h6.816c5.088 0 8.76-3.552 8.76-8.4 0-4.872-3.648-8.4-8.688-8.4h-6.888zm2.832 2.544h4.008c3.312 0 5.88 2.448 5.88 5.88 0 3.408-2.496 5.832-5.76 5.832h-4.128v-11.712zm16.968-3.84c-.912 0-1.608.696-1.608 1.68 0 .96.696 1.656 1.608 1.656.912 0 1.608-.696 1.608-1.656 0-.984-.696-1.68-1.608-1.68zm1.368 18.096v-12.768h-2.736V122.5h2.736zm15.6-12.768h-2.736v2.064c-.888-1.392-2.352-2.184-4.32-2.16-3.384.024-5.664 2.472-5.664 6.072 0 3.672 2.304 6.168 5.76 6.168 1.92 0 3.36-.768 4.224-2.16v1.608c0 2.208-1.584 3.624-4.008 3.624-1.56 0-2.808-.504-4.008-1.392l-1.176 1.992c1.56 1.056 3.312 1.68 5.304 1.68 4.008 0 6.624-2.304 6.624-5.976v-11.52zm-6.408 9.984c-2.208 0-3.696-1.632-3.72-3.936.024-2.28 1.536-3.912 3.72-3.912 2.16 0 3.672 1.608 3.672 3.912s-1.512 3.936-3.672 3.936zm11.616-15.312c-.912 0-1.608.696-1.608 1.68 0 .96.696 1.656 1.608 1.656.912 0 1.608-.696 1.608-1.656 0-.984-.696-1.68-1.608-1.68zm1.368 18.096v-12.768h-2.736V122.5h2.736zm10.608-2.928c-.744.36-1.344.552-1.92.552-.864 0-1.368-.408-1.368-1.728v-6.12h3.768v-2.064H839.1v-3.504h-2.736v3.504h-1.8v2.064h1.8v6.624c0 2.616 1.656 3.72 3.576 3.72 1.08 0 2.136-.336 3.144-.936l-.696-2.112zm10.896 2.928h2.712l-.024-8.376c-.024-2.808-1.872-4.488-5.16-4.488-2.424 0-3.72.552-5.496 1.608l1.128 1.92c1.272-.864 2.544-1.296 3.768-1.296 2.016 0 3.048.96 3.048 2.568v.384h-3.864c-3.072.024-4.824 1.512-4.824 3.84 0 2.256 1.728 3.96 4.488 3.96 1.848 0 3.312-.552 4.224-1.68v1.56zm-3.648-2.064c-1.536 0-2.472-.744-2.472-1.896 0-1.224.84-1.704 2.64-1.704h3.456v1.176c-.144 1.392-1.656 2.424-3.624 2.424zm12.936 2.064v-17.808h-2.76V122.5h2.76zm6.336-12.456v-4.128h-2.616v4.128l.432 7.104h1.752l.432-7.104zm-1.296 9.504c-.864 0-1.512.648-1.512 1.56 0 .936.648 1.608 1.512 1.608s1.512-.672 1.512-1.608c0-.912-.648-1.56-1.512-1.56z" fill="#fff" mask="url(#b)"/></g></svg>