<svg width="1591" height="509" viewBox="0 0 1591 509" xmlns="http://www.w3.org/2000/svg" xmlns:xlink="http://www.w3.org/1999/xlink"><title>Group</title><desc>Created with Sketch.</desc><defs><path id="a" d="M0 0h1591v508.933H0z"/><path id="c" d="M1081.062 65.954c-62.638 0-113.418 50.798-113.418 113.462s50.78 113.466 113.418 113.466c62.64 0 113.418-50.802 113.418-113.466 0-62.664-50.78-113.462-113.418-113.462z"/></defs><g fill="none"><mask id="b"><use xlink:href="#a"/></mask><use fill="#EFC75E" xlink:href="#a"/><g transform="translate(191 243)" mask="url(#b)"><path d="M697.004.32H510.996c-15.63 0-28.306 12.63-28.306 28.2v237.694C516.483 291.502 558.485 306.5 604 306.5c45.524 0 87.525-14.998 121.31-40.286V28.52c0-15.57-12.67-28.2-28.306-28.2z" id="Shape" fill="#E4E7E7"/><path d="M707.674 47.948H498.06c-2.227 0-4.032 1.81-4.032 4.04v222.485c31.397 20.24 68.737 32.028 108.838 32.028 40.105 0 77.44-11.788 108.84-32.027V51.987c0-2.23-1.803-4.04-4.032-4.04z" id="Shape" fill="#344C59"/><path d="M704.903 57.02H503.097v222.5c29.69 17.126 64.138 26.98 100.903 26.98 36.773 0 71.217-9.854 100.903-26.98V57.02z" id="Shape" fill="#3F5E6D"/><path d="M622.82 16.195h-40.814c-2.258 0-4.082 2.036-4.082 4.534 0 2.506 1.824 4.537 4.082 4.537h40.814c2.257 0 4.08-2.03 4.08-4.538 0-2.5-1.823-4.535-4.08-4.535zm16.326 0c-2.257 0-4.082 2.036-4.082 4.534 0 2.506 1.825 4.537 4.082 4.537 2.257 0 4.08-2.03 4.08-4.538 0-2.5-1.823-4.535-4.08-4.535zm16.326 0c-2.257 0-4.082 2.036-4.082 4.534 0 2.506 1.825 4.537 4.082 4.537 2.257 0 4.08-2.03 4.08-4.538 0-2.5-1.823-4.535-4.08-4.535z" id="Shape" fill="#BFC3C5"/><path d="M518.516 152.276c-6.01 0-10.884 4.062-10.884 9.072v121.78c24.543 20.06 58.147 23.373 95.234 23.373 37.09 0 70.69-3.313 95.234-23.373v-121.78c0-5.01-4.873-9.07-10.884-9.07h-168.7z" id="Shape" fill="#E2574C"/><path d="M529.056 172.688c-3.064 0-5.55 2.032-5.55 4.536V294.52c22.707 13.24 50.475 16.517 80.494 16.517 30.02 0 57.787-3.277 80.495-16.516V177.225c0-2.504-2.487-4.536-5.55-4.536h-149.89z" id="Shape" fill="#F0DDAB"/><path d="M687.216 152.276h-168.7c-6.01 0-10.884 4.062-10.884 9.072v4.536c0-5.01 4.874-9.072 10.884-9.072h168.7c6.01 0 10.884 4.062 10.884 9.072v-4.536c0-5.01-4.873-9.072-10.884-9.072z" id="Shape" fill="#BF392B"/><path d="M654.565 272.48H551.168c-1.505 0-2.72 1.014-2.72 2.27 0 1.253 1.215 2.267 2.72 2.267h103.397c1.504 0 2.72-1.014 2.72-2.268 0-1.256-1.216-2.27-2.72-2.27zm0-22.68H551.168c-1.505 0-2.72 1.014-2.72 2.268 0 1.255 1.215 2.268 2.72 2.268h103.397c1.504 0 2.72-1.013 2.72-2.268 0-1.254-1.216-2.268-2.72-2.268zm0-22.68H551.168c-1.505 0-2.72 1.016-2.72 2.268 0 1.255 1.215 2.268 2.72 2.268h103.397c1.504 0 2.72-1.013 2.72-2.268 0-1.252-1.216-2.268-2.72-2.268zm0 68.04H551.168c-1.505 0-2.72 1.014-2.72 2.27 0 1.253 1.215 2.267 2.72 2.267h103.397c1.504 0 2.72-1.014 2.72-2.268 0-1.256-1.216-2.27-2.72-2.27zm-103.397-86.184h103.397c1.504 0 2.72-1.014 2.72-2.268 0-1.252-1.216-2.268-2.72-2.268H551.168c-1.505 0-2.72 1.016-2.72 2.268 0 1.254 1.215 2.268 2.72 2.268z" id="Shape" fill="#D8C69A"/><path d="M551.157 161.348h105.686c1.5 0 2.71 1.016 2.71 2.268v15.876c0 3.758-3.642 6.804-8.13 6.804h-94.846c-4.488 0-8.13-3.046-8.13-6.804v-15.876c0-1.252 1.21-2.268 2.71-2.268zm36.188-22.68h34.27c4.487 0 6.83 2.744 8.13 6.804l5.42 15.876h-59.62l5.42-15.876c.792-2.88 2.372-6.804 6.38-6.804z" id="Shape" fill="#CCD0D2"/><path d="M577.444 156.812l-1.787 4.536h58.954l-1.784-4.536h-55.382z" id="Shape" fill="#A4A7A9"/><path d="M656.843 161.348H551.157c-1.5 0-2.71 1.016-2.71 2.268v6.804c0-1.252 1.21-2.268 2.71-2.268h105.686c1.5 0 2.71 1.016 2.71 2.268v-6.804c0-1.252-1.21-2.268-2.71-2.268z" id="Shape" fill="#B7BBBD"/><path d="M713.972 182.75c-5.642-9.652-13.522-17.79-22.92-23.67-18.958 19.29-51.428 52.33-52.05 52.96-1.845 1.88-7.756 29.486-6.48 30.785 1.308 1.332 27.78-5.46 29.572-7.288l51.878-52.786z" id="Shape" fill="#BF392B"/><path d="M650.368 223.284c-1.343-1.415-1.516-7.624-2.87-9.048-1.352-1.428-8.553-2.99-8.56-2.992-1.756 1.85-7.22 28.016-6.536 31.28l.398.42c3.077.694 27.314-5.796 29.02-7.595 0 0-1.545-7.656-2.867-9.048-1.323-1.395-7.24-1.602-8.585-3.018z" id="Shape" fill="#FFCABA"/><path d="M632.343 242.348l.036.198.398.4c3.085.66 27.334-5.52 29.043-7.235 0 0-1.486-7.23-2.84-8.59-22.56 12.87-26.085 14.906-26.637 15.228z" id="Shape" fill="#E5B5A7"/><path d="M632.36 240.728c.43-.707 2.798-4.65 15.856-26.636-1.418-1.36-8.965-2.848-8.965-2.848-1.788 1.712-7.252 25.33-6.89 29.484z" id="Shape" fill="#FFDCD2"/><path d="M637.304 237.856c-.98-.89-2.66-1.556-4.22-1.664-.665 3.588-.963 6.273-.554 6.644.398.362 3.035.08 6.61-.542.086-1.57-.715-3.42-1.836-4.438z" id="Shape" fill="#BF392B"/><path d="M647.804 213.512c-.02.033 50.296-49.703 50.296-49.703-2.164-1.706-4.426-3.29-6.79-4.73l-52.164 51.592c10.848 2.84 7.29 1.486 8.658 2.84z" id="Shape" fill="#C9574B"/><path d="M215.503 4.683H29.3C13.656 4.683.966 17.32.966 32.9v237.828c33.828 25.302 75.874 40.31 121.437 40.31 45.57 0 87.616-15.008 121.436-40.31V32.9c0-15.58-12.682-28.217-28.335-28.217z" id="Shape" fill="#E4E7E7"/><path d="M226.184 52.338H16.35c-2.228 0-4.035 1.81-4.035 4.042v222.61c31.43 20.252 68.81 32.047 108.952 32.047 40.147 0 77.522-11.795 108.952-32.046V56.38c0-2.23-1.804-4.042-4.036-4.042z" id="Shape" fill="#344C59"/><path d="M223.41 61.415H21.394V284.04c29.72 17.137 64.205 26.997 101.008 26.997 36.81 0 71.29-9.86 101.008-26.996V61.416z" id="Shape" fill="#3F5E6D"/><path d="M141.242 20.568h-40.858c-2.26 0-4.085 2.037-4.085 4.537 0 2.508 1.825 4.54 4.084 4.54h40.858c2.26 0 4.085-2.032 4.085-4.54 0-2.5-1.826-4.537-4.085-4.537zm16.342 0c-2.26 0-4.085 2.037-4.085 4.537 0 2.508 1.825 4.54 4.084 4.54 2.26 0 4.086-2.032 4.086-4.54 0-2.5-1.826-4.537-4.086-4.537zm16.343 0c-2.26 0-4.085 2.037-4.085 4.537 0 2.508 1.826 4.54 4.085 4.54 2.26 0 4.086-2.032 4.086-4.54 0-2.5-1.826-4.537-4.086-4.537z" id="Shape" fill="#BFC3C5"/><path d="M48.632 171.542v37.377l49.18-53.396v-14.207l-23.044-.04-26.136 30.265zm121.035-30.694l-22.675-.008v14.684l49.18 53.395V171.54l-26.505-30.694z" id="Shape" fill="#227F9E"/><path d="M144.99 110.8h-33.334l-1.757-1.73H95.785c-1.05 0-1.757.81-1.757 1.567v31.284c0 1.91 1.573 3.46 3.513 3.46h47.447c1.94 0 3.515-1.55 3.515-3.46v-27.663c0-1.908-1.574-3.458-3.515-3.458z" id="Shape" fill="#816B32"/><path d="M95.26 113.61h54.283c1.933 0 3.502 1.524 3.502 3.403v27.23c0 1.88-1.57 3.405-3.502 3.405H95.26c-1.932 0-3.5-1.525-3.5-3.404v-27.23c0-1.88 1.568-3.405 3.5-3.405z" id="Shape" fill="#8F7738"/><path d="M158.648 120.417h-17.654c-.488 0-3.586 3.025-3.586 3.507H86.21c-1.95 0-3.53 1.57-3.53 3.507v28.058c0 1.936 1.58 3.507 3.53 3.507h72.383c1.95 0 3.53-1.57 3.53-3.507V123.87c0-1.868-1.743-3.453-3.475-3.453z" id="Shape" fill="#B09246"/><path d="M81.66 127.225h79.213c1.944 0 3.52 1.525 3.52 3.404v27.23c0 1.88-1.576 3.404-3.52 3.404H81.66c-1.943 0-3.52-1.525-3.52-3.404v-27.23c0-1.88 1.577-3.405 3.52-3.405z" id="Shape" fill="#BF9F4B"/><path d="M74.853 136.302h95.098c1.945 0 3.523 1.525 3.523 3.404v27.23c0 1.88-1.578 3.405-3.522 3.405H74.854c-1.945 0-3.523-1.524-3.523-3.403v-27.23c0-1.88 1.578-3.405 3.523-3.405z" id="Shape" fill="#DCB757"/><path d="M88.444 127.345l71.08 19.12c1.87.5 2.98 2.43 2.48 4.306l-8.163 30.58c-.5 1.876-2.422 2.99-4.29 2.486L78.468 164.72c-1.868-.504-2.98-2.433-2.478-4.31l8.164-30.578c.5-1.875 2.423-2.988 4.29-2.487z" id="Shape" fill="#E4E7E7"/><path d="M70.337 143.11h106.4c1.957 0 3.546 1.525 3.546 3.404v27.23c0 1.88-1.59 3.405-3.547 3.405h-106.4c-1.956 0-3.545-1.526-3.545-3.405v-27.23c0-1.88 1.59-3.405 3.547-3.405z" id="Shape" fill="#EFC75E"/><path d="M53.9 165.803h137.002c2.91 0 5.27 2.372 5.27 5.295v52.95c0 2.924-2.36 5.295-5.27 5.295h-137c-2.91 0-5.27-2.37-5.27-5.295v-52.95c0-2.923 2.36-5.295 5.27-5.295z" id="Shape" fill="#2EA9D3"/><path d="M89.785 188.495c-3.924 0-7.105 3.05-7.105 6.808 0 3.76 3.18 6.808 7.105 6.808 3.924 0 7.106-3.047 7.106-6.807 0-3.76-3.18-6.808-7.105-6.808zm67.503 0c-3.924 0-7.105 3.05-7.105 6.808 0 3.76 3.18 6.808 7.105 6.808 3.924 0 7.106-3.047 7.106-6.807 0-3.76-3.182-6.808-7.106-6.808z" id="Shape" fill="#4DC6EF"/><path d="M156.287 195.303c-1.97 0-3.566 1.627-3.566 3.63v1.817c0 3.008-2.395 5.446-5.35 5.446H97.434c-2.956 0-5.35-2.438-5.35-5.446v-1.816c0-2.004-1.6-3.63-3.568-3.63-1.97 0-3.567 1.626-3.567 3.63v5.446c0 5.015 3.99 9.078 8.917 9.078h57.07c4.926 0 8.917-4.063 8.917-9.078v-5.446c0-2.004-1.598-3.63-3.567-3.63z" id="Shape" fill="#E4E7E7"/><path d="M125.807 182.822c0-1.88-1.526-3.404-3.405-3.404-1.88 0-3.405 1.525-3.405 3.404 0 1.21.637 2.265 1.588 2.87l-1.588 7.342h6.81l-1.59-7.34c.953-.607 1.59-1.662 1.59-2.872z" id="Shape" fill="#207693"/><path d="M80.41 145.38h74.905l-13.213-4.54H81.36l-.95 4.54z" id="Shape" fill="#D8DBDB"/><path d="M190.902 165.803h-137c-2.91 0-5.27 2.44-5.27 5.446v3.63c0-3.007 2.36-5.447 5.27-5.447h137c2.91 0 5.27 2.44 5.27 5.447v-3.63c0-3.008-2.36-5.447-5.27-5.447z" id="Shape" fill="#58BADC"/><path d="M150.937 213.836h-57.07c-4.926 0-8.918-4.232-8.918-9.456v1.89c0 5.225 3.99 9.457 8.917 9.457h57.07c4.926 0 8.917-4.232 8.917-9.456v-1.89c0 5.224-3.99 9.456-8.917 9.456z" id="Shape" fill="#2998BE"/><path d="M190.902 227.98h-137c-2.91 0-5.27-2.437-5.27-5.445v3.63c0 3.01 2.36 5.447 5.27 5.447h137c2.91 0 5.27-2.438 5.27-5.446v-3.63c0 3.007-2.36 5.445-5.27 5.445z" id="Shape" fill="#249CC5"/><path d="M1179.774 4.683H993.692c-15.635 0-28.316 12.637-28.316 28.217v237.828c33.806 25.302 75.824 40.31 121.357 40.31 45.54 0 87.56-15.008 121.358-40.31V32.9c0-15.58-12.673-28.217-28.316-28.217z" id="Shape" fill="#E4E7E7"/><path d="M1190.448 52.338H980.75c-2.226 0-4.033 1.81-4.033 4.042v222.61c31.41 20.252 68.765 32.047 108.882 32.047 40.12 0 77.47-11.795 108.88-32.046V56.38c0-2.23-1.802-4.042-4.032-4.042z" id="Shape" fill="#344C59"/><path d="M1187.675 61.415H985.79V284.04c29.702 17.137 64.164 26.997 100.943 26.997 36.787 0 71.245-9.86 100.942-26.996V61.416z" id="Shape" fill="#3F5E6D"/><path d="M1105.56 20.568h-40.83c-2.258 0-4.083 2.037-4.083 4.537 0 2.508 1.825 4.54 4.083 4.54h40.83c2.258 0 4.084-2.032 4.084-4.54 0-2.5-1.826-4.537-4.084-4.537zm16.333 0c-2.258 0-4.083 2.037-4.083 4.537 0 2.508 1.825 4.54 4.083 4.54s4.083-2.032 4.083-4.54c0-2.5-1.825-4.537-4.083-4.537zm16.332 0c-2.258 0-4.083 2.037-4.083 4.537 0 2.508 1.825 4.54 4.083 4.54s4.083-2.032 4.083-4.54c0-2.5-1.825-4.537-4.083-4.537z" id="Shape" fill="#BFC3C5"/><mask id="d"><use xlink:href="#c"/></mask><path d="M1132.374 118.145c2.98 0 5.397 3.05 5.397 6.808V233.88c0 3.76-2.415 6.807-5.396 6.807H986.65V118.145h145.724z" id="Shape" fill="#EFEFEF" mask="url(#d)"/><path d="M1117.356 146.51h-43.1c-2.503 0-4.536 2.035-4.536 4.54v9.077c0 2.505 2.033 4.54 4.537 4.54h43.1c2.503 0 4.536-2.035 4.536-4.54v-9.077c0-2.505-2.033-4.54-4.537-4.54zm-130.227 0v18.156h63.106c1.99 0 3.606-2.034 3.606-4.54v-9.076c0-2.505-1.616-4.54-3.606-4.54H987.13zm62.175 47.656h-15.88c-2.503 0-4.535 2.034-4.535 4.54v9.076c0 2.505 2.032 4.54 4.536 4.54h15.88c2.503 0 4.536-2.035 4.536-4.54v-9.077c0-2.505-2.033-4.54-4.537-4.54zm-49.904 0c-2.503 0-4.536 2.034-4.536 4.54v9.076c0 2.505 2.033 4.54 4.537 4.54h15.88c2.504 0 4.536-2.035 4.536-4.54v-9.077c0-2.505-2.032-4.54-4.536-4.54H999.4z" id="Shape" fill="#CCD0D2" mask="url(#d)"/><path d="M1098.075 200.972c0 6.892-5.587 12.48-12.476 12.48-6.89 0-12.477-5.588-12.477-12.48s5.587-12.48 12.476-12.48c6.888 0 12.475 5.588 12.475 12.48z" id="Shape" fill="#FF6A6A" mask="url(#d)"/><path d="M1060.236 196.404l43.057-8.634c1.252-.25 2.47.562 2.72 1.814l15.66 78.275c.25 1.25-.56 2.47-1.812 2.722l-43.057 8.635c-1.25.25-2.47-.562-2.72-1.815l-15.658-78.274c-.25-1.253.56-2.472 1.81-2.724z" id="Shape" fill="#2B8272" mask="url(#d)"/><path d="M1101.695 193.294c-.126-.63-.738-1.037-1.366-.91l-36.412 7.3c-.63.126-1.035.74-.91 1.368l3.873 19.365c.126.628.74 1.037 1.368.91.63-.126 1.035-.74.91-1.368l-3.646-18.227 34.135-6.844 3.646 18.224c.126.63.738 1.037 1.367.91.628-.124 1.036-.738.91-1.366l-3.875-19.364z" id="Shape" fill="#4B9587" mask="url(#d)"/><path d="M1072.112 183.177l43.695-4.284c1.27-.124 2.402.806 2.527 2.08l7.846 79.452c.125 1.272-.802 2.403-2.073 2.528l-43.696 4.284c-1.27.124-2.4-.805-2.525-2.078l-7.846-79.455c-.127-1.272.8-2.404 2.072-2.528z" id="Shape" fill="#359685" mask="url(#d)"/><path d="M1113.672 184.23c-.064-.64-.63-1.106-1.27-1.044l-36.952 3.62c-.638.064-1.104.633-1.04 1.27l1.942 19.657c.063.64.63 1.105 1.27 1.043.637-.063 1.102-.63 1.04-1.27l-1.827-18.5 34.643-3.394 1.828 18.5c.063.638.63 1.106 1.27 1.042.637-.063 1.102-.63 1.04-1.27l-1.944-19.655z" id="Shape" fill="#52A597" mask="url(#d)"/><path d="M1087.17 171.5h43.76c1.273 0 2.304 1.037 2.304 2.316v82.274c0 1.28-1.03 2.317-2.303 2.317h-43.76c-1.272 0-2.304-1.038-2.304-2.317v-82.274c0-1.28 1.032-2.317 2.303-2.317z" id="Shape" fill="#3DB39E" mask="url(#d)"/><path d="M1109.05 190.04c1.272 0 2.304-1.04 2.304-2.318 0-1.28-1.032-2.318-2.304-2.318-1.27 0-2.303 1.038-2.303 2.318s1.032 2.317 2.303 2.317zm0 56.78c1.272 0 2.304-1.04 2.304-2.318 0-1.28-1.032-2.317-2.304-2.317-1.27 0-2.303 1.038-2.303 2.317 0 1.28 1.032 2.318 2.303 2.318zm18.426-70.686h-36.852c-.637 0-1.15.52-1.15 1.16v20.857c0 .642.513 1.16 1.15 1.16.637 0 1.152-.518 1.152-1.16v-19.7h34.55v19.7c0 .642.513 1.16 1.15 1.16.637 0 1.152-.518 1.152-1.16v-20.857c0-.64-.515-1.16-1.152-1.16zm0 57.94c-.637 0-1.15.518-1.15 1.158v20.858h-34.55v-20.858c0-.64-.515-1.16-1.152-1.16-.637 0-1.15.52-1.15 1.16v22.017c0 .638.513 1.157 1.15 1.157h36.852c.637 0 1.152-.52 1.152-1.158V235.23c0-.64-.515-1.16-1.152-1.16zm-18.426-34.764c-9.54 0-17.274 7.782-17.274 17.38 0 9.6 7.734 17.383 17.274 17.383 9.54 0 17.275-7.782 17.275-17.382 0-9.598-7.735-17.38-17.275-17.38zm9.288 18.563h-1.333c-.23 1.808-.966 3.3-2.07 4.07-.207.134-.46.224-.736.224-.668 0-1.22-.543-1.22-1.22 0-.316.184-.633.505-.973.69-.7 1.22-1.876 1.22-3.163 0-1.875-.896-2.578-1.816-2.578-3.013 0-1.61 8.25-7.36 8.25-2.528 0-4.183-1.58-4.482-4.61h-1.288c-.598 0-1.08-.475-1.08-1.063 0-.566.483-1.04 1.08-1.04h1.288c.275-2.192 1.47-3.91 2.735-4.68.184-.113.413-.18.645-.18.69 0 1.24.544 1.24 1.198 0 .497-.274.77-.505.995-.966.95-1.747 2.148-1.747 3.706 0 2.055.69 3.05 2.115 3.05 3.358 0 1.817-8.25 7.36-8.25 2.044 0 3.814 1.267 4.138 4.16h1.31c.598 0 1.08.474 1.08 1.04.002.587-.482 1.063-1.08 1.063z" fill="#81CEC0" mask="url(#d)"/></g><path d="M159.092 107.622V84.86h-4.52l-7.48 15.12-7.51-15.12h-4.554v22.762h3.61V90.615l7.186 14.633h2.504l7.187-14.633.033 17.007h3.544zm13.203-17.43c-5.365 0-9.04 3.545-9.04 8.78 0 5.203 3.675 8.78 9.04 8.78 5.334 0 9.008-3.577 9.008-8.78 0-5.235-3.674-8.78-9.008-8.78zm0 3.22c3.09 0 5.27 2.276 5.27 5.593 0 3.35-2.18 5.626-5.27 5.626-3.12 0-5.3-2.276-5.3-5.625 0-3.317 2.18-5.594 5.3-5.594zm29.398-9.92h-3.74v9.822c-1.268-2.016-3.35-3.155-6.146-3.155-4.878 0-8.227 3.544-8.227 8.747 0 5.268 3.317 8.878 8.292 8.878 2.764 0 4.846-1.106 6.08-3.122v2.96h3.74v-24.13zm-9.04 21.17c-3.155 0-5.3-2.34-5.334-5.625.032-3.317 2.21-5.69 5.333-5.69 3.122 0 5.3 2.34 5.3 5.69 0 3.285-2.178 5.626-5.3 5.626zm21.853-14.47c-5.138.032-8.748 3.577-8.748 8.813 0 5.203 3.512 8.747 8.845 8.747 2.992 0 5.464-1.073 7.155-2.926l-1.984-2.114c-1.268 1.3-2.992 2.016-4.878 2.016-2.732 0-4.78-1.658-5.366-4.325h13.073c.455-6.244-2.016-10.21-8.097-10.21zm-5.04 7.48c.422-2.765 2.34-4.488 5.072-4.488 2.83 0 4.683 1.69 4.813 4.487h-9.885zm20.78-7.35h-3.74v17.3h3.74v-9.04c.292-2.96 2.503-5.008 5.983-4.813V90.19c-2.733 0-4.814 1.236-5.985 3.577V90.32zm19.186-.13c-2.927 0-5.138 1.04-6.374 3.447V90.32h-3.74v17.3h3.74V98.42c.26-2.7 2.05-4.683 4.91-4.716 2.602 0 4.163 1.593 4.163 4.195v9.722h3.74V96.858c0-4.13-2.406-6.666-6.438-6.666zm26.926 0c-5.138 0-8.715 3.577-8.715 8.813 0 5.203 3.577 8.747 8.715 8.747 3.284 0 5.788-1.17 7.35-3.22l-2.082-2.08c-1.17 1.366-2.927 2.08-5.105 2.08-2.99 0-5.138-2.243-5.138-5.527 0-3.285 2.147-5.53 5.14-5.53 2.08-.03 3.738.717 4.942 1.953l2.048-2.407c-1.593-1.82-4.032-2.828-7.154-2.828zm21.56 0c-2.96 0-5.17 1.073-6.406 3.512v-10.21h-3.74v24.128h3.74v-8.52c0-3.057 1.854-5.365 4.943-5.398 2.602 0 4.163 1.593 4.163 4.195v9.722h3.74V96.858c0-4.13-2.407-6.666-6.44-6.666zm18.57 0c-5.14.032-8.75 3.577-8.75 8.813 0 5.203 3.513 8.747 8.847 8.747 2.99 0 5.463-1.073 7.154-2.926l-1.985-2.114c-1.268 1.3-2.992 2.016-4.878 2.016-2.73 0-4.78-1.658-5.365-4.325h13.072c.456-6.244-2.016-10.21-8.097-10.21zm-5.04 7.48c.42-2.765 2.34-4.488 5.072-4.488 2.83 0 4.682 1.69 4.812 4.487h-9.885zm24.128-7.48c-5.138 0-8.715 3.577-8.715 8.813 0 5.203 3.578 8.747 8.716 8.747 3.285 0 5.79-1.17 7.35-3.22l-2.082-2.08c-1.17 1.366-2.927 2.08-5.105 2.08-2.993 0-5.14-2.243-5.14-5.527 0-3.285 2.147-5.53 5.14-5.53 2.08-.03 3.738.717 4.942 1.953l2.048-2.407c-1.593-1.82-4.032-2.828-7.154-2.828zm18.08 9.496l5.074 7.934h4.423l-6.895-10.6 6.407-6.7h-4.293l-7.642 7.74v-14.57h-3.74v24.13h3.74v-4.845l2.927-3.09zm22.765-16.585c-1.235 0-2.178.943-2.178 2.276 0 1.3.943 2.243 2.18 2.243 1.234 0 2.177-.943 2.177-2.244 0-1.334-.944-2.277-2.18-2.277zm1.854 24.52v-17.3h-3.707v17.3h3.707zm15.642-17.43c-2.927 0-5.138 1.04-6.374 3.446V90.32h-3.74v17.3h3.74V98.42c.26-2.7 2.05-4.683 4.91-4.716 2.602 0 4.163 1.593 4.163 4.195v9.722h3.74V96.858c0-4.13-2.406-6.666-6.44-6.666zm30.21 17.43h3.675l-.03-11.35c-.034-3.805-2.538-6.08-6.993-6.08-3.284 0-5.04.747-7.447 2.178l1.53 2.602c1.722-1.17 3.446-1.756 5.104-1.756 2.732 0 4.13 1.3 4.13 3.48v.52h-5.235c-4.164.033-6.538 2.05-6.538 5.203 0 3.056 2.342 5.365 6.08 5.365 2.505 0 4.49-.748 5.725-2.276v2.112zm-4.942-2.797c-2.08 0-3.35-1.008-3.35-2.57 0-1.658 1.138-2.308 3.577-2.308h4.684v1.593c-.195 1.887-2.244 3.286-4.91 3.286zm23.74-14.634c-2.928 0-5.14 1.04-6.375 3.447V90.32h-3.74v17.3h3.74V98.42c.26-2.7 2.048-4.683 4.91-4.716 2.6 0 4.162 1.593 4.162 4.195v9.722h3.74V96.858c0-4.13-2.407-6.666-6.44-6.666zm27.933-6.7h-3.74v9.822c-1.268-2.016-3.35-3.155-6.146-3.155-4.877 0-8.226 3.544-8.226 8.747 0 5.268 3.317 8.878 8.292 8.878 2.765 0 4.846-1.106 6.082-3.122v2.96h3.74v-24.13zm-9.04 21.17c-3.154 0-5.3-2.34-5.333-5.625.032-3.317 2.21-5.69 5.333-5.69 3.122 0 5.3 2.34 5.3 5.69 0 3.285-2.178 5.626-5.3 5.626zm39.61-21.17h-3.74v9.822c-1.27-2.016-3.35-3.155-6.147-3.155-4.878 0-8.228 3.544-8.228 8.747 0 5.268 3.317 8.878 8.293 8.878 2.764 0 4.845-1.106 6.08-3.122v2.96h3.74v-24.13zm-9.042 21.17c-3.154 0-5.3-2.34-5.333-5.625.033-3.317 2.21-5.69 5.333-5.69 3.122 0 5.3 2.34 5.3 5.69 0 3.285-2.178 5.626-5.3 5.626zm16.585-21.56c-1.235 0-2.18.944-2.18 2.277 0 1.3.945 2.243 2.18 2.243 1.236 0 2.18-.943 2.18-2.244 0-1.334-.944-2.277-2.18-2.277zm1.854 24.52v-17.3h-3.707v17.3h3.707zm21.138-17.3h-3.708v2.797c-1.203-1.887-3.187-2.96-5.853-2.928-4.584.032-7.674 3.35-7.674 8.227 0 4.975 3.122 8.357 7.805 8.357 2.602 0 4.554-1.04 5.724-2.927v2.18c0 2.99-2.146 4.91-5.43 4.91-2.114 0-3.805-.684-5.43-1.887l-1.595 2.7c2.113 1.43 4.487 2.276 7.186 2.276 5.43 0 8.976-3.123 8.976-8.1V90.323zm-8.683 13.528c-2.993 0-5.01-2.21-5.042-5.333.033-3.09 2.082-5.3 5.04-5.3 2.928 0 4.976 2.178 4.976 5.3s-2.048 5.333-4.975 5.333zm15.738-20.747c-1.235 0-2.178.943-2.178 2.276 0 1.3.943 2.243 2.178 2.243 1.236 0 2.18-.943 2.18-2.244 0-1.334-.944-2.277-2.18-2.277zm1.854 24.52v-17.3h-3.707v17.3h3.707zm14.374-3.968c-1.01.488-1.822.748-2.602.748-1.17 0-1.854-.553-1.854-2.34v-8.294h5.106V90.97h-5.106v-4.747h-3.707v4.747h-2.44v2.797h2.44v8.974c0 3.545 2.244 5.04 4.846 5.04 1.462 0 2.893-.454 4.26-1.267l-.944-2.862zm14.763 3.967h3.674l-.032-11.35c-.033-3.804-2.537-6.08-6.992-6.08-3.285 0-5.04.748-7.447 2.18l1.528 2.6c1.725-1.17 3.448-1.756 5.107-1.756 2.732 0 4.13 1.3 4.13 3.48v.52h-5.236c-4.16.033-6.535 2.05-6.535 5.203 0 3.056 2.34 5.365 6.08 5.365 2.505 0 4.49-.748 5.724-2.276v2.112zm-4.944-2.796c-2.08 0-3.35-1.008-3.35-2.57 0-1.658 1.14-2.308 3.578-2.308h4.683v1.593c-.195 1.887-2.244 3.286-4.91 3.286zm17.53 2.796v-24.13h-3.74v24.13h3.74zm7.543-24.52c-1.237 0-2.18.944-2.18 2.277 0 1.3.943 2.243 2.18 2.243 1.235 0 2.178-.943 2.178-2.244 0-1.334-.943-2.277-2.18-2.277zm1.853 24.52v-17.3h-3.708v17.3h3.708zm18.73-14.763v-2.505l-14.21-.033v3.057h9.593l-9.886 11.706v2.536l14.797.033v-3.057l-10.18-.032 9.887-11.707zm11.188-2.668c-5.137.032-8.747 3.577-8.747 8.813 0 5.203 3.512 8.747 8.845 8.747 2.992 0 5.464-1.073 7.155-2.926l-1.984-2.114c-1.27 1.3-2.993 2.016-4.88 2.016-2.73 0-4.78-1.658-5.365-4.325h13.073c.455-6.244-2.016-10.21-8.097-10.21zm-5.04 7.48c.423-2.765 2.342-4.488 5.073-4.488 2.83 0 4.683 1.69 4.813 4.487h-9.886zm33.528-14.18h-3.74v9.822c-1.268-2.016-3.35-3.155-6.146-3.155-4.878 0-8.228 3.544-8.228 8.747 0 5.268 3.317 8.878 8.293 8.878 2.764 0 4.845-1.106 6.08-3.122v2.96h3.74v-24.13zm-9.04 21.17c-3.155 0-5.3-2.34-5.334-5.625.033-3.317 2.21-5.69 5.333-5.69 3.122 0 5.3 2.34 5.3 5.69 0 3.285-2.178 5.626-5.3 5.626zm33.072-14.47c-2.7 0-4.78 1.106-6.05 3.122v-2.992h-3.74v23.61h3.74v-9.3c1.27 2.015 3.35 3.12 6.115 3.12 4.943 0 8.195-3.544 8.195-8.715 0-5.268-3.35-8.845-8.26-8.845zm-.78 14.374c-3.09 0-5.27-2.31-5.27-5.66 0-3.25 2.18-5.592 5.27-5.592 3.09 0 5.267 2.374 5.267 5.593 0 3.317-2.178 5.66-5.268 5.66zm23.316 3.056h3.674l-.032-11.35c-.033-3.804-2.537-6.08-6.992-6.08-3.284 0-5.04.748-7.447 2.18l1.528 2.6c1.723-1.17 3.447-1.756 5.105-1.756 2.732 0 4.13 1.3 4.13 3.48v.52h-5.235c-4.163.033-6.537 2.05-6.537 5.203 0 3.056 2.343 5.365 6.082 5.365 2.504 0 4.488-.748 5.724-2.276v2.112zm-4.943-2.796c-2.08 0-3.35-1.008-3.35-2.57 0-1.658 1.138-2.308 3.577-2.308h4.683v1.593c-.195 1.887-2.244 3.286-4.91 3.286zm27.77-14.504h-3.738l-4.813 13.105-5.17-13.105h-3.87l7.154 17.04-.586 1.3c-.585 1.302-1.496 1.92-2.634 1.92-.78 0-1.43-.26-2.244-.846l-1.593 2.894c1.202 1.01 2.438 1.464 4 1.464 2.6 0 4.552-1.366 5.625-4.098l7.87-19.674zm25.367-.13c-3.155 0-5.464 1.268-6.57 4.162-.812-2.634-2.926-4.162-6.015-4.162-2.862 0-5.073 1.04-6.277 3.48v-3.35h-3.707v17.3h3.708V99.07c0-3.025 1.82-5.3 4.813-5.398 2.538 0 4.066 1.593 4.066 4.227v9.722h3.74V99.07c0-3.025 1.79-5.3 4.748-5.398 2.536 0 4.097 1.593 4.097 4.227v9.722h3.74V96.858c0-4.13-2.373-6.666-6.34-6.666zm18.47 0c-5.137.032-8.747 3.577-8.747 8.813 0 5.203 3.512 8.747 8.845 8.747 2.992 0 5.464-1.073 7.155-2.926l-1.984-2.114c-1.27 1.3-2.993 2.016-4.88 2.016-2.73 0-4.78-1.658-5.365-4.325h13.073c.455-6.244-2.016-10.21-8.097-10.21zm-5.04 7.48c.423-2.765 2.342-4.488 5.073-4.488 2.83 0 4.683 1.69 4.813 4.487h-9.886zm27.154-7.48c-2.927 0-5.138 1.04-6.374 3.447V90.32h-3.74v17.3h3.74V98.42c.26-2.7 2.05-4.683 4.91-4.716 2.602 0 4.163 1.593 4.163 4.195v9.722h3.74V96.858c0-4.13-2.406-6.666-6.44-6.666zm20.292 13.463c-1.008.488-1.82.748-2.6.748-1.172 0-1.855-.553-1.855-2.34v-8.294h5.107V90.97h-5.106v-4.747h-3.706v4.747h-2.44v2.797h2.44v8.974c0 3.545 2.244 5.04 4.845 5.04 1.463 0 2.894-.454 4.26-1.267l-.944-2.862zm35.35-13.463c-3.155 0-5.464 1.268-6.57 4.162-.813-2.634-2.927-4.162-6.016-4.162-2.862 0-5.073 1.04-6.276 3.48v-3.35h-3.707v17.3h3.707V99.07c0-3.025 1.82-5.3 4.813-5.398 2.536 0 4.065 1.593 4.065 4.227v9.722h3.74V99.07c0-3.025 1.788-5.3 4.747-5.398 2.536 0 4.097 1.593 4.097 4.227v9.722h3.74V96.858c0-4.13-2.375-6.666-6.342-6.666zm18.47 0c-5.138.032-8.748 3.577-8.748 8.813 0 5.203 3.513 8.747 8.846 8.747 2.992 0 5.463-1.073 7.154-2.926l-1.984-2.114c-1.268 1.3-2.99 2.016-4.878 2.016-2.73 0-4.78-1.658-5.365-4.325h13.074c.455-6.244-2.017-10.21-8.098-10.21zm-5.04 7.48c.422-2.765 2.34-4.488 5.073-4.488 2.828 0 4.682 1.69 4.812 4.487h-9.886zm27.414 9.95h3.674l-.032-11.35c-.033-3.804-2.537-6.08-6.992-6.08-3.284 0-5.04.748-7.447 2.18l1.53 2.6c1.722-1.17 3.446-1.756 5.104-1.756 2.732 0 4.13 1.3 4.13 3.48v.52h-5.236c-4.16.033-6.535 2.05-6.535 5.203 0 3.056 2.34 5.365 6.08 5.365 2.505 0 4.49-.748 5.725-2.276v2.112zm-4.943-2.796c-2.082 0-3.35-1.008-3.35-2.57 0-1.658 1.138-2.308 3.577-2.308h4.683v1.593c-.195 1.887-2.244 3.286-4.91 3.286zm23.74-14.634c-2.928 0-5.14 1.04-6.375 3.447V90.32h-3.74v17.3h3.74V98.42c.26-2.7 2.05-4.683 4.91-4.716 2.602 0 4.163 1.593 4.163 4.195v9.722h3.74V96.858c0-4.13-2.407-6.666-6.44-6.666zm16.616-.033c-3.317 0-6.373 1.495-6.373 5.007-.033 6.244 9.073 4.26 9.073 7.805 0 1.3-1.236 1.854-2.83 1.854-1.886 0-4.292-.813-5.788-2.147l-1.333 2.666c1.723 1.56 4.422 2.406 6.96 2.406 3.478 0 6.633-1.593 6.633-5.138.032-6.276-9.17-4.552-9.17-7.74 0-1.235 1.072-1.723 2.536-1.723 1.53 0 3.448.587 4.976 1.53l1.366-2.765c-1.56-1.105-3.87-1.756-6.05-1.756zm28.618.032c-2.926 0-5.137 1.04-6.373 3.447V90.32h-3.74v17.3h3.74V98.42c.26-2.7 2.05-4.683 4.91-4.716 2.602 0 4.163 1.593 4.163 4.195v9.722h3.74V96.858c0-4.13-2.407-6.666-6.44-6.666zm18.862 0c-5.366 0-9.04 3.545-9.04 8.78 0 5.203 3.674 8.78 9.04 8.78 5.333 0 9.008-3.577 9.008-8.78 0-5.235-3.675-8.78-9.008-8.78zm0 3.22c3.09 0 5.268 2.276 5.268 5.593 0 3.35-2.18 5.626-5.268 5.626-3.122 0-5.3-2.276-5.3-5.625 0-3.317 2.178-5.594 5.3-5.594zm43.87-3.22c-3.156 0-5.464 1.268-6.57 4.162-.813-2.634-2.927-4.162-6.016-4.162-2.862 0-5.073 1.04-6.277 3.48v-3.35h-3.708v17.3h3.707V99.07c0-3.025 1.82-5.3 4.812-5.398 2.537 0 4.065 1.593 4.065 4.227v9.722h3.74V99.07c0-3.025 1.79-5.3 4.748-5.398 2.536 0 4.097 1.593 4.097 4.227v9.722h3.74V96.858c0-4.13-2.374-6.666-6.34-6.666zm18.763 0c-5.366 0-9.04 3.545-9.04 8.78 0 5.203 3.674 8.78 9.04 8.78 5.333 0 9.008-3.577 9.008-8.78 0-5.235-3.675-8.78-9.008-8.78zm0 3.22c3.09 0 5.268 2.276 5.268 5.593 0 3.35-2.18 5.626-5.268 5.626-3.122 0-5.3-2.276-5.3-5.625 0-3.317 2.178-5.594 5.3-5.594zm16.65-3.09h-3.74v17.3h3.74v-9.04c.292-2.96 2.504-5.008 5.983-4.813V90.19c-2.73 0-4.813 1.236-5.983 3.577V90.32zm16.194-.13c-5.14.032-8.748 3.577-8.748 8.813 0 5.203 3.512 8.747 8.845 8.747 2.992 0 5.463-1.073 7.154-2.926l-1.982-2.114c-1.27 1.3-2.992 2.016-4.878 2.016-2.732 0-4.78-1.658-5.366-4.325h13.073c.455-6.244-2.016-10.21-8.098-10.21zm-5.04 7.48c.422-2.765 2.34-4.488 5.072-4.488 2.83 0 4.683 1.69 4.813 4.487h-9.886zm35.38-7.48c-2.7 0-4.78 1.106-6.05 3.122v-2.992h-3.738v23.61h3.74v-9.3c1.268 2.015 3.35 3.12 6.113 3.12 4.943 0 8.195-3.544 8.195-8.715 0-5.268-3.35-8.845-8.26-8.845zm-.78 14.374c-3.09 0-5.27-2.31-5.27-5.66 0-3.25 2.18-5.592 5.27-5.592 3.09 0 5.268 2.374 5.268 5.593 0 3.317-2.18 5.66-5.268 5.66zm23.316 3.056h3.675l-.032-11.35c-.032-3.804-2.536-6.08-6.99-6.08-3.286 0-5.042.748-7.448 2.18l1.528 2.6c1.724-1.17 3.447-1.756 5.106-1.756 2.73 0 4.13 1.3 4.13 3.48v.52h-5.236c-4.163.033-6.536 2.05-6.536 5.203 0 3.056 2.34 5.365 6.08 5.365 2.505 0 4.488-.748 5.724-2.276v2.112zm-4.943-2.796c-2.08 0-3.35-1.008-3.35-2.57 0-1.658 1.14-2.308 3.578-2.308h4.684v1.593c-.196 1.887-2.244 3.286-4.91 3.286zm23.577-14.634c-2.7 0-4.78 1.106-6.05 3.122v-2.992h-3.74v23.61h3.74v-9.3c1.27 2.015 3.35 3.12 6.115 3.12 4.943 0 8.195-3.544 8.195-8.715 0-5.268-3.35-8.845-8.26-8.845zm-.78 14.374c-3.09 0-5.27-2.31-5.27-5.66 0-3.25 2.18-5.592 5.27-5.592 3.09 0 5.268 2.374 5.268 5.593 0 3.317-2.18 5.66-5.27 5.66zm20.064-14.374c-5.138.032-8.748 3.577-8.748 8.813 0 5.203 3.512 8.747 8.845 8.747 2.993 0 5.465-1.073 7.156-2.926l-1.984-2.114c-1.268 1.3-2.992 2.016-4.878 2.016-2.73 0-4.78-1.658-5.366-4.325h13.073c.457-6.244-2.015-10.21-8.096-10.21zm-5.04 7.48c.422-2.765 2.34-4.488 5.072-4.488 2.83 0 4.683 1.69 4.813 4.487h-9.887zm20.78-7.35h-3.74v17.3h3.74v-9.04c.292-2.96 2.503-5.008 5.983-4.813V90.19c-2.732 0-4.813 1.236-5.984 3.577V90.32zm30.047 17.3l6.31-17.3h-3.805l-4.422 13.593-4.39-13.593h-3.87l-4.358 13.593-4.487-13.593h-3.838l6.374 17.3h3.837l4.39-12.812 4.392 12.812h3.87zm15.676-17.43c-5.366 0-9.04 3.545-9.04 8.78 0 5.203 3.674 8.78 9.04 8.78 5.333 0 9.008-3.577 9.008-8.78 0-5.235-3.675-8.78-9.008-8.78zm0 3.22c3.09 0 5.268 2.276 5.268 5.593 0 3.35-2.18 5.626-5.268 5.626-3.122 0-5.3-2.276-5.3-5.625 0-3.317 2.178-5.594 5.3-5.594zm16.65-3.09h-3.74v17.3h3.74v-9.04c.293-2.96 2.504-5.008 5.983-4.813V90.19c-2.732 0-4.813 1.236-5.984 3.577V90.32zm15.902 9.366l5.073 7.934h4.424l-6.895-10.6 6.406-6.7h-4.293l-7.642 7.74v-14.57h-3.74v24.13h3.74v-4.845l2.928-3.09zm28.324-9.496c-5.365 0-9.04 3.545-9.04 8.78 0 5.203 3.675 8.78 9.04 8.78 5.334 0 9.008-3.577 9.008-8.78 0-5.235-3.674-8.78-9.008-8.78zm0 3.22c3.09 0 5.27 2.276 5.27 5.593 0 3.35-2.18 5.626-5.27 5.626-3.12 0-5.3-2.276-5.3-5.625 0-3.317 2.18-5.594 5.3-5.594zm16.65-3.09h-3.74v17.3h3.74v-9.04c.293-2.96 2.504-5.008 5.984-4.813V90.19c-2.732 0-4.813 1.236-5.984 3.577V90.32zm25.3 17.3l6.635-17.3h-3.74l-4.748 13.626-4.814-13.626h-3.902l6.7 17.3h3.87zm16-17.43c-5.365 0-9.04 3.545-9.04 8.78 0 5.203 3.675 8.78 9.04 8.78 5.333 0 9.008-3.577 9.008-8.78 0-5.235-3.675-8.78-9.008-8.78zm0 3.22c3.09 0 5.268 2.276 5.268 5.593 0 3.35-2.178 5.626-5.268 5.626-3.122 0-5.3-2.276-5.3-5.625 0-3.317 2.178-5.594 5.3-5.594zm28.617-3.09h-3.74v8.52c0 3.024-1.756 5.333-4.748 5.398-2.504 0-4.033-1.593-4.033-4.195v-9.723h-3.74v10.764c0 4.13 2.374 6.666 6.34 6.666 2.83-.032 5.01-1.105 6.18-3.512v3.382h3.74v-17.3zm12.617-.13c-5.138 0-8.715 3.577-8.715 8.813 0 5.203 3.577 8.747 8.715 8.747 3.285 0 5.79-1.17 7.35-3.22l-2.082-2.08c-1.17 1.366-2.927 2.08-5.105 2.08-2.992 0-5.138-2.243-5.138-5.527 0-3.285 2.146-5.53 5.138-5.53 2.08-.03 3.74.717 4.943 1.953l2.048-2.407c-1.592-1.82-4.03-2.828-7.153-2.828zm21.56 0c-2.96 0-5.17 1.073-6.406 3.512v-10.21h-3.74v24.128h3.74v-8.52c0-3.057 1.855-5.365 4.944-5.398 2.602 0 4.163 1.593 4.163 4.195v9.722h3.74V96.858c0-4.13-2.407-6.666-6.44-6.666zm18.57 0c-5.14.032-8.75 3.577-8.75 8.813 0 5.203 3.514 8.747 8.847 8.747 2.992 0 5.463-1.073 7.154-2.926l-1.984-2.114c-1.268 1.3-2.99 2.016-4.878 2.016-2.73 0-4.78-1.658-5.365-4.325h13.074c.455-6.244-2.017-10.21-8.098-10.21zm-5.04 7.48c.42-2.765 2.34-4.488 5.072-4.488 2.828 0 4.682 1.69 4.812 4.487h-9.886zm20.78-7.35h-3.74v17.3h3.74v-9.04c.29-2.96 2.503-5.008 5.982-4.813V90.19c-2.732 0-4.814 1.236-5.984 3.577V90.32zm14.242-.163c-3.318 0-6.375 1.495-6.375 5.007-.032 6.244 9.073 4.26 9.073 7.805 0 1.3-1.235 1.854-2.83 1.854-1.885 0-4.29-.813-5.787-2.147l-1.333 2.666c1.724 1.56 4.423 2.406 6.96 2.406 3.48 0 6.634-1.593 6.634-5.138.033-6.276-9.17-4.552-9.17-7.74 0-1.235 1.073-1.723 2.537-1.723 1.528 0 3.447.587 4.975 1.53l1.366-2.765c-1.56-1.105-3.87-1.756-6.05-1.756zm10.893 13.463c-1.17 0-2.048.878-2.048 2.113 0 1.27.878 2.18 2.048 2.18s2.05-.91 2.05-2.18c0-1.235-.88-2.114-2.05-2.114zm-755.835 58.2v-22.765h-8.293v3.415h4.455v19.35h3.838zm15.12-22.863c-6.242 0-9.69 4.098-9.69 11.48 0 7.382 3.448 11.48 9.69 11.48 6.213 0 9.66-4.098 9.66-11.48 0-7.382-3.447-11.48-9.66-11.48zm0 3.025c3.806 0 5.725 2.666 5.725 8.455 0 5.756-1.92 8.455-5.724 8.455-3.838 0-5.757-2.7-5.757-8.455 0-5.79 1.92-8.455 5.756-8.455zm22.472-3.025c-6.243 0-9.69 4.098-9.69 11.48 0 7.382 3.447 11.48 9.69 11.48 6.212 0 9.66-4.098 9.66-11.48 0-7.382-3.448-11.48-9.66-11.48zm0 3.025c3.805 0 5.724 2.666 5.724 8.455 0 5.756-1.92 8.455-5.724 8.455-3.837 0-5.756-2.7-5.756-8.455 0-5.79 1.92-8.455 5.756-8.455zm18.47-2.992c-3.738 0-6.015 2.536-6.015 6.764 0 4.26 2.277 6.83 6.016 6.83 3.74 0 6.018-2.57 6.018-6.83 0-4.228-2.277-6.764-6.017-6.764zm-1.722 22.83h3.61l16.715-22.765h-3.578l-16.747 22.764zm1.723-20.62c2.245 0 3.546 1.66 3.546 4.554 0 2.927-1.3 4.618-3.545 4.618-2.242 0-3.51-1.69-3.51-4.618 0-2.894 1.268-4.553 3.51-4.553zm17.14 7.123c-3.74 0-6.017 2.537-6.017 6.764 0 4.26 2.276 6.797 6.016 6.797s6.015-2.537 6.015-6.797c0-4.227-2.276-6.764-6.016-6.764zm0 2.18c2.243 0 3.544 1.69 3.544 4.584 0 2.927-1.3 4.585-3.545 4.585s-3.513-1.658-3.513-4.585c0-2.894 1.268-4.585 3.512-4.585zm18.633-11.448v22.764h9.235c6.895 0 11.87-4.813 11.87-11.382 0-6.602-4.943-11.382-11.772-11.382h-9.333zm3.837 3.447h5.43c4.49 0 7.968 3.317 7.968 7.967 0 4.618-3.382 7.903-7.804 7.903h-5.594v-15.87zm22.992-5.203c-1.236 0-2.18.943-2.18 2.276 0 1.3.944 2.244 2.18 2.244 1.235 0 2.178-.943 2.178-2.244 0-1.333-.943-2.276-2.178-2.276zm1.853 24.52v-17.3h-3.707v17.3h3.707zm21.138-17.3h-3.707v2.796c-1.204-1.886-3.187-2.96-5.854-2.927-4.585.034-7.675 3.35-7.675 8.23 0 4.974 3.122 8.356 7.805 8.356 2.602 0 4.553-1.04 5.724-2.927v2.178c0 2.992-2.147 4.91-5.43 4.91-2.115 0-3.806-.682-5.432-1.885l-1.593 2.7c2.114 1.43 4.488 2.275 7.187 2.275 5.43 0 8.976-3.122 8.976-8.097v-15.61zm-8.683 13.527c-2.992 0-5.008-2.212-5.04-5.334.032-3.09 2.08-5.3 5.04-5.3 2.927 0 4.976 2.178 4.976 5.3s-2.05 5.333-4.976 5.333zM846.8 137.3c-1.236 0-2.18.943-2.18 2.276 0 1.3.944 2.244 2.18 2.244 1.235 0 2.178-.943 2.178-2.244 0-1.333-.943-2.276-2.178-2.276zm1.853 24.52v-17.3h-3.707v17.3h3.707zm14.374-3.968c-1.008.488-1.82.748-2.602.748-1.17 0-1.853-.553-1.853-2.34v-8.294h5.105v-2.796h-5.105v-4.748h-3.708v4.748h-2.44v2.796h2.44v8.976c0 3.544 2.244 5.04 4.846 5.04 1.463 0 2.894-.455 4.26-1.268l-.943-2.862zm14.764 3.968h3.675l-.032-11.35c-.033-3.804-2.537-6.08-6.992-6.08-3.283 0-5.04.747-7.446 2.178l1.53 2.602c1.722-1.17 3.446-1.757 5.104-1.757 2.732 0 4.13 1.3 4.13 3.48v.52h-5.235c-4.163.033-6.537 2.05-6.537 5.204 0 3.055 2.342 5.364 6.08 5.364 2.505 0 4.49-.748 5.725-2.276v2.114zm-4.942-2.797c-2.082 0-3.35-1.008-3.35-2.57 0-1.658 1.138-2.308 3.577-2.308h4.683v1.593c-.195 1.887-2.244 3.285-4.91 3.285zm17.528 2.797v-24.13h-3.74v24.13h3.74zm8.585-16.878v-5.593h-3.544v5.594l.586 9.626h2.374l.585-9.626zm-1.755 12.878c-1.17 0-2.05.878-2.05 2.114 0 1.268.88 2.178 2.05 2.178s2.05-.91 2.05-2.178c0-1.236-.88-2.114-2.05-2.114z" fill="#fff" mask="url(#b)"/></g></svg>