<svg width="375" height="137" viewBox="0 0 375 137" xmlns="http://www.w3.org/2000/svg" xmlns:xlink="http://www.w3.org/1999/xlink"><title>LaLaLand</title><desc>Created with Sketch.</desc><defs><path id="a" d="M0 0h375v170H0z"/></defs><g transform="translate(0 -457) translate(0 424)" fill="none"><mask id="b"><use xlink:href="#a"/></mask><use xlink:href="#a"/><g mask="url(#b)"><path d="M310.483 150.5c0-64.893-57.3-117.5-127.983-117.5S54.517 85.607 54.517 150.5h255.966z" fill="#F2C400"/><g><path d="M306.466 106.474c-2.89-1.132-6.383-.212-8.546 2.5-.746.934-1.237 1.984-1.515 3.064h4.396v1.536l.99-1.24-.586-1.318 1.388.313 1.87-2.345-.586-1.318 1.388.313 1.202-1.506" fill="#46A046"/><path d="M294.08 113.574v-1.536h4.397c-.278-1.08-.77-2.13-1.515-3.065-2.163-2.71-5.656-3.63-8.546-2.5l1.202 1.507 1.388-.313-.586 1.318 1.87 2.344 1.388-.314-.587 1.318.99 1.24" fill="#46A046"/><path d="M297.37 113.877h-3.242c-.36 1.607-1.69 7.893.776 16.664h6.828c-5.19-5.508-4.68-13.748-4.362-16.663" fill="#BE9664"/><path d="M304.833 110.767c-2.397-1.34-5.11-1.45-7.392-.54-2.282-.91-4.994-.8-7.39.54-3.395 1.898-5.104 5.666-4.46 9.17l1.887-1.054-.06-1.636 1.317.932 2.932-1.64-.06-1.636 1.318.932 4.517-2.526 4.518 2.526 1.317-.932-.06 1.635 2.933 1.64 1.317-.933-.06 1.636 1.885 1.054c.647-3.504-1.064-7.272-4.457-9.17" fill="#8CBE3C"/></g><path d="M374.76 120.93s-35.607 21.55-51.28 21.55c-29.114 0-53.678 8.764-92.018 0-38.34-8.767-40.54-21.55-65.18-21.55-1.017 0-35.823 18.26-36.902 18.26-31.35 0-28.975-18.26-60.387-18.26-.88 0-67.42 9.496-68.294 9.496-36.51 0-7.353-9.497-43.853-9.497-13.79 0-20.633 21.55-34.507 21.55-10.408 0-38.34-21.55-38.34-21.55V170h490.76v-49.07z" id="Rectangle-318" fill="#38B69F"/><g fill="#7EA29C"><path d="M107.694 118.353h6.71v33.123h-6.71zM115.362 107.558h3.355v44.41h-3.355zM119.675 104.123h7.668v42.937h-7.668z"/></g><path d="M-116 129.517s35.607 14.653 51.28 14.653c29.114 0 53.678 5.96 92.018 0s40.54-14.653 65.18-14.653c1.017 0 35.823 12.418 36.902 12.418 31.35 0 28.975-12.418 60.387-12.418.88 0 67.42 6.457 68.294 6.457 36.51 0 7.353-6.457 43.853-6.457 13.79 0 20.633 14.653 34.507 14.653 10.408 0 38.34-14.653 38.34-14.653V170H-116v-40.483z" id="Rectangle-318" fill="#2F9C88"/><path d="M-116 149.993s74.21 14.162 116.727 3.863c42.515-10.3 44.955-25.32 72.276-25.32 1.13 0 39.725 21.457 40.92 21.457 34.766 0 32.13-21.458 66.963-21.458.977 0 74.763 11.158 75.73 11.158 40.485 0 8.153-11.158 48.628-11.158 15.292 0 29.45 17.666 44.835 17.666 11.54 0 24.68-4.17 24.68-4.17v26.99H-116v-19.027z" fill="#FCD997"/><path d="M-85.328 163.237c31.775 0 61.156 8.288 99.397 3.905 40.472-4.383 41.03-10.775 69.684-10.775 1.184 0 40.72 9.13 41.91 9.13 34.56 0 34.706-9.13 71.24-9.13 1.024 0 73.855 4.748 74.842 4.748 41.31 0 13.922-2.194 57.724 0 22.765 1.14 45.29-11.618 45.29-11.618v17.645H-116v-6.027s13.566 2.122 30.672 2.122z" id="Rectangle-318" fill="#E2E6E8"/><path d="M-85.328 164.602c31.775 0 61.156 8.288 99.397 3.905 40.472-4.383 41.03-10.775 69.684-10.775 1.184 0 40.72 9.13 41.91 9.13 34.56 0 34.706-9.13 71.24-9.13 1.024 0 73.855 4.748 74.842 4.748 41.31 0 13.922-2.194 57.724 0 22.765 1.14 45.29-11.618 45.29-11.618v17.645H-116v-6.027s13.566 2.122 30.672 2.122z" fill="#93D3E8"/></g><path d="M24.805 127.16l-.246 4.628-2.448.89.25-4.637-.775.282L21 139l.776-.288.247-4.418 2.448-.894-.247 4.41.78-.287.58-10.64-.778.278zm3.496 9.24c1.395-.5 2.61-3.23 2.773-6.253.155-3.026-.81-4.966-2.197-4.478-1.386.49-2.578 3.18-2.74 6.234-.168 3.038.774 5 2.165 4.497zm.1-1.607c-.913.328-1.584-1.065-1.47-3.174.114-2.112.955-4.02 1.872-4.345.91-.32 1.573 1.052 1.463 3.157-.113 2.103-.952 4.034-1.866 4.36zm3.78-10.235l-.553 10.58 2.83-.998.09-1.612-2.037.715.457-8.958-.787.273zm3.568-1.232l-.53 10.548 2.847-.988.087-1.607-2.048.706.435-8.93-.792.27zm6.444-2.18l-1.542 5.562-1.128-4.665-.8.27 1.442 6.48-.177 3.433.796-.272.178-3.492 2.042-7.585-.81.27zm7.085-2.33l-1.47 8.858-.835-8.108-.788.274-1.494 8.87-.802-8.127-.86.285 1.12 9.947.835-.28L46.486 122l.79 7.77.832-.275 2-10.95-.83.27zm3.143 9.34c1.45-.47 2.665-3.127 2.765-6.09.08-2.964-.98-4.88-2.41-4.424-1.426.458-2.596 3.078-2.698 6.07-.118 2.976.897 4.915 2.343 4.443zm.075-1.575c-.947.308-1.672-1.07-1.594-3.135.07-2.068.9-3.926 1.844-4.23.938-.3 1.666 1.057 1.606 3.118-.07 2.06-.907 3.94-1.855 4.248zm5.36-.17c1.46-.463 2.67-3.104 2.746-6.053.056-2.95-1.03-4.862-2.468-4.413-1.434.45-2.592 3.056-2.67 6.034-.1 2.962.938 4.896 2.394 4.43zm.066-1.568c-.952.302-1.694-1.07-1.63-3.127.055-2.06.874-3.906 1.824-4.205.944-.296 1.69 1.058 1.646 3.11-.053 2.05-.884 3.92-1.84 4.222zm5.406-.224c1.49-.462 2.62-2.965 2.673-5.93.027-2.98-1.02-4.82-2.47-4.376l-1.98.61-.216 10.318 1.992-.622zm1.842-5.66c-.037 2.085-.8 3.793-1.754 4.09l-1.205.373.14-7.186 1.156-.357c.956-.293 1.687.98 1.662 3.08z" opacity=".716" fill="#fff" mask="url(#b)"/></g></svg>