<svg xmlns="http://www.w3.org/2000/svg" width="100" height="100" viewBox="0 0 100 100"><path fill="#93D3E8" d="M50 0c27.614 0 50 22.386 50 50s-22.386 50-50 50S0 77.614 0 50 22.386 0 50 0z"/><path fill="#B3DBE8" d="M49 47h1v23h-1V47z"/><path fill="#26A6D1" d="M59 54c-8.284 0-15 6.838-15 15.273C44 77.708 50.716 90 59 90s15-12.292 15-20.727S67.284 54 59 54z"/><path fill="#2295BC" d="M46 69.273c0-8.092 6.184-14.695 14-15.222-.332-.02-.662-.05-1-.05-8.284 0-15 6.838-15 15.273C44 77.708 50.716 90 59 90c.336 0 .67-.027 1-.066-7.817-.933-14-12.57-14-20.66z"/><path fill-rule="evenodd" clip-rule="evenodd" fill="#E2574C" d="M50 14c-7.18 0-13 5.825-13 13.01 0 7.186 5.82 17.657 13 17.657S63 34.195 63 27.01C63 19.826 57.18 14 50 14z"/><path fill="#F4B459" d="M37 57c-8.284 0-15 6.838-15 15.273C22 80.708 28.716 93 37 93s15-12.292 15-20.727S45.284 57 37 57z"/><path fill="#F6C37A" d="M45.743 73.15c1.28-.375 1.688-2.908.912-5.66-.776-2.75-2.442-4.676-3.723-4.3-1.28.373-1.688 2.906-.91 5.656.775 2.752 2.442 4.678 3.72 4.303zM45.036 75c-.888 0-1.607.732-1.607 1.637 0 .903.72 1.637 1.606 1.637s1.606-.733 1.606-1.637c0-.905-.718-1.637-1.606-1.637z"/><path fill="#DBA250" d="M24 72.273c0-8.092 6.184-14.695 14-15.222-.332-.02-.663-.05-1-.05-8.284 0-15 6.838-15 15.273C22 80.708 28.716 93 37 93c.336 0 .67-.027 1-.066-7.817-.933-14-12.57-14-20.66z"/><path fill="#EFC75E" d="M74 64c-8.284 0-15 6.838-15 15.273 0 5.864 3.248 13.588 8.01 17.754 8.642-3.126 16.172-8.568 21.85-15.575.09-.746.14-1.476.14-2.18C89 70.84 82.284 64 74 64z"/><path fill="#3DB39E" d="M24 67c-7.206 0-13.22 5.176-14.665 12.075 5.96 8.32 14.404 14.732 24.254 18.155C36.894 92.924 39 86.995 39 82.273 39 73.838 32.284 67 24 67z"/><path fill="#5ABEAC" d="M32.743 83.15c1.28-.375 1.688-2.908.912-5.658-.776-2.75-2.442-4.678-3.723-4.303-1.28.373-1.688 2.906-.91 5.656.775 2.752 2.442 4.677 3.72 4.303zM32.036 85c-.888 0-1.607.732-1.607 1.637 0 .903.72 1.637 1.606 1.637s1.606-.733 1.606-1.637c0-.905-.718-1.637-1.606-1.637z"/><path fill="#F4D88F" d="M82.743 80.15c1.28-.375 1.688-2.908.912-5.658-.776-2.75-2.442-4.678-3.723-4.304-1.28.375-1.688 2.908-.91 5.66.775 2.75 2.442 4.676 3.72 4.3zM82.036 82c-.888 0-1.607.732-1.607 1.637s.72 1.637 1.606 1.637 1.606-.732 1.606-1.637S82.924 82 82.036 82z"/><path fill="#A9DCED" d="M41 7H26c-1.104 0-2 .896-2 2s.896 2 2 2c.828 0 1.5.672 1.5 1.5S26.828 14 26 14h-5c-1.104 0-2 .896-2 2s.896 2 2 2h14c1.104 0 2-.896 2-2s-.896-2-2-2h-2v-.003c-.813-.017-1.47-.68-1.47-1.497s.656-1.48 1.47-1.497V11h8c1.104 0 2-.896 2-2s-.896-2-2-2z"/><path fill="#E2574C" d="M50.003 43.988H48.99l-.978 3.004h2.98z"/><path fill="#EE9A94" d="M57.577 27.757c1.11-.318 1.463-2.477.79-4.82-.672-2.342-2.116-3.983-3.226-3.665-1.107.32-1.462 2.478-.79 4.82.674 2.344 2.12 3.984 3.227 3.665zm-.613 1.577c-.77 0-1.393.624-1.393 1.394s.625 1.394 1.394 1.394c.77 0 1.394-.624 1.394-1.394s-.625-1.394-1.394-1.394z"/><path fill="#C4E7F2" d="M97.03 33H95v-.003c-.813-.017-1.47-.68-1.47-1.497s.656-1.48 1.47-1.497V30h.828c-.908-2.076-1.944-4.083-3.113-6H81c-1.657 0-3 1.343-3 3s1.343 3 3 3h7c.828 0 1.5.672 1.5 1.5S88.828 33 88 33h-4.5c-1.38 0-2.5 1.12-2.5 2.5s1.12 2.5 2.5 2.5h15.04c-.42-1.702-.92-3.372-1.51-5z"/><path fill="#E2574C" d="M50.003 43.988H48.99l-.978 3.004h2.98z"/><path fill="#AA4239" d="M50 44.667c-.404 0-.803-.038-1.197-.102L48.66 45h1.676l-.113-.343-.223.01z"/><path fill-rule="evenodd" clip-rule="evenodd" fill="#CB4E44" d="M39 27.01c0-6.847 5.29-12.446 12-12.96-.33-.025-.663-.05-1-.05-7.18 0-13 5.825-13 13.01 0 7.186 5.82 17.657 13 17.657.337 0 .67-.03 1-.075-6.712-.907-12-10.734-12-17.58z"/><path fill="#D7B354" d="M61 79.273c0-8.092 6.185-14.695 14-15.222-.332-.02-.662-.05-1-.05-8.284 0-15 6.838-15 15.273 0 5.864 3.248 13.588 8.01 17.754.475-.172.933-.377 1.4-.562C63.98 92.195 61 84.887 61 79.273z"/><path fill="#E19178" d="M54 75c-8.284 0-15 6.838-15 15.273 0 2.742.714 5.893 1.957 8.896 2.935.535 5.954.83 9.043.83 6.326 0 12.373-1.187 17.944-3.33.68-2.206 1.056-4.408 1.056-6.397C69 81.838 62.284 75 54 75z"/><path fill="#EDBDAE" d="M58.743 94.15c1.28-.375 1.688-2.908.912-5.658-.776-2.75-2.442-4.678-3.723-4.303-1.28.373-1.688 2.906-.91 5.656.775 2.752 2.442 4.678 3.72 4.303zM58.036 96c-.888 0-1.607.732-1.607 1.637 0 .903.72 1.637 1.606 1.637s1.606-.733 1.606-1.637c0-.905-.72-1.637-1.606-1.637z"/><path fill="#CA826C" d="M42.957 99.17C41.714 96.165 41 93.015 41 90.272c0-8.092 6.184-14.695 14-15.222-.332-.02-.662-.05-1-.05-8.284 0-15 6.838-15 15.273 0 2.742.714 5.893 1.957 8.896 2.935.535 4.618.477 2 0z"/><path fill="#E2574C" d="M30 84c-4.437 0-8.412 1.973-11.158 5.09 7.32 5.844 16.31 9.68 26.146 10.66l.012-.477C45 90.838 38.284 84 30 84z"/><path fill="#CA4E44" d="M31.045 84.054C30.698 84.03 30.353 84 30 84c-4.437 0-8.412 1.973-11.158 5.09.376.302.76.594 1.146.884 2.98-3.38 7.09-5.518 11.057-5.92z"/><path fill="#37A18E" d="M24.918 67.047C24.613 67.027 24.31 67 24 67c-7.206 0-13.22 5.176-14.665 12.075.51.712 1.045 1.405 1.59 2.09 1.672-8.976 7.455-13.655 13.993-14.118z"/></svg>