<svg width="109" height="50" viewBox="0 0 109 50" xmlns="http://www.w3.org/2000/svg"><title>castifi</title><desc>Created with Sketch.</desc><path d="M96.028 26.947l-.185-.062s-5.1 8.204-10.42 8.204c.888-3.494 1.608-6.93 1.774-7.706 3.824-2.772 9.865-15.023 9.865-23.615 0-1.553-.83-3.77-3.77-3.77-1.495 0-3.157.388-4.432 2.993-.625 1.224-3.465 12.563-6.196 23.796l-.05-.016s-4.543 7.04-6.594 7.04c-.5 0-.665-.555-.665-1.552 0-3.825 4.71-19.734 4.71-19.734s-.11-.61-1.994-.61c-2.327 0-2.66.61-2.66.61s-2.145 7.727-3.54 14.302l-.1-.056s-4.49 7.04-7.87 7.04c-.332 0-.664-.167-.664-1.053 0-2.66 2.217-11.42 4.156-18.68h4.046s.997-.11.997-2.495h-4.378c1.164-4.38 2.106-7.705 2.106-7.705s-.166-.61-2.05-.61c-2.272 0-2.66.61-2.66.61s-.887 3.27-1.995 7.705h-3.436s-.998.11-.998 2.495h3.77c-1.027 4.103-2.146 8.78-2.972 12.71l-.06-.016s-3.214 4.767-4.323 4.767c0 0 .332-1.55.332-3.048 0-6.097-4.766-11.42-4.766-15.798.72-1.164 2.992-2.938 2.992-5.266 0-.887-.72-1.83-1.995-1.83-3.325 0-3.824 2.273-3.824 5.766-1.8 5.454-4.258 12.832-5.924 15.413l-.01-.003s-4.544 7.04-6.484 7.04c-.5 0-.776-.444-.776-1.552 0-3.88 4.766-19.734 4.766-19.734s-.22-.61-2.05-.61c-2.272 0-2.66.61-2.66.61l-.776 2.494c-.776-2.05-2.383-3.437-5.1-3.437-5.308 0-9.233 7.89-10.395 15.233l-.15-.044s-4.82 8.26-9.808 8.26c-2.44 0-4.212-1.72-4.212-5.932 0-6.264 3.16-14.468 6.816-14.468 1.053 0 1.774.887 1.774 2.328 0 2.827-1.774 5.21-3.048 6.652l2.05 1.164c1.94-1.663 4.988-4.157 4.988-7.816 0-2.882-1.552-5.377-5.21-5.377C4.655 11.585 0 21.175 0 29.268c0 6.042 3.103 9.036 8.202 9.036 4.17 0 7.938-4.152 10.215-7.336v.13c0 4.71 2.27 7.206 5.21 7.206 3.268 0 5.374-3.05 6.704-5.71 0 3.77 1.94 5.71 3.936 5.71 3.538 0 8.646-8.588 9.757-10.532 1.884-3.105 4.212-9.258 4.82-12.86 0 6.485 5.93 18.902-.72 18.902-2.77 0-3.38-3.492-3.38-3.492l-2.05-.167s-.055 8.15 5.708 8.15c4.47 0 8.12-3.442 10.47-6.47-.185 1.176-.29 2.124-.29 2.755 0 2.328 1.497 3.714 3.658 3.714 2.967 0 6.455-3.81 8.763-6.847-.188 1.238-.3 2.3-.3 3.077 0 2.384 1.552 3.77 3.658 3.77 2.278 0 4.87-2.813 6.87-5.584C78.98 42.072 77.112 50 77.112 50h4.656s1.275-5.765 2.827-11.696c4.35 0 8.18-3.747 10.587-6.817-.187 1.226-.297 2.276-.297 3.047 0 2.384 1.552 3.77 3.658 3.77 4.49 0 10.198-10.92 10.198-10.92l-1.94-.61s-4.544 7.04-6.595 7.04c-.498 0-.665-.555-.665-1.552 0-3.825 4.71-19.734 4.71-19.734s-.11-.61-1.994-.61c-2.328 0-2.66.61-2.66.61s-2.172 7.82-3.566 14.42zm216.32 20.177c0 5.6-3.99 14.413-7.482 14.413-1.22 0-2.217-1.11-2.217-3.437 0-5.155 3.324-14.58 6.926-14.58 1.884 0 2.77 1.498 2.77 3.604zm46.5-10.31c1.772 0 2.825-1.72 2.825-3.16 0-1.11-.554-2.05-1.884-2.05-1.775 0-2.828 1.718-2.828 3.16 0 1.052.61 2.05 1.885 2.05zm15.22-5.71c.445 0 .666.388.666 1.94 0 4.934-4.156 14.967-6.595 18.68 1.995-9.367 4.045-20.62 5.93-20.62zm8.962 5.71c1.773 0 2.826-1.72 2.826-3.16 0-1.11-.554-2.05-1.884-2.05-1.774 0-2.827 1.718-2.827 3.16 0 1.052.61 2.05 1.885 2.05z" fill="#fff"/></svg>