<svg xmlns="http://www.w3.org/2000/svg" width="100" height="100" viewBox="0 0 100 100"><path fill="#EFC75E" d="M50 0C22.386 0 0 22.385 0 50c0 27.614 22.386 50 50 50s50-22.386 50-50c0-27.615-22.386-50-50-50z"/><path fill="#324D5B" d="M78.846 72.895c.098-.45.154-.917.154-1.397 0-3.59-2.91-6.5-6.5-6.5s-6.5 2.91-6.5 6.5 2.91 6.5 6.5 6.5c.48 0 .945-.056 1.396-.154l9.425 9.426c1.742-1.56 3.37-3.237 4.88-5.022l-9.354-9.353z"/><path fill="#B4E7F8" d="M50 24.998c13.807 0 25 11.193 25 25s-11.193 25-25 25-25-11.193-25-25 11.193-25 25-25z"/><path fill="#2D4552" d="M75.896 75.844c-.45.1-.916.154-1.396.154-3.59 0-6.5-2.91-6.5-6.5 0-1.282.377-2.475 1.018-3.482C67.205 67.17 66 69.19 66 71.498c0 3.59 2.91 6.5 6.5 6.5.48 0 .945-.056 1.396-.154l9.425 9.426c.705-.63 1.395-1.273 2.062-1.94l-9.486-9.486z"/><path fill="#fff" d="M48.484 64.997C41.05 64.997 35 58.95 35 51.517c0-.84.68-1.518 1.516-1.518s1.516.678 1.516 1.516c0 5.763 4.69 10.45 10.453 10.45.837 0 1.516.68 1.516 1.516s-.68 1.515-1.516 1.515z"/><path fill="#3C5663" d="M50 18.998c-17.12 0-31 13.88-31 31s13.88 31 31 31 31-13.88 31-31-13.88-31-31-31zm0 56c-13.807 0-25-11.193-25-25s11.193-25 25-25 25 11.193 25 25-11.193 25-25 25z"/><path fill="#A2CFDF" d="M50 24.998c-7.667 0-14.524 3.455-19.11 8.89 4.352-3.672 9.97-5.89 16.11-5.89 13.807 0 25 11.193 25 25 0 6.14-2.217 11.76-5.89 16.11C71.545 64.522 75 57.665 75 49.998c0-13.807-11.193-25-25-25z"/></svg>