<svg xmlns="http://www.w3.org/2000/svg" width="100" height="100" viewBox="0 0 100 100"><path fill="#EFC75E" d="M50 0C22.386 0 0 22.385 0 50c0 27.614 22.386 50 50 50s50-22.387 50-50c0-27.615-22.386-50-50-50z"/><path fill="#BF392B" d="M21.988 42L30 32c3.155-4 3.045-4 6.01-4h28.016c2.957 0 2.848 0 5.996 4l7.996 10c5.396 6.008 5.29 6.008 0 12l-21.99 22c-1.934 2-4.194 4-5.997 4-1.905 0-4.07-2-6.008-4L21.988 54c-5.3-5.992-5.405-5.992 0-12z"/><path fill="#D88467" d="M34 52l16-24 16 24H34z"/><path d="M82 48v-.235c-.123-1.424-1.43-2.92-3.982-5.765l-7.996-10c-3.15-4-3.04-4-5.997-4H50s15.995 24 16 24c.177-.19 16-4 16-4zM30 32l-8.012 10c-2.546 2.83-3.854 4.327-3.987 5.745V48s15.823 3.807 16 4c.007.002 16-24 16-24H36.01c-2.965 0-2.855 0-6.01 4z" fill="#C76253"/><path fill="#DE997F" d="M50 52l15.937-23.906c-.488-.09-1.076-.094-1.912-.094H36.01c-.854 0-1.45.003-1.944.1L50 52z"/><path d="M32.116 29.39L34 52l16-24H36.01c-2.08 0-2.65.006-3.894 1.39zm35.77-.027C66.662 28.005 66.09 28 64.027 28H50l16 24 1.887-22.637z" fill="#CE7863"/><path fill="#C5543B" d="M66 52H34l13.545 27.09c.85.55 1.69.91 2.485.91.746 0 1.57-.354 2.418-.896L66 52z"/></svg>